G04 #@! TF.GenerationSoftware,KiCad,Pcbnew,10.0.4-10.0.4~ubuntu24.04.1*
G04 #@! TF.CreationDate,2026-09-11T02:22:27+06:00*
G04 #@! TF.ProjectId,designedbykoda businesscard,64657369-676e-4656-9462-796b6f646120,rev?*
G04 #@! TF.SameCoordinates,Original*
G04 #@! TF.FileFunction,Legend,Bot*
G04 #@! TF.FilePolarity,Positive*
%FSLAX46Y46*%
G04 Gerber Fmt 4.6, Leading zero omitted, Abs format (unit mm)*
G04 Created by KiCad (PCBNEW 10.0.4-10.0.4~ubuntu24.04.1) date 2026-09-11 02:22:27*
%MOMM*%
%LPD*%
G01*
G04 APERTURE LIST*
%ADD10C,0.000000*%
%ADD11C,0.250000*%
%ADD12C,0.300000*%
%ADD13C,0.120000*%
%ADD14C,0.200000*%
G04 APERTURE END LIST*
D10*
G36*
X111951811Y-76866520D02*
G01*
X111315162Y-76866520D01*
X111315162Y-76229866D01*
X111951811Y-76229866D01*
X111951811Y-76866520D01*
G37*
G36*
X112588460Y-76866520D02*
G01*
X111951811Y-76866520D01*
X111951811Y-76229866D01*
X112588460Y-76229866D01*
X112588460Y-76866520D01*
G37*
G36*
X113861764Y-76866520D02*
G01*
X113225111Y-76866520D01*
X113225111Y-76229866D01*
X113861764Y-76229866D01*
X113861764Y-76866520D01*
G37*
G36*
X114498416Y-76866520D02*
G01*
X113861764Y-76866520D01*
X113861764Y-76229866D01*
X114498416Y-76229866D01*
X114498416Y-76866520D01*
G37*
G36*
X120864931Y-68590047D02*
G01*
X120228284Y-68590047D01*
X120228284Y-67953398D01*
X120864931Y-67953398D01*
X120864931Y-68590047D01*
G37*
G36*
X122138236Y-68590047D02*
G01*
X121501586Y-68590047D01*
X121501586Y-67953398D01*
X122138236Y-67953398D01*
X122138236Y-68590047D01*
G37*
G36*
X114498416Y-69226696D02*
G01*
X113861764Y-69226696D01*
X113861764Y-68590047D01*
X114498416Y-68590047D01*
X114498416Y-69226696D01*
G37*
G36*
X116408372Y-72409953D02*
G01*
X115771717Y-72409953D01*
X115771717Y-71773305D01*
X116408372Y-71773305D01*
X116408372Y-72409953D01*
G37*
G36*
X117681672Y-72409953D02*
G01*
X117045023Y-72409953D01*
X117045023Y-71773305D01*
X117681672Y-71773305D01*
X117681672Y-72409953D01*
G37*
G36*
X118318328Y-72409953D02*
G01*
X117681672Y-72409953D01*
X117681672Y-71773305D01*
X118318328Y-71773305D01*
X118318328Y-72409953D01*
G37*
G36*
X118954978Y-72409953D02*
G01*
X118318328Y-72409953D01*
X118318328Y-71773305D01*
X118954978Y-71773305D01*
X118954978Y-72409953D01*
G37*
G36*
X120864931Y-66043442D02*
G01*
X120228284Y-66043442D01*
X120228284Y-65406777D01*
X120864931Y-65406777D01*
X120864931Y-66043442D01*
G37*
G36*
X120228284Y-70500000D02*
G01*
X119591630Y-70500000D01*
X119591630Y-69863347D01*
X120228284Y-69863347D01*
X120228284Y-70500000D01*
G37*
G36*
X120864931Y-70500000D02*
G01*
X120228284Y-70500000D01*
X120228284Y-69863347D01*
X120864931Y-69863347D01*
X120864931Y-70500000D01*
G37*
G36*
X122138236Y-70500000D02*
G01*
X121501586Y-70500000D01*
X121501586Y-69863347D01*
X122138236Y-69863347D01*
X122138236Y-70500000D01*
G37*
G36*
X113225111Y-71136652D02*
G01*
X112588460Y-71136652D01*
X112588460Y-70500000D01*
X113225111Y-70500000D01*
X113225111Y-71136652D01*
G37*
G36*
X114498416Y-71136652D02*
G01*
X113861764Y-71136652D01*
X113861764Y-70500000D01*
X114498416Y-70500000D01*
X114498416Y-71136652D01*
G37*
G36*
X115771717Y-71136652D02*
G01*
X115135069Y-71136652D01*
X115135069Y-70500000D01*
X115771717Y-70500000D01*
X115771717Y-71136652D01*
G37*
G36*
X116408372Y-71136652D02*
G01*
X115771717Y-71136652D01*
X115771717Y-70500000D01*
X116408372Y-70500000D01*
X116408372Y-71136652D01*
G37*
G36*
X119591630Y-67953398D02*
G01*
X118954978Y-67953398D01*
X118954978Y-67316743D01*
X119591630Y-67316743D01*
X119591630Y-67953398D01*
G37*
G36*
X120864931Y-67953398D02*
G01*
X120228284Y-67953398D01*
X120228284Y-67316743D01*
X120864931Y-67316743D01*
X120864931Y-67953398D01*
G37*
G36*
X115771717Y-68590047D02*
G01*
X115135069Y-68590047D01*
X115135069Y-67953398D01*
X115771717Y-67953398D01*
X115771717Y-68590047D01*
G37*
G36*
X120228284Y-68590047D02*
G01*
X119591630Y-68590047D01*
X119591630Y-67953398D01*
X120228284Y-67953398D01*
X120228284Y-68590047D01*
G37*
G36*
X118318328Y-71136652D02*
G01*
X117681672Y-71136652D01*
X117681672Y-70500000D01*
X118318328Y-70500000D01*
X118318328Y-71136652D01*
G37*
G36*
X119591630Y-71136652D02*
G01*
X118954978Y-71136652D01*
X118954978Y-70500000D01*
X119591630Y-70500000D01*
X119591630Y-71136652D01*
G37*
G36*
X121501586Y-71136652D02*
G01*
X120864931Y-71136652D01*
X120864931Y-70500000D01*
X121501586Y-70500000D01*
X121501586Y-71136652D01*
G37*
G36*
X122774889Y-71136652D02*
G01*
X122138236Y-71136652D01*
X122138236Y-70500000D01*
X122774889Y-70500000D01*
X122774889Y-71136652D01*
G37*
G36*
X124048189Y-76866520D02*
G01*
X123411541Y-76866520D01*
X123411541Y-76229866D01*
X124048189Y-76229866D01*
X124048189Y-76866520D01*
G37*
G36*
X125321494Y-76866520D02*
G01*
X124684840Y-76866520D01*
X124684840Y-76229866D01*
X125321494Y-76229866D01*
X125321494Y-76866520D01*
G37*
G36*
X127231459Y-76866520D02*
G01*
X126594794Y-76866520D01*
X126594794Y-76229866D01*
X127231459Y-76229866D01*
X127231459Y-76866520D01*
G37*
G36*
X109405206Y-77503167D02*
G01*
X108768541Y-77503167D01*
X108768541Y-76866520D01*
X109405206Y-76866520D01*
X109405206Y-77503167D01*
G37*
G36*
X118318328Y-79413125D02*
G01*
X117681672Y-79413125D01*
X117681672Y-78776472D01*
X118318328Y-78776472D01*
X118318328Y-79413125D01*
G37*
G36*
X118954978Y-79413125D02*
G01*
X118318328Y-79413125D01*
X118318328Y-78776472D01*
X118954978Y-78776472D01*
X118954978Y-79413125D01*
G37*
G36*
X121501586Y-79413125D02*
G01*
X120864931Y-79413125D01*
X120864931Y-78776472D01*
X121501586Y-78776472D01*
X121501586Y-79413125D01*
G37*
G36*
X122138236Y-79413125D02*
G01*
X121501586Y-79413125D01*
X121501586Y-78776472D01*
X122138236Y-78776472D01*
X122138236Y-79413125D01*
G37*
G36*
X111315162Y-76229866D02*
G01*
X110678507Y-76229866D01*
X110678507Y-75593214D01*
X111315162Y-75593214D01*
X111315162Y-76229866D01*
G37*
G36*
X113225111Y-76229866D02*
G01*
X112588460Y-76229866D01*
X112588460Y-75593214D01*
X113225111Y-75593214D01*
X113225111Y-76229866D01*
G37*
G36*
X115771717Y-76229866D02*
G01*
X115135069Y-76229866D01*
X115135069Y-75593214D01*
X115771717Y-75593214D01*
X115771717Y-76229866D01*
G37*
G36*
X116408372Y-76229866D02*
G01*
X115771717Y-76229866D01*
X115771717Y-75593214D01*
X116408372Y-75593214D01*
X116408372Y-76229866D01*
G37*
G36*
X109405206Y-71136652D02*
G01*
X108768541Y-71136652D01*
X108768541Y-70500000D01*
X109405206Y-70500000D01*
X109405206Y-71136652D01*
G37*
G36*
X111315162Y-71136652D02*
G01*
X110678507Y-71136652D01*
X110678507Y-70500000D01*
X111315162Y-70500000D01*
X111315162Y-71136652D01*
G37*
G36*
X112588460Y-71136652D02*
G01*
X111951811Y-71136652D01*
X111951811Y-70500000D01*
X112588460Y-70500000D01*
X112588460Y-71136652D01*
G37*
G36*
X125958148Y-68590047D02*
G01*
X124048189Y-68590047D01*
X124048189Y-66680090D01*
X125958148Y-66680090D01*
X125958148Y-68590047D01*
G37*
G36*
X111951811Y-82596384D02*
G01*
X110041854Y-82596384D01*
X110041854Y-80686425D01*
X111951811Y-80686425D01*
X111951811Y-82596384D01*
G37*
G36*
X124684840Y-79413125D02*
G01*
X124048189Y-79413125D01*
X124048189Y-78776472D01*
X124684840Y-78776472D01*
X124684840Y-79413125D01*
G37*
G36*
X125958148Y-79413125D02*
G01*
X125321494Y-79413125D01*
X125321494Y-78776472D01*
X125958148Y-78776472D01*
X125958148Y-79413125D01*
G37*
G36*
X126594794Y-79413125D02*
G01*
X125958148Y-79413125D01*
X125958148Y-78776472D01*
X126594794Y-78776472D01*
X126594794Y-79413125D01*
G37*
G36*
X127231459Y-79413125D02*
G01*
X126594794Y-79413125D01*
X126594794Y-78776472D01*
X127231459Y-78776472D01*
X127231459Y-79413125D01*
G37*
G36*
X119591630Y-81323076D02*
G01*
X118954978Y-81323076D01*
X118954978Y-80686425D01*
X119591630Y-80686425D01*
X119591630Y-81323076D01*
G37*
G36*
X120228284Y-81323076D02*
G01*
X119591630Y-81323076D01*
X119591630Y-80686425D01*
X120228284Y-80686425D01*
X120228284Y-81323076D01*
G37*
G36*
X122138236Y-81323076D02*
G01*
X121501586Y-81323076D01*
X121501586Y-80686425D01*
X122138236Y-80686425D01*
X122138236Y-81323076D01*
G37*
G36*
X122774889Y-81323076D02*
G01*
X122138236Y-81323076D01*
X122138236Y-80686425D01*
X122774889Y-80686425D01*
X122774889Y-81323076D01*
G37*
G36*
X121501586Y-81959730D02*
G01*
X120864931Y-81959730D01*
X120864931Y-81323076D01*
X121501586Y-81323076D01*
X121501586Y-81959730D01*
G37*
G36*
X123411541Y-81959730D02*
G01*
X122774889Y-81959730D01*
X122774889Y-81323076D01*
X123411541Y-81323076D01*
X123411541Y-81959730D01*
G37*
G36*
X124048189Y-81959730D02*
G01*
X123411541Y-81959730D01*
X123411541Y-81323076D01*
X124048189Y-81323076D01*
X124048189Y-81959730D01*
G37*
G36*
X124684840Y-81959730D02*
G01*
X124048189Y-81959730D01*
X124048189Y-81323076D01*
X124684840Y-81323076D01*
X124684840Y-81959730D01*
G37*
G36*
X125321494Y-81959730D02*
G01*
X124684840Y-81959730D01*
X124684840Y-81323076D01*
X125321494Y-81323076D01*
X125321494Y-81959730D01*
G37*
G36*
X120864931Y-83233030D02*
G01*
X120228284Y-83233030D01*
X120228284Y-82596384D01*
X120864931Y-82596384D01*
X120864931Y-83233030D01*
G37*
G36*
X121501586Y-83233030D02*
G01*
X120864931Y-83233030D01*
X120864931Y-82596384D01*
X121501586Y-82596384D01*
X121501586Y-83233030D01*
G37*
G36*
X122138236Y-83233030D02*
G01*
X121501586Y-83233030D01*
X121501586Y-82596384D01*
X122138236Y-82596384D01*
X122138236Y-83233030D01*
G37*
G36*
X122774889Y-83233030D02*
G01*
X122138236Y-83233030D01*
X122138236Y-82596384D01*
X122774889Y-82596384D01*
X122774889Y-83233030D01*
G37*
G36*
X126594794Y-83233030D02*
G01*
X125958148Y-83233030D01*
X125958148Y-82596384D01*
X126594794Y-82596384D01*
X126594794Y-83233030D01*
G37*
G36*
X118318328Y-67316743D02*
G01*
X117681672Y-67316743D01*
X117681672Y-66680090D01*
X118318328Y-66680090D01*
X118318328Y-67316743D01*
G37*
G36*
X118954978Y-67316743D02*
G01*
X118318328Y-67316743D01*
X118318328Y-66680090D01*
X118954978Y-66680090D01*
X118954978Y-67316743D01*
G37*
G36*
X120228284Y-67316743D02*
G01*
X119591630Y-67316743D01*
X119591630Y-66680090D01*
X120228284Y-66680090D01*
X120228284Y-67316743D01*
G37*
G36*
X121501586Y-67316743D02*
G01*
X120864931Y-67316743D01*
X120864931Y-66680090D01*
X121501586Y-66680090D01*
X121501586Y-67316743D01*
G37*
G36*
X114498416Y-81959730D02*
G01*
X113861764Y-81959730D01*
X113861764Y-81323076D01*
X114498416Y-81323076D01*
X114498416Y-81959730D01*
G37*
G36*
X115771717Y-81959730D02*
G01*
X115135069Y-81959730D01*
X115135069Y-81323076D01*
X115771717Y-81323076D01*
X115771717Y-81959730D01*
G37*
G36*
X117045023Y-81959730D02*
G01*
X116408372Y-81959730D01*
X116408372Y-81323076D01*
X117045023Y-81323076D01*
X117045023Y-81959730D01*
G37*
G36*
X117681672Y-81959730D02*
G01*
X117045023Y-81959730D01*
X117045023Y-81323076D01*
X117681672Y-81323076D01*
X117681672Y-81959730D01*
G37*
G36*
X118318328Y-74956564D02*
G01*
X117681672Y-74956564D01*
X117681672Y-74319908D01*
X118318328Y-74319908D01*
X118318328Y-74956564D01*
G37*
G36*
X120228284Y-74956564D02*
G01*
X119591630Y-74956564D01*
X119591630Y-74319908D01*
X120228284Y-74319908D01*
X120228284Y-74956564D01*
G37*
G36*
X122138236Y-74956564D02*
G01*
X121501586Y-74956564D01*
X121501586Y-74319908D01*
X122138236Y-74319908D01*
X122138236Y-74956564D01*
G37*
G36*
X122774889Y-74956564D02*
G01*
X122138236Y-74956564D01*
X122138236Y-74319908D01*
X122774889Y-74319908D01*
X122774889Y-74956564D01*
G37*
G36*
X119591630Y-69863347D02*
G01*
X118954978Y-69863347D01*
X118954978Y-69226696D01*
X119591630Y-69226696D01*
X119591630Y-69863347D01*
G37*
G36*
X120864931Y-69863347D02*
G01*
X120228284Y-69863347D01*
X120228284Y-69226696D01*
X120864931Y-69226696D01*
X120864931Y-69863347D01*
G37*
G36*
X122138236Y-69863347D02*
G01*
X121501586Y-69863347D01*
X121501586Y-69226696D01*
X122138236Y-69226696D01*
X122138236Y-69863347D01*
G37*
G36*
X113225111Y-74956564D02*
G01*
X112588460Y-74956564D01*
X112588460Y-74319908D01*
X113225111Y-74319908D01*
X113225111Y-74956564D01*
G37*
G36*
X114498416Y-74956564D02*
G01*
X113861764Y-74956564D01*
X113861764Y-74319908D01*
X114498416Y-74319908D01*
X114498416Y-74956564D01*
G37*
G36*
X115135069Y-74956564D02*
G01*
X114498416Y-74956564D01*
X114498416Y-74319908D01*
X115135069Y-74319908D01*
X115135069Y-74956564D01*
G37*
G36*
X117681672Y-74956564D02*
G01*
X117045023Y-74956564D01*
X117045023Y-74319908D01*
X117681672Y-74319908D01*
X117681672Y-74956564D01*
G37*
G36*
X117681672Y-71773305D02*
G01*
X117045023Y-71773305D01*
X117045023Y-71136652D01*
X117681672Y-71136652D01*
X117681672Y-71773305D01*
G37*
G36*
X118954978Y-71773305D02*
G01*
X118318328Y-71773305D01*
X118318328Y-71136652D01*
X118954978Y-71136652D01*
X118954978Y-71773305D01*
G37*
G36*
X119591630Y-71773305D02*
G01*
X118954978Y-71773305D01*
X118954978Y-71136652D01*
X119591630Y-71136652D01*
X119591630Y-71773305D01*
G37*
G36*
X122138236Y-71773305D02*
G01*
X121501586Y-71773305D01*
X121501586Y-71136652D01*
X122138236Y-71136652D01*
X122138236Y-71773305D01*
G37*
G36*
X118318328Y-80686425D02*
G01*
X117681672Y-80686425D01*
X117681672Y-80049777D01*
X118318328Y-80049777D01*
X118318328Y-80686425D01*
G37*
G36*
X118954978Y-80686425D02*
G01*
X118318328Y-80686425D01*
X118318328Y-80049777D01*
X118954978Y-80049777D01*
X118954978Y-80686425D01*
G37*
G36*
X120864931Y-80686425D02*
G01*
X120228284Y-80686425D01*
X120228284Y-80049777D01*
X120864931Y-80049777D01*
X120864931Y-80686425D01*
G37*
G36*
X121501586Y-80686425D02*
G01*
X120864931Y-80686425D01*
X120864931Y-80049777D01*
X121501586Y-80049777D01*
X121501586Y-80686425D01*
G37*
G36*
X122774889Y-71773305D02*
G01*
X122138236Y-71773305D01*
X122138236Y-71136652D01*
X122774889Y-71136652D01*
X122774889Y-71773305D01*
G37*
G36*
X123411541Y-71773305D02*
G01*
X122774889Y-71773305D01*
X122774889Y-71136652D01*
X123411541Y-71136652D01*
X123411541Y-71773305D01*
G37*
G36*
X125321494Y-71773305D02*
G01*
X124684840Y-71773305D01*
X124684840Y-71136652D01*
X125321494Y-71136652D01*
X125321494Y-71773305D01*
G37*
G36*
X127231459Y-71773305D02*
G01*
X126594794Y-71773305D01*
X126594794Y-71136652D01*
X127231459Y-71136652D01*
X127231459Y-71773305D01*
G37*
G36*
X109405206Y-72409953D02*
G01*
X108768541Y-72409953D01*
X108768541Y-71773305D01*
X109405206Y-71773305D01*
X109405206Y-72409953D01*
G37*
G36*
X111315162Y-72409953D02*
G01*
X110678507Y-72409953D01*
X110678507Y-71773305D01*
X111315162Y-71773305D01*
X111315162Y-72409953D01*
G37*
G36*
X112588460Y-72409953D02*
G01*
X111951811Y-72409953D01*
X111951811Y-71773305D01*
X112588460Y-71773305D01*
X112588460Y-72409953D01*
G37*
G36*
X113225111Y-72409953D02*
G01*
X112588460Y-72409953D01*
X112588460Y-71773305D01*
X113225111Y-71773305D01*
X113225111Y-72409953D01*
G37*
G36*
X113861764Y-75593214D02*
G01*
X113225111Y-75593214D01*
X113225111Y-74956564D01*
X113861764Y-74956564D01*
X113861764Y-75593214D01*
G37*
G36*
X115135069Y-75593214D02*
G01*
X114498416Y-75593214D01*
X114498416Y-74956564D01*
X115135069Y-74956564D01*
X115135069Y-75593214D01*
G37*
G36*
X117045023Y-75593214D02*
G01*
X116408372Y-75593214D01*
X116408372Y-74956564D01*
X117045023Y-74956564D01*
X117045023Y-75593214D01*
G37*
G36*
X118954978Y-75593214D02*
G01*
X118318328Y-75593214D01*
X118318328Y-74956564D01*
X118954978Y-74956564D01*
X118954978Y-75593214D01*
G37*
G36*
X121501586Y-73683259D02*
G01*
X120864931Y-73683259D01*
X120864931Y-73046608D01*
X121501586Y-73046608D01*
X121501586Y-73683259D01*
G37*
G36*
X122138236Y-73683259D02*
G01*
X121501586Y-73683259D01*
X121501586Y-73046608D01*
X122138236Y-73046608D01*
X122138236Y-73683259D01*
G37*
G36*
X122774889Y-73683259D02*
G01*
X122138236Y-73683259D01*
X122138236Y-73046608D01*
X122774889Y-73046608D01*
X122774889Y-73683259D01*
G37*
G36*
X123411541Y-73683259D02*
G01*
X122774889Y-73683259D01*
X122774889Y-73046608D01*
X123411541Y-73046608D01*
X123411541Y-73683259D01*
G37*
G36*
X125958148Y-81959730D02*
G01*
X125321494Y-81959730D01*
X125321494Y-81323076D01*
X125958148Y-81323076D01*
X125958148Y-81959730D01*
G37*
G36*
X127231459Y-81959730D02*
G01*
X126594794Y-81959730D01*
X126594794Y-81323076D01*
X127231459Y-81323076D01*
X127231459Y-81959730D01*
G37*
G36*
X116408372Y-82596384D02*
G01*
X115771717Y-82596384D01*
X115771717Y-81959730D01*
X116408372Y-81959730D01*
X116408372Y-82596384D01*
G37*
G36*
X117681672Y-82596384D02*
G01*
X117045023Y-82596384D01*
X117045023Y-81959730D01*
X117681672Y-81959730D01*
X117681672Y-82596384D01*
G37*
G36*
X119591630Y-82596384D02*
G01*
X118954978Y-82596384D01*
X118954978Y-81959730D01*
X119591630Y-81959730D01*
X119591630Y-82596384D01*
G37*
G36*
X117681672Y-70500000D02*
G01*
X117045023Y-70500000D01*
X117045023Y-69863347D01*
X117681672Y-69863347D01*
X117681672Y-70500000D01*
G37*
G36*
X118954978Y-70500000D02*
G01*
X118318328Y-70500000D01*
X118318328Y-69863347D01*
X118954978Y-69863347D01*
X118954978Y-70500000D01*
G37*
G36*
X119591630Y-70500000D02*
G01*
X118954978Y-70500000D01*
X118954978Y-69863347D01*
X119591630Y-69863347D01*
X119591630Y-70500000D01*
G37*
G36*
X115771717Y-80049777D02*
G01*
X115135069Y-80049777D01*
X115135069Y-79413125D01*
X115771717Y-79413125D01*
X115771717Y-80049777D01*
G37*
G36*
X117045023Y-80049777D02*
G01*
X116408372Y-80049777D01*
X116408372Y-79413125D01*
X117045023Y-79413125D01*
X117045023Y-80049777D01*
G37*
G36*
X119591630Y-80049777D02*
G01*
X118954978Y-80049777D01*
X118954978Y-79413125D01*
X119591630Y-79413125D01*
X119591630Y-80049777D01*
G37*
G36*
X120864931Y-80049777D02*
G01*
X120228284Y-80049777D01*
X120228284Y-79413125D01*
X120864931Y-79413125D01*
X120864931Y-80049777D01*
G37*
G36*
X116408372Y-74319908D02*
G01*
X115771717Y-74319908D01*
X115771717Y-73683259D01*
X116408372Y-73683259D01*
X116408372Y-74319908D01*
G37*
G36*
X117681672Y-74319908D02*
G01*
X117045023Y-74319908D01*
X117045023Y-73683259D01*
X117681672Y-73683259D01*
X117681672Y-74319908D01*
G37*
G36*
X118318328Y-74319908D02*
G01*
X117681672Y-74319908D01*
X117681672Y-73683259D01*
X118318328Y-73683259D01*
X118318328Y-74319908D01*
G37*
G36*
X118954978Y-74319908D02*
G01*
X118318328Y-74319908D01*
X118318328Y-73683259D01*
X118954978Y-73683259D01*
X118954978Y-74319908D01*
G37*
G36*
X125321494Y-75593214D02*
G01*
X124684840Y-75593214D01*
X124684840Y-74956564D01*
X125321494Y-74956564D01*
X125321494Y-75593214D01*
G37*
G36*
X126594794Y-75593214D02*
G01*
X125958148Y-75593214D01*
X125958148Y-74956564D01*
X126594794Y-74956564D01*
X126594794Y-75593214D01*
G37*
G36*
X110041854Y-76229866D02*
G01*
X109405206Y-76229866D01*
X109405206Y-75593214D01*
X110041854Y-75593214D01*
X110041854Y-76229866D01*
G37*
G36*
X110678507Y-76229866D02*
G01*
X110041854Y-76229866D01*
X110041854Y-75593214D01*
X110678507Y-75593214D01*
X110678507Y-76229866D01*
G37*
G36*
X122138236Y-67316743D02*
G01*
X121501586Y-67316743D01*
X121501586Y-66680090D01*
X122138236Y-66680090D01*
X122138236Y-67316743D01*
G37*
G36*
X116408372Y-67953398D02*
G01*
X115771717Y-67953398D01*
X115771717Y-67316743D01*
X116408372Y-67316743D01*
X116408372Y-67953398D01*
G37*
G36*
X117045023Y-67953398D02*
G01*
X116408372Y-67953398D01*
X116408372Y-67316743D01*
X117045023Y-67316743D01*
X117045023Y-67953398D01*
G37*
G36*
X117681672Y-67953398D02*
G01*
X117045023Y-67953398D01*
X117045023Y-67316743D01*
X117681672Y-67316743D01*
X117681672Y-67953398D01*
G37*
G36*
X119591630Y-74319908D02*
G01*
X118954978Y-74319908D01*
X118954978Y-73683259D01*
X119591630Y-73683259D01*
X119591630Y-74319908D01*
G37*
G36*
X121501586Y-74319908D02*
G01*
X120864931Y-74319908D01*
X120864931Y-73683259D01*
X121501586Y-73683259D01*
X121501586Y-74319908D01*
G37*
G36*
X122138236Y-74319908D02*
G01*
X121501586Y-74319908D01*
X121501586Y-73683259D01*
X122138236Y-73683259D01*
X122138236Y-74319908D01*
G37*
G36*
X122774889Y-74319908D02*
G01*
X122138236Y-74319908D01*
X122138236Y-73683259D01*
X122774889Y-73683259D01*
X122774889Y-74319908D01*
G37*
G36*
X118318328Y-66043442D02*
G01*
X117681672Y-66043442D01*
X117681672Y-65406777D01*
X118318328Y-65406777D01*
X118318328Y-66043442D01*
G37*
G36*
X119591630Y-69226696D02*
G01*
X118954978Y-69226696D01*
X118954978Y-68590047D01*
X119591630Y-68590047D01*
X119591630Y-69226696D01*
G37*
G36*
X121501586Y-69226696D02*
G01*
X120864931Y-69226696D01*
X120864931Y-68590047D01*
X121501586Y-68590047D01*
X121501586Y-69226696D01*
G37*
G36*
X114498416Y-69863347D02*
G01*
X113861764Y-69863347D01*
X113861764Y-69226696D01*
X114498416Y-69226696D01*
X114498416Y-69863347D01*
G37*
G36*
X123411541Y-81323076D02*
G01*
X122774889Y-81323076D01*
X122774889Y-80686425D01*
X123411541Y-80686425D01*
X123411541Y-81323076D01*
G37*
G36*
X124048189Y-81323076D02*
G01*
X123411541Y-81323076D01*
X123411541Y-80686425D01*
X124048189Y-80686425D01*
X124048189Y-81323076D01*
G37*
G36*
X124684840Y-81323076D02*
G01*
X124048189Y-81323076D01*
X124048189Y-80686425D01*
X124684840Y-80686425D01*
X124684840Y-81323076D01*
G37*
G36*
X126594794Y-81323076D02*
G01*
X125958148Y-81323076D01*
X125958148Y-80686425D01*
X126594794Y-80686425D01*
X126594794Y-81323076D01*
G37*
G36*
X110041854Y-73683259D02*
G01*
X109405206Y-73683259D01*
X109405206Y-73046608D01*
X110041854Y-73046608D01*
X110041854Y-73683259D01*
G37*
G36*
X110678507Y-73683259D02*
G01*
X110041854Y-73683259D01*
X110041854Y-73046608D01*
X110678507Y-73046608D01*
X110678507Y-73683259D01*
G37*
G36*
X111951811Y-73683259D02*
G01*
X111315162Y-73683259D01*
X111315162Y-73046608D01*
X111951811Y-73046608D01*
X111951811Y-73683259D01*
G37*
G36*
X112588460Y-73683259D02*
G01*
X111951811Y-73683259D01*
X111951811Y-73046608D01*
X112588460Y-73046608D01*
X112588460Y-73683259D01*
G37*
G36*
X115771717Y-69863347D02*
G01*
X115135069Y-69863347D01*
X115135069Y-69226696D01*
X115771717Y-69226696D01*
X115771717Y-69863347D01*
G37*
G36*
X117045023Y-69863347D02*
G01*
X116408372Y-69863347D01*
X116408372Y-69226696D01*
X117045023Y-69226696D01*
X117045023Y-69863347D01*
G37*
G36*
X118318328Y-69863347D02*
G01*
X117681672Y-69863347D01*
X117681672Y-69226696D01*
X118318328Y-69226696D01*
X118318328Y-69863347D01*
G37*
G36*
X120864931Y-73046608D02*
G01*
X120228284Y-73046608D01*
X120228284Y-72409953D01*
X120864931Y-72409953D01*
X120864931Y-73046608D01*
G37*
G36*
X124048189Y-73046608D02*
G01*
X123411541Y-73046608D01*
X123411541Y-72409953D01*
X124048189Y-72409953D01*
X124048189Y-73046608D01*
G37*
G36*
X125958148Y-73046608D02*
G01*
X125321494Y-73046608D01*
X125321494Y-72409953D01*
X125958148Y-72409953D01*
X125958148Y-73046608D01*
G37*
G36*
X126594794Y-73046608D02*
G01*
X125958148Y-73046608D01*
X125958148Y-72409953D01*
X126594794Y-72409953D01*
X126594794Y-73046608D01*
G37*
G36*
X122138236Y-80049777D02*
G01*
X121501586Y-80049777D01*
X121501586Y-79413125D01*
X122138236Y-79413125D01*
X122138236Y-80049777D01*
G37*
G36*
X123411541Y-80049777D02*
G01*
X122774889Y-80049777D01*
X122774889Y-79413125D01*
X123411541Y-79413125D01*
X123411541Y-80049777D01*
G37*
G36*
X124684840Y-80049777D02*
G01*
X124048189Y-80049777D01*
X124048189Y-79413125D01*
X124684840Y-79413125D01*
X124684840Y-80049777D01*
G37*
G36*
X126594794Y-80049777D02*
G01*
X125958148Y-80049777D01*
X125958148Y-79413125D01*
X126594794Y-79413125D01*
X126594794Y-80049777D01*
G37*
G36*
X118318328Y-78139822D02*
G01*
X117681672Y-78139822D01*
X117681672Y-77503167D01*
X118318328Y-77503167D01*
X118318328Y-78139822D01*
G37*
G36*
X120228284Y-78139822D02*
G01*
X119591630Y-78139822D01*
X119591630Y-77503167D01*
X120228284Y-77503167D01*
X120228284Y-78139822D01*
G37*
G36*
X120864931Y-78139822D02*
G01*
X120228284Y-78139822D01*
X120228284Y-77503167D01*
X120864931Y-77503167D01*
X120864931Y-78139822D01*
G37*
G36*
X121501586Y-78139822D02*
G01*
X120864931Y-78139822D01*
X120864931Y-77503167D01*
X121501586Y-77503167D01*
X121501586Y-78139822D01*
G37*
G36*
X117045023Y-66680090D02*
G01*
X116408372Y-66680090D01*
X116408372Y-66043442D01*
X117045023Y-66043442D01*
X117045023Y-66680090D01*
G37*
G36*
X118318328Y-76866520D02*
G01*
X117681672Y-76866520D01*
X117681672Y-76229866D01*
X118318328Y-76229866D01*
X118318328Y-76866520D01*
G37*
G36*
X118954978Y-76866520D02*
G01*
X118318328Y-76866520D01*
X118318328Y-76229866D01*
X118954978Y-76229866D01*
X118954978Y-76866520D01*
G37*
G36*
X119591630Y-76866520D02*
G01*
X118954978Y-76866520D01*
X118954978Y-76229866D01*
X119591630Y-76229866D01*
X119591630Y-76866520D01*
G37*
G36*
X123411541Y-76866520D02*
G01*
X122774889Y-76866520D01*
X122774889Y-76229866D01*
X123411541Y-76229866D01*
X123411541Y-76866520D01*
G37*
G36*
X125958148Y-82596384D02*
G01*
X125321494Y-82596384D01*
X125321494Y-81959730D01*
X125958148Y-81959730D01*
X125958148Y-82596384D01*
G37*
G36*
X127231459Y-82596384D02*
G01*
X126594794Y-82596384D01*
X126594794Y-81959730D01*
X127231459Y-81959730D01*
X127231459Y-82596384D01*
G37*
G36*
X115135069Y-83233030D02*
G01*
X114498416Y-83233030D01*
X114498416Y-82596384D01*
X115135069Y-82596384D01*
X115135069Y-83233030D01*
G37*
G36*
X115771717Y-83233030D02*
G01*
X115135069Y-83233030D01*
X115135069Y-82596384D01*
X115771717Y-82596384D01*
X115771717Y-83233030D01*
G37*
G36*
X117045023Y-83233030D02*
G01*
X116408372Y-83233030D01*
X116408372Y-82596384D01*
X117045023Y-82596384D01*
X117045023Y-83233030D01*
G37*
G36*
X113861764Y-71773305D02*
G01*
X113225111Y-71773305D01*
X113225111Y-71136652D01*
X113861764Y-71136652D01*
X113861764Y-71773305D01*
G37*
G36*
X115771717Y-71773305D02*
G01*
X115135069Y-71773305D01*
X115135069Y-71136652D01*
X115771717Y-71136652D01*
X115771717Y-71773305D01*
G37*
G36*
X116408372Y-71773305D02*
G01*
X115771717Y-71773305D01*
X115771717Y-71136652D01*
X116408372Y-71136652D01*
X116408372Y-71773305D01*
G37*
G36*
X117045023Y-71773305D02*
G01*
X116408372Y-71773305D01*
X116408372Y-71136652D01*
X117045023Y-71136652D01*
X117045023Y-71773305D01*
G37*
G36*
X121501586Y-66043442D02*
G01*
X120864931Y-66043442D01*
X120864931Y-65406777D01*
X121501586Y-65406777D01*
X121501586Y-66043442D01*
G37*
G36*
X120228284Y-75593214D02*
G01*
X119591630Y-75593214D01*
X119591630Y-74956564D01*
X120228284Y-74956564D01*
X120228284Y-75593214D01*
G37*
G36*
X120864931Y-75593214D02*
G01*
X120228284Y-75593214D01*
X120228284Y-74956564D01*
X120864931Y-74956564D01*
X120864931Y-75593214D01*
G37*
G36*
X123411541Y-75593214D02*
G01*
X122774889Y-75593214D01*
X122774889Y-74956564D01*
X123411541Y-74956564D01*
X123411541Y-75593214D01*
G37*
G36*
X124048189Y-75593214D02*
G01*
X123411541Y-75593214D01*
X123411541Y-74956564D01*
X124048189Y-74956564D01*
X124048189Y-75593214D01*
G37*
G36*
X114498416Y-80686425D02*
G01*
X113861764Y-80686425D01*
X113861764Y-80049777D01*
X114498416Y-80049777D01*
X114498416Y-80686425D01*
G37*
G36*
X115135069Y-80686425D02*
G01*
X114498416Y-80686425D01*
X114498416Y-80049777D01*
X115135069Y-80049777D01*
X115135069Y-80686425D01*
G37*
G36*
X116408372Y-80686425D02*
G01*
X115771717Y-80686425D01*
X115771717Y-80049777D01*
X116408372Y-80049777D01*
X116408372Y-80686425D01*
G37*
G36*
X117045023Y-80686425D02*
G01*
X116408372Y-80686425D01*
X116408372Y-80049777D01*
X117045023Y-80049777D01*
X117045023Y-80686425D01*
G37*
G36*
X126594794Y-77503167D02*
G01*
X125958148Y-77503167D01*
X125958148Y-76866520D01*
X126594794Y-76866520D01*
X126594794Y-77503167D01*
G37*
G36*
X127231459Y-77503167D02*
G01*
X126594794Y-77503167D01*
X126594794Y-76866520D01*
X127231459Y-76866520D01*
X127231459Y-77503167D01*
G37*
G36*
X110678507Y-78139822D02*
G01*
X110041854Y-78139822D01*
X110041854Y-77503167D01*
X110678507Y-77503167D01*
X110678507Y-78139822D01*
G37*
G36*
X111315162Y-78139822D02*
G01*
X110678507Y-78139822D01*
X110678507Y-77503167D01*
X111315162Y-77503167D01*
X111315162Y-78139822D01*
G37*
G36*
X113225111Y-73683259D02*
G01*
X112588460Y-73683259D01*
X112588460Y-73046608D01*
X113225111Y-73046608D01*
X113225111Y-73683259D01*
G37*
G36*
X113861764Y-73683259D02*
G01*
X113225111Y-73683259D01*
X113225111Y-73046608D01*
X113861764Y-73046608D01*
X113861764Y-73683259D01*
G37*
G36*
X114498416Y-73683259D02*
G01*
X113861764Y-73683259D01*
X113861764Y-73046608D01*
X114498416Y-73046608D01*
X114498416Y-73683259D01*
G37*
G36*
X115771717Y-73683259D02*
G01*
X115135069Y-73683259D01*
X115135069Y-73046608D01*
X115771717Y-73046608D01*
X115771717Y-73683259D01*
G37*
G36*
X119591630Y-66680090D02*
G01*
X118954978Y-66680090D01*
X118954978Y-66043442D01*
X119591630Y-66043442D01*
X119591630Y-66680090D01*
G37*
G36*
X126594794Y-83869695D02*
G01*
X125958148Y-83869695D01*
X125958148Y-83233030D01*
X126594794Y-83233030D01*
X126594794Y-83869695D01*
G37*
G36*
X113225111Y-66075271D02*
G01*
X113225111Y-69194864D01*
X113225111Y-69863347D01*
X112556628Y-69863347D01*
X109437035Y-69863347D01*
X108768541Y-69863347D01*
X108768541Y-69194864D01*
X108768541Y-66075271D01*
X109437035Y-66075271D01*
X109437035Y-69194864D01*
X112556628Y-69194864D01*
X112556628Y-66075271D01*
X109437035Y-66075271D01*
X108768541Y-66075271D01*
X108768541Y-65406777D01*
X109437035Y-65406777D01*
X112556628Y-65406777D01*
X113225111Y-65406777D01*
X113225111Y-66075271D01*
G37*
G36*
X127231459Y-66075271D02*
G01*
X127231459Y-69194864D01*
X127231459Y-69863347D01*
X126562965Y-69863347D01*
X123443372Y-69863347D01*
X122774889Y-69863347D01*
X122774889Y-69194864D01*
X122774889Y-66075271D01*
X123443372Y-66075271D01*
X123443372Y-69194864D01*
X126562965Y-69194864D01*
X126562965Y-66075271D01*
X123443372Y-66075271D01*
X122774889Y-66075271D01*
X122774889Y-65406777D01*
X123443372Y-65406777D01*
X126562965Y-65406777D01*
X127231459Y-65406777D01*
X127231459Y-66075271D01*
G37*
G36*
X113225111Y-80081608D02*
G01*
X113225111Y-83201201D01*
X113225111Y-83869695D01*
X112556628Y-83869695D01*
X109437035Y-83869695D01*
X108768541Y-83869695D01*
X108768541Y-83201201D01*
X108768541Y-80081608D01*
X109437035Y-80081608D01*
X109437035Y-83201201D01*
X112556628Y-83201201D01*
X112556628Y-80081608D01*
X109437035Y-80081608D01*
X108768541Y-80081608D01*
X108768541Y-79413125D01*
X109437035Y-79413125D01*
X112556628Y-79413125D01*
X113225111Y-79413125D01*
X113225111Y-80081608D01*
G37*
G36*
X111951811Y-68590047D02*
G01*
X110041854Y-68590047D01*
X110041854Y-66680090D01*
X111951811Y-66680090D01*
X111951811Y-68590047D01*
G37*
G36*
X122138236Y-78139822D02*
G01*
X121501586Y-78139822D01*
X121501586Y-77503167D01*
X122138236Y-77503167D01*
X122138236Y-78139822D01*
G37*
G36*
X122774889Y-78139822D02*
G01*
X122138236Y-78139822D01*
X122138236Y-77503167D01*
X122774889Y-77503167D01*
X122774889Y-78139822D01*
G37*
G36*
X124684840Y-78139822D02*
G01*
X124048189Y-78139822D01*
X124048189Y-77503167D01*
X124684840Y-77503167D01*
X124684840Y-78139822D01*
G37*
G36*
X126594794Y-78139822D02*
G01*
X125958148Y-78139822D01*
X125958148Y-77503167D01*
X126594794Y-77503167D01*
X126594794Y-78139822D01*
G37*
G36*
X116408372Y-73683259D02*
G01*
X115771717Y-73683259D01*
X115771717Y-73046608D01*
X116408372Y-73046608D01*
X116408372Y-73683259D01*
G37*
G36*
X118318328Y-73683259D02*
G01*
X117681672Y-73683259D01*
X117681672Y-73046608D01*
X118318328Y-73046608D01*
X118318328Y-73683259D01*
G37*
G36*
X118954978Y-73683259D02*
G01*
X118318328Y-73683259D01*
X118318328Y-73046608D01*
X118954978Y-73046608D01*
X118954978Y-73683259D01*
G37*
G36*
X120228284Y-73683259D02*
G01*
X119591630Y-73683259D01*
X119591630Y-73046608D01*
X120228284Y-73046608D01*
X120228284Y-73683259D01*
G37*
G36*
X116408372Y-73046608D02*
G01*
X115771717Y-73046608D01*
X115771717Y-72409953D01*
X116408372Y-72409953D01*
X116408372Y-73046608D01*
G37*
G36*
X117045023Y-73046608D02*
G01*
X116408372Y-73046608D01*
X116408372Y-72409953D01*
X117045023Y-72409953D01*
X117045023Y-73046608D01*
G37*
G36*
X117681672Y-73046608D02*
G01*
X117045023Y-73046608D01*
X117045023Y-72409953D01*
X117681672Y-72409953D01*
X117681672Y-73046608D01*
G37*
G36*
X119591630Y-73046608D02*
G01*
X118954978Y-73046608D01*
X118954978Y-72409953D01*
X119591630Y-72409953D01*
X119591630Y-73046608D01*
G37*
G36*
X127231459Y-80686425D02*
G01*
X126594794Y-80686425D01*
X126594794Y-80049777D01*
X127231459Y-80049777D01*
X127231459Y-80686425D01*
G37*
G36*
X115135069Y-81323076D02*
G01*
X114498416Y-81323076D01*
X114498416Y-80686425D01*
X115135069Y-80686425D01*
X115135069Y-81323076D01*
G37*
G36*
X116408372Y-81323076D02*
G01*
X115771717Y-81323076D01*
X115771717Y-80686425D01*
X116408372Y-80686425D01*
X116408372Y-81323076D01*
G37*
G36*
X118954978Y-81323076D02*
G01*
X118318328Y-81323076D01*
X118318328Y-80686425D01*
X118954978Y-80686425D01*
X118954978Y-81323076D01*
G37*
G36*
X127231459Y-78139822D02*
G01*
X126594794Y-78139822D01*
X126594794Y-77503167D01*
X127231459Y-77503167D01*
X127231459Y-78139822D01*
G37*
G36*
X109405206Y-78776472D02*
G01*
X108768541Y-78776472D01*
X108768541Y-78139822D01*
X109405206Y-78139822D01*
X109405206Y-78776472D01*
G37*
G36*
X110678507Y-78776472D02*
G01*
X110041854Y-78776472D01*
X110041854Y-78139822D01*
X110678507Y-78139822D01*
X110678507Y-78776472D01*
G37*
G36*
X111951811Y-78776472D02*
G01*
X111315162Y-78776472D01*
X111315162Y-78139822D01*
X111951811Y-78139822D01*
X111951811Y-78776472D01*
G37*
G36*
X122774889Y-76229866D02*
G01*
X122138236Y-76229866D01*
X122138236Y-75593214D01*
X122774889Y-75593214D01*
X122774889Y-76229866D01*
G37*
G36*
X124048189Y-76229866D02*
G01*
X123411541Y-76229866D01*
X123411541Y-75593214D01*
X124048189Y-75593214D01*
X124048189Y-76229866D01*
G37*
G36*
X126594794Y-76229866D02*
G01*
X125958148Y-76229866D01*
X125958148Y-75593214D01*
X126594794Y-75593214D01*
X126594794Y-76229866D01*
G37*
G36*
X111315162Y-76866520D02*
G01*
X110678507Y-76866520D01*
X110678507Y-76229866D01*
X111315162Y-76229866D01*
X111315162Y-76866520D01*
G37*
G36*
X115771717Y-76866520D02*
G01*
X115135069Y-76866520D01*
X115135069Y-76229866D01*
X115771717Y-76229866D01*
X115771717Y-76866520D01*
G37*
G36*
X116408372Y-76866520D02*
G01*
X115771717Y-76866520D01*
X115771717Y-76229866D01*
X116408372Y-76229866D01*
X116408372Y-76866520D01*
G37*
G36*
X117045023Y-76866520D02*
G01*
X116408372Y-76866520D01*
X116408372Y-76229866D01*
X117045023Y-76229866D01*
X117045023Y-76866520D01*
G37*
G36*
X117681672Y-76866520D02*
G01*
X117045023Y-76866520D01*
X117045023Y-76229866D01*
X117681672Y-76229866D01*
X117681672Y-76866520D01*
G37*
G36*
X127231459Y-74956564D02*
G01*
X126594794Y-74956564D01*
X126594794Y-74319908D01*
X127231459Y-74319908D01*
X127231459Y-74956564D01*
G37*
G36*
X110041854Y-75593214D02*
G01*
X109405206Y-75593214D01*
X109405206Y-74956564D01*
X110041854Y-74956564D01*
X110041854Y-75593214D01*
G37*
G36*
X111315162Y-75593214D02*
G01*
X110678507Y-75593214D01*
X110678507Y-74956564D01*
X111315162Y-74956564D01*
X111315162Y-75593214D01*
G37*
G36*
X112588460Y-75593214D02*
G01*
X111951811Y-75593214D01*
X111951811Y-74956564D01*
X112588460Y-74956564D01*
X112588460Y-75593214D01*
G37*
G36*
X115135069Y-66680090D02*
G01*
X114498416Y-66680090D01*
X114498416Y-66043442D01*
X115135069Y-66043442D01*
X115135069Y-66680090D01*
G37*
G36*
X114498416Y-83869695D02*
G01*
X113861764Y-83869695D01*
X113861764Y-83233030D01*
X114498416Y-83233030D01*
X114498416Y-83869695D01*
G37*
G36*
X115135069Y-83869695D02*
G01*
X114498416Y-83869695D01*
X114498416Y-83233030D01*
X115135069Y-83233030D01*
X115135069Y-83869695D01*
G37*
G36*
X117045023Y-83869695D02*
G01*
X116408372Y-83869695D01*
X116408372Y-83233030D01*
X117045023Y-83233030D01*
X117045023Y-83869695D01*
G37*
G36*
X117681672Y-83869695D02*
G01*
X117045023Y-83869695D01*
X117045023Y-83233030D01*
X117681672Y-83233030D01*
X117681672Y-83869695D01*
G37*
G36*
X118318328Y-83869695D02*
G01*
X117681672Y-83869695D01*
X117681672Y-83233030D01*
X118318328Y-83233030D01*
X118318328Y-83869695D01*
G37*
G36*
X120864931Y-66680090D02*
G01*
X120228284Y-66680090D01*
X120228284Y-66043442D01*
X120864931Y-66043442D01*
X120864931Y-66680090D01*
G37*
G36*
X122138236Y-66680090D02*
G01*
X121501586Y-66680090D01*
X121501586Y-66043442D01*
X122138236Y-66043442D01*
X122138236Y-66680090D01*
G37*
G36*
X115771717Y-67316743D02*
G01*
X115135069Y-67316743D01*
X115135069Y-66680090D01*
X115771717Y-66680090D01*
X115771717Y-67316743D01*
G37*
G36*
X117045023Y-67316743D02*
G01*
X116408372Y-67316743D01*
X116408372Y-66680090D01*
X117045023Y-66680090D01*
X117045023Y-67316743D01*
G37*
G36*
X112588460Y-78139822D02*
G01*
X111951811Y-78139822D01*
X111951811Y-77503167D01*
X112588460Y-77503167D01*
X112588460Y-78139822D01*
G37*
G36*
X114498416Y-78139822D02*
G01*
X113861764Y-78139822D01*
X113861764Y-77503167D01*
X114498416Y-77503167D01*
X114498416Y-78139822D01*
G37*
G36*
X115135069Y-78139822D02*
G01*
X114498416Y-78139822D01*
X114498416Y-77503167D01*
X115135069Y-77503167D01*
X115135069Y-78139822D01*
G37*
G36*
X116408372Y-78139822D02*
G01*
X115771717Y-78139822D01*
X115771717Y-77503167D01*
X116408372Y-77503167D01*
X116408372Y-78139822D01*
G37*
G36*
X114498416Y-77503167D02*
G01*
X113861764Y-77503167D01*
X113861764Y-76866520D01*
X114498416Y-76866520D01*
X114498416Y-77503167D01*
G37*
G36*
X115771717Y-77503167D02*
G01*
X115135069Y-77503167D01*
X115135069Y-76866520D01*
X115771717Y-76866520D01*
X115771717Y-77503167D01*
G37*
G36*
X117045023Y-77503167D02*
G01*
X116408372Y-77503167D01*
X116408372Y-76866520D01*
X117045023Y-76866520D01*
X117045023Y-77503167D01*
G37*
G36*
X118318328Y-77503167D02*
G01*
X117681672Y-77503167D01*
X117681672Y-76866520D01*
X118318328Y-76866520D01*
X118318328Y-77503167D01*
G37*
G36*
X122774889Y-78776472D02*
G01*
X122138236Y-78776472D01*
X122138236Y-78139822D01*
X122774889Y-78139822D01*
X122774889Y-78776472D01*
G37*
G36*
X123411541Y-78776472D02*
G01*
X122774889Y-78776472D01*
X122774889Y-78139822D01*
X123411541Y-78139822D01*
X123411541Y-78776472D01*
G37*
G36*
X124048189Y-78776472D02*
G01*
X123411541Y-78776472D01*
X123411541Y-78139822D01*
X124048189Y-78139822D01*
X124048189Y-78776472D01*
G37*
G36*
X124684840Y-78776472D02*
G01*
X124048189Y-78776472D01*
X124048189Y-78139822D01*
X124684840Y-78139822D01*
X124684840Y-78776472D01*
G37*
G36*
X115135069Y-66043442D02*
G01*
X114498416Y-66043442D01*
X114498416Y-65406777D01*
X115135069Y-65406777D01*
X115135069Y-66043442D01*
G37*
G36*
X124048189Y-73683259D02*
G01*
X123411541Y-73683259D01*
X123411541Y-73046608D01*
X124048189Y-73046608D01*
X124048189Y-73683259D01*
G37*
G36*
X125321494Y-73683259D02*
G01*
X124684840Y-73683259D01*
X124684840Y-73046608D01*
X125321494Y-73046608D01*
X125321494Y-73683259D01*
G37*
G36*
X126594794Y-73683259D02*
G01*
X125958148Y-73683259D01*
X125958148Y-73046608D01*
X126594794Y-73046608D01*
X126594794Y-73683259D01*
G37*
G36*
X127231459Y-73683259D02*
G01*
X126594794Y-73683259D01*
X126594794Y-73046608D01*
X127231459Y-73046608D01*
X127231459Y-73683259D01*
G37*
G36*
X126594794Y-72409953D02*
G01*
X125958148Y-72409953D01*
X125958148Y-71773305D01*
X126594794Y-71773305D01*
X126594794Y-72409953D01*
G37*
G36*
X109405206Y-73046608D02*
G01*
X108768541Y-73046608D01*
X108768541Y-72409953D01*
X109405206Y-72409953D01*
X109405206Y-73046608D01*
G37*
G36*
X111315162Y-73046608D02*
G01*
X110678507Y-73046608D01*
X110678507Y-72409953D01*
X111315162Y-72409953D01*
X111315162Y-73046608D01*
G37*
G36*
X113861764Y-73046608D02*
G01*
X113225111Y-73046608D01*
X113225111Y-72409953D01*
X113861764Y-72409953D01*
X113861764Y-73046608D01*
G37*
G36*
X115135069Y-69226696D02*
G01*
X114498416Y-69226696D01*
X114498416Y-68590047D01*
X115135069Y-68590047D01*
X115135069Y-69226696D01*
G37*
G36*
X115771717Y-69226696D02*
G01*
X115135069Y-69226696D01*
X115135069Y-68590047D01*
X115771717Y-68590047D01*
X115771717Y-69226696D01*
G37*
G36*
X118954978Y-69226696D02*
G01*
X118318328Y-69226696D01*
X118318328Y-68590047D01*
X118954978Y-68590047D01*
X118954978Y-69226696D01*
G37*
G36*
X109405206Y-74319908D02*
G01*
X108768541Y-74319908D01*
X108768541Y-73683259D01*
X109405206Y-73683259D01*
X109405206Y-74319908D01*
G37*
G36*
X111951811Y-74319908D02*
G01*
X111315162Y-74319908D01*
X111315162Y-73683259D01*
X111951811Y-73683259D01*
X111951811Y-74319908D01*
G37*
G36*
X112588460Y-74319908D02*
G01*
X111951811Y-74319908D01*
X111951811Y-73683259D01*
X112588460Y-73683259D01*
X112588460Y-74319908D01*
G37*
G36*
X114498416Y-74319908D02*
G01*
X113861764Y-74319908D01*
X113861764Y-73683259D01*
X114498416Y-73683259D01*
X114498416Y-74319908D01*
G37*
G36*
X117681672Y-83233030D02*
G01*
X117045023Y-83233030D01*
X117045023Y-82596384D01*
X117681672Y-82596384D01*
X117681672Y-83233030D01*
G37*
G36*
X118318328Y-83233030D02*
G01*
X117681672Y-83233030D01*
X117681672Y-82596384D01*
X118318328Y-82596384D01*
X118318328Y-83233030D01*
G37*
G36*
X118954978Y-83233030D02*
G01*
X118318328Y-83233030D01*
X118318328Y-82596384D01*
X118954978Y-82596384D01*
X118954978Y-83233030D01*
G37*
G36*
X119591630Y-83233030D02*
G01*
X118954978Y-83233030D01*
X118954978Y-82596384D01*
X119591630Y-82596384D01*
X119591630Y-83233030D01*
G37*
G36*
X120228284Y-83233030D02*
G01*
X119591630Y-83233030D01*
X119591630Y-82596384D01*
X120228284Y-82596384D01*
X120228284Y-83233030D01*
G37*
G36*
X118954978Y-77503167D02*
G01*
X118318328Y-77503167D01*
X118318328Y-76866520D01*
X118954978Y-76866520D01*
X118954978Y-77503167D01*
G37*
G36*
X119591630Y-77503167D02*
G01*
X118954978Y-77503167D01*
X118954978Y-76866520D01*
X119591630Y-76866520D01*
X119591630Y-77503167D01*
G37*
G36*
X122138236Y-77503167D02*
G01*
X121501586Y-77503167D01*
X121501586Y-76866520D01*
X122138236Y-76866520D01*
X122138236Y-77503167D01*
G37*
G36*
X123411541Y-77503167D02*
G01*
X122774889Y-77503167D01*
X122774889Y-76866520D01*
X123411541Y-76866520D01*
X123411541Y-77503167D01*
G37*
G36*
X124048189Y-71136652D02*
G01*
X123411541Y-71136652D01*
X123411541Y-70500000D01*
X124048189Y-70500000D01*
X124048189Y-71136652D01*
G37*
G36*
X110041854Y-71773305D02*
G01*
X109405206Y-71773305D01*
X109405206Y-71136652D01*
X110041854Y-71136652D01*
X110041854Y-71773305D01*
G37*
G36*
X111315162Y-71773305D02*
G01*
X110678507Y-71773305D01*
X110678507Y-71136652D01*
X111315162Y-71136652D01*
X111315162Y-71773305D01*
G37*
G36*
X112588460Y-71773305D02*
G01*
X111951811Y-71773305D01*
X111951811Y-71136652D01*
X112588460Y-71136652D01*
X112588460Y-71773305D01*
G37*
G36*
X116408372Y-66680090D02*
G01*
X115771717Y-66680090D01*
X115771717Y-66043442D01*
X116408372Y-66043442D01*
X116408372Y-66680090D01*
G37*
G36*
X121501586Y-72409953D02*
G01*
X120864931Y-72409953D01*
X120864931Y-71773305D01*
X121501586Y-71773305D01*
X121501586Y-72409953D01*
G37*
G36*
X124684840Y-72409953D02*
G01*
X124048189Y-72409953D01*
X124048189Y-71773305D01*
X124684840Y-71773305D01*
X124684840Y-72409953D01*
G37*
G36*
X125321494Y-72409953D02*
G01*
X124684840Y-72409953D01*
X124684840Y-71773305D01*
X125321494Y-71773305D01*
X125321494Y-72409953D01*
G37*
G36*
X125958148Y-72409953D02*
G01*
X125321494Y-72409953D01*
X125321494Y-71773305D01*
X125958148Y-71773305D01*
X125958148Y-72409953D01*
G37*
G36*
X111315162Y-77503167D02*
G01*
X110678507Y-77503167D01*
X110678507Y-76866520D01*
X111315162Y-76866520D01*
X111315162Y-77503167D01*
G37*
G36*
X111951811Y-77503167D02*
G01*
X111315162Y-77503167D01*
X111315162Y-76866520D01*
X111951811Y-76866520D01*
X111951811Y-77503167D01*
G37*
G36*
X112588460Y-77503167D02*
G01*
X111951811Y-77503167D01*
X111951811Y-76866520D01*
X112588460Y-76866520D01*
X112588460Y-77503167D01*
G37*
G36*
X113225111Y-77503167D02*
G01*
X112588460Y-77503167D01*
X112588460Y-76866520D01*
X113225111Y-76866520D01*
X113225111Y-77503167D01*
G37*
G36*
X125958148Y-78776472D02*
G01*
X125321494Y-78776472D01*
X125321494Y-78139822D01*
X125958148Y-78139822D01*
X125958148Y-78776472D01*
G37*
G36*
X114498416Y-79413125D02*
G01*
X113861764Y-79413125D01*
X113861764Y-78776472D01*
X114498416Y-78776472D01*
X114498416Y-79413125D01*
G37*
G36*
X115771717Y-79413125D02*
G01*
X115135069Y-79413125D01*
X115135069Y-78776472D01*
X115771717Y-78776472D01*
X115771717Y-79413125D01*
G37*
G36*
X117045023Y-79413125D02*
G01*
X116408372Y-79413125D01*
X116408372Y-78776472D01*
X117045023Y-78776472D01*
X117045023Y-79413125D01*
G37*
G36*
X117681672Y-76229866D02*
G01*
X117045023Y-76229866D01*
X117045023Y-75593214D01*
X117681672Y-75593214D01*
X117681672Y-76229866D01*
G37*
G36*
X120228284Y-76229866D02*
G01*
X119591630Y-76229866D01*
X119591630Y-75593214D01*
X120228284Y-75593214D01*
X120228284Y-76229866D01*
G37*
G36*
X121501586Y-76229866D02*
G01*
X120864931Y-76229866D01*
X120864931Y-75593214D01*
X121501586Y-75593214D01*
X121501586Y-76229866D01*
G37*
G36*
X122138236Y-76229866D02*
G01*
X121501586Y-76229866D01*
X121501586Y-75593214D01*
X122138236Y-75593214D01*
X122138236Y-76229866D01*
G37*
G36*
X112588460Y-78776472D02*
G01*
X111951811Y-78776472D01*
X111951811Y-78139822D01*
X112588460Y-78139822D01*
X112588460Y-78776472D01*
G37*
G36*
X113225111Y-78776472D02*
G01*
X112588460Y-78776472D01*
X112588460Y-78139822D01*
X113225111Y-78139822D01*
X113225111Y-78776472D01*
G37*
G36*
X115771717Y-78776472D02*
G01*
X115135069Y-78776472D01*
X115135069Y-78139822D01*
X115771717Y-78139822D01*
X115771717Y-78776472D01*
G37*
G36*
X117045023Y-78776472D02*
G01*
X116408372Y-78776472D01*
X116408372Y-78139822D01*
X117045023Y-78139822D01*
X117045023Y-78776472D01*
G37*
G36*
X119591630Y-83869695D02*
G01*
X118954978Y-83869695D01*
X118954978Y-83233030D01*
X119591630Y-83233030D01*
X119591630Y-83869695D01*
G37*
G36*
X120228284Y-83869695D02*
G01*
X119591630Y-83869695D01*
X119591630Y-83233030D01*
X120228284Y-83233030D01*
X120228284Y-83869695D01*
G37*
G36*
X122138236Y-83869695D02*
G01*
X121501586Y-83869695D01*
X121501586Y-83233030D01*
X122138236Y-83233030D01*
X122138236Y-83869695D01*
G37*
G36*
X122774889Y-83869695D02*
G01*
X122138236Y-83869695D01*
X122138236Y-83233030D01*
X122774889Y-83233030D01*
X122774889Y-83869695D01*
G37*
G36*
X125321494Y-83869695D02*
G01*
X124684840Y-83869695D01*
X124684840Y-83233030D01*
X125321494Y-83233030D01*
X125321494Y-83869695D01*
G37*
G36*
X118954978Y-78776472D02*
G01*
X118318328Y-78776472D01*
X118318328Y-78139822D01*
X118954978Y-78139822D01*
X118954978Y-78776472D01*
G37*
G36*
X119591630Y-78776472D02*
G01*
X118954978Y-78776472D01*
X118954978Y-78139822D01*
X119591630Y-78139822D01*
X119591630Y-78776472D01*
G37*
G36*
X121501586Y-78776472D02*
G01*
X120864931Y-78776472D01*
X120864931Y-78139822D01*
X121501586Y-78139822D01*
X121501586Y-78776472D01*
G37*
G36*
X122138236Y-78776472D02*
G01*
X121501586Y-78776472D01*
X121501586Y-78139822D01*
X122138236Y-78139822D01*
X122138236Y-78776472D01*
G37*
G36*
X123411541Y-74956564D02*
G01*
X122774889Y-74956564D01*
X122774889Y-74319908D01*
X123411541Y-74319908D01*
X123411541Y-74956564D01*
G37*
G36*
X125321494Y-74956564D02*
G01*
X124684840Y-74956564D01*
X124684840Y-74319908D01*
X125321494Y-74319908D01*
X125321494Y-74956564D01*
G37*
G36*
X125958148Y-74956564D02*
G01*
X125321494Y-74956564D01*
X125321494Y-74319908D01*
X125958148Y-74319908D01*
X125958148Y-74956564D01*
G37*
G36*
X126594794Y-74956564D02*
G01*
X125958148Y-74956564D01*
X125958148Y-74319908D01*
X126594794Y-74319908D01*
X126594794Y-74956564D01*
G37*
G36*
X120228284Y-82596384D02*
G01*
X119591630Y-82596384D01*
X119591630Y-81959730D01*
X120228284Y-81959730D01*
X120228284Y-82596384D01*
G37*
G36*
X121501586Y-82596384D02*
G01*
X120864931Y-82596384D01*
X120864931Y-81959730D01*
X121501586Y-81959730D01*
X121501586Y-82596384D01*
G37*
G36*
X122138236Y-82596384D02*
G01*
X121501586Y-82596384D01*
X121501586Y-81959730D01*
X122138236Y-81959730D01*
X122138236Y-82596384D01*
G37*
G36*
X124684840Y-82596384D02*
G01*
X124048189Y-82596384D01*
X124048189Y-81959730D01*
X124684840Y-81959730D01*
X124684840Y-82596384D01*
G37*
G36*
X125321494Y-82596384D02*
G01*
X124684840Y-82596384D01*
X124684840Y-81959730D01*
X125321494Y-81959730D01*
X125321494Y-82596384D01*
G37*
G36*
X122138236Y-80686425D02*
G01*
X121501586Y-80686425D01*
X121501586Y-80049777D01*
X122138236Y-80049777D01*
X122138236Y-80686425D01*
G37*
G36*
X124684840Y-80686425D02*
G01*
X124048189Y-80686425D01*
X124048189Y-80049777D01*
X124684840Y-80049777D01*
X124684840Y-80686425D01*
G37*
G36*
X125321494Y-80686425D02*
G01*
X124684840Y-80686425D01*
X124684840Y-80049777D01*
X125321494Y-80049777D01*
X125321494Y-80686425D01*
G37*
G36*
X125958148Y-80686425D02*
G01*
X125321494Y-80686425D01*
X125321494Y-80049777D01*
X125958148Y-80049777D01*
X125958148Y-80686425D01*
G37*
G36*
X109405206Y-74956564D02*
G01*
X108768541Y-74956564D01*
X108768541Y-74319908D01*
X109405206Y-74319908D01*
X109405206Y-74956564D01*
G37*
G36*
X110041854Y-74956564D02*
G01*
X109405206Y-74956564D01*
X109405206Y-74319908D01*
X110041854Y-74319908D01*
X110041854Y-74956564D01*
G37*
G36*
X110678507Y-74956564D02*
G01*
X110041854Y-74956564D01*
X110041854Y-74319908D01*
X110678507Y-74319908D01*
X110678507Y-74956564D01*
G37*
G36*
X111951811Y-74956564D02*
G01*
X111315162Y-74956564D01*
X111315162Y-74319908D01*
X111951811Y-74319908D01*
X111951811Y-74956564D01*
G37*
D11*
G36*
X79257772Y-95435000D02*
G01*
X79380992Y-95435000D01*
X79380992Y-94371017D01*
X79257772Y-94371017D01*
X79257772Y-95435000D01*
G37*
G36*
X78795567Y-94676105D02*
G01*
X78853233Y-94692085D01*
X78905024Y-94718208D01*
X78950668Y-94753922D01*
X78989289Y-94798783D01*
X79021222Y-94854007D01*
X79043449Y-94914152D01*
X79057522Y-94984044D01*
X79062500Y-95065399D01*
X79056989Y-95147485D01*
X79041473Y-95217047D01*
X79017009Y-95276120D01*
X78982199Y-95329322D01*
X78939951Y-95372134D01*
X78889637Y-95405629D01*
X78833529Y-95429316D01*
X78771156Y-95443922D01*
X78701325Y-95448982D01*
X78626923Y-95445767D01*
X78568274Y-95437076D01*
X78512569Y-95422095D01*
X78454884Y-95400012D01*
X78454884Y-95292178D01*
X78513668Y-95314707D01*
X78569007Y-95330708D01*
X78626421Y-95340489D01*
X78695708Y-95344019D01*
X78751124Y-95339429D01*
X78797628Y-95326485D01*
X78836862Y-95305876D01*
X78870036Y-95277524D01*
X78896096Y-95242786D01*
X78915985Y-95200042D01*
X78929326Y-95147660D01*
X78935127Y-95083595D01*
X78421301Y-95083595D01*
X78421301Y-95009406D01*
X78422858Y-94985593D01*
X78550078Y-94985593D01*
X78932318Y-94985593D01*
X78920338Y-94920286D01*
X78899741Y-94868677D01*
X78871379Y-94828117D01*
X78833968Y-94797070D01*
X78788361Y-94778100D01*
X78732100Y-94771392D01*
X78685819Y-94775594D01*
X78648684Y-94787260D01*
X78618806Y-94805641D01*
X78594897Y-94830926D01*
X78571419Y-94872633D01*
X78556181Y-94923469D01*
X78550078Y-94985593D01*
X78422858Y-94985593D01*
X78425704Y-94942081D01*
X78438287Y-94882998D01*
X78458426Y-94830926D01*
X78487055Y-94783398D01*
X78522353Y-94744246D01*
X78564794Y-94712590D01*
X78612639Y-94689752D01*
X78667455Y-94675554D01*
X78730696Y-94670580D01*
X78795567Y-94676105D01*
G37*
G36*
X77731315Y-94670580D02*
G01*
X77727834Y-94727306D01*
X77722889Y-94781222D01*
X77731315Y-94781222D01*
X77770839Y-94738987D01*
X77821624Y-94702821D01*
X77859797Y-94685631D01*
X77906534Y-94674569D01*
X77963712Y-94670580D01*
X78031909Y-94677079D01*
X78090978Y-94695744D01*
X78142739Y-94726214D01*
X78188415Y-94769316D01*
X78223230Y-94820330D01*
X78249661Y-94884051D01*
X78266860Y-94963222D01*
X78273107Y-95061186D01*
X78266886Y-95159257D01*
X78249792Y-95238179D01*
X78223586Y-95301390D01*
X78189148Y-95351713D01*
X78143884Y-95394086D01*
X78092387Y-95424116D01*
X78033410Y-95442553D01*
X77965116Y-95448982D01*
X77907068Y-95444832D01*
X77859636Y-95433318D01*
X77820891Y-95415399D01*
X77769875Y-95377735D01*
X77731315Y-95334188D01*
X77725697Y-95334188D01*
X77707501Y-95435000D01*
X77608094Y-95435000D01*
X77608094Y-95062590D01*
X77729911Y-95062590D01*
X77729911Y-95085000D01*
X77736282Y-95171823D01*
X77753162Y-95235616D01*
X77778210Y-95281737D01*
X77804709Y-95308654D01*
X77839860Y-95328809D01*
X77885810Y-95341977D01*
X77945516Y-95346828D01*
X77994481Y-95341813D01*
X78034782Y-95327667D01*
X78068258Y-95304853D01*
X78096031Y-95272639D01*
X78122116Y-95220699D01*
X78139353Y-95152581D01*
X78145734Y-95063995D01*
X78139477Y-94976410D01*
X78122339Y-94906892D01*
X78096031Y-94851931D01*
X78067944Y-94817187D01*
X78034528Y-94792914D01*
X77994779Y-94778034D01*
X77946920Y-94772796D01*
X77884906Y-94778344D01*
X77837849Y-94793372D01*
X77802354Y-94816472D01*
X77776133Y-94847718D01*
X77752105Y-94899835D01*
X77735956Y-94969839D01*
X77729911Y-95062590D01*
X77608094Y-95062590D01*
X77608094Y-94371017D01*
X77731315Y-94371017D01*
X77731315Y-94670580D01*
G37*
D12*
G36*
X64645057Y-98197232D02*
G01*
X64593766Y-98206393D01*
X64548254Y-98234143D01*
X64517461Y-98278885D01*
X64505866Y-98350116D01*
X64517301Y-98419211D01*
X64548254Y-98464779D01*
X64593862Y-98493551D01*
X64645057Y-98503000D01*
X64700852Y-98493270D01*
X64746146Y-98464779D01*
X64776004Y-98419349D01*
X64787105Y-98350116D01*
X64775846Y-98278740D01*
X64746146Y-98234143D01*
X64700954Y-98206665D01*
X64645057Y-98197232D01*
G37*
G36*
X64527655Y-98746018D02*
G01*
X64527655Y-100209250D01*
X64767935Y-100209250D01*
X64767935Y-98746018D01*
X64527655Y-98746018D01*
G37*
G36*
X62459675Y-98718632D02*
G01*
X62334948Y-98727855D01*
X62234359Y-98753326D01*
X62153358Y-98792821D01*
X62088420Y-98845678D01*
X62038622Y-98911978D01*
X62000290Y-98998944D01*
X61974910Y-99111670D01*
X61965542Y-99256464D01*
X61965542Y-100209250D01*
X62203083Y-100209250D01*
X62203083Y-99267419D01*
X62213200Y-99151338D01*
X62240258Y-99065626D01*
X62281251Y-99003078D01*
X62336059Y-98958793D01*
X62407459Y-98930858D01*
X62500635Y-98920691D01*
X62606852Y-98929659D01*
X62689999Y-98954219D01*
X62754927Y-98992234D01*
X62805093Y-99043570D01*
X62852963Y-99130405D01*
X62884708Y-99246777D01*
X62896537Y-99401132D01*
X62896537Y-100209250D01*
X63134079Y-100209250D01*
X63134079Y-99267419D01*
X63144246Y-99151560D01*
X63171457Y-99065920D01*
X63212735Y-99003332D01*
X63268013Y-98958945D01*
X63340138Y-98930905D01*
X63434369Y-98920691D01*
X63544033Y-98930690D01*
X63628032Y-98957907D01*
X63692121Y-99000000D01*
X63740137Y-99057263D01*
X63784052Y-99152297D01*
X63813601Y-99280304D01*
X63824675Y-99450308D01*
X63824675Y-100209250D01*
X64064955Y-100209250D01*
X64064955Y-98746018D01*
X63871112Y-98746018D01*
X63835630Y-98945219D01*
X63822056Y-98945219D01*
X63770692Y-98874727D01*
X63709570Y-98818281D01*
X63637738Y-98774594D01*
X63518169Y-98732678D01*
X63390671Y-98718632D01*
X63252527Y-98730236D01*
X63143899Y-98762072D01*
X63058659Y-98811419D01*
X62992412Y-98878079D01*
X62942974Y-98964390D01*
X62929281Y-98964390D01*
X62873662Y-98887289D01*
X62807150Y-98825904D01*
X62728651Y-98778762D01*
X62642360Y-98745359D01*
X62553022Y-98725361D01*
X62459675Y-98718632D01*
G37*
G36*
X61025378Y-100039934D02*
G01*
X60913453Y-100030409D01*
X60820580Y-100009929D01*
X60820580Y-100192818D01*
X60863293Y-100209171D01*
X60929885Y-100224252D01*
X61066337Y-100236516D01*
X61177744Y-100226412D01*
X61277922Y-100196985D01*
X61337756Y-100164525D01*
X61389850Y-100119110D01*
X61434973Y-100059104D01*
X61466328Y-99990830D01*
X61487219Y-99900798D01*
X61494983Y-99783342D01*
X61494983Y-98931646D01*
X61702400Y-98931646D01*
X61702400Y-98816983D01*
X61492245Y-98721371D01*
X61396633Y-98410126D01*
X61254703Y-98410126D01*
X61254703Y-98746018D01*
X60831534Y-98746018D01*
X60831534Y-98931646D01*
X61254703Y-98931646D01*
X61254703Y-99777865D01*
X61246467Y-99864813D01*
X61224365Y-99928971D01*
X61190525Y-99975875D01*
X61144300Y-100011100D01*
X61090035Y-100032467D01*
X61025378Y-100039934D01*
G37*
G36*
X59306030Y-98746018D02*
G01*
X59306030Y-100209250D01*
X59502612Y-100209250D01*
X59538094Y-100015406D01*
X59549049Y-100015406D01*
X59602521Y-100085117D01*
X59667573Y-100140719D01*
X59745631Y-100183293D01*
X59874597Y-100223077D01*
X60013177Y-100236516D01*
X60146704Y-100227251D01*
X60254698Y-100201677D01*
X60341830Y-100162149D01*
X60411818Y-100109589D01*
X60466701Y-100042479D01*
X60508310Y-99955846D01*
X60535548Y-99845049D01*
X60545532Y-99704161D01*
X60545532Y-98746018D01*
X60302513Y-98746018D01*
X60302513Y-99687849D01*
X60291875Y-99802893D01*
X60263233Y-99888642D01*
X60219348Y-99952033D01*
X60159838Y-99997569D01*
X60081262Y-100026652D01*
X59977695Y-100037315D01*
X59855982Y-100027124D01*
X59763154Y-99999534D01*
X59692833Y-99957342D01*
X59640493Y-99900862D01*
X59591280Y-99805001D01*
X59558522Y-99676929D01*
X59546310Y-99507699D01*
X59546310Y-98746018D01*
X59306030Y-98746018D01*
G37*
G36*
X57620022Y-98746018D02*
G01*
X57620022Y-100209250D01*
X57816604Y-100209250D01*
X57852086Y-100015406D01*
X57863040Y-100015406D01*
X57916513Y-100085117D01*
X57981564Y-100140719D01*
X58059622Y-100183293D01*
X58188589Y-100223077D01*
X58327169Y-100236516D01*
X58460696Y-100227251D01*
X58568690Y-100201677D01*
X58655822Y-100162149D01*
X58725810Y-100109589D01*
X58780693Y-100042479D01*
X58822302Y-99955846D01*
X58849539Y-99845049D01*
X58859524Y-99704161D01*
X58859524Y-98746018D01*
X58616505Y-98746018D01*
X58616505Y-99687849D01*
X58605867Y-99802893D01*
X58577224Y-99888642D01*
X58533339Y-99952033D01*
X58473829Y-99997569D01*
X58395253Y-100026652D01*
X58291687Y-100037315D01*
X58169974Y-100027124D01*
X58077146Y-99999534D01*
X58006825Y-99957342D01*
X57954485Y-99900862D01*
X57905272Y-99805001D01*
X57872514Y-99676929D01*
X57860302Y-99507699D01*
X57860302Y-98746018D01*
X57620022Y-98746018D01*
G37*
G36*
X57192566Y-100061843D02*
G01*
X57186092Y-99996400D01*
X57169102Y-99950884D01*
X57143510Y-99919913D01*
X57090048Y-99889360D01*
X57026109Y-99878954D01*
X56959487Y-99889427D01*
X56904540Y-99919913D01*
X56878127Y-99951014D01*
X56860684Y-99996547D01*
X56854055Y-100061843D01*
X56860550Y-100125297D01*
X56877899Y-100171104D01*
X56904540Y-100203772D01*
X56959690Y-100236371D01*
X57026109Y-100247470D01*
X57089845Y-100236444D01*
X57143510Y-100203772D01*
X57169328Y-100171229D01*
X57186224Y-100125435D01*
X57192566Y-100061843D01*
G37*
G36*
X54820248Y-98718632D02*
G01*
X54695520Y-98727855D01*
X54594931Y-98753326D01*
X54513930Y-98792821D01*
X54448992Y-98845678D01*
X54399194Y-98911978D01*
X54360862Y-98998944D01*
X54335482Y-99111670D01*
X54326114Y-99256464D01*
X54326114Y-100209250D01*
X54563655Y-100209250D01*
X54563655Y-99267419D01*
X54573773Y-99151338D01*
X54600831Y-99065626D01*
X54641823Y-99003078D01*
X54696631Y-98958793D01*
X54768031Y-98930858D01*
X54861207Y-98920691D01*
X54967425Y-98929659D01*
X55050572Y-98954219D01*
X55115500Y-98992234D01*
X55165665Y-99043570D01*
X55213535Y-99130405D01*
X55245280Y-99246777D01*
X55257110Y-99401132D01*
X55257110Y-100209250D01*
X55494651Y-100209250D01*
X55494651Y-99267419D01*
X55504818Y-99151560D01*
X55532030Y-99065920D01*
X55573308Y-99003332D01*
X55628586Y-98958945D01*
X55700710Y-98930905D01*
X55794941Y-98920691D01*
X55904605Y-98930690D01*
X55988604Y-98957907D01*
X56052693Y-99000000D01*
X56100709Y-99057263D01*
X56144624Y-99152297D01*
X56174173Y-99280304D01*
X56185248Y-99450308D01*
X56185248Y-100209250D01*
X56425528Y-100209250D01*
X56425528Y-98746018D01*
X56231684Y-98746018D01*
X56196202Y-98945219D01*
X56182628Y-98945219D01*
X56131264Y-98874727D01*
X56070143Y-98818281D01*
X55998310Y-98774594D01*
X55878741Y-98732678D01*
X55751243Y-98718632D01*
X55613099Y-98730236D01*
X55504471Y-98762072D01*
X55419231Y-98811419D01*
X55352985Y-98878079D01*
X55303546Y-98964390D01*
X55289853Y-98964390D01*
X55234234Y-98887289D01*
X55167722Y-98825904D01*
X55089223Y-98778762D01*
X55002933Y-98745359D01*
X54913594Y-98725361D01*
X54820248Y-98718632D01*
G37*
G36*
X53436008Y-98729405D02*
G01*
X53548456Y-98760566D01*
X53649448Y-98811506D01*
X53738455Y-98881149D01*
X53813766Y-98968627D01*
X53876035Y-99076314D01*
X53919377Y-99193598D01*
X53946819Y-99329886D01*
X53956526Y-99488529D01*
X53945779Y-99648597D01*
X53915524Y-99784243D01*
X53867820Y-99899434D01*
X53799939Y-100003178D01*
X53717556Y-100086662D01*
X53619443Y-100151978D01*
X53510032Y-100198166D01*
X53388406Y-100226648D01*
X53252236Y-100236516D01*
X53107151Y-100230246D01*
X52992786Y-100213298D01*
X52884161Y-100184086D01*
X52771676Y-100141023D01*
X52771676Y-99930749D01*
X52886304Y-99974679D01*
X52994215Y-100005881D01*
X53106172Y-100024954D01*
X53241282Y-100031838D01*
X53349344Y-100022887D01*
X53440025Y-99997647D01*
X53516532Y-99957459D01*
X53581222Y-99902172D01*
X53632039Y-99834433D01*
X53670822Y-99751083D01*
X53696838Y-99648938D01*
X53708149Y-99524011D01*
X52706188Y-99524011D01*
X52706188Y-99379343D01*
X52709225Y-99332906D01*
X52957304Y-99332906D01*
X53702672Y-99332906D01*
X53679311Y-99205558D01*
X53639146Y-99104921D01*
X53583842Y-99025829D01*
X53510889Y-98965287D01*
X53421955Y-98928296D01*
X53312247Y-98915214D01*
X53221999Y-98923409D01*
X53149586Y-98946158D01*
X53091323Y-98982001D01*
X53044700Y-99031306D01*
X52998918Y-99112636D01*
X52969204Y-99211765D01*
X52957304Y-99332906D01*
X52709225Y-99332906D01*
X52714774Y-99248059D01*
X52739312Y-99132847D01*
X52778582Y-99031306D01*
X52834409Y-98938626D01*
X52903240Y-98862280D01*
X52985999Y-98800551D01*
X53079297Y-98756017D01*
X53186189Y-98728330D01*
X53309508Y-98718632D01*
X53436008Y-98729405D01*
G37*
D13*
X74875000Y-96485000D02*
X74875000Y-94200000D01*
X76345000Y-94200000D02*
X76345000Y-96485000D01*
X76345000Y-96485000D02*
X74875000Y-96485000D01*
D10*
G36*
X76512759Y-68440728D02*
G01*
X76656278Y-68508660D01*
X76791309Y-68606368D01*
X76884956Y-68713433D01*
X76907890Y-68756096D01*
X76950610Y-68899514D01*
X76942404Y-69060297D01*
X76881051Y-69252772D01*
X76764328Y-69491265D01*
X76665641Y-69690718D01*
X76520005Y-70114485D01*
X76457130Y-70543090D01*
X76477018Y-70972769D01*
X76579665Y-71399755D01*
X76765071Y-71820283D01*
X76784201Y-71855753D01*
X76897630Y-72094075D01*
X76954747Y-72286470D01*
X76955955Y-72446364D01*
X76901659Y-72587180D01*
X76792263Y-72722342D01*
X76750980Y-72762705D01*
X76653838Y-72841054D01*
X76560731Y-72876167D01*
X76435961Y-72884266D01*
X76332247Y-72879226D01*
X76242868Y-72853882D01*
X76152044Y-72794703D01*
X76031961Y-72688189D01*
X75838725Y-72466458D01*
X75654250Y-72157683D01*
X75506623Y-71799405D01*
X75398908Y-71406375D01*
X75334169Y-70993347D01*
X75315467Y-70575073D01*
X75345868Y-70166306D01*
X75428435Y-69781798D01*
X75457407Y-69688145D01*
X75590369Y-69327801D01*
X75740152Y-69018619D01*
X75902114Y-68766999D01*
X76071615Y-68579345D01*
X76244012Y-68462058D01*
X76414664Y-68421540D01*
X76512759Y-68440728D01*
G37*
G36*
X74644675Y-67462261D02*
G01*
X74809480Y-67558522D01*
X74932374Y-67714464D01*
X74951108Y-67752950D01*
X74981583Y-67845322D01*
X74985071Y-67943462D01*
X74958566Y-68064360D01*
X74899061Y-68225007D01*
X74803549Y-68442394D01*
X74639398Y-68818327D01*
X74485189Y-69220538D01*
X74372803Y-69587121D01*
X74297900Y-69935122D01*
X74256141Y-70281587D01*
X74243186Y-70643564D01*
X74246850Y-70855063D01*
X74275580Y-71231231D01*
X74336840Y-71594082D01*
X74435387Y-71963341D01*
X74575980Y-72358727D01*
X74763376Y-72799964D01*
X74831289Y-72955520D01*
X74902717Y-73131610D01*
X74954730Y-73274479D01*
X74979235Y-73363019D01*
X74981823Y-73413841D01*
X74941216Y-73568932D01*
X74840072Y-73720644D01*
X74691925Y-73846210D01*
X74609118Y-73886390D01*
X74426444Y-73917256D01*
X74243367Y-73886352D01*
X74090705Y-73796239D01*
X74089364Y-73794981D01*
X73969109Y-73651853D01*
X73836523Y-73442986D01*
X73698631Y-73183579D01*
X73562460Y-72888827D01*
X73435037Y-72573929D01*
X73323388Y-72254080D01*
X73234538Y-71944478D01*
X73221266Y-71890399D01*
X73191148Y-71751442D01*
X73169392Y-71613690D01*
X73154665Y-71460222D01*
X73145634Y-71274118D01*
X73140966Y-71038457D01*
X73139326Y-70736318D01*
X73141308Y-70420480D01*
X73151293Y-70074602D01*
X73169447Y-69803059D01*
X73195552Y-69610210D01*
X73209860Y-69540881D01*
X73291912Y-69214381D01*
X73397481Y-68878459D01*
X73520107Y-68548352D01*
X73653327Y-68239299D01*
X73790678Y-67966539D01*
X73925698Y-67745311D01*
X74051924Y-67590853D01*
X74088526Y-67558207D01*
X74265223Y-67459439D01*
X74456931Y-67428345D01*
X74644675Y-67462261D01*
G37*
G36*
X72553599Y-66384697D02*
G01*
X72708632Y-66475933D01*
X72825345Y-66607166D01*
X72888839Y-66767776D01*
X72884214Y-66947143D01*
X72880785Y-66959709D01*
X72846046Y-67055516D01*
X72784743Y-67204664D01*
X72704417Y-67389265D01*
X72612608Y-67591431D01*
X72465730Y-67921101D01*
X72284679Y-68382720D01*
X72141578Y-68831522D01*
X72026152Y-69297402D01*
X71999100Y-69428366D01*
X71973704Y-69575766D01*
X71955429Y-69725656D01*
X71943158Y-69894217D01*
X71935777Y-70097633D01*
X71932167Y-70352085D01*
X71931213Y-70673757D01*
X71933086Y-70966189D01*
X71944254Y-71341943D01*
X71968770Y-71674266D01*
X72010363Y-71979860D01*
X72072764Y-72275430D01*
X72159701Y-72577679D01*
X72274904Y-72903311D01*
X72422103Y-73269029D01*
X72605028Y-73691538D01*
X72700346Y-73909221D01*
X72788099Y-74118213D01*
X72846999Y-74273248D01*
X72881029Y-74386055D01*
X72894170Y-74468359D01*
X72890405Y-74531889D01*
X72841986Y-74673089D01*
X72721442Y-74838859D01*
X72557561Y-74952075D01*
X72443325Y-74990289D01*
X72282160Y-74997760D01*
X72128109Y-74942497D01*
X71976776Y-74820630D01*
X71823768Y-74628289D01*
X71664688Y-74361606D01*
X71495143Y-74016712D01*
X71386481Y-73767582D01*
X71130651Y-73060241D01*
X70939074Y-72329842D01*
X70814493Y-71591162D01*
X70759650Y-70858979D01*
X70777288Y-70148071D01*
X70841938Y-69559595D01*
X70990557Y-68777738D01*
X71208146Y-68038290D01*
X71495756Y-67337139D01*
X71600966Y-67118505D01*
X71729841Y-66866913D01*
X71839197Y-66677840D01*
X71934958Y-66542194D01*
X72023042Y-66450879D01*
X72109373Y-66394804D01*
X72188172Y-66364705D01*
X72375146Y-66344081D01*
X72553599Y-66384697D01*
G37*
G36*
X70429912Y-65289816D02*
G01*
X70601823Y-65376303D01*
X70733376Y-65514825D01*
X70806018Y-65694840D01*
X70813966Y-65738085D01*
X70818172Y-65781536D01*
X70813949Y-65830043D01*
X70797594Y-65893743D01*
X70765406Y-65982772D01*
X70713683Y-66107269D01*
X70638723Y-66277370D01*
X70536823Y-66503215D01*
X70404282Y-66794939D01*
X70145431Y-67416297D01*
X69891101Y-68191798D01*
X69712872Y-68974536D01*
X69607725Y-69778381D01*
X69572644Y-70617203D01*
X69589247Y-71264870D01*
X69655482Y-71982683D01*
X69776084Y-72672291D01*
X69955136Y-73351810D01*
X70196724Y-74039359D01*
X70504929Y-74753054D01*
X70593633Y-74947273D01*
X70685276Y-75159167D01*
X70757975Y-75339974D01*
X70805884Y-75475052D01*
X70823153Y-75549760D01*
X70813145Y-75624299D01*
X70745506Y-75777057D01*
X70630765Y-75919161D01*
X70488660Y-76022707D01*
X70349782Y-76077944D01*
X70215287Y-76093592D01*
X70088093Y-76060313D01*
X69962736Y-75973023D01*
X69833754Y-75826639D01*
X69695684Y-75616076D01*
X69543063Y-75336251D01*
X69370428Y-74982081D01*
X69363555Y-74967398D01*
X69070804Y-74260970D01*
X68826116Y-73504354D01*
X68635580Y-72719053D01*
X68505286Y-71926573D01*
X68501784Y-71897406D01*
X68477404Y-71622266D01*
X68460220Y-71292644D01*
X68450216Y-70928197D01*
X68447375Y-70548581D01*
X68451684Y-70173452D01*
X68463126Y-69822468D01*
X68481687Y-69515284D01*
X68507351Y-69271557D01*
X68629721Y-68585582D01*
X68840423Y-67759288D01*
X69113804Y-66952734D01*
X69442501Y-66190177D01*
X69462560Y-66148782D01*
X69600204Y-65873897D01*
X69715365Y-65665219D01*
X69815352Y-65512724D01*
X69907473Y-65406391D01*
X69999036Y-65336195D01*
X70097351Y-65292113D01*
X70236193Y-65265907D01*
X70429912Y-65289816D01*
G37*
D14*
X74110002Y-94090000D02*
G75*
G02*
X74070000Y-94090000I-20001J0D01*
G01*
X74070000Y-94090000D02*
G75*
G02*
X74110002Y-94090000I20001J0D01*
G01*
D13*
X69867164Y-95080000D02*
X70082836Y-95080000D01*
X69867164Y-95800000D02*
X70082836Y-95800000D01*
X69837164Y-93450000D02*
X70052836Y-93450000D01*
X69837164Y-94170000D02*
X70052836Y-94170000D01*
M02*
