G04 #@! TF.GenerationSoftware,KiCad,Pcbnew,10.0.4-10.0.4~ubuntu24.04.1*
G04 #@! TF.CreationDate,2026-09-11T02:22:27+06:00*
G04 #@! TF.ProjectId,designedbykoda businesscard,64657369-676e-4656-9462-796b6f646120,rev?*
G04 #@! TF.SameCoordinates,Original*
G04 #@! TF.FileFunction,Legend,Top*
G04 #@! TF.FilePolarity,Positive*
%FSLAX46Y46*%
G04 Gerber Fmt 4.6, Leading zero omitted, Abs format (unit mm)*
G04 Created by KiCad (PCBNEW 10.0.4-10.0.4~ubuntu24.04.1) date 2026-09-11 02:22:27*
%MOMM*%
%LPD*%
G01*
G04 APERTURE LIST*
%ADD10C,0.300000*%
%ADD11C,0.390000*%
%ADD12C,0.500000*%
G04 APERTURE END LIST*
D10*
G36*
X56420311Y-94879865D02*
G01*
X56353618Y-94894165D01*
X56299307Y-94935116D01*
X56280031Y-94963738D01*
X56267331Y-94996697D01*
X56262069Y-95038226D01*
X56276263Y-95103249D01*
X56316982Y-95156432D01*
X56345786Y-95175688D01*
X56378694Y-95188380D01*
X56420311Y-95193730D01*
X56487078Y-95179488D01*
X56541666Y-95138687D01*
X56561007Y-95110260D01*
X56573648Y-95077687D01*
X56578672Y-95038226D01*
X56564476Y-94972649D01*
X56523540Y-94918175D01*
X56494758Y-94898448D01*
X56461887Y-94885390D01*
X56420311Y-94879865D01*
G37*
G36*
X56409476Y-95483304D02*
G01*
X56095492Y-95581654D01*
X56095492Y-95666193D01*
X56286597Y-95666193D01*
X56286597Y-96653746D01*
X56240160Y-96697444D01*
X56095492Y-96711018D01*
X56095492Y-96809250D01*
X56709766Y-96809250D01*
X56709766Y-96711018D01*
X56562359Y-96697444D01*
X56513184Y-96653746D01*
X56513184Y-95483304D01*
X56409476Y-95483304D01*
G37*
G36*
X58003325Y-95651071D02*
G01*
X57974042Y-95603285D01*
X57939985Y-95562552D01*
X57902996Y-95530191D01*
X57861952Y-95504496D01*
X57769431Y-95473635D01*
X57703035Y-95468063D01*
X57593135Y-95483084D01*
X57450640Y-95534492D01*
X57266173Y-95631901D01*
X57266173Y-95481756D01*
X57162464Y-95481756D01*
X56845742Y-95581654D01*
X56845742Y-95666193D01*
X57039586Y-95666193D01*
X57039586Y-96653746D01*
X56993149Y-96697444D01*
X56845742Y-96711018D01*
X56845742Y-96809250D01*
X57443704Y-96809250D01*
X57443704Y-96711018D01*
X57312609Y-96697444D01*
X57266173Y-96653746D01*
X57266173Y-95739896D01*
X57354899Y-95698761D01*
X57436913Y-95669902D01*
X57503621Y-95654633D01*
X57566421Y-95648480D01*
X57577418Y-95648333D01*
X57632086Y-95652161D01*
X57679476Y-95663720D01*
X57715347Y-95680435D01*
X57745708Y-95703334D01*
X57788801Y-95764849D01*
X57813153Y-95855144D01*
X57817698Y-95929691D01*
X57817698Y-96653627D01*
X57771261Y-96697325D01*
X57640167Y-96711018D01*
X57640167Y-96809250D01*
X58221697Y-96809250D01*
X58221697Y-96711018D01*
X58093341Y-96697325D01*
X58044285Y-96653627D01*
X58044285Y-95738467D01*
X58139822Y-95696155D01*
X58228526Y-95666561D01*
X58292885Y-95652975D01*
X58352672Y-95648333D01*
X58409069Y-95652161D01*
X58457779Y-95663720D01*
X58494379Y-95680353D01*
X58525280Y-95703118D01*
X58568869Y-95763929D01*
X58593563Y-95852892D01*
X58598429Y-95929691D01*
X58598429Y-96653627D01*
X58549254Y-96697325D01*
X58421017Y-96711018D01*
X58421017Y-96809250D01*
X59016121Y-96809250D01*
X59016121Y-96711018D01*
X58871453Y-96697325D01*
X58825016Y-96653627D01*
X58825016Y-95883255D01*
X58821257Y-95808516D01*
X58810186Y-95740897D01*
X58793167Y-95683324D01*
X58770087Y-95632363D01*
X58742529Y-95589819D01*
X58709882Y-95553504D01*
X58631941Y-95500660D01*
X58535706Y-95472475D01*
X58472812Y-95468063D01*
X58368380Y-95483175D01*
X58219814Y-95537311D01*
X58003325Y-95651071D01*
G37*
G36*
X59305457Y-95658573D02*
G01*
X59305457Y-96541107D01*
X59309635Y-96620323D01*
X59323642Y-96685246D01*
X59340322Y-96722244D01*
X59363549Y-96752837D01*
X59423671Y-96792185D01*
X59516442Y-96813438D01*
X59589435Y-96816870D01*
X59765963Y-96801236D01*
X59946997Y-96756859D01*
X59946997Y-96655889D01*
X59854457Y-96671677D01*
X59761913Y-96677671D01*
X59758631Y-96677679D01*
X59696954Y-96673823D01*
X59647228Y-96662072D01*
X59614497Y-96646334D01*
X59588338Y-96624940D01*
X59554116Y-96567507D01*
X59535653Y-96475104D01*
X59532044Y-96379889D01*
X59532044Y-95658573D01*
X59946997Y-95658573D01*
X59946997Y-95530336D01*
X59532044Y-95530336D01*
X59532044Y-95239452D01*
X59431074Y-95239452D01*
X59313673Y-95494615D01*
X59133522Y-95574034D01*
X59133522Y-95658573D01*
X59305457Y-95658573D01*
G37*
G36*
X60363499Y-95468063D02*
G01*
X60046896Y-95567128D01*
X60046896Y-95651786D01*
X60240620Y-95651786D01*
X60240620Y-96420729D01*
X60244404Y-96497953D01*
X60255652Y-96567554D01*
X60272649Y-96625299D01*
X60295824Y-96676325D01*
X60323214Y-96718207D01*
X60355877Y-96754000D01*
X60434311Y-96806050D01*
X60533410Y-96834585D01*
X60606517Y-96839731D01*
X60723507Y-96824677D01*
X60855091Y-96776449D01*
X61010234Y-96686397D01*
X61048737Y-96659581D01*
X61048737Y-96809250D01*
X61452736Y-96809250D01*
X61452736Y-96711018D01*
X61324500Y-96697325D01*
X61275324Y-96653508D01*
X61275324Y-95468063D01*
X61171616Y-95468063D01*
X60854894Y-95567128D01*
X60854894Y-95651786D01*
X61048737Y-95651786D01*
X61048737Y-96579686D01*
X60971764Y-96615277D01*
X60897043Y-96641143D01*
X60828435Y-96656816D01*
X60761090Y-96664304D01*
X60732015Y-96665058D01*
X60672109Y-96661230D01*
X60620263Y-96649678D01*
X60581218Y-96633069D01*
X60548133Y-96610346D01*
X60501363Y-96550288D01*
X60474059Y-96463870D01*
X60467207Y-96374055D01*
X60467207Y-95468063D01*
X60363499Y-95468063D01*
G37*
G36*
X62358845Y-95473515D02*
G01*
X62470873Y-95499521D01*
X62552071Y-95544652D01*
X62584530Y-95575463D01*
X62611376Y-95611805D01*
X62634463Y-95657974D01*
X62651229Y-95711074D01*
X62663016Y-95781537D01*
X62666877Y-95861822D01*
X62666877Y-96653746D01*
X62716052Y-96697325D01*
X62860720Y-96711018D01*
X62860720Y-96809250D01*
X62475772Y-96809250D01*
X62440290Y-96651008D01*
X62424237Y-96661855D01*
X62255263Y-96760082D01*
X62115212Y-96813393D01*
X61992592Y-96832111D01*
X61953467Y-96830464D01*
X61899069Y-96822133D01*
X61849220Y-96807104D01*
X61804238Y-96785795D01*
X61764272Y-96758561D01*
X61729148Y-96725316D01*
X61699668Y-96686764D01*
X61675605Y-96642223D01*
X61657983Y-96592949D01*
X61646889Y-96537993D01*
X61643127Y-96478954D01*
X61644545Y-96459546D01*
X61883407Y-96459546D01*
X61884500Y-96485967D01*
X61905229Y-96568496D01*
X61949053Y-96630152D01*
X61979166Y-96653069D01*
X62014385Y-96670083D01*
X62055652Y-96680971D01*
X62101778Y-96684704D01*
X62119208Y-96684175D01*
X62179485Y-96675284D01*
X62245505Y-96655758D01*
X62337989Y-96616242D01*
X62440290Y-96561111D01*
X62440290Y-96077693D01*
X62351410Y-96103032D01*
X62137180Y-96174730D01*
X62014638Y-96235442D01*
X61941182Y-96296471D01*
X61898854Y-96366564D01*
X61887243Y-96410560D01*
X61883407Y-96459546D01*
X61644545Y-96459546D01*
X61647709Y-96416256D01*
X61676113Y-96325815D01*
X61701778Y-96284374D01*
X61734921Y-96246696D01*
X61783354Y-96206694D01*
X61842296Y-96170390D01*
X61953169Y-96120190D01*
X62089466Y-96073977D01*
X62440290Y-95982200D01*
X62440290Y-95894685D01*
X62434448Y-95789768D01*
X62411578Y-95700189D01*
X62371792Y-95641954D01*
X62342252Y-95619986D01*
X62306211Y-95603915D01*
X62253244Y-95592072D01*
X62189174Y-95588203D01*
X62117651Y-95593415D01*
X62051173Y-95607824D01*
X61981757Y-95632020D01*
X61981757Y-95861822D01*
X61793272Y-95861822D01*
X61762869Y-95859737D01*
X61726132Y-95842671D01*
X61712813Y-95816827D01*
X61708733Y-95777046D01*
X61714704Y-95728547D01*
X61728737Y-95689460D01*
X61750748Y-95652263D01*
X61782523Y-95615340D01*
X61822706Y-95581461D01*
X61873512Y-95549747D01*
X61932905Y-95522436D01*
X62002348Y-95499582D01*
X62080112Y-95482511D01*
X62166283Y-95471774D01*
X62260139Y-95468063D01*
X62358845Y-95473515D01*
G37*
G36*
X56420311Y-98379865D02*
G01*
X56353618Y-98394165D01*
X56299307Y-98435116D01*
X56280031Y-98463738D01*
X56267331Y-98496697D01*
X56262069Y-98538226D01*
X56276263Y-98603249D01*
X56316982Y-98656432D01*
X56345786Y-98675688D01*
X56378694Y-98688380D01*
X56420311Y-98693730D01*
X56487078Y-98679488D01*
X56541666Y-98638687D01*
X56561007Y-98610260D01*
X56573648Y-98577687D01*
X56578672Y-98538226D01*
X56564476Y-98472649D01*
X56523540Y-98418175D01*
X56494758Y-98398448D01*
X56461887Y-98385390D01*
X56420311Y-98379865D01*
G37*
G36*
X56409476Y-98983304D02*
G01*
X56095492Y-99081654D01*
X56095492Y-99166193D01*
X56286597Y-99166193D01*
X56286597Y-100153746D01*
X56240160Y-100197444D01*
X56095492Y-100211018D01*
X56095492Y-100309250D01*
X56709766Y-100309250D01*
X56709766Y-100211018D01*
X56562359Y-100197444D01*
X56513184Y-100153746D01*
X56513184Y-98983304D01*
X56409476Y-98983304D01*
G37*
G36*
X58003325Y-99151071D02*
G01*
X57974042Y-99103285D01*
X57939985Y-99062552D01*
X57902996Y-99030191D01*
X57861952Y-99004496D01*
X57769431Y-98973635D01*
X57703035Y-98968063D01*
X57593135Y-98983084D01*
X57450640Y-99034492D01*
X57266173Y-99131901D01*
X57266173Y-98981756D01*
X57162464Y-98981756D01*
X56845742Y-99081654D01*
X56845742Y-99166193D01*
X57039586Y-99166193D01*
X57039586Y-100153746D01*
X56993149Y-100197444D01*
X56845742Y-100211018D01*
X56845742Y-100309250D01*
X57443704Y-100309250D01*
X57443704Y-100211018D01*
X57312609Y-100197444D01*
X57266173Y-100153746D01*
X57266173Y-99239896D01*
X57354899Y-99198761D01*
X57436913Y-99169902D01*
X57503621Y-99154633D01*
X57566421Y-99148480D01*
X57577418Y-99148333D01*
X57632086Y-99152161D01*
X57679476Y-99163720D01*
X57715347Y-99180435D01*
X57745708Y-99203334D01*
X57788801Y-99264849D01*
X57813153Y-99355144D01*
X57817698Y-99429691D01*
X57817698Y-100153627D01*
X57771261Y-100197325D01*
X57640167Y-100211018D01*
X57640167Y-100309250D01*
X58221697Y-100309250D01*
X58221697Y-100211018D01*
X58093341Y-100197325D01*
X58044285Y-100153627D01*
X58044285Y-99238467D01*
X58139822Y-99196155D01*
X58228526Y-99166561D01*
X58292885Y-99152975D01*
X58352672Y-99148333D01*
X58409069Y-99152161D01*
X58457779Y-99163720D01*
X58494379Y-99180353D01*
X58525280Y-99203118D01*
X58568869Y-99263929D01*
X58593563Y-99352892D01*
X58598429Y-99429691D01*
X58598429Y-100153627D01*
X58549254Y-100197325D01*
X58421017Y-100211018D01*
X58421017Y-100309250D01*
X59016121Y-100309250D01*
X59016121Y-100211018D01*
X58871453Y-100197325D01*
X58825016Y-100153627D01*
X58825016Y-99383255D01*
X58821257Y-99308516D01*
X58810186Y-99240897D01*
X58793167Y-99183324D01*
X58770087Y-99132363D01*
X58742529Y-99089819D01*
X58709882Y-99053504D01*
X58631941Y-99000660D01*
X58535706Y-98972475D01*
X58472812Y-98968063D01*
X58368380Y-98983175D01*
X58219814Y-99037311D01*
X58003325Y-99151071D01*
G37*
G36*
X59305457Y-99158573D02*
G01*
X59305457Y-100041107D01*
X59309635Y-100120323D01*
X59323642Y-100185246D01*
X59340322Y-100222244D01*
X59363549Y-100252837D01*
X59423671Y-100292185D01*
X59516442Y-100313438D01*
X59589435Y-100316870D01*
X59765963Y-100301236D01*
X59946997Y-100256859D01*
X59946997Y-100155889D01*
X59854457Y-100171677D01*
X59761913Y-100177671D01*
X59758631Y-100177679D01*
X59696954Y-100173823D01*
X59647228Y-100162072D01*
X59614497Y-100146334D01*
X59588338Y-100124940D01*
X59554116Y-100067507D01*
X59535653Y-99975104D01*
X59532044Y-99879889D01*
X59532044Y-99158573D01*
X59946997Y-99158573D01*
X59946997Y-99030336D01*
X59532044Y-99030336D01*
X59532044Y-98739452D01*
X59431074Y-98739452D01*
X59313673Y-98994615D01*
X59133522Y-99074034D01*
X59133522Y-99158573D01*
X59305457Y-99158573D01*
G37*
G36*
X60363499Y-98968063D02*
G01*
X60046896Y-99067128D01*
X60046896Y-99151786D01*
X60240620Y-99151786D01*
X60240620Y-99920729D01*
X60244404Y-99997953D01*
X60255652Y-100067554D01*
X60272649Y-100125299D01*
X60295824Y-100176325D01*
X60323214Y-100218207D01*
X60355877Y-100254000D01*
X60434311Y-100306050D01*
X60533410Y-100334585D01*
X60606517Y-100339731D01*
X60723507Y-100324677D01*
X60855091Y-100276449D01*
X61010234Y-100186397D01*
X61048737Y-100159581D01*
X61048737Y-100309250D01*
X61452736Y-100309250D01*
X61452736Y-100211018D01*
X61324500Y-100197325D01*
X61275324Y-100153508D01*
X61275324Y-98968063D01*
X61171616Y-98968063D01*
X60854894Y-99067128D01*
X60854894Y-99151786D01*
X61048737Y-99151786D01*
X61048737Y-100079686D01*
X60971764Y-100115277D01*
X60897043Y-100141143D01*
X60828435Y-100156816D01*
X60761090Y-100164304D01*
X60732015Y-100165058D01*
X60672109Y-100161230D01*
X60620263Y-100149678D01*
X60581218Y-100133069D01*
X60548133Y-100110346D01*
X60501363Y-100050288D01*
X60474059Y-99963870D01*
X60467207Y-99874055D01*
X60467207Y-98968063D01*
X60363499Y-98968063D01*
G37*
G36*
X62358845Y-98973515D02*
G01*
X62470873Y-98999521D01*
X62552071Y-99044652D01*
X62584530Y-99075463D01*
X62611376Y-99111805D01*
X62634463Y-99157974D01*
X62651229Y-99211074D01*
X62663016Y-99281537D01*
X62666877Y-99361822D01*
X62666877Y-100153746D01*
X62716052Y-100197325D01*
X62860720Y-100211018D01*
X62860720Y-100309250D01*
X62475772Y-100309250D01*
X62440290Y-100151008D01*
X62424237Y-100161855D01*
X62255263Y-100260082D01*
X62115212Y-100313393D01*
X61992592Y-100332111D01*
X61953467Y-100330464D01*
X61899069Y-100322133D01*
X61849220Y-100307104D01*
X61804238Y-100285795D01*
X61764272Y-100258561D01*
X61729148Y-100225316D01*
X61699668Y-100186764D01*
X61675605Y-100142223D01*
X61657983Y-100092949D01*
X61646889Y-100037993D01*
X61643127Y-99978954D01*
X61644545Y-99959546D01*
X61883407Y-99959546D01*
X61884500Y-99985967D01*
X61905229Y-100068496D01*
X61949053Y-100130152D01*
X61979166Y-100153069D01*
X62014385Y-100170083D01*
X62055652Y-100180971D01*
X62101778Y-100184704D01*
X62119208Y-100184175D01*
X62179485Y-100175284D01*
X62245505Y-100155758D01*
X62337989Y-100116242D01*
X62440290Y-100061111D01*
X62440290Y-99577693D01*
X62351410Y-99603032D01*
X62137180Y-99674730D01*
X62014638Y-99735442D01*
X61941182Y-99796471D01*
X61898854Y-99866564D01*
X61887243Y-99910560D01*
X61883407Y-99959546D01*
X61644545Y-99959546D01*
X61647709Y-99916256D01*
X61676113Y-99825815D01*
X61701778Y-99784374D01*
X61734921Y-99746696D01*
X61783354Y-99706694D01*
X61842296Y-99670390D01*
X61953169Y-99620190D01*
X62089466Y-99573977D01*
X62440290Y-99482200D01*
X62440290Y-99394685D01*
X62434448Y-99289768D01*
X62411578Y-99200189D01*
X62371792Y-99141954D01*
X62342252Y-99119986D01*
X62306211Y-99103915D01*
X62253244Y-99092072D01*
X62189174Y-99088203D01*
X62117651Y-99093415D01*
X62051173Y-99107824D01*
X61981757Y-99132020D01*
X61981757Y-99361822D01*
X61793272Y-99361822D01*
X61762869Y-99359737D01*
X61726132Y-99342671D01*
X61712813Y-99316827D01*
X61708733Y-99277046D01*
X61714704Y-99228547D01*
X61728737Y-99189460D01*
X61750748Y-99152263D01*
X61782523Y-99115340D01*
X61822706Y-99081461D01*
X61873512Y-99049747D01*
X61932905Y-99022436D01*
X62002348Y-98999582D01*
X62080112Y-98982511D01*
X62166283Y-98971774D01*
X62260139Y-98968063D01*
X62358845Y-98973515D01*
G37*
G36*
X54722906Y-76801850D02*
G01*
X54792543Y-76808282D01*
X54861867Y-76822447D01*
X54934262Y-76845641D01*
X55007118Y-76877600D01*
X55397543Y-76877600D01*
X55397543Y-77005956D01*
X55097134Y-77005956D01*
X55113712Y-77032863D01*
X55158066Y-77138030D01*
X55169732Y-77196962D01*
X55173576Y-77259809D01*
X55173176Y-77278329D01*
X55166984Y-77333840D01*
X55153515Y-77386627D01*
X55132819Y-77436774D01*
X55105267Y-77483404D01*
X55070606Y-77526727D01*
X55029473Y-77565659D01*
X54981426Y-77600275D01*
X54927323Y-77629565D01*
X54866783Y-77653349D01*
X54800683Y-77670856D01*
X54728921Y-77681707D01*
X54652175Y-77685360D01*
X54605739Y-77685360D01*
X54590072Y-77722659D01*
X54575733Y-77807881D01*
X54578851Y-77848738D01*
X54581210Y-77873131D01*
X54843280Y-77914090D01*
X54909340Y-77925157D01*
X55076023Y-77966789D01*
X55182181Y-78015536D01*
X55250456Y-78073698D01*
X55274516Y-78108538D01*
X55291908Y-78147540D01*
X55303566Y-78195987D01*
X55307409Y-78250339D01*
X55306738Y-78269497D01*
X55299127Y-78319183D01*
X55283197Y-78369793D01*
X55259143Y-78420226D01*
X55227162Y-78469380D01*
X55143570Y-78556702D01*
X55072290Y-78607977D01*
X55004499Y-78646336D01*
X54932517Y-78678119D01*
X54855502Y-78703543D01*
X54774978Y-78721915D01*
X54690418Y-78733185D01*
X54603119Y-78736972D01*
X54459888Y-78726436D01*
X54331178Y-78692544D01*
X54234658Y-78640092D01*
X54166323Y-78571714D01*
X54141825Y-78531398D01*
X54124007Y-78487230D01*
X54112768Y-78437707D01*
X54108985Y-78384410D01*
X54114798Y-78326900D01*
X54327357Y-78326900D01*
X54327484Y-78334959D01*
X54332742Y-78378573D01*
X54345455Y-78419877D01*
X54365891Y-78459393D01*
X54393422Y-78495473D01*
X54428578Y-78528340D01*
X54470358Y-78556520D01*
X54518976Y-78579718D01*
X54573522Y-78596987D01*
X54633537Y-78607758D01*
X54698612Y-78611474D01*
X54740710Y-78610075D01*
X54807007Y-78601800D01*
X54867937Y-78586692D01*
X54922755Y-78565559D01*
X54971312Y-78539017D01*
X55046052Y-78474426D01*
X55090570Y-78400218D01*
X55105349Y-78321423D01*
X55096752Y-78252341D01*
X55083723Y-78221019D01*
X55064648Y-78195119D01*
X55025760Y-78165317D01*
X54973419Y-78142622D01*
X54826968Y-78108053D01*
X54562159Y-78058758D01*
X54458727Y-78105492D01*
X54386064Y-78167946D01*
X54342316Y-78242407D01*
X54331132Y-78283595D01*
X54327357Y-78326900D01*
X54114798Y-78326900D01*
X54117012Y-78304992D01*
X54151476Y-78212029D01*
X54178283Y-78171802D01*
X54211201Y-78136132D01*
X54250404Y-78105127D01*
X54295379Y-78079536D01*
X54346839Y-78059451D01*
X54403799Y-78045780D01*
X54390091Y-78008814D01*
X54376532Y-77922901D01*
X54378054Y-77899445D01*
X54389051Y-77852951D01*
X54410678Y-77802718D01*
X54451239Y-77736328D01*
X54507507Y-77663570D01*
X54499466Y-77661728D01*
X54440412Y-77643896D01*
X54386424Y-77619851D01*
X54337877Y-77590077D01*
X54294905Y-77554930D01*
X54257732Y-77514763D01*
X54226679Y-77470022D01*
X54201918Y-77420883D01*
X54183870Y-77367949D01*
X54172760Y-77311275D01*
X54168996Y-77251594D01*
X54169276Y-77243378D01*
X54403799Y-77243378D01*
X54417170Y-77359954D01*
X54454682Y-77453900D01*
X54511294Y-77521937D01*
X54583923Y-77564108D01*
X54626030Y-77575157D01*
X54671345Y-77578913D01*
X54748928Y-77567422D01*
X54788436Y-77551022D01*
X54824116Y-77527882D01*
X54856500Y-77497348D01*
X54884079Y-77460371D01*
X54907150Y-77415718D01*
X54924253Y-77364951D01*
X54935157Y-77306956D01*
X54938892Y-77243378D01*
X54925758Y-77126766D01*
X54888648Y-77032863D01*
X54832371Y-76964986D01*
X54797931Y-76940625D01*
X54759625Y-76922817D01*
X54717125Y-76911724D01*
X54671345Y-76907962D01*
X54592228Y-76919515D01*
X54552930Y-76935650D01*
X54517456Y-76958431D01*
X54485477Y-76988375D01*
X54458231Y-77024782D01*
X54435392Y-77069040D01*
X54418437Y-77119686D01*
X54407533Y-77178425D01*
X54403799Y-77243378D01*
X54169276Y-77243378D01*
X54170147Y-77217804D01*
X54177896Y-77159462D01*
X54192724Y-77104431D01*
X54214450Y-77052850D01*
X54242776Y-77005201D01*
X54277906Y-76961277D01*
X54319260Y-76922004D01*
X54367457Y-76887132D01*
X54421532Y-76857732D01*
X54482316Y-76833764D01*
X54548590Y-76816154D01*
X54621092Y-76805146D01*
X54698612Y-76801396D01*
X54722906Y-76801850D01*
G37*
G36*
X55847026Y-76213198D02*
G01*
X55780333Y-76227498D01*
X55726022Y-76268449D01*
X55706747Y-76297071D01*
X55694046Y-76330030D01*
X55688785Y-76371559D01*
X55702979Y-76436582D01*
X55743698Y-76489765D01*
X55772502Y-76509021D01*
X55805409Y-76521713D01*
X55847026Y-76527063D01*
X55913793Y-76512821D01*
X55968382Y-76472020D01*
X55987723Y-76443593D01*
X56000363Y-76411020D01*
X56005387Y-76371559D01*
X55991191Y-76305982D01*
X55950255Y-76251508D01*
X55921473Y-76231781D01*
X55888603Y-76218723D01*
X55847026Y-76213198D01*
G37*
G36*
X55836191Y-76816637D02*
G01*
X55522208Y-76914987D01*
X55522208Y-76999526D01*
X55713313Y-76999526D01*
X55713313Y-77987079D01*
X55666876Y-78030777D01*
X55522208Y-78044351D01*
X55522208Y-78142583D01*
X56136482Y-78142583D01*
X56136482Y-78044351D01*
X55989075Y-78030777D01*
X55939900Y-77987079D01*
X55939900Y-76816637D01*
X55836191Y-76816637D01*
G37*
G36*
X56430819Y-76991906D02*
G01*
X56430819Y-77874440D01*
X56434997Y-77953656D01*
X56449004Y-78018579D01*
X56465684Y-78055577D01*
X56488911Y-78086170D01*
X56549033Y-78125518D01*
X56641804Y-78146771D01*
X56714797Y-78150203D01*
X56891324Y-78134569D01*
X57072359Y-78090192D01*
X57072359Y-77989222D01*
X56979819Y-78005010D01*
X56887275Y-78011004D01*
X56883993Y-78011012D01*
X56822316Y-78007156D01*
X56772590Y-77995405D01*
X56739859Y-77979667D01*
X56713700Y-77958273D01*
X56679478Y-77900840D01*
X56661014Y-77808437D01*
X56657406Y-77713222D01*
X56657406Y-76991906D01*
X57072359Y-76991906D01*
X57072359Y-76863669D01*
X56657406Y-76863669D01*
X56657406Y-76572785D01*
X56556436Y-76572785D01*
X56439034Y-76827948D01*
X56258884Y-76907367D01*
X56258884Y-76991906D01*
X56430819Y-76991906D01*
G37*
G36*
X57486122Y-76130803D02*
G01*
X57153088Y-76229154D01*
X57153088Y-76313692D01*
X57363362Y-76313692D01*
X57363362Y-77986960D01*
X57316926Y-78030658D01*
X57169519Y-78044351D01*
X57169519Y-78142583D01*
X57767361Y-78142583D01*
X57767361Y-78044351D01*
X57639006Y-78030658D01*
X57589950Y-77986960D01*
X57589950Y-77071800D01*
X57676794Y-77031576D01*
X57757523Y-77003162D01*
X57824164Y-76987838D01*
X57886355Y-76981777D01*
X57895598Y-76981666D01*
X57965211Y-76985545D01*
X58023518Y-76997456D01*
X58063577Y-77013633D01*
X58096720Y-77035797D01*
X58140854Y-77093062D01*
X58165596Y-77176958D01*
X58171360Y-77263024D01*
X58171360Y-77986960D01*
X58124924Y-78030658D01*
X57996687Y-78044351D01*
X57996687Y-78142583D01*
X58591791Y-78142583D01*
X58591791Y-78044351D01*
X58447123Y-78030658D01*
X58397948Y-77986960D01*
X58397948Y-77216588D01*
X58394156Y-77138945D01*
X58382856Y-77069157D01*
X58365891Y-77011853D01*
X58342731Y-76961325D01*
X58315447Y-76920125D01*
X58282859Y-76884978D01*
X58204398Y-76834036D01*
X58104433Y-76806232D01*
X58032170Y-76801396D01*
X57925726Y-76816068D01*
X57784668Y-76866636D01*
X57589950Y-76965234D01*
X57589950Y-76130803D01*
X57486122Y-76130803D01*
G37*
G36*
X59028177Y-76801396D02*
G01*
X58711574Y-76900461D01*
X58711574Y-76985119D01*
X58905298Y-76985119D01*
X58905298Y-77754062D01*
X58909082Y-77831286D01*
X58920330Y-77900887D01*
X58937327Y-77958632D01*
X58960502Y-78009658D01*
X58987892Y-78051540D01*
X59020555Y-78087333D01*
X59098989Y-78139383D01*
X59198088Y-78167918D01*
X59271195Y-78173064D01*
X59388185Y-78158010D01*
X59519769Y-78109782D01*
X59674911Y-78019730D01*
X59713415Y-77992914D01*
X59713415Y-78142583D01*
X60117414Y-78142583D01*
X60117414Y-78044351D01*
X59989178Y-78030658D01*
X59940002Y-77986841D01*
X59940002Y-76801396D01*
X59836294Y-76801396D01*
X59519572Y-76900461D01*
X59519572Y-76985119D01*
X59713415Y-76985119D01*
X59713415Y-77913019D01*
X59636442Y-77948610D01*
X59561721Y-77974476D01*
X59493113Y-77990149D01*
X59425768Y-77997637D01*
X59396693Y-77998391D01*
X59336786Y-77994563D01*
X59284941Y-77983011D01*
X59245896Y-77966402D01*
X59212811Y-77943679D01*
X59166041Y-77883621D01*
X59138737Y-77797203D01*
X59131885Y-77707388D01*
X59131885Y-76801396D01*
X59028177Y-76801396D01*
G37*
G36*
X60654532Y-76897008D02*
G01*
X60730541Y-76863645D01*
X60885306Y-76816456D01*
X61028526Y-76801396D01*
X61138799Y-76811820D01*
X61199846Y-76827609D01*
X61257115Y-76850208D01*
X61310856Y-76879649D01*
X61360248Y-76915461D01*
X61405736Y-76958095D01*
X61446208Y-77006713D01*
X61482020Y-77062108D01*
X61512070Y-77123086D01*
X61536439Y-77190520D01*
X61554262Y-77263067D01*
X61565337Y-77341380D01*
X61569096Y-77424243D01*
X61560029Y-77566003D01*
X61526083Y-77714019D01*
X61469300Y-77837207D01*
X61389942Y-77939281D01*
X61340844Y-77983404D01*
X61285893Y-78022219D01*
X61222573Y-78056911D01*
X61152982Y-78085781D01*
X61072754Y-78109893D01*
X60985606Y-78127421D01*
X60885380Y-78138782D01*
X60777410Y-78142583D01*
X60427945Y-78142583D01*
X60427945Y-76989881D01*
X60654532Y-76989881D01*
X60654532Y-78017084D01*
X60804677Y-78019823D01*
X60893051Y-78016004D01*
X61025849Y-77990955D01*
X61128054Y-77945199D01*
X61170363Y-77914479D01*
X61207389Y-77878255D01*
X61240293Y-77834737D01*
X61267630Y-77785091D01*
X61291041Y-77724256D01*
X61308068Y-77655977D01*
X61319629Y-77570868D01*
X61323458Y-77476157D01*
X61322442Y-77429286D01*
X61302354Y-77277877D01*
X61260290Y-77159340D01*
X61199343Y-77068885D01*
X61161915Y-77032947D01*
X61119868Y-77003087D01*
X61072064Y-76978881D01*
X61019620Y-76961267D01*
X60959652Y-76949974D01*
X60894812Y-76946183D01*
X60849357Y-76948357D01*
X60756759Y-76963021D01*
X60654532Y-76989881D01*
X60427945Y-76989881D01*
X60427945Y-76313692D01*
X60215050Y-76313692D01*
X60215050Y-76229154D01*
X60550823Y-76130803D01*
X60654532Y-76130803D01*
X60654532Y-76897008D01*
G37*
G36*
X62043345Y-77818836D02*
G01*
X61973822Y-77833140D01*
X61915176Y-77874514D01*
X61893250Y-77903701D01*
X61877761Y-77937352D01*
X61868672Y-77993509D01*
X61882891Y-78062634D01*
X61923578Y-78119495D01*
X61952646Y-78140987D01*
X61985959Y-78156159D01*
X62043345Y-78165444D01*
X62112537Y-78151182D01*
X62170212Y-78110136D01*
X62191730Y-78081108D01*
X62206801Y-78047751D01*
X62215399Y-77993509D01*
X62201140Y-77922818D01*
X62160354Y-77864604D01*
X62131569Y-77842957D01*
X62098499Y-77827753D01*
X62043345Y-77818836D01*
G37*
G36*
X63582423Y-78031730D02*
G01*
X63582423Y-77889324D01*
X63512188Y-77931645D01*
X63442078Y-77964324D01*
X63377675Y-77985736D01*
X63312474Y-77999087D01*
X63235696Y-78004463D01*
X63169848Y-78000685D01*
X63108184Y-77989478D01*
X63052563Y-77971680D01*
X63001313Y-77947242D01*
X62955390Y-77916911D01*
X62914098Y-77880495D01*
X62846112Y-77789910D01*
X62798427Y-77674478D01*
X62773934Y-77532521D01*
X62771568Y-77467108D01*
X62775312Y-77379776D01*
X62786285Y-77298890D01*
X62803643Y-77226266D01*
X62827179Y-77160398D01*
X62855559Y-77103242D01*
X62889068Y-77052974D01*
X62926008Y-77011188D01*
X62967121Y-76976319D01*
X63010807Y-76949272D01*
X63057872Y-76929206D01*
X63107400Y-76916451D01*
X63159684Y-76910927D01*
X63172947Y-76910701D01*
X63254642Y-76925323D01*
X63303922Y-76949041D01*
X63303922Y-77173842D01*
X63344967Y-77196702D01*
X63386013Y-77210394D01*
X63426801Y-77214921D01*
X63465901Y-77211200D01*
X63500137Y-77200396D01*
X63528052Y-77183759D01*
X63550448Y-77161509D01*
X63566606Y-77134645D01*
X63576503Y-77103285D01*
X63579685Y-77069657D01*
X63575901Y-77026724D01*
X63564654Y-76986644D01*
X63521605Y-76917507D01*
X63450215Y-76861716D01*
X63347033Y-76821538D01*
X63208251Y-76802191D01*
X63170209Y-76801396D01*
X63094157Y-76805161D01*
X63021617Y-76816277D01*
X62953224Y-76834357D01*
X62888848Y-76859176D01*
X62828925Y-76890369D01*
X62773534Y-76927737D01*
X62677365Y-77020007D01*
X62602306Y-77134368D01*
X62550723Y-77269331D01*
X62534554Y-77344201D01*
X62525351Y-77423288D01*
X62523191Y-77486397D01*
X62526958Y-77572270D01*
X62538086Y-77653672D01*
X62555985Y-77729154D01*
X62580522Y-77799685D01*
X62610834Y-77863825D01*
X62647073Y-77922607D01*
X62688207Y-77974847D01*
X62734609Y-78021366D01*
X62785321Y-78061377D01*
X62840728Y-78095292D01*
X62900216Y-78122692D01*
X62963919Y-78143557D01*
X63031746Y-78157648D01*
X63103382Y-78164663D01*
X63137465Y-78165444D01*
X63284021Y-78150393D01*
X63435875Y-78104121D01*
X63582423Y-78031730D01*
G37*
G36*
X64420602Y-76802913D02*
G01*
X64492048Y-76811376D01*
X64560216Y-76827020D01*
X64624994Y-76849643D01*
X64685849Y-76878919D01*
X64742699Y-76914725D01*
X64794962Y-76956661D01*
X64842518Y-77004658D01*
X64884805Y-77058250D01*
X64921625Y-77117365D01*
X64952492Y-77181521D01*
X64977126Y-77250575D01*
X64995129Y-77324093D01*
X65006179Y-77401822D01*
X65009934Y-77483420D01*
X65008259Y-77537955D01*
X64999598Y-77616749D01*
X64983861Y-77691502D01*
X64961403Y-77761876D01*
X64932555Y-77827621D01*
X64897737Y-77888317D01*
X64857229Y-77943816D01*
X64760850Y-78037769D01*
X64646341Y-78107357D01*
X64583212Y-78132371D01*
X64516480Y-78150580D01*
X64446645Y-78161681D01*
X64373871Y-78165444D01*
X64328655Y-78164004D01*
X64257560Y-78155651D01*
X64189678Y-78140098D01*
X64125096Y-78117538D01*
X64064388Y-78088300D01*
X64007629Y-78052500D01*
X63955425Y-78010546D01*
X63907907Y-77962511D01*
X63865635Y-77908858D01*
X63828831Y-77849687D01*
X63797968Y-77785458D01*
X63773344Y-77716358D01*
X63755344Y-77642784D01*
X63744301Y-77565039D01*
X63740546Y-77483420D01*
X63997139Y-77483420D01*
X63997549Y-77514172D01*
X64016082Y-77680854D01*
X64058068Y-77815208D01*
X64118068Y-77917550D01*
X64191885Y-77989640D01*
X64277305Y-78033192D01*
X64324377Y-78044385D01*
X64373871Y-78048161D01*
X64377443Y-78048143D01*
X64427219Y-78043916D01*
X64474480Y-78032401D01*
X64519611Y-78013444D01*
X64561606Y-77987350D01*
X64601459Y-77953042D01*
X64637359Y-77911504D01*
X64670217Y-77860779D01*
X64698113Y-77802670D01*
X64721423Y-77734901D01*
X64738651Y-77659714D01*
X64749600Y-77575189D01*
X64753342Y-77483420D01*
X64752869Y-77450425D01*
X64734042Y-77284445D01*
X64691867Y-77150806D01*
X64631695Y-77049015D01*
X64557566Y-76977228D01*
X64471521Y-76933766D01*
X64423952Y-76922574D01*
X64373871Y-76918798D01*
X64372038Y-76918802D01*
X64322298Y-76922767D01*
X64275138Y-76934005D01*
X64230170Y-76952663D01*
X64188370Y-76978440D01*
X64148675Y-77012463D01*
X64112945Y-77053723D01*
X64080170Y-77104318D01*
X64052360Y-77162343D01*
X64029061Y-77230299D01*
X64011848Y-77305764D01*
X64000882Y-77390908D01*
X63997139Y-77483420D01*
X63740546Y-77483420D01*
X63742182Y-77428677D01*
X63750723Y-77349162D01*
X63766291Y-77273849D01*
X63788444Y-77203350D01*
X63816930Y-77137575D01*
X63891212Y-77021859D01*
X63986413Y-76928527D01*
X64041055Y-76890822D01*
X64100062Y-76859363D01*
X64163111Y-76834428D01*
X64229920Y-76816274D01*
X64300311Y-76805161D01*
X64373871Y-76801396D01*
X64420602Y-76802913D01*
G37*
G36*
X66349692Y-76984404D02*
G01*
X66320408Y-76936618D01*
X66286351Y-76895885D01*
X66249363Y-76863524D01*
X66208318Y-76837829D01*
X66115797Y-76806968D01*
X66049401Y-76801396D01*
X65939502Y-76816417D01*
X65797007Y-76867825D01*
X65612539Y-76965234D01*
X65612539Y-76815089D01*
X65508831Y-76815089D01*
X65192109Y-76914987D01*
X65192109Y-76999526D01*
X65385952Y-76999526D01*
X65385952Y-77987079D01*
X65339516Y-78030777D01*
X65192109Y-78044351D01*
X65192109Y-78142583D01*
X65790070Y-78142583D01*
X65790070Y-78044351D01*
X65658976Y-78030777D01*
X65612539Y-77987079D01*
X65612539Y-77073229D01*
X65701266Y-77032094D01*
X65783280Y-77003235D01*
X65849987Y-76987966D01*
X65912788Y-76981813D01*
X65923784Y-76981666D01*
X65978453Y-76985494D01*
X66025843Y-76997053D01*
X66061714Y-77013768D01*
X66092075Y-77036667D01*
X66135168Y-77098182D01*
X66159520Y-77188477D01*
X66164064Y-77263024D01*
X66164064Y-77986960D01*
X66117627Y-78030658D01*
X65986533Y-78044351D01*
X65986533Y-78142583D01*
X66568063Y-78142583D01*
X66568063Y-78044351D01*
X66439707Y-78030658D01*
X66390651Y-77986960D01*
X66390651Y-77071800D01*
X66486188Y-77029488D01*
X66574893Y-76999894D01*
X66639252Y-76986308D01*
X66699038Y-76981666D01*
X66755435Y-76985494D01*
X66804145Y-76997053D01*
X66840746Y-77013686D01*
X66871646Y-77036451D01*
X66915235Y-77097262D01*
X66939929Y-77186225D01*
X66944796Y-77263024D01*
X66944796Y-77986960D01*
X66895620Y-78030658D01*
X66767384Y-78044351D01*
X66767384Y-78142583D01*
X67362487Y-78142583D01*
X67362487Y-78044351D01*
X67217819Y-78030658D01*
X67171383Y-77986960D01*
X67171383Y-77216588D01*
X67167624Y-77141849D01*
X67156553Y-77074230D01*
X67139534Y-77016657D01*
X67116453Y-76965696D01*
X67088896Y-76923152D01*
X67056249Y-76886837D01*
X66978308Y-76833993D01*
X66882073Y-76805808D01*
X66819178Y-76801396D01*
X66714747Y-76816508D01*
X66566181Y-76870644D01*
X66349692Y-76984404D01*
G37*
G36*
X68500900Y-76313692D02*
G01*
X67335221Y-78399413D01*
X67498940Y-78399413D01*
X68667358Y-76313692D01*
X68500900Y-76313692D01*
G37*
G36*
X69144584Y-76213198D02*
G01*
X69077891Y-76227498D01*
X69023580Y-76268449D01*
X69004304Y-76297071D01*
X68991604Y-76330030D01*
X68986342Y-76371559D01*
X69000536Y-76436582D01*
X69041256Y-76489765D01*
X69070059Y-76509021D01*
X69102967Y-76521713D01*
X69144584Y-76527063D01*
X69211351Y-76512821D01*
X69265939Y-76472020D01*
X69285280Y-76443593D01*
X69297921Y-76411020D01*
X69302945Y-76371559D01*
X69288749Y-76305982D01*
X69247813Y-76251508D01*
X69219031Y-76231781D01*
X69186160Y-76218723D01*
X69144584Y-76213198D01*
G37*
G36*
X69133749Y-76816637D02*
G01*
X68819765Y-76914987D01*
X68819765Y-76999526D01*
X69010870Y-76999526D01*
X69010870Y-77987079D01*
X68964434Y-78030777D01*
X68819765Y-78044351D01*
X68819765Y-78142583D01*
X69434039Y-78142583D01*
X69434039Y-78044351D01*
X69286633Y-78030777D01*
X69237457Y-77987079D01*
X69237457Y-76816637D01*
X69133749Y-76816637D01*
G37*
G36*
X70727598Y-76984404D02*
G01*
X70698315Y-76936618D01*
X70664258Y-76895885D01*
X70627269Y-76863524D01*
X70586225Y-76837829D01*
X70493704Y-76806968D01*
X70427308Y-76801396D01*
X70317408Y-76816417D01*
X70174914Y-76867825D01*
X69990446Y-76965234D01*
X69990446Y-76815089D01*
X69886737Y-76815089D01*
X69570015Y-76914987D01*
X69570015Y-76999526D01*
X69763859Y-76999526D01*
X69763859Y-77987079D01*
X69717422Y-78030777D01*
X69570015Y-78044351D01*
X69570015Y-78142583D01*
X70167977Y-78142583D01*
X70167977Y-78044351D01*
X70036883Y-78030777D01*
X69990446Y-77987079D01*
X69990446Y-77073229D01*
X70079172Y-77032094D01*
X70161186Y-77003235D01*
X70227894Y-76987966D01*
X70290694Y-76981813D01*
X70301691Y-76981666D01*
X70356359Y-76985494D01*
X70403749Y-76997053D01*
X70439621Y-77013768D01*
X70469981Y-77036667D01*
X70513075Y-77098182D01*
X70537426Y-77188477D01*
X70541971Y-77263024D01*
X70541971Y-77986960D01*
X70495534Y-78030658D01*
X70364440Y-78044351D01*
X70364440Y-78142583D01*
X70945970Y-78142583D01*
X70945970Y-78044351D01*
X70817614Y-78030658D01*
X70768558Y-77986960D01*
X70768558Y-77071800D01*
X70864095Y-77029488D01*
X70952799Y-76999894D01*
X71017158Y-76986308D01*
X71076945Y-76981666D01*
X71133342Y-76985494D01*
X71182052Y-76997053D01*
X71218653Y-77013686D01*
X71249553Y-77036451D01*
X71293142Y-77097262D01*
X71317836Y-77186225D01*
X71322702Y-77263024D01*
X71322702Y-77986960D01*
X71273527Y-78030658D01*
X71145290Y-78044351D01*
X71145290Y-78142583D01*
X71740394Y-78142583D01*
X71740394Y-78044351D01*
X71595726Y-78030658D01*
X71549289Y-77986960D01*
X71549289Y-77216588D01*
X71545530Y-77141849D01*
X71534459Y-77074230D01*
X71517441Y-77016657D01*
X71494360Y-76965696D01*
X71466803Y-76923152D01*
X71434155Y-76886837D01*
X71356214Y-76833993D01*
X71259979Y-76805808D01*
X71197085Y-76801396D01*
X71092653Y-76816508D01*
X70944087Y-76870644D01*
X70727598Y-76984404D01*
G37*
G36*
X72029730Y-76991906D02*
G01*
X72029730Y-77874440D01*
X72033908Y-77953656D01*
X72047915Y-78018579D01*
X72064595Y-78055577D01*
X72087822Y-78086170D01*
X72147944Y-78125518D01*
X72240715Y-78146771D01*
X72313708Y-78150203D01*
X72490236Y-78134569D01*
X72671271Y-78090192D01*
X72671271Y-77989222D01*
X72578730Y-78005010D01*
X72486186Y-78011004D01*
X72482904Y-78011012D01*
X72421227Y-78007156D01*
X72371501Y-77995405D01*
X72338770Y-77979667D01*
X72312611Y-77958273D01*
X72278389Y-77900840D01*
X72259926Y-77808437D01*
X72256317Y-77713222D01*
X72256317Y-76991906D01*
X72671271Y-76991906D01*
X72671271Y-76863669D01*
X72256317Y-76863669D01*
X72256317Y-76572785D01*
X72155347Y-76572785D01*
X72037946Y-76827948D01*
X71857795Y-76907367D01*
X71857795Y-76991906D01*
X72029730Y-76991906D01*
G37*
G36*
X73087772Y-76801396D02*
G01*
X72771169Y-76900461D01*
X72771169Y-76985119D01*
X72964893Y-76985119D01*
X72964893Y-77754062D01*
X72968677Y-77831286D01*
X72979925Y-77900887D01*
X72996922Y-77958632D01*
X73020098Y-78009658D01*
X73047487Y-78051540D01*
X73080150Y-78087333D01*
X73158584Y-78139383D01*
X73257684Y-78167918D01*
X73330790Y-78173064D01*
X73447780Y-78158010D01*
X73579364Y-78109782D01*
X73734507Y-78019730D01*
X73773010Y-77992914D01*
X73773010Y-78142583D01*
X74177009Y-78142583D01*
X74177009Y-78044351D01*
X74048773Y-78030658D01*
X73999598Y-77986841D01*
X73999598Y-76801396D01*
X73895889Y-76801396D01*
X73579167Y-76900461D01*
X73579167Y-76985119D01*
X73773010Y-76985119D01*
X73773010Y-77913019D01*
X73696037Y-77948610D01*
X73621316Y-77974476D01*
X73552708Y-77990149D01*
X73485364Y-77997637D01*
X73456289Y-77998391D01*
X73396382Y-77994563D01*
X73344536Y-77983011D01*
X73305491Y-77966402D01*
X73272406Y-77943679D01*
X73225636Y-77883621D01*
X73198332Y-77797203D01*
X73191480Y-77707388D01*
X73191480Y-76801396D01*
X73087772Y-76801396D01*
G37*
G36*
X74640424Y-76801396D02*
G01*
X74323821Y-76900461D01*
X74323821Y-76985119D01*
X74517545Y-76985119D01*
X74517545Y-77754062D01*
X74521329Y-77831286D01*
X74532577Y-77900887D01*
X74549574Y-77958632D01*
X74572749Y-78009658D01*
X74600139Y-78051540D01*
X74632802Y-78087333D01*
X74711236Y-78139383D01*
X74810335Y-78167918D01*
X74883442Y-78173064D01*
X75000432Y-78158010D01*
X75132016Y-78109782D01*
X75287159Y-78019730D01*
X75325662Y-77992914D01*
X75325662Y-78142583D01*
X75729661Y-78142583D01*
X75729661Y-78044351D01*
X75601425Y-78030658D01*
X75552249Y-77986841D01*
X75552249Y-76801396D01*
X75448541Y-76801396D01*
X75131819Y-76900461D01*
X75131819Y-76985119D01*
X75325662Y-76985119D01*
X75325662Y-77913019D01*
X75248689Y-77948610D01*
X75173968Y-77974476D01*
X75105360Y-77990149D01*
X75038015Y-77997637D01*
X75008940Y-77998391D01*
X74949033Y-77994563D01*
X74897188Y-77983011D01*
X74858143Y-77966402D01*
X74825058Y-77943679D01*
X74778288Y-77883621D01*
X74750984Y-77797203D01*
X74744132Y-77707388D01*
X74744132Y-76801396D01*
X74640424Y-76801396D01*
G37*
G36*
X54420311Y-71879865D02*
G01*
X54353618Y-71894165D01*
X54299307Y-71935116D01*
X54280031Y-71963738D01*
X54267331Y-71996697D01*
X54262069Y-72038226D01*
X54276263Y-72103249D01*
X54316982Y-72156432D01*
X54345786Y-72175688D01*
X54378694Y-72188380D01*
X54420311Y-72193730D01*
X54487078Y-72179488D01*
X54541666Y-72138687D01*
X54561007Y-72110260D01*
X54573648Y-72077687D01*
X54578672Y-72038226D01*
X54564476Y-71972649D01*
X54523540Y-71918175D01*
X54494758Y-71898448D01*
X54461887Y-71885390D01*
X54420311Y-71879865D01*
G37*
G36*
X54409476Y-72483304D02*
G01*
X54095492Y-72581654D01*
X54095492Y-72666193D01*
X54286597Y-72666193D01*
X54286597Y-73653746D01*
X54240160Y-73697444D01*
X54095492Y-73711018D01*
X54095492Y-73809250D01*
X54709766Y-73809250D01*
X54709766Y-73711018D01*
X54562359Y-73697444D01*
X54513184Y-73653746D01*
X54513184Y-72483304D01*
X54409476Y-72483304D01*
G37*
G36*
X56003325Y-72651071D02*
G01*
X55974042Y-72603285D01*
X55939985Y-72562552D01*
X55902996Y-72530191D01*
X55861952Y-72504496D01*
X55769431Y-72473635D01*
X55703035Y-72468063D01*
X55593135Y-72483084D01*
X55450640Y-72534492D01*
X55266173Y-72631901D01*
X55266173Y-72481756D01*
X55162464Y-72481756D01*
X54845742Y-72581654D01*
X54845742Y-72666193D01*
X55039586Y-72666193D01*
X55039586Y-73653746D01*
X54993149Y-73697444D01*
X54845742Y-73711018D01*
X54845742Y-73809250D01*
X55443704Y-73809250D01*
X55443704Y-73711018D01*
X55312609Y-73697444D01*
X55266173Y-73653746D01*
X55266173Y-72739896D01*
X55354899Y-72698761D01*
X55436913Y-72669902D01*
X55503621Y-72654633D01*
X55566421Y-72648480D01*
X55577418Y-72648333D01*
X55632086Y-72652161D01*
X55679476Y-72663720D01*
X55715347Y-72680435D01*
X55745708Y-72703334D01*
X55788801Y-72764849D01*
X55813153Y-72855144D01*
X55817698Y-72929691D01*
X55817698Y-73653627D01*
X55771261Y-73697325D01*
X55640167Y-73711018D01*
X55640167Y-73809250D01*
X56221697Y-73809250D01*
X56221697Y-73711018D01*
X56093341Y-73697325D01*
X56044285Y-73653627D01*
X56044285Y-72738467D01*
X56139822Y-72696155D01*
X56228526Y-72666561D01*
X56292885Y-72652975D01*
X56352672Y-72648333D01*
X56409069Y-72652161D01*
X56457779Y-72663720D01*
X56494379Y-72680353D01*
X56525280Y-72703118D01*
X56568869Y-72763929D01*
X56593563Y-72852892D01*
X56598429Y-72929691D01*
X56598429Y-73653627D01*
X56549254Y-73697325D01*
X56421017Y-73711018D01*
X56421017Y-73809250D01*
X57016121Y-73809250D01*
X57016121Y-73711018D01*
X56871453Y-73697325D01*
X56825016Y-73653627D01*
X56825016Y-72883255D01*
X56821257Y-72808516D01*
X56810186Y-72740897D01*
X56793167Y-72683324D01*
X56770087Y-72632363D01*
X56742529Y-72589819D01*
X56709882Y-72553504D01*
X56631941Y-72500660D01*
X56535706Y-72472475D01*
X56472812Y-72468063D01*
X56368380Y-72483175D01*
X56219814Y-72537311D01*
X56003325Y-72651071D01*
G37*
G36*
X57305457Y-72658573D02*
G01*
X57305457Y-73541107D01*
X57309635Y-73620323D01*
X57323642Y-73685246D01*
X57340322Y-73722244D01*
X57363549Y-73752837D01*
X57423671Y-73792185D01*
X57516442Y-73813438D01*
X57589435Y-73816870D01*
X57765963Y-73801236D01*
X57946997Y-73756859D01*
X57946997Y-73655889D01*
X57854457Y-73671677D01*
X57761913Y-73677671D01*
X57758631Y-73677679D01*
X57696954Y-73673823D01*
X57647228Y-73662072D01*
X57614497Y-73646334D01*
X57588338Y-73624940D01*
X57554116Y-73567507D01*
X57535653Y-73475104D01*
X57532044Y-73379889D01*
X57532044Y-72658573D01*
X57946997Y-72658573D01*
X57946997Y-72530336D01*
X57532044Y-72530336D01*
X57532044Y-72239452D01*
X57431074Y-72239452D01*
X57313673Y-72494615D01*
X57133522Y-72574034D01*
X57133522Y-72658573D01*
X57305457Y-72658573D01*
G37*
G36*
X58363499Y-72468063D02*
G01*
X58046896Y-72567128D01*
X58046896Y-72651786D01*
X58240620Y-72651786D01*
X58240620Y-73420729D01*
X58244404Y-73497953D01*
X58255652Y-73567554D01*
X58272649Y-73625299D01*
X58295824Y-73676325D01*
X58323214Y-73718207D01*
X58355877Y-73754000D01*
X58434311Y-73806050D01*
X58533410Y-73834585D01*
X58606517Y-73839731D01*
X58723507Y-73824677D01*
X58855091Y-73776449D01*
X59010234Y-73686397D01*
X59048737Y-73659581D01*
X59048737Y-73809250D01*
X59452736Y-73809250D01*
X59452736Y-73711018D01*
X59324500Y-73697325D01*
X59275324Y-73653508D01*
X59275324Y-72468063D01*
X59171616Y-72468063D01*
X58854894Y-72567128D01*
X58854894Y-72651786D01*
X59048737Y-72651786D01*
X59048737Y-73579686D01*
X58971764Y-73615277D01*
X58897043Y-73641143D01*
X58828435Y-73656816D01*
X58761090Y-73664304D01*
X58732015Y-73665058D01*
X58672109Y-73661230D01*
X58620263Y-73649678D01*
X58581218Y-73633069D01*
X58548133Y-73610346D01*
X58501363Y-73550288D01*
X58474059Y-73463870D01*
X58467207Y-73374055D01*
X58467207Y-72468063D01*
X58363499Y-72468063D01*
G37*
G36*
X59916150Y-72468063D02*
G01*
X59599548Y-72567128D01*
X59599548Y-72651786D01*
X59793272Y-72651786D01*
X59793272Y-73420729D01*
X59797056Y-73497953D01*
X59808304Y-73567554D01*
X59825301Y-73625299D01*
X59848476Y-73676325D01*
X59875866Y-73718207D01*
X59908529Y-73754000D01*
X59986963Y-73806050D01*
X60086062Y-73834585D01*
X60159169Y-73839731D01*
X60276159Y-73824677D01*
X60407742Y-73776449D01*
X60562885Y-73686397D01*
X60601389Y-73659581D01*
X60601389Y-73809250D01*
X61005388Y-73809250D01*
X61005388Y-73711018D01*
X60877151Y-73697325D01*
X60827976Y-73653508D01*
X60827976Y-72468063D01*
X60724268Y-72468063D01*
X60407546Y-72567128D01*
X60407546Y-72651786D01*
X60601389Y-72651786D01*
X60601389Y-73579686D01*
X60524416Y-73615277D01*
X60449695Y-73641143D01*
X60381087Y-73656816D01*
X60313742Y-73664304D01*
X60284667Y-73665058D01*
X60224760Y-73661230D01*
X60172915Y-73649678D01*
X60133869Y-73633069D01*
X60100785Y-73610346D01*
X60054015Y-73550288D01*
X60026711Y-73463870D01*
X60019859Y-73374055D01*
X60019859Y-72468063D01*
X59916150Y-72468063D01*
G37*
G36*
X62641083Y-71929125D02*
G01*
X62824539Y-71959783D01*
X62985309Y-72015696D01*
X63123511Y-72094509D01*
X63239189Y-72194564D01*
X63288559Y-72252316D01*
X63331980Y-72314883D01*
X63369603Y-72382682D01*
X63400855Y-72454975D01*
X63425875Y-72532647D01*
X63444021Y-72614516D01*
X63455249Y-72701812D01*
X63459030Y-72793001D01*
X63457886Y-72844517D01*
X63435380Y-73019870D01*
X63384864Y-73181463D01*
X63348969Y-73257889D01*
X63306147Y-73330952D01*
X63251409Y-73405978D01*
X63197578Y-73465715D01*
X63140216Y-73518012D01*
X63080451Y-73562450D01*
X63018953Y-73598988D01*
X62898435Y-73646269D01*
X62787366Y-73661247D01*
X62779457Y-73661160D01*
X62697314Y-73646808D01*
X62639038Y-73610133D01*
X62616842Y-73582120D01*
X62600457Y-73548066D01*
X62589210Y-73503208D01*
X62585426Y-73450973D01*
X62585426Y-73426445D01*
X62506408Y-73502615D01*
X62386618Y-73592502D01*
X62282023Y-73640530D01*
X62184046Y-73655770D01*
X62130578Y-73651312D01*
X62084005Y-73639498D01*
X62040453Y-73620580D01*
X61999563Y-73594279D01*
X61962604Y-73561185D01*
X61929248Y-73520569D01*
X61900860Y-73473459D01*
X61877468Y-73419047D01*
X61860147Y-73358546D01*
X61849266Y-73291495D01*
X61845535Y-73218908D01*
X61846189Y-73186391D01*
X61846209Y-73186165D01*
X62077599Y-73186165D01*
X62083165Y-73270088D01*
X62109842Y-73366783D01*
X62154512Y-73432928D01*
X62183833Y-73456711D01*
X62217558Y-73474041D01*
X62258489Y-73485394D01*
X62304186Y-73489194D01*
X62347062Y-73485332D01*
X62389377Y-73473746D01*
X62436187Y-73451663D01*
X62482718Y-73419931D01*
X62536675Y-73370992D01*
X62590903Y-73309043D01*
X62702827Y-72735729D01*
X62590903Y-72582845D01*
X62530773Y-72577368D01*
X62482404Y-72580552D01*
X62429633Y-72591580D01*
X62379137Y-72610140D01*
X62329581Y-72636943D01*
X62283265Y-72671047D01*
X62239314Y-72713444D01*
X62199687Y-72762734D01*
X62164258Y-72819512D01*
X62134236Y-72882501D01*
X62110047Y-72951381D01*
X62092230Y-73025555D01*
X62081333Y-73103725D01*
X62077599Y-73186165D01*
X61846209Y-73186165D01*
X61853209Y-73108198D01*
X61867726Y-73032075D01*
X61889762Y-72957619D01*
X61918951Y-72886026D01*
X61955316Y-72817199D01*
X61998418Y-72752041D01*
X62033957Y-72707731D01*
X62086735Y-72652633D01*
X62143675Y-72604199D01*
X62267123Y-72528477D01*
X62396640Y-72483006D01*
X62525296Y-72468063D01*
X62529436Y-72468082D01*
X62591043Y-72472699D01*
X62653092Y-72485449D01*
X62722176Y-72508784D01*
X62792843Y-72541886D01*
X62842018Y-72479017D01*
X62989425Y-72479017D01*
X62953328Y-72595319D01*
X62926455Y-72718924D01*
X62915721Y-72771211D01*
X62809274Y-73240817D01*
X62807499Y-73248587D01*
X62791787Y-73333988D01*
X62787366Y-73390962D01*
X62787445Y-73396027D01*
X62803071Y-73454993D01*
X62820073Y-73477239D01*
X62842372Y-73493916D01*
X62870078Y-73504653D01*
X62902028Y-73508364D01*
X62965819Y-73497274D01*
X63009675Y-73478379D01*
X63054558Y-73450165D01*
X63098967Y-73412957D01*
X63142308Y-73366434D01*
X63206734Y-73275799D01*
X63243959Y-73205553D01*
X63275154Y-73129632D01*
X63300287Y-73047738D01*
X63318590Y-72961623D01*
X63333413Y-72782047D01*
X63322449Y-72646675D01*
X63306231Y-72571979D01*
X63283086Y-72500840D01*
X63253302Y-72433648D01*
X63217108Y-72370646D01*
X63126631Y-72258625D01*
X63072879Y-72210217D01*
X63013747Y-72167244D01*
X62949558Y-72130064D01*
X62880497Y-72098939D01*
X62806865Y-72074201D01*
X62728862Y-72056143D01*
X62646758Y-72045080D01*
X62560778Y-72041322D01*
X62468700Y-72044374D01*
X62281907Y-72071468D01*
X62112952Y-72125319D01*
X62034414Y-72162152D01*
X61959780Y-72205552D01*
X61888354Y-72256047D01*
X61821007Y-72313155D01*
X61709967Y-72431234D01*
X61612100Y-72575433D01*
X61573357Y-72652767D01*
X61541499Y-72733513D01*
X61516061Y-72819512D01*
X61497762Y-72909165D01*
X61486309Y-73006055D01*
X61482495Y-73106984D01*
X61495726Y-73291946D01*
X61536603Y-73467921D01*
X61602863Y-73624141D01*
X61692656Y-73760030D01*
X61745964Y-73820166D01*
X61804621Y-73874861D01*
X61868715Y-73924133D01*
X61937804Y-73967545D01*
X62012305Y-74005192D01*
X62091472Y-74036507D01*
X62176005Y-74061525D01*
X62264881Y-74079686D01*
X62358972Y-74090880D01*
X62457070Y-74094656D01*
X62582415Y-74088858D01*
X62683503Y-74075686D01*
X62784217Y-74054880D01*
X62883860Y-74026521D01*
X62982532Y-73990497D01*
X63079570Y-73946943D01*
X63175052Y-73895693D01*
X63213273Y-73988328D01*
X63020626Y-74083889D01*
X62796558Y-74165668D01*
X62583418Y-74213083D01*
X62383367Y-74228370D01*
X62250835Y-74221515D01*
X62065980Y-74187155D01*
X61894326Y-74125009D01*
X61736787Y-74035908D01*
X61663578Y-73981338D01*
X61594419Y-73920221D01*
X61510567Y-73828865D01*
X61460398Y-73760399D01*
X61416575Y-73687625D01*
X61378617Y-73609439D01*
X61347271Y-73527000D01*
X61322039Y-73438168D01*
X61303834Y-73345064D01*
X61292455Y-73244564D01*
X61288652Y-73139728D01*
X61289674Y-73085182D01*
X61311678Y-72888780D01*
X61361515Y-72707389D01*
X61396881Y-72621459D01*
X61439164Y-72538803D01*
X61489043Y-72458402D01*
X61545972Y-72381404D01*
X61611591Y-72306059D01*
X61684554Y-72234332D01*
X61783094Y-72155050D01*
X61863064Y-72102877D01*
X61947919Y-72056863D01*
X62037924Y-72016893D01*
X62131587Y-71983715D01*
X62325890Y-71938966D01*
X62522558Y-71924040D01*
X62641083Y-71929125D01*
G37*
G36*
X64636910Y-72478237D02*
G01*
X64695367Y-72494218D01*
X64750658Y-72517262D01*
X64803222Y-72547587D01*
X64851861Y-72584600D01*
X64896940Y-72628778D01*
X64937265Y-72679248D01*
X64972936Y-72736519D01*
X65002993Y-72799612D01*
X65027248Y-72868798D01*
X65045049Y-72943239D01*
X65056039Y-73022807D01*
X65059786Y-73106984D01*
X65055846Y-73195879D01*
X65027179Y-73351992D01*
X64973316Y-73486901D01*
X64896720Y-73600192D01*
X64799071Y-73691323D01*
X64742553Y-73728339D01*
X64681348Y-73759202D01*
X64614927Y-73783935D01*
X64544175Y-73801938D01*
X64468196Y-73813098D01*
X64388240Y-73816870D01*
X64378285Y-73816814D01*
X64267460Y-73810165D01*
X64134386Y-73792342D01*
X64134386Y-74248136D01*
X64180704Y-74291834D01*
X64355496Y-74305407D01*
X64355496Y-74403639D01*
X63713956Y-74403639D01*
X63713956Y-74305407D01*
X63861362Y-74291834D01*
X63907799Y-74248136D01*
X63907799Y-72732871D01*
X64134386Y-72732871D01*
X64134386Y-73650412D01*
X64233887Y-73678278D01*
X64366451Y-73694110D01*
X64407330Y-73692388D01*
X64464785Y-73683734D01*
X64518945Y-73668019D01*
X64569856Y-73645325D01*
X64616870Y-73615990D01*
X64660407Y-73579602D01*
X64699326Y-73536879D01*
X64734047Y-73486917D01*
X64763317Y-73430903D01*
X64787264Y-73367718D01*
X64804855Y-73298825D01*
X64815873Y-73223273D01*
X64819625Y-73142467D01*
X64819554Y-73131109D01*
X64803698Y-72981866D01*
X64763526Y-72860523D01*
X64703257Y-72766179D01*
X64625566Y-72697721D01*
X64580399Y-72673038D01*
X64531455Y-72655080D01*
X64477906Y-72643892D01*
X64420984Y-72640117D01*
X64415062Y-72640161D01*
X64355619Y-72645503D01*
X64295845Y-72659521D01*
X64217184Y-72689671D01*
X64134386Y-72732871D01*
X63907799Y-72732871D01*
X63907799Y-72666193D01*
X63713956Y-72666193D01*
X63713956Y-72581654D01*
X64030559Y-72481756D01*
X64134386Y-72481756D01*
X64134386Y-72631901D01*
X64152825Y-72618216D01*
X64293733Y-72530741D01*
X64417809Y-72483301D01*
X64535647Y-72468063D01*
X64636910Y-72478237D01*
G37*
G36*
X65236126Y-73809250D02*
G01*
X65894098Y-73809250D01*
X65894098Y-73711018D01*
X65702993Y-73697444D01*
X65656557Y-73653746D01*
X65656557Y-72874205D01*
X65725488Y-72799646D01*
X65790649Y-72742233D01*
X65840452Y-72708865D01*
X65888545Y-72686812D01*
X65954108Y-72675242D01*
X65993760Y-72679052D01*
X66029581Y-72690483D01*
X66086856Y-72732938D01*
X66093418Y-72740611D01*
X66180696Y-72740611D01*
X66180696Y-72506046D01*
X66122439Y-72485152D01*
X66066060Y-72473539D01*
X66016977Y-72470445D01*
X65948631Y-72475684D01*
X65817548Y-72586657D01*
X65687855Y-72708809D01*
X65656557Y-72740492D01*
X65656557Y-72483899D01*
X65552848Y-72483899D01*
X65236126Y-72582369D01*
X65236126Y-72666788D01*
X65429969Y-72666788D01*
X65429969Y-73653746D01*
X65380913Y-73697444D01*
X65236126Y-73711018D01*
X65236126Y-73809250D01*
G37*
G36*
X66977439Y-72469580D02*
G01*
X67048885Y-72478043D01*
X67117052Y-72493687D01*
X67181830Y-72516310D01*
X67242685Y-72545586D01*
X67299536Y-72581392D01*
X67351798Y-72623328D01*
X67399354Y-72671325D01*
X67441641Y-72724917D01*
X67478462Y-72784032D01*
X67509328Y-72848188D01*
X67533963Y-72917242D01*
X67551966Y-72990760D01*
X67563015Y-73068489D01*
X67566771Y-73150087D01*
X67565095Y-73204622D01*
X67556434Y-73283416D01*
X67540697Y-73358169D01*
X67518239Y-73428543D01*
X67489391Y-73494288D01*
X67454573Y-73554984D01*
X67414066Y-73610483D01*
X67317687Y-73704436D01*
X67203177Y-73774024D01*
X67140048Y-73799038D01*
X67073316Y-73817247D01*
X67003481Y-73828348D01*
X66930707Y-73832111D01*
X66885491Y-73830671D01*
X66814396Y-73822318D01*
X66746514Y-73806765D01*
X66681932Y-73784205D01*
X66621224Y-73754967D01*
X66564466Y-73719167D01*
X66512262Y-73677213D01*
X66464743Y-73629178D01*
X66422472Y-73575525D01*
X66385667Y-73516354D01*
X66354804Y-73452125D01*
X66330180Y-73383025D01*
X66312180Y-73309451D01*
X66301137Y-73231706D01*
X66297383Y-73150087D01*
X66553975Y-73150087D01*
X66554385Y-73180839D01*
X66572918Y-73347521D01*
X66614905Y-73481875D01*
X66674905Y-73584217D01*
X66748722Y-73656307D01*
X66834141Y-73699859D01*
X66881214Y-73711052D01*
X66930707Y-73714828D01*
X66934280Y-73714810D01*
X66984056Y-73710583D01*
X67031316Y-73699068D01*
X67076447Y-73680111D01*
X67118442Y-73654017D01*
X67158296Y-73619709D01*
X67194195Y-73578171D01*
X67227053Y-73527446D01*
X67254949Y-73469337D01*
X67278259Y-73401568D01*
X67295487Y-73326381D01*
X67306437Y-73241856D01*
X67310178Y-73150087D01*
X67309705Y-73117092D01*
X67290878Y-72951112D01*
X67248703Y-72817473D01*
X67188531Y-72715682D01*
X67114402Y-72643895D01*
X67028357Y-72600433D01*
X66980788Y-72589241D01*
X66930707Y-72585465D01*
X66928874Y-72585469D01*
X66879134Y-72589434D01*
X66831975Y-72600672D01*
X66787006Y-72619330D01*
X66745207Y-72645107D01*
X66705511Y-72679130D01*
X66669781Y-72720390D01*
X66637007Y-72770985D01*
X66609197Y-72829010D01*
X66585897Y-72896966D01*
X66568684Y-72972431D01*
X66557719Y-73057575D01*
X66553975Y-73150087D01*
X66297383Y-73150087D01*
X66299018Y-73095344D01*
X66307560Y-73015829D01*
X66323127Y-72940516D01*
X66345281Y-72870017D01*
X66373767Y-72804242D01*
X66448049Y-72688526D01*
X66543250Y-72595194D01*
X66597891Y-72557489D01*
X66656899Y-72526030D01*
X66719947Y-72501095D01*
X66786756Y-72482941D01*
X66857147Y-72471828D01*
X66930707Y-72468063D01*
X66977439Y-72469580D01*
G37*
G36*
X67907306Y-72658573D02*
G01*
X67907306Y-73541107D01*
X67911485Y-73620323D01*
X67925492Y-73685246D01*
X67942172Y-73722244D01*
X67965398Y-73752837D01*
X68025520Y-73792185D01*
X68118291Y-73813438D01*
X68191284Y-73816870D01*
X68367812Y-73801236D01*
X68548847Y-73756859D01*
X68548847Y-73655889D01*
X68456306Y-73671677D01*
X68363762Y-73677671D01*
X68360481Y-73677679D01*
X68298803Y-73673823D01*
X68249077Y-73662072D01*
X68216346Y-73646334D01*
X68190188Y-73624940D01*
X68155965Y-73567507D01*
X68137502Y-73475104D01*
X68133893Y-73379889D01*
X68133893Y-72658573D01*
X68548847Y-72658573D01*
X68548847Y-72530336D01*
X68133893Y-72530336D01*
X68133893Y-72239452D01*
X68032923Y-72239452D01*
X67915522Y-72494615D01*
X67735372Y-72574034D01*
X67735372Y-72658573D01*
X67907306Y-72658573D01*
G37*
G36*
X69358806Y-72469580D02*
G01*
X69430252Y-72478043D01*
X69498420Y-72493687D01*
X69563198Y-72516310D01*
X69624053Y-72545586D01*
X69680903Y-72581392D01*
X69733166Y-72623328D01*
X69780722Y-72671325D01*
X69823009Y-72724917D01*
X69859829Y-72784032D01*
X69890696Y-72848188D01*
X69915331Y-72917242D01*
X69933334Y-72990760D01*
X69944383Y-73068489D01*
X69948138Y-73150087D01*
X69946463Y-73204622D01*
X69937802Y-73283416D01*
X69922065Y-73358169D01*
X69899607Y-73428543D01*
X69870759Y-73494288D01*
X69835941Y-73554984D01*
X69795434Y-73610483D01*
X69699054Y-73704436D01*
X69584545Y-73774024D01*
X69521416Y-73799038D01*
X69454684Y-73817247D01*
X69384849Y-73828348D01*
X69312075Y-73832111D01*
X69266859Y-73830671D01*
X69195764Y-73822318D01*
X69127882Y-73806765D01*
X69063300Y-73784205D01*
X69002592Y-73754967D01*
X68945834Y-73719167D01*
X68893630Y-73677213D01*
X68846111Y-73629178D01*
X68803839Y-73575525D01*
X68767035Y-73516354D01*
X68736172Y-73452125D01*
X68711548Y-73383025D01*
X68693548Y-73309451D01*
X68682505Y-73231706D01*
X68678750Y-73150087D01*
X68935343Y-73150087D01*
X68935753Y-73180839D01*
X68954286Y-73347521D01*
X68996272Y-73481875D01*
X69056273Y-73584217D01*
X69130089Y-73656307D01*
X69215509Y-73699859D01*
X69262581Y-73711052D01*
X69312075Y-73714828D01*
X69315648Y-73714810D01*
X69365424Y-73710583D01*
X69412684Y-73699068D01*
X69457815Y-73680111D01*
X69499810Y-73654017D01*
X69539664Y-73619709D01*
X69575563Y-73578171D01*
X69608421Y-73527446D01*
X69636317Y-73469337D01*
X69659627Y-73401568D01*
X69676855Y-73326381D01*
X69687805Y-73241856D01*
X69691546Y-73150087D01*
X69691073Y-73117092D01*
X69672246Y-72951112D01*
X69630071Y-72817473D01*
X69569899Y-72715682D01*
X69495770Y-72643895D01*
X69409725Y-72600433D01*
X69362156Y-72589241D01*
X69312075Y-72585465D01*
X69310242Y-72585469D01*
X69260502Y-72589434D01*
X69213342Y-72600672D01*
X69168374Y-72619330D01*
X69126574Y-72645107D01*
X69086879Y-72679130D01*
X69051149Y-72720390D01*
X69018374Y-72770985D01*
X68990564Y-72829010D01*
X68967265Y-72896966D01*
X68950052Y-72972431D01*
X68939086Y-73057575D01*
X68935343Y-73150087D01*
X68678750Y-73150087D01*
X68680386Y-73095344D01*
X68688928Y-73015829D01*
X68704495Y-72940516D01*
X68726648Y-72870017D01*
X68755134Y-72804242D01*
X68829416Y-72688526D01*
X68924618Y-72595194D01*
X68979259Y-72557489D01*
X69038266Y-72526030D01*
X69101315Y-72501095D01*
X69168124Y-72482941D01*
X69238515Y-72471828D01*
X69312075Y-72468063D01*
X69358806Y-72469580D01*
G37*
G36*
X70130313Y-73809250D02*
G01*
X70728275Y-73809250D01*
X70728275Y-73711018D01*
X70597180Y-73697325D01*
X70550744Y-73653627D01*
X70550744Y-72738467D01*
X70637851Y-72698157D01*
X70718766Y-72669716D01*
X70785368Y-72654448D01*
X70847557Y-72648437D01*
X70856511Y-72648333D01*
X70926125Y-72652212D01*
X70984431Y-72664123D01*
X71024490Y-72680300D01*
X71057633Y-72702464D01*
X71101767Y-72759729D01*
X71126509Y-72843625D01*
X71132274Y-72929691D01*
X71132274Y-73653627D01*
X71085837Y-73697325D01*
X70954862Y-73711018D01*
X70954862Y-73809250D01*
X71552704Y-73809250D01*
X71552704Y-73711018D01*
X71405297Y-73697325D01*
X71358861Y-73653627D01*
X71358861Y-72883255D01*
X71355074Y-72806420D01*
X71343809Y-72737269D01*
X71326825Y-72680123D01*
X71303659Y-72629674D01*
X71276277Y-72588314D01*
X71243602Y-72552983D01*
X71164866Y-72501519D01*
X71064771Y-72473201D01*
X70990344Y-72468063D01*
X70884415Y-72482735D01*
X70744908Y-72533161D01*
X70550744Y-72631901D01*
X70550744Y-72481756D01*
X70447035Y-72481756D01*
X70130313Y-72581654D01*
X70130313Y-72666193D01*
X70324156Y-72666193D01*
X70324156Y-73653746D01*
X70277720Y-73697444D01*
X70130313Y-73711018D01*
X70130313Y-73809250D01*
G37*
G36*
X71976707Y-73485503D02*
G01*
X71907183Y-73499807D01*
X71848537Y-73541181D01*
X71826611Y-73570368D01*
X71811122Y-73604019D01*
X71802033Y-73660176D01*
X71816252Y-73729301D01*
X71856939Y-73786162D01*
X71886008Y-73807654D01*
X71919320Y-73822826D01*
X71976707Y-73832111D01*
X72045898Y-73817849D01*
X72103574Y-73776803D01*
X72125091Y-73747775D01*
X72140162Y-73714418D01*
X72148760Y-73660176D01*
X72134501Y-73589485D01*
X72093716Y-73531271D01*
X72064930Y-73509624D01*
X72031860Y-73494420D01*
X71976707Y-73485503D01*
G37*
G36*
X73594965Y-72651071D02*
G01*
X73565681Y-72603285D01*
X73531625Y-72562552D01*
X73494636Y-72530191D01*
X73453592Y-72504496D01*
X73361071Y-72473635D01*
X73294675Y-72468063D01*
X73184775Y-72483084D01*
X73042280Y-72534492D01*
X72857813Y-72631901D01*
X72857813Y-72481756D01*
X72754104Y-72481756D01*
X72437382Y-72581654D01*
X72437382Y-72666193D01*
X72631226Y-72666193D01*
X72631226Y-73653746D01*
X72584789Y-73697444D01*
X72437382Y-73711018D01*
X72437382Y-73809250D01*
X73035344Y-73809250D01*
X73035344Y-73711018D01*
X72904249Y-73697444D01*
X72857813Y-73653746D01*
X72857813Y-72739896D01*
X72946539Y-72698761D01*
X73028553Y-72669902D01*
X73095261Y-72654633D01*
X73158061Y-72648480D01*
X73169057Y-72648333D01*
X73223726Y-72652161D01*
X73271116Y-72663720D01*
X73306987Y-72680435D01*
X73337348Y-72703334D01*
X73380441Y-72764849D01*
X73404793Y-72855144D01*
X73409337Y-72929691D01*
X73409337Y-73653627D01*
X73362901Y-73697325D01*
X73231806Y-73711018D01*
X73231806Y-73809250D01*
X73813336Y-73809250D01*
X73813336Y-73711018D01*
X73684981Y-73697325D01*
X73635925Y-73653627D01*
X73635925Y-72738467D01*
X73731462Y-72696155D01*
X73820166Y-72666561D01*
X73884525Y-72652975D01*
X73944312Y-72648333D01*
X74000709Y-72652161D01*
X74049418Y-72663720D01*
X74086019Y-72680353D01*
X74116920Y-72703118D01*
X74160508Y-72763929D01*
X74185203Y-72852892D01*
X74190069Y-72929691D01*
X74190069Y-73653627D01*
X74140894Y-73697325D01*
X74012657Y-73711018D01*
X74012657Y-73809250D01*
X74607761Y-73809250D01*
X74607761Y-73711018D01*
X74463093Y-73697325D01*
X74416656Y-73653627D01*
X74416656Y-72883255D01*
X74412897Y-72808516D01*
X74401826Y-72740897D01*
X74384807Y-72683324D01*
X74361726Y-72632363D01*
X74334169Y-72589819D01*
X74301522Y-72553504D01*
X74223581Y-72500660D01*
X74127346Y-72472475D01*
X74064452Y-72468063D01*
X73960020Y-72483175D01*
X73811454Y-72537311D01*
X73594965Y-72651071D01*
G37*
G36*
X75452237Y-72471303D02*
G01*
X75573237Y-72498298D01*
X75675662Y-72550601D01*
X75720047Y-72585952D01*
X75759500Y-72627180D01*
X75794313Y-72674937D01*
X75823546Y-72728407D01*
X75847485Y-72789020D01*
X75865029Y-72855259D01*
X75876125Y-72929062D01*
X75879887Y-73008396D01*
X75877149Y-73092934D01*
X74992709Y-73092934D01*
X74992709Y-73122820D01*
X74995441Y-73194646D01*
X75020842Y-73340089D01*
X75069371Y-73458510D01*
X75137750Y-73551190D01*
X75224288Y-73619043D01*
X75274486Y-73643693D01*
X75328688Y-73661619D01*
X75388121Y-73672829D01*
X75451241Y-73676607D01*
X75551332Y-73667014D01*
X75623304Y-73648711D01*
X75696699Y-73621056D01*
X75786373Y-73576384D01*
X75879887Y-73519080D01*
X75879887Y-73668392D01*
X75841391Y-73692895D01*
X75763671Y-73735676D01*
X75684639Y-73770622D01*
X75525125Y-73816866D01*
X75366703Y-73832111D01*
X75338544Y-73831556D01*
X75267643Y-73825007D01*
X75200231Y-73811297D01*
X75136563Y-73790690D01*
X75076907Y-73763455D01*
X75021235Y-73729660D01*
X74970145Y-73689706D01*
X74923475Y-73643393D01*
X74882019Y-73591357D01*
X74845656Y-73533171D01*
X74815190Y-73469702D01*
X74790664Y-73400444D01*
X74772748Y-73326380D01*
X74761666Y-73247100D01*
X74757906Y-73163542D01*
X74759872Y-73102542D01*
X74768881Y-73021811D01*
X74777976Y-72978390D01*
X75006283Y-72978390D01*
X75636988Y-72978390D01*
X75636988Y-72934335D01*
X75636910Y-72923685D01*
X75622225Y-72801257D01*
X75586049Y-72711036D01*
X75530950Y-72646888D01*
X75495406Y-72623271D01*
X75455020Y-72606017D01*
X75406656Y-72594731D01*
X75353010Y-72590942D01*
X75327053Y-72592079D01*
X75279209Y-72600261D01*
X75233288Y-72616025D01*
X75189065Y-72639523D01*
X75148096Y-72670130D01*
X75110850Y-72707645D01*
X75078171Y-72751546D01*
X75050926Y-72800956D01*
X75029421Y-72855862D01*
X75014477Y-72914839D01*
X75006283Y-72978390D01*
X74777976Y-72978390D01*
X74784899Y-72945339D01*
X74807463Y-72873794D01*
X74836324Y-72807050D01*
X74911073Y-72689870D01*
X75006184Y-72595667D01*
X75118975Y-72526119D01*
X75181231Y-72501128D01*
X75247107Y-72482939D01*
X75316288Y-72471828D01*
X75388492Y-72468063D01*
X75452237Y-72471303D01*
G37*
G36*
X54420311Y-80546532D02*
G01*
X54353618Y-80560832D01*
X54299307Y-80601783D01*
X54280031Y-80630405D01*
X54267331Y-80663364D01*
X54262069Y-80704893D01*
X54276263Y-80769916D01*
X54316982Y-80823099D01*
X54345786Y-80842355D01*
X54378694Y-80855047D01*
X54420311Y-80860397D01*
X54487078Y-80846155D01*
X54541666Y-80805354D01*
X54561007Y-80776927D01*
X54573648Y-80744354D01*
X54578672Y-80704893D01*
X54564476Y-80639316D01*
X54523540Y-80584842D01*
X54494758Y-80565115D01*
X54461887Y-80552057D01*
X54420311Y-80546532D01*
G37*
G36*
X54409476Y-81149971D02*
G01*
X54095492Y-81248321D01*
X54095492Y-81332860D01*
X54286597Y-81332860D01*
X54286597Y-82320413D01*
X54240160Y-82364111D01*
X54095492Y-82377685D01*
X54095492Y-82475917D01*
X54709766Y-82475917D01*
X54709766Y-82377685D01*
X54562359Y-82364111D01*
X54513184Y-82320413D01*
X54513184Y-81149971D01*
X54409476Y-81149971D01*
G37*
G36*
X56003325Y-81317738D02*
G01*
X55974042Y-81269952D01*
X55939985Y-81229219D01*
X55902996Y-81196858D01*
X55861952Y-81171163D01*
X55769431Y-81140302D01*
X55703035Y-81134730D01*
X55593135Y-81149751D01*
X55450640Y-81201159D01*
X55266173Y-81298568D01*
X55266173Y-81148423D01*
X55162464Y-81148423D01*
X54845742Y-81248321D01*
X54845742Y-81332860D01*
X55039586Y-81332860D01*
X55039586Y-82320413D01*
X54993149Y-82364111D01*
X54845742Y-82377685D01*
X54845742Y-82475917D01*
X55443704Y-82475917D01*
X55443704Y-82377685D01*
X55312609Y-82364111D01*
X55266173Y-82320413D01*
X55266173Y-81406563D01*
X55354899Y-81365428D01*
X55436913Y-81336569D01*
X55503621Y-81321300D01*
X55566421Y-81315147D01*
X55577418Y-81315000D01*
X55632086Y-81318828D01*
X55679476Y-81330387D01*
X55715347Y-81347102D01*
X55745708Y-81370001D01*
X55788801Y-81431516D01*
X55813153Y-81521811D01*
X55817698Y-81596358D01*
X55817698Y-82320294D01*
X55771261Y-82363992D01*
X55640167Y-82377685D01*
X55640167Y-82475917D01*
X56221697Y-82475917D01*
X56221697Y-82377685D01*
X56093341Y-82363992D01*
X56044285Y-82320294D01*
X56044285Y-81405134D01*
X56139822Y-81362822D01*
X56228526Y-81333228D01*
X56292885Y-81319642D01*
X56352672Y-81315000D01*
X56409069Y-81318828D01*
X56457779Y-81330387D01*
X56494379Y-81347020D01*
X56525280Y-81369785D01*
X56568869Y-81430596D01*
X56593563Y-81519559D01*
X56598429Y-81596358D01*
X56598429Y-82320294D01*
X56549254Y-82363992D01*
X56421017Y-82377685D01*
X56421017Y-82475917D01*
X57016121Y-82475917D01*
X57016121Y-82377685D01*
X56871453Y-82363992D01*
X56825016Y-82320294D01*
X56825016Y-81549922D01*
X56821257Y-81475183D01*
X56810186Y-81407564D01*
X56793167Y-81349991D01*
X56770087Y-81299030D01*
X56742529Y-81256486D01*
X56709882Y-81220171D01*
X56631941Y-81167327D01*
X56535706Y-81139142D01*
X56472812Y-81134730D01*
X56368380Y-81149842D01*
X56219814Y-81203978D01*
X56003325Y-81317738D01*
G37*
G36*
X57305457Y-81325240D02*
G01*
X57305457Y-82207774D01*
X57309635Y-82286990D01*
X57323642Y-82351913D01*
X57340322Y-82388911D01*
X57363549Y-82419504D01*
X57423671Y-82458852D01*
X57516442Y-82480105D01*
X57589435Y-82483537D01*
X57765963Y-82467903D01*
X57946997Y-82423526D01*
X57946997Y-82322556D01*
X57854457Y-82338344D01*
X57761913Y-82344338D01*
X57758631Y-82344346D01*
X57696954Y-82340490D01*
X57647228Y-82328739D01*
X57614497Y-82313001D01*
X57588338Y-82291607D01*
X57554116Y-82234174D01*
X57535653Y-82141771D01*
X57532044Y-82046556D01*
X57532044Y-81325240D01*
X57946997Y-81325240D01*
X57946997Y-81197003D01*
X57532044Y-81197003D01*
X57532044Y-80906119D01*
X57431074Y-80906119D01*
X57313673Y-81161282D01*
X57133522Y-81240701D01*
X57133522Y-81325240D01*
X57305457Y-81325240D01*
G37*
G36*
X58363499Y-81134730D02*
G01*
X58046896Y-81233795D01*
X58046896Y-81318453D01*
X58240620Y-81318453D01*
X58240620Y-82087396D01*
X58244404Y-82164620D01*
X58255652Y-82234221D01*
X58272649Y-82291966D01*
X58295824Y-82342992D01*
X58323214Y-82384874D01*
X58355877Y-82420667D01*
X58434311Y-82472717D01*
X58533410Y-82501252D01*
X58606517Y-82506398D01*
X58723507Y-82491344D01*
X58855091Y-82443116D01*
X59010234Y-82353064D01*
X59048737Y-82326248D01*
X59048737Y-82475917D01*
X59452736Y-82475917D01*
X59452736Y-82377685D01*
X59324500Y-82363992D01*
X59275324Y-82320175D01*
X59275324Y-81134730D01*
X59171616Y-81134730D01*
X58854894Y-81233795D01*
X58854894Y-81318453D01*
X59048737Y-81318453D01*
X59048737Y-82246353D01*
X58971764Y-82281944D01*
X58897043Y-82307810D01*
X58828435Y-82323483D01*
X58761090Y-82330971D01*
X58732015Y-82331725D01*
X58672109Y-82327897D01*
X58620263Y-82316345D01*
X58581218Y-82299736D01*
X58548133Y-82277013D01*
X58501363Y-82216955D01*
X58474059Y-82130537D01*
X58467207Y-82040722D01*
X58467207Y-81134730D01*
X58363499Y-81134730D01*
G37*
G36*
X59916150Y-81134730D02*
G01*
X59599548Y-81233795D01*
X59599548Y-81318453D01*
X59793272Y-81318453D01*
X59793272Y-82087396D01*
X59797056Y-82164620D01*
X59808304Y-82234221D01*
X59825301Y-82291966D01*
X59848476Y-82342992D01*
X59875866Y-82384874D01*
X59908529Y-82420667D01*
X59986963Y-82472717D01*
X60086062Y-82501252D01*
X60159169Y-82506398D01*
X60276159Y-82491344D01*
X60407742Y-82443116D01*
X60562885Y-82353064D01*
X60601389Y-82326248D01*
X60601389Y-82475917D01*
X61005388Y-82475917D01*
X61005388Y-82377685D01*
X60877151Y-82363992D01*
X60827976Y-82320175D01*
X60827976Y-81134730D01*
X60724268Y-81134730D01*
X60407546Y-81233795D01*
X60407546Y-81318453D01*
X60601389Y-81318453D01*
X60601389Y-82246353D01*
X60524416Y-82281944D01*
X60449695Y-82307810D01*
X60381087Y-82323483D01*
X60313742Y-82330971D01*
X60284667Y-82331725D01*
X60224760Y-82327897D01*
X60172915Y-82316345D01*
X60133869Y-82299736D01*
X60100785Y-82277013D01*
X60054015Y-82216955D01*
X60026711Y-82130537D01*
X60019859Y-82040722D01*
X60019859Y-81134730D01*
X59916150Y-81134730D01*
G37*
G36*
X61460587Y-82152170D02*
G01*
X61391063Y-82166474D01*
X61332417Y-82207848D01*
X61310491Y-82237035D01*
X61295002Y-82270686D01*
X61285913Y-82326843D01*
X61300132Y-82395968D01*
X61340819Y-82452829D01*
X61369887Y-82474321D01*
X61403200Y-82489493D01*
X61460587Y-82498778D01*
X61529778Y-82484516D01*
X61587454Y-82443470D01*
X61608971Y-82414442D01*
X61624042Y-82381085D01*
X61632640Y-82326843D01*
X61618381Y-82256152D01*
X61577596Y-82197938D01*
X61548810Y-82176291D01*
X61515740Y-82161087D01*
X61460587Y-82152170D01*
G37*
G36*
X63078845Y-81317738D02*
G01*
X63049561Y-81269952D01*
X63015505Y-81229219D01*
X62978516Y-81196858D01*
X62937472Y-81171163D01*
X62844951Y-81140302D01*
X62778555Y-81134730D01*
X62668655Y-81149751D01*
X62526160Y-81201159D01*
X62341693Y-81298568D01*
X62341693Y-81148423D01*
X62237984Y-81148423D01*
X61921262Y-81248321D01*
X61921262Y-81332860D01*
X62115105Y-81332860D01*
X62115105Y-82320413D01*
X62068669Y-82364111D01*
X61921262Y-82377685D01*
X61921262Y-82475917D01*
X62519224Y-82475917D01*
X62519224Y-82377685D01*
X62388129Y-82364111D01*
X62341693Y-82320413D01*
X62341693Y-81406563D01*
X62430419Y-81365428D01*
X62512433Y-81336569D01*
X62579141Y-81321300D01*
X62641941Y-81315147D01*
X62652937Y-81315000D01*
X62707606Y-81318828D01*
X62754996Y-81330387D01*
X62790867Y-81347102D01*
X62821228Y-81370001D01*
X62864321Y-81431516D01*
X62888673Y-81521811D01*
X62893217Y-81596358D01*
X62893217Y-82320294D01*
X62846781Y-82363992D01*
X62715686Y-82377685D01*
X62715686Y-82475917D01*
X63297216Y-82475917D01*
X63297216Y-82377685D01*
X63168861Y-82363992D01*
X63119805Y-82320294D01*
X63119805Y-81405134D01*
X63215341Y-81362822D01*
X63304046Y-81333228D01*
X63368405Y-81319642D01*
X63428192Y-81315000D01*
X63484589Y-81318828D01*
X63533298Y-81330387D01*
X63569899Y-81347020D01*
X63600799Y-81369785D01*
X63644388Y-81430596D01*
X63669083Y-81519559D01*
X63673949Y-81596358D01*
X63673949Y-82320294D01*
X63624774Y-82363992D01*
X63496537Y-82377685D01*
X63496537Y-82475917D01*
X64091641Y-82475917D01*
X64091641Y-82377685D01*
X63946973Y-82363992D01*
X63900536Y-82320294D01*
X63900536Y-81549922D01*
X63896777Y-81475183D01*
X63885706Y-81407564D01*
X63868687Y-81349991D01*
X63845606Y-81299030D01*
X63818049Y-81256486D01*
X63785402Y-81220171D01*
X63707461Y-81167327D01*
X63611226Y-81139142D01*
X63548332Y-81134730D01*
X63443900Y-81149842D01*
X63295334Y-81203978D01*
X63078845Y-81317738D01*
G37*
G36*
X64936117Y-81137970D02*
G01*
X65057117Y-81164965D01*
X65159542Y-81217268D01*
X65203927Y-81252619D01*
X65243380Y-81293847D01*
X65278193Y-81341604D01*
X65307426Y-81395074D01*
X65331365Y-81455687D01*
X65348909Y-81521926D01*
X65360005Y-81595729D01*
X65363767Y-81675063D01*
X65361029Y-81759601D01*
X64476589Y-81759601D01*
X64476589Y-81789487D01*
X64479321Y-81861313D01*
X64504722Y-82006756D01*
X64553251Y-82125177D01*
X64621630Y-82217857D01*
X64708168Y-82285710D01*
X64758366Y-82310360D01*
X64812568Y-82328286D01*
X64872001Y-82339496D01*
X64935121Y-82343274D01*
X65035212Y-82333681D01*
X65107184Y-82315378D01*
X65180579Y-82287723D01*
X65270253Y-82243051D01*
X65363767Y-82185747D01*
X65363767Y-82335059D01*
X65325271Y-82359562D01*
X65247551Y-82402343D01*
X65168519Y-82437289D01*
X65009005Y-82483533D01*
X64850583Y-82498778D01*
X64822424Y-82498223D01*
X64751523Y-82491674D01*
X64684111Y-82477964D01*
X64620443Y-82457357D01*
X64560787Y-82430122D01*
X64505115Y-82396327D01*
X64454025Y-82356373D01*
X64407355Y-82310060D01*
X64365899Y-82258024D01*
X64329536Y-82199838D01*
X64299070Y-82136369D01*
X64274544Y-82067111D01*
X64256628Y-81993047D01*
X64245546Y-81913767D01*
X64241786Y-81830209D01*
X64243752Y-81769209D01*
X64252761Y-81688478D01*
X64261856Y-81645057D01*
X64490163Y-81645057D01*
X65120868Y-81645057D01*
X65120868Y-81601002D01*
X65120790Y-81590352D01*
X65106105Y-81467924D01*
X65069929Y-81377703D01*
X65014830Y-81313555D01*
X64979286Y-81289938D01*
X64938900Y-81272684D01*
X64890536Y-81261398D01*
X64836890Y-81257609D01*
X64810933Y-81258746D01*
X64763089Y-81266928D01*
X64717168Y-81282692D01*
X64672945Y-81306190D01*
X64631976Y-81336797D01*
X64594730Y-81374312D01*
X64562051Y-81418213D01*
X64534806Y-81467623D01*
X64513301Y-81522529D01*
X64498357Y-81581506D01*
X64490163Y-81645057D01*
X64261856Y-81645057D01*
X64268779Y-81612006D01*
X64291343Y-81540461D01*
X64320204Y-81473717D01*
X64394953Y-81356537D01*
X64490064Y-81262334D01*
X64602855Y-81192786D01*
X64665111Y-81167795D01*
X64730987Y-81149606D01*
X64800168Y-81138495D01*
X64872372Y-81134730D01*
X64936117Y-81137970D01*
G37*
D11*
G36*
X54912276Y-67457400D02*
G01*
X55036163Y-67495208D01*
X55139164Y-67556635D01*
X55183532Y-67596347D01*
X55222739Y-67641809D01*
X55257495Y-67694358D01*
X55286540Y-67752737D01*
X55310557Y-67819559D01*
X55328086Y-67892435D01*
X55339310Y-67974995D01*
X55343091Y-68063881D01*
X55343091Y-68115795D01*
X54450435Y-68115795D01*
X54450435Y-68123892D01*
X54450949Y-68153270D01*
X54469770Y-68293230D01*
X54512504Y-68406926D01*
X54576151Y-68496224D01*
X54615545Y-68532225D01*
X54659723Y-68562241D01*
X54709528Y-68586530D01*
X54763894Y-68604237D01*
X54824696Y-68615439D01*
X54889917Y-68619216D01*
X55017115Y-68606776D01*
X55092886Y-68587795D01*
X55169801Y-68560072D01*
X55254120Y-68520385D01*
X55340352Y-68470381D01*
X55340352Y-68671130D01*
X55300439Y-68693467D01*
X55125223Y-68771091D01*
X54950007Y-68816944D01*
X54775254Y-68832111D01*
X54705063Y-68829320D01*
X54556256Y-68802654D01*
X54426203Y-68749921D01*
X54368456Y-68714463D01*
X54315716Y-68673219D01*
X54268066Y-68626272D01*
X54225909Y-68573982D01*
X54189175Y-68516062D01*
X54158495Y-68453197D01*
X54133841Y-68384766D01*
X54115874Y-68311778D01*
X54104738Y-68233424D01*
X54100969Y-68150920D01*
X54104796Y-68067645D01*
X54115882Y-67989237D01*
X54120307Y-67971008D01*
X54464009Y-67971008D01*
X54985409Y-67971008D01*
X54985409Y-67940884D01*
X54975696Y-67820690D01*
X54944821Y-67720459D01*
X54897294Y-67652372D01*
X54867237Y-67628198D01*
X54833151Y-67610634D01*
X54792683Y-67599267D01*
X54747987Y-67595466D01*
X54662139Y-67609513D01*
X54623176Y-67627222D01*
X54587814Y-67651812D01*
X54555132Y-67684505D01*
X54526938Y-67724243D01*
X54502438Y-67773457D01*
X54483594Y-67830007D01*
X54470314Y-67896762D01*
X54464009Y-67971008D01*
X54120307Y-67971008D01*
X54133922Y-67914925D01*
X54158530Y-67845189D01*
X54189447Y-67780085D01*
X54226255Y-67720057D01*
X54268736Y-67665188D01*
X54369275Y-67572215D01*
X54426762Y-67534571D01*
X54488696Y-67503151D01*
X54554797Y-67478225D01*
X54624753Y-67460075D01*
X54698369Y-67448966D01*
X54775254Y-67445202D01*
X54912276Y-67457400D01*
G37*
G36*
X55513359Y-68809250D02*
G01*
X56187643Y-68809250D01*
X56187643Y-68686490D01*
X56067622Y-68675536D01*
X56029401Y-68634695D01*
X56029401Y-67736681D01*
X56141455Y-67708330D01*
X56238119Y-67692972D01*
X56288732Y-67690364D01*
X56345161Y-67694200D01*
X56393735Y-67705816D01*
X56429903Y-67722440D01*
X56460424Y-67745218D01*
X56503659Y-67806353D01*
X56528754Y-67896947D01*
X56534370Y-67984344D01*
X56534370Y-68634695D01*
X56496149Y-68675536D01*
X56378748Y-68686490D01*
X56378748Y-68809250D01*
X57047674Y-68809250D01*
X57047674Y-68686490D01*
X56902887Y-68675536D01*
X56867404Y-68634695D01*
X56867404Y-67905401D01*
X56863582Y-67816930D01*
X56852066Y-67738101D01*
X56835229Y-67675873D01*
X56812152Y-67621309D01*
X56785529Y-67578098D01*
X56753601Y-67541289D01*
X56718021Y-67512039D01*
X56677505Y-67488647D01*
X56580106Y-67459180D01*
X56496149Y-67452822D01*
X56382888Y-67467724D01*
X56232063Y-67519268D01*
X56029401Y-67619399D01*
X56029401Y-67458300D01*
X55898307Y-67458300D01*
X55505143Y-67585346D01*
X55505143Y-67694531D01*
X55690890Y-67694531D01*
X55690890Y-68634695D01*
X55652669Y-68675536D01*
X55513359Y-68686490D01*
X55513359Y-68809250D01*
G37*
G36*
X57853122Y-67453780D02*
G01*
X57933670Y-67461375D01*
X58016631Y-67476912D01*
X58101948Y-67500821D01*
X58189659Y-67533551D01*
X58593658Y-67533551D01*
X58593658Y-67689054D01*
X58298845Y-67689054D01*
X58343376Y-67791146D01*
X58355119Y-67844980D01*
X58358974Y-67899329D01*
X58356375Y-67948140D01*
X58346590Y-68003872D01*
X58329720Y-68056616D01*
X58305810Y-68106323D01*
X58275136Y-68152381D01*
X58237260Y-68195102D01*
X58192820Y-68233402D01*
X58140900Y-68267598D01*
X58082581Y-68296491D01*
X58016716Y-68320138D01*
X57944661Y-68337526D01*
X57865369Y-68348395D01*
X57780183Y-68352027D01*
X57701002Y-68349407D01*
X57693211Y-68370847D01*
X57679213Y-68448710D01*
X57687309Y-68521223D01*
X57872937Y-68545751D01*
X58074575Y-68581322D01*
X58239088Y-68628429D01*
X58345395Y-68681360D01*
X58414205Y-68742724D01*
X58438231Y-68778407D01*
X58455690Y-68818086D01*
X58467092Y-68865418D01*
X58470898Y-68918078D01*
X58459623Y-69004935D01*
X58441974Y-69056093D01*
X58416535Y-69105292D01*
X58382125Y-69153975D01*
X58339957Y-69199658D01*
X58288786Y-69243093D01*
X58230127Y-69282382D01*
X58163399Y-69317480D01*
X58089753Y-69347303D01*
X58009660Y-69371320D01*
X57923444Y-69389054D01*
X57832577Y-69399911D01*
X57736485Y-69403639D01*
X57704533Y-69403237D01*
X57534351Y-69385228D01*
X57400568Y-69344739D01*
X57300142Y-69286802D01*
X57229531Y-69214535D01*
X57204543Y-69173249D01*
X57186434Y-69128664D01*
X57175172Y-69079887D01*
X57171386Y-69028097D01*
X57175741Y-68984042D01*
X57504420Y-68984042D01*
X57516514Y-69060180D01*
X57534159Y-69101496D01*
X57558904Y-69139497D01*
X57590472Y-69173751D01*
X57628101Y-69203210D01*
X57717718Y-69244451D01*
X57821142Y-69258852D01*
X57920960Y-69247779D01*
X57971663Y-69232105D01*
X58016736Y-69210463D01*
X58087685Y-69152679D01*
X58131192Y-69080899D01*
X58145961Y-69000592D01*
X58144501Y-68973882D01*
X58123391Y-68909708D01*
X58100152Y-68881346D01*
X58068885Y-68857969D01*
X57977247Y-68821178D01*
X57851147Y-68794485D01*
X57619083Y-68755907D01*
X57564010Y-68812008D01*
X57519661Y-68892397D01*
X57508230Y-68937085D01*
X57504420Y-68984042D01*
X57175741Y-68984042D01*
X57178713Y-68953978D01*
X57211408Y-68866940D01*
X57236887Y-68830468D01*
X57268136Y-68798997D01*
X57305571Y-68772445D01*
X57348436Y-68751728D01*
X57397946Y-68736852D01*
X57452626Y-68728878D01*
X57433340Y-68681498D01*
X57417143Y-68592307D01*
X57423786Y-68536308D01*
X57439344Y-68491433D01*
X57464114Y-68447000D01*
X57508300Y-68390878D01*
X57567288Y-68332976D01*
X57452098Y-68287772D01*
X57356111Y-68221508D01*
X57318241Y-68182122D01*
X57286929Y-68138735D01*
X57261964Y-68090925D01*
X57243898Y-68039508D01*
X57232572Y-67982913D01*
X57228777Y-67923023D01*
X57230236Y-67898376D01*
X57578124Y-67898376D01*
X57585955Y-67997096D01*
X57616930Y-68099875D01*
X57665380Y-68171398D01*
X57727331Y-68214349D01*
X57763300Y-68225497D01*
X57801972Y-68229267D01*
X57846225Y-68223985D01*
X57881368Y-68211238D01*
X57913483Y-68191200D01*
X57943634Y-68162517D01*
X57969587Y-68126386D01*
X57991892Y-68080687D01*
X58008574Y-68027492D01*
X58019364Y-67965141D01*
X58023082Y-67895638D01*
X58017337Y-67815543D01*
X57987896Y-67712609D01*
X57939724Y-67639731D01*
X57878519Y-67596074D01*
X57844021Y-67584945D01*
X57807449Y-67581178D01*
X57758721Y-67586553D01*
X57721943Y-67598899D01*
X57688617Y-67618149D01*
X57658010Y-67645196D01*
X57631823Y-67679180D01*
X57609423Y-67722168D01*
X57592734Y-67772257D01*
X57581855Y-67831784D01*
X57578124Y-67898376D01*
X57230236Y-67898376D01*
X57232333Y-67862936D01*
X57260638Y-67751243D01*
X57285070Y-67700640D01*
X57316082Y-67653980D01*
X57354136Y-67610866D01*
X57398575Y-67572358D01*
X57450536Y-67537952D01*
X57508766Y-67508957D01*
X57574846Y-67485124D01*
X57647062Y-67467615D01*
X57727037Y-67456577D01*
X57812926Y-67452822D01*
X57853122Y-67453780D01*
G37*
G36*
X59023971Y-66832714D02*
G01*
X58948576Y-66847151D01*
X58886355Y-66888392D01*
X58862146Y-66917948D01*
X58843804Y-66952413D01*
X58832029Y-66990995D01*
X58827429Y-67033118D01*
X58827389Y-67037512D01*
X58831080Y-67078602D01*
X58841679Y-67116014D01*
X58881946Y-67179329D01*
X58943945Y-67222466D01*
X58981175Y-67234545D01*
X59021206Y-67239382D01*
X59026710Y-67239452D01*
X59067528Y-67235727D01*
X59105216Y-67224892D01*
X59139297Y-67207337D01*
X59168869Y-67183625D01*
X59193209Y-67154345D01*
X59211721Y-67119969D01*
X59223655Y-67081389D01*
X59228560Y-67038815D01*
X59228650Y-67032035D01*
X59224918Y-66991460D01*
X59214039Y-66953900D01*
X59196440Y-66920016D01*
X59172613Y-66890627D01*
X59143339Y-66866669D01*
X59108882Y-66848557D01*
X59070320Y-66837124D01*
X59027619Y-66832740D01*
X59023971Y-66832714D01*
G37*
G36*
X59053976Y-67452822D02*
G01*
X58669028Y-67582369D01*
X58669028Y-67691674D01*
X58849179Y-67691674D01*
X58849179Y-68634576D01*
X58810958Y-68675536D01*
X58663551Y-68686490D01*
X58663551Y-68809250D01*
X59378795Y-68809250D01*
X59378795Y-68686490D01*
X59225911Y-68675536D01*
X59185071Y-68634576D01*
X59185071Y-67452822D01*
X59053976Y-67452822D01*
G37*
G36*
X59498816Y-68809250D02*
G01*
X60173100Y-68809250D01*
X60173100Y-68686490D01*
X60053079Y-68675536D01*
X60014858Y-68634695D01*
X60014858Y-67736681D01*
X60126912Y-67708330D01*
X60223576Y-67692972D01*
X60274189Y-67690364D01*
X60330618Y-67694200D01*
X60379193Y-67705816D01*
X60415361Y-67722440D01*
X60445881Y-67745218D01*
X60489116Y-67806353D01*
X60514211Y-67896947D01*
X60519827Y-67984344D01*
X60519827Y-68634695D01*
X60481606Y-68675536D01*
X60364205Y-68686490D01*
X60364205Y-68809250D01*
X61033131Y-68809250D01*
X61033131Y-68686490D01*
X60888344Y-68675536D01*
X60852862Y-68634695D01*
X60852862Y-67905401D01*
X60849039Y-67816930D01*
X60837523Y-67738101D01*
X60820686Y-67675873D01*
X60797609Y-67621309D01*
X60770986Y-67578098D01*
X60739058Y-67541289D01*
X60703478Y-67512039D01*
X60662962Y-67488647D01*
X60565563Y-67459180D01*
X60481606Y-67452822D01*
X60368345Y-67467724D01*
X60217520Y-67519268D01*
X60014858Y-67619399D01*
X60014858Y-67458300D01*
X59883764Y-67458300D01*
X59490600Y-67585346D01*
X59490600Y-67694531D01*
X59676347Y-67694531D01*
X59676347Y-68634695D01*
X59638126Y-68675536D01*
X59498816Y-68686490D01*
X59498816Y-68809250D01*
G37*
G36*
X61976365Y-67457400D02*
G01*
X62100253Y-67495208D01*
X62203253Y-67556635D01*
X62247621Y-67596347D01*
X62286828Y-67641809D01*
X62321584Y-67694358D01*
X62350629Y-67752737D01*
X62374646Y-67819559D01*
X62392175Y-67892435D01*
X62403399Y-67974995D01*
X62407180Y-68063881D01*
X62407180Y-68115795D01*
X61514525Y-68115795D01*
X61514525Y-68123892D01*
X61515038Y-68153270D01*
X61533860Y-68293230D01*
X61576593Y-68406926D01*
X61640240Y-68496224D01*
X61679635Y-68532225D01*
X61723813Y-68562241D01*
X61773617Y-68586530D01*
X61827983Y-68604237D01*
X61888785Y-68615439D01*
X61954006Y-68619216D01*
X62081204Y-68606776D01*
X62156976Y-68587795D01*
X62233890Y-68560072D01*
X62318209Y-68520385D01*
X62404442Y-68470381D01*
X62404442Y-68671130D01*
X62364529Y-68693467D01*
X62189312Y-68771091D01*
X62014096Y-68816944D01*
X61839343Y-68832111D01*
X61769152Y-68829320D01*
X61620345Y-68802654D01*
X61490292Y-68749921D01*
X61432545Y-68714463D01*
X61379806Y-68673219D01*
X61332156Y-68626272D01*
X61289998Y-68573982D01*
X61253264Y-68516062D01*
X61222585Y-68453197D01*
X61197930Y-68384766D01*
X61179964Y-68311778D01*
X61168827Y-68233424D01*
X61165059Y-68150920D01*
X61168885Y-68067645D01*
X61179971Y-67989237D01*
X61184396Y-67971008D01*
X61528098Y-67971008D01*
X62049499Y-67971008D01*
X62049499Y-67940884D01*
X62039786Y-67820690D01*
X62008910Y-67720459D01*
X61961384Y-67652372D01*
X61931326Y-67628198D01*
X61897240Y-67610634D01*
X61856772Y-67599267D01*
X61812076Y-67595466D01*
X61726228Y-67609513D01*
X61687265Y-67627222D01*
X61651903Y-67651812D01*
X61619221Y-67684505D01*
X61591027Y-67724243D01*
X61566527Y-67773457D01*
X61547683Y-67830007D01*
X61534403Y-67896762D01*
X61528098Y-67971008D01*
X61184396Y-67971008D01*
X61198011Y-67914925D01*
X61222619Y-67845189D01*
X61253536Y-67780085D01*
X61290345Y-67720057D01*
X61332826Y-67665188D01*
X61433364Y-67572215D01*
X61490851Y-67534571D01*
X61552785Y-67503151D01*
X61618886Y-67478225D01*
X61688843Y-67460075D01*
X61762458Y-67448966D01*
X61839343Y-67445202D01*
X61976365Y-67457400D01*
G37*
G36*
X63405186Y-67457400D02*
G01*
X63529073Y-67495208D01*
X63632074Y-67556635D01*
X63676442Y-67596347D01*
X63715649Y-67641809D01*
X63750405Y-67694358D01*
X63779450Y-67752737D01*
X63803467Y-67819559D01*
X63820996Y-67892435D01*
X63832220Y-67974995D01*
X63836001Y-68063881D01*
X63836001Y-68115795D01*
X62943345Y-68115795D01*
X62943345Y-68123892D01*
X62943859Y-68153270D01*
X62962680Y-68293230D01*
X63005414Y-68406926D01*
X63069061Y-68496224D01*
X63108455Y-68532225D01*
X63152633Y-68562241D01*
X63202438Y-68586530D01*
X63256804Y-68604237D01*
X63317606Y-68615439D01*
X63382827Y-68619216D01*
X63510025Y-68606776D01*
X63585796Y-68587795D01*
X63662711Y-68560072D01*
X63747030Y-68520385D01*
X63833262Y-68470381D01*
X63833262Y-68671130D01*
X63793349Y-68693467D01*
X63618133Y-68771091D01*
X63442917Y-68816944D01*
X63268164Y-68832111D01*
X63197973Y-68829320D01*
X63049166Y-68802654D01*
X62919113Y-68749921D01*
X62861366Y-68714463D01*
X62808626Y-68673219D01*
X62760976Y-68626272D01*
X62718819Y-68573982D01*
X62682085Y-68516062D01*
X62651405Y-68453197D01*
X62626751Y-68384766D01*
X62608784Y-68311778D01*
X62597648Y-68233424D01*
X62593879Y-68150920D01*
X62597706Y-68067645D01*
X62608792Y-67989237D01*
X62613217Y-67971008D01*
X62956919Y-67971008D01*
X63478319Y-67971008D01*
X63478319Y-67940884D01*
X63468606Y-67820690D01*
X63437731Y-67720459D01*
X63390204Y-67652372D01*
X63360147Y-67628198D01*
X63326061Y-67610634D01*
X63285593Y-67599267D01*
X63240897Y-67595466D01*
X63155049Y-67609513D01*
X63116086Y-67627222D01*
X63080724Y-67651812D01*
X63048042Y-67684505D01*
X63019848Y-67724243D01*
X62995348Y-67773457D01*
X62976504Y-67830007D01*
X62963224Y-67896762D01*
X62956919Y-67971008D01*
X62613217Y-67971008D01*
X62626832Y-67914925D01*
X62651440Y-67845189D01*
X62682356Y-67780085D01*
X62719165Y-67720057D01*
X62761646Y-67665188D01*
X62862185Y-67572215D01*
X62919672Y-67534571D01*
X62981606Y-67503151D01*
X63047707Y-67478225D01*
X63117663Y-67460075D01*
X63191279Y-67448966D01*
X63268164Y-67445202D01*
X63405186Y-67457400D01*
G37*
G36*
X64000792Y-68809250D02*
G01*
X64754256Y-68809250D01*
X64754256Y-68686490D01*
X64560532Y-68675536D01*
X64519573Y-68634814D01*
X64519573Y-67853964D01*
X64592461Y-67813744D01*
X64653966Y-67788627D01*
X64713416Y-67777760D01*
X64759594Y-67781643D01*
X64800522Y-67793585D01*
X64832538Y-67811194D01*
X64860859Y-67835739D01*
X64890828Y-67875753D01*
X65032757Y-67875753D01*
X65068240Y-67499259D01*
X65010109Y-67474546D01*
X64951952Y-67458891D01*
X64888089Y-67452822D01*
X64828079Y-67458300D01*
X64723429Y-67537095D01*
X64621990Y-67624000D01*
X64508618Y-67736801D01*
X64519573Y-67458300D01*
X64388478Y-67458300D01*
X63987218Y-67587489D01*
X63987218Y-67696674D01*
X64183800Y-67696674D01*
X64183800Y-68634814D01*
X64145579Y-68675536D01*
X64000792Y-68686490D01*
X64000792Y-68809250D01*
G37*
G36*
X66257971Y-67674171D02*
G01*
X66182139Y-67688514D01*
X66115614Y-67730394D01*
X66088433Y-67760712D01*
X66067158Y-67795856D01*
X66052723Y-67834544D01*
X66045662Y-67876302D01*
X66045077Y-67892542D01*
X66059415Y-67970871D01*
X66100930Y-68038482D01*
X66130705Y-68065672D01*
X66165176Y-68086811D01*
X66202941Y-68100955D01*
X66243685Y-68107701D01*
X66257971Y-68108175D01*
X66335639Y-68093864D01*
X66404020Y-68052101D01*
X66431916Y-68022023D01*
X66453749Y-67987265D01*
X66468481Y-67949381D01*
X66475723Y-67908660D01*
X66476342Y-67892542D01*
X66461999Y-67814874D01*
X66420168Y-67746690D01*
X66390028Y-67718900D01*
X66355104Y-67697093D01*
X66316869Y-67682284D01*
X66275608Y-67674881D01*
X66257971Y-67674171D01*
G37*
G36*
X68264427Y-67445998D02*
G01*
X68420251Y-67462990D01*
X68530195Y-67498694D01*
X68610229Y-67552496D01*
X68642625Y-67588329D01*
X68669240Y-67629855D01*
X68692600Y-67683527D01*
X68709434Y-67744886D01*
X68721730Y-67830534D01*
X68725663Y-67928501D01*
X68725663Y-68635529D01*
X68761146Y-68673750D01*
X68905814Y-68687323D01*
X68905814Y-68807583D01*
X68419896Y-68807583D01*
X68384413Y-68651841D01*
X68339657Y-68681099D01*
X68177955Y-68769750D01*
X68041267Y-68817054D01*
X67914808Y-68832111D01*
X67870243Y-68829832D01*
X67816252Y-68820455D01*
X67766222Y-68804210D01*
X67720570Y-68781524D01*
X67679688Y-68752809D01*
X67643978Y-68718482D01*
X67613849Y-68678961D01*
X67589699Y-68634649D01*
X67571944Y-68585977D01*
X67560988Y-68533336D01*
X67557245Y-68477168D01*
X67562035Y-68417157D01*
X67917546Y-68417157D01*
X67917634Y-68424493D01*
X67933122Y-68506505D01*
X67972310Y-68567409D01*
X68000560Y-68590223D01*
X68034058Y-68607129D01*
X68074299Y-68618092D01*
X68119605Y-68621836D01*
X68220588Y-68606670D01*
X68298047Y-68579948D01*
X68384413Y-68539917D01*
X68384413Y-68095077D01*
X68166930Y-68152888D01*
X68047254Y-68204791D01*
X67974974Y-68260329D01*
X67950598Y-68291745D01*
X67933003Y-68326664D01*
X67921383Y-68369304D01*
X67917546Y-68417157D01*
X67562035Y-68417157D01*
X67563558Y-68398077D01*
X67594021Y-68303861D01*
X67620206Y-68261360D01*
X67653546Y-68222898D01*
X67701056Y-68182875D01*
X67758360Y-68146832D01*
X67873944Y-68094345D01*
X68016865Y-68047221D01*
X68387152Y-67955767D01*
X68387152Y-67873967D01*
X68381573Y-67791683D01*
X68356102Y-67704574D01*
X68311373Y-67644766D01*
X68279153Y-67622083D01*
X68240886Y-67605541D01*
X68188647Y-67593838D01*
X68127821Y-67589989D01*
X67996727Y-67606302D01*
X67996727Y-67863013D01*
X67745611Y-67863013D01*
X67672209Y-67851493D01*
X67635018Y-67821964D01*
X67623777Y-67795717D01*
X67619994Y-67761924D01*
X67628820Y-67709233D01*
X67646315Y-67670898D01*
X67672711Y-67633699D01*
X67710264Y-67595913D01*
X67757056Y-67560784D01*
X67814273Y-67528197D01*
X67880257Y-67499922D01*
X67954103Y-67476828D01*
X68035636Y-67459510D01*
X68122169Y-67448896D01*
X68215098Y-67445202D01*
X68264427Y-67445998D01*
G37*
G36*
X70327133Y-68632790D02*
G01*
X70365354Y-68676488D01*
X70504545Y-68687323D01*
X70504545Y-68807583D01*
X69993980Y-68807583D01*
X69993980Y-68654580D01*
X69953988Y-68683225D01*
X69807716Y-68770272D01*
X69681389Y-68817117D01*
X69562714Y-68832111D01*
X69454685Y-68820529D01*
X69396479Y-68803736D01*
X69341500Y-68779899D01*
X69289154Y-68748695D01*
X69240767Y-68710790D01*
X69195802Y-68665524D01*
X69155612Y-68613915D01*
X69119961Y-68555226D01*
X69089940Y-68490639D01*
X69065660Y-68419665D01*
X69047853Y-68343352D01*
X69036847Y-68261681D01*
X69033098Y-68175329D01*
X69036381Y-68118177D01*
X69398876Y-68118177D01*
X69409767Y-68256997D01*
X69444376Y-68381124D01*
X69498258Y-68475357D01*
X69569117Y-68542880D01*
X69611161Y-68567278D01*
X69657250Y-68585044D01*
X69708976Y-68596266D01*
X69764654Y-68600046D01*
X69815738Y-68596578D01*
X69900279Y-68579053D01*
X69993980Y-68548252D01*
X69993980Y-67638926D01*
X69907077Y-67613273D01*
X69792040Y-67598086D01*
X69791383Y-67598086D01*
X69686703Y-67612798D01*
X69638906Y-67630823D01*
X69594628Y-67655684D01*
X69553322Y-67687915D01*
X69516262Y-67726843D01*
X69482781Y-67773793D01*
X69454449Y-67827396D01*
X69430942Y-67889444D01*
X69413612Y-67958056D01*
X69402623Y-68034949D01*
X69398876Y-68118177D01*
X69036381Y-68118177D01*
X69039389Y-68065799D01*
X69052410Y-67986909D01*
X69072241Y-67912356D01*
X69098439Y-67842769D01*
X69130826Y-67777953D01*
X69168997Y-67718336D01*
X69212778Y-67663936D01*
X69261901Y-67614991D01*
X69316098Y-67571742D01*
X69375302Y-67534314D01*
X69439072Y-67503099D01*
X69507541Y-67478216D01*
X69580078Y-67460109D01*
X69656952Y-67448970D01*
X69737387Y-67445202D01*
X69785425Y-67446320D01*
X69883841Y-67454839D01*
X69993980Y-67472588D01*
X69993980Y-67028701D01*
X69794778Y-67028701D01*
X69794778Y-66919396D01*
X70201516Y-66789850D01*
X70327133Y-66789850D01*
X70327133Y-68632790D01*
G37*
G36*
X70542647Y-67483304D02*
G01*
X70542647Y-67608921D01*
X70706485Y-67625233D01*
X71143228Y-68809250D01*
X71388985Y-68809250D01*
X71858472Y-67627972D01*
X72016833Y-67608921D01*
X72016833Y-67483304D01*
X71498171Y-67483304D01*
X71498171Y-67608921D01*
X71637362Y-67622495D01*
X71659151Y-67660597D01*
X71348025Y-68452640D01*
X71064047Y-67657858D01*
X71094053Y-67622495D01*
X71236101Y-67608921D01*
X71236101Y-67483304D01*
X70542647Y-67483304D01*
G37*
G36*
X72871599Y-67457400D02*
G01*
X72995486Y-67495208D01*
X73098487Y-67556635D01*
X73142855Y-67596347D01*
X73182062Y-67641809D01*
X73216818Y-67694358D01*
X73245863Y-67752737D01*
X73269880Y-67819559D01*
X73287409Y-67892435D01*
X73298633Y-67974995D01*
X73302414Y-68063881D01*
X73302414Y-68115795D01*
X72409758Y-68115795D01*
X72409758Y-68123892D01*
X72410272Y-68153270D01*
X72429094Y-68293230D01*
X72471827Y-68406926D01*
X72535474Y-68496224D01*
X72574868Y-68532225D01*
X72619047Y-68562241D01*
X72668851Y-68586530D01*
X72723217Y-68604237D01*
X72784019Y-68615439D01*
X72849240Y-68619216D01*
X72976438Y-68606776D01*
X73052209Y-68587795D01*
X73129124Y-68560072D01*
X73213443Y-68520385D01*
X73299675Y-68470381D01*
X73299675Y-68671130D01*
X73259763Y-68693467D01*
X73084546Y-68771091D01*
X72909330Y-68816944D01*
X72734577Y-68832111D01*
X72664386Y-68829320D01*
X72515579Y-68802654D01*
X72385526Y-68749921D01*
X72327779Y-68714463D01*
X72275039Y-68673219D01*
X72227389Y-68626272D01*
X72185232Y-68573982D01*
X72148498Y-68516062D01*
X72117818Y-68453197D01*
X72093164Y-68384766D01*
X72075197Y-68311778D01*
X72064061Y-68233424D01*
X72060293Y-68150920D01*
X72064119Y-68067645D01*
X72075205Y-67989237D01*
X72079630Y-67971008D01*
X72423332Y-67971008D01*
X72944733Y-67971008D01*
X72944733Y-67940884D01*
X72935019Y-67820690D01*
X72904144Y-67720459D01*
X72856617Y-67652372D01*
X72826560Y-67628198D01*
X72792474Y-67610634D01*
X72752006Y-67599267D01*
X72707310Y-67595466D01*
X72621462Y-67609513D01*
X72582499Y-67627222D01*
X72547137Y-67651812D01*
X72514455Y-67684505D01*
X72486261Y-67724243D01*
X72461761Y-67773457D01*
X72442917Y-67830007D01*
X72429637Y-67896762D01*
X72423332Y-67971008D01*
X72079630Y-67971008D01*
X72093245Y-67914925D01*
X72117853Y-67845189D01*
X72148770Y-67780085D01*
X72185578Y-67720057D01*
X72228059Y-67665188D01*
X72328598Y-67572215D01*
X72386085Y-67534571D01*
X72448019Y-67503151D01*
X72514120Y-67478225D01*
X72584077Y-67460075D01*
X72657692Y-67448966D01*
X72734577Y-67445202D01*
X72871599Y-67457400D01*
G37*
G36*
X73472682Y-68809250D02*
G01*
X74146966Y-68809250D01*
X74146966Y-68686490D01*
X74026945Y-68675536D01*
X73988724Y-68634695D01*
X73988724Y-67736681D01*
X74100778Y-67708330D01*
X74197442Y-67692972D01*
X74248055Y-67690364D01*
X74304484Y-67694200D01*
X74353059Y-67705816D01*
X74389227Y-67722440D01*
X74419747Y-67745218D01*
X74462982Y-67806353D01*
X74488077Y-67896947D01*
X74493693Y-67984344D01*
X74493693Y-68634695D01*
X74455472Y-68675536D01*
X74338071Y-68686490D01*
X74338071Y-68809250D01*
X75006997Y-68809250D01*
X75006997Y-68686490D01*
X74862210Y-68675536D01*
X74826728Y-68634695D01*
X74826728Y-67905401D01*
X74822905Y-67816930D01*
X74811389Y-67738101D01*
X74794552Y-67675873D01*
X74771475Y-67621309D01*
X74744852Y-67578098D01*
X74712924Y-67541289D01*
X74677344Y-67512039D01*
X74636828Y-67488647D01*
X74539429Y-67459180D01*
X74455472Y-67452822D01*
X74342211Y-67467724D01*
X74191386Y-67519268D01*
X73988724Y-67619399D01*
X73988724Y-67458300D01*
X73857630Y-67458300D01*
X73464466Y-67585346D01*
X73464466Y-67694531D01*
X73650213Y-67694531D01*
X73650213Y-68634695D01*
X73611992Y-68675536D01*
X73472682Y-68686490D01*
X73472682Y-68809250D01*
G37*
G36*
X75267161Y-67681434D02*
G01*
X75267161Y-68475263D01*
X75269083Y-68570300D01*
X75280482Y-68648492D01*
X75309808Y-68712374D01*
X75365512Y-68764480D01*
X75450884Y-68805900D01*
X75556643Y-68823580D01*
X75592099Y-68824490D01*
X75753154Y-68808809D01*
X75955279Y-68756251D01*
X76009791Y-68737213D01*
X76009791Y-68606119D01*
X75876589Y-68624373D01*
X75832260Y-68625289D01*
X75766929Y-68621355D01*
X75714702Y-68609058D01*
X75682344Y-68593241D01*
X75656563Y-68571568D01*
X75623811Y-68513677D01*
X75607426Y-68419490D01*
X75605673Y-68360719D01*
X75605673Y-67681434D01*
X76009791Y-67681434D01*
X76009791Y-67517715D01*
X75605673Y-67517715D01*
X75605673Y-67178489D01*
X75433738Y-67178489D01*
X75291809Y-67462943D01*
X75089750Y-67577725D01*
X75089750Y-67681434D01*
X75267161Y-67681434D01*
G37*
G36*
X76462965Y-67445202D02*
G01*
X76078017Y-67574987D01*
X76078017Y-67681434D01*
X76255429Y-67681434D01*
X76255429Y-68365005D01*
X76259254Y-68456850D01*
X76270788Y-68538504D01*
X76287584Y-68602577D01*
X76310603Y-68658683D01*
X76337059Y-68702917D01*
X76368784Y-68740596D01*
X76404006Y-68770462D01*
X76444108Y-68794417D01*
X76540270Y-68824898D01*
X76629423Y-68832111D01*
X76753026Y-68817183D01*
X76887762Y-68770122D01*
X77052078Y-68680413D01*
X77088074Y-68657437D01*
X77088074Y-68809250D01*
X77603998Y-68809250D01*
X77603998Y-68686490D01*
X77462068Y-68675536D01*
X77423847Y-68634457D01*
X77423847Y-67445202D01*
X77298349Y-67445202D01*
X76910662Y-67574987D01*
X76910662Y-67681434D01*
X77088074Y-67681434D01*
X77088074Y-68555038D01*
X76965286Y-68585435D01*
X76858170Y-68597399D01*
X76853271Y-68597427D01*
X76791967Y-68593573D01*
X76739838Y-68581838D01*
X76702287Y-68565401D01*
X76670813Y-68542877D01*
X76626936Y-68483077D01*
X76600998Y-68394101D01*
X76593941Y-68291183D01*
X76593941Y-67445202D01*
X76462965Y-67445202D01*
G37*
G36*
X77730806Y-68809250D02*
G01*
X78484270Y-68809250D01*
X78484270Y-68686490D01*
X78290546Y-68675536D01*
X78249586Y-68634814D01*
X78249586Y-67853964D01*
X78322475Y-67813744D01*
X78383980Y-67788627D01*
X78443430Y-67777760D01*
X78489608Y-67781643D01*
X78530536Y-67793585D01*
X78562552Y-67811194D01*
X78590873Y-67835739D01*
X78620842Y-67875753D01*
X78762771Y-67875753D01*
X78798254Y-67499259D01*
X78740123Y-67474546D01*
X78681966Y-67458891D01*
X78618103Y-67452822D01*
X78558093Y-67458300D01*
X78453443Y-67537095D01*
X78352004Y-67624000D01*
X78238632Y-67736801D01*
X78249586Y-67458300D01*
X78118492Y-67458300D01*
X77717232Y-67587489D01*
X77717232Y-67696674D01*
X77913814Y-67696674D01*
X77913814Y-68634814D01*
X77875593Y-68675536D01*
X77730806Y-68686490D01*
X77730806Y-68809250D01*
G37*
G36*
X79712792Y-67457400D02*
G01*
X79836680Y-67495208D01*
X79939680Y-67556635D01*
X79984048Y-67596347D01*
X80023256Y-67641809D01*
X80058011Y-67694358D01*
X80087056Y-67752737D01*
X80111073Y-67819559D01*
X80128602Y-67892435D01*
X80139827Y-67974995D01*
X80143607Y-68063881D01*
X80143607Y-68115795D01*
X79250952Y-68115795D01*
X79250952Y-68123892D01*
X79251465Y-68153270D01*
X79270287Y-68293230D01*
X79313020Y-68406926D01*
X79376667Y-68496224D01*
X79416062Y-68532225D01*
X79460240Y-68562241D01*
X79510044Y-68586530D01*
X79564410Y-68604237D01*
X79625212Y-68615439D01*
X79690433Y-68619216D01*
X79817631Y-68606776D01*
X79893403Y-68587795D01*
X79970317Y-68560072D01*
X80054636Y-68520385D01*
X80140869Y-68470381D01*
X80140869Y-68671130D01*
X80100956Y-68693467D01*
X79925739Y-68771091D01*
X79750523Y-68816944D01*
X79575770Y-68832111D01*
X79505579Y-68829320D01*
X79356772Y-68802654D01*
X79226719Y-68749921D01*
X79168972Y-68714463D01*
X79116233Y-68673219D01*
X79068583Y-68626272D01*
X79026425Y-68573982D01*
X78989691Y-68516062D01*
X78959012Y-68453197D01*
X78934357Y-68384766D01*
X78916391Y-68311778D01*
X78905254Y-68233424D01*
X78901486Y-68150920D01*
X78905313Y-68067645D01*
X78916398Y-67989237D01*
X78920823Y-67971008D01*
X79264525Y-67971008D01*
X79785926Y-67971008D01*
X79785926Y-67940884D01*
X79776213Y-67820690D01*
X79745337Y-67720459D01*
X79697811Y-67652372D01*
X79667753Y-67628198D01*
X79633667Y-67610634D01*
X79593199Y-67599267D01*
X79548504Y-67595466D01*
X79462655Y-67609513D01*
X79423692Y-67627222D01*
X79388330Y-67651812D01*
X79355648Y-67684505D01*
X79327454Y-67724243D01*
X79302954Y-67773457D01*
X79284110Y-67830007D01*
X79270830Y-67896762D01*
X79264525Y-67971008D01*
X78920823Y-67971008D01*
X78934438Y-67914925D01*
X78959046Y-67845189D01*
X78989963Y-67780085D01*
X79026772Y-67720057D01*
X79069253Y-67665188D01*
X79169791Y-67572215D01*
X79227278Y-67534571D01*
X79289212Y-67503151D01*
X79355313Y-67478225D01*
X79425270Y-67460075D01*
X79498885Y-67448966D01*
X79575770Y-67445202D01*
X79712792Y-67457400D01*
G37*
G36*
X80308398Y-68809250D02*
G01*
X81061863Y-68809250D01*
X81061863Y-68686490D01*
X80868138Y-68675536D01*
X80827179Y-68634814D01*
X80827179Y-67853964D01*
X80900067Y-67813744D01*
X80961572Y-67788627D01*
X81021022Y-67777760D01*
X81067200Y-67781643D01*
X81108128Y-67793585D01*
X81140144Y-67811194D01*
X81168466Y-67835739D01*
X81198434Y-67875753D01*
X81340364Y-67875753D01*
X81375846Y-67499259D01*
X81317715Y-67474546D01*
X81259558Y-67458891D01*
X81195696Y-67452822D01*
X81135685Y-67458300D01*
X81031036Y-67537095D01*
X80929596Y-67624000D01*
X80816225Y-67736801D01*
X80827179Y-67458300D01*
X80696085Y-67458300D01*
X80294824Y-67587489D01*
X80294824Y-67696674D01*
X80491406Y-67696674D01*
X80491406Y-68634814D01*
X80453185Y-68675536D01*
X80308398Y-68686490D01*
X80308398Y-68809250D01*
G37*
D12*
G36*
X54167794Y-62660000D02*
G01*
X55842323Y-62660000D01*
X55842323Y-62385715D01*
X55467166Y-62357871D01*
X55377529Y-62268234D01*
X55377529Y-59289204D01*
X55467166Y-59210802D01*
X55842323Y-59182958D01*
X55842323Y-58908429D01*
X54167794Y-58908429D01*
X54167794Y-59182958D01*
X54537578Y-59210802D01*
X54626971Y-59289204D01*
X54626971Y-62268234D01*
X54537578Y-62357871D01*
X54167794Y-62385715D01*
X54167794Y-62660000D01*
G37*
G36*
X58786671Y-60253963D02*
G01*
X58716684Y-60150176D01*
X58637898Y-60061967D01*
X58555017Y-59992674D01*
X58464702Y-59937868D01*
X58267451Y-59873221D01*
X58131612Y-59861953D01*
X57909578Y-59892437D01*
X57625305Y-59996036D01*
X57213258Y-60214884D01*
X57213258Y-59884424D01*
X56944347Y-59884424D01*
X56154710Y-60143321D01*
X56154710Y-60367536D01*
X56518876Y-60367536D01*
X56518876Y-62301695D01*
X56440474Y-62385715D01*
X56154710Y-62408185D01*
X56154710Y-62660000D01*
X57526866Y-62660000D01*
X57526866Y-62408185D01*
X57291660Y-62385715D01*
X57213258Y-62301695D01*
X57213258Y-60451556D01*
X57384620Y-60395623D01*
X57541210Y-60361981D01*
X57683670Y-60350683D01*
X57802386Y-60358537D01*
X57903791Y-60382250D01*
X57978546Y-60416012D01*
X58041121Y-60462132D01*
X58128377Y-60585062D01*
X58177656Y-60766606D01*
X58187543Y-60928073D01*
X58187543Y-62290460D01*
X58109141Y-62385715D01*
X57879553Y-62408185D01*
X57879553Y-62660000D01*
X59201151Y-62660000D01*
X59201151Y-62413803D01*
X58949092Y-62385715D01*
X58870690Y-62301695D01*
X58870690Y-60462791D01*
X59078023Y-60396757D01*
X59263074Y-60361263D01*
X59352337Y-60356301D01*
X59474598Y-60364202D01*
X59578711Y-60388244D01*
X59653996Y-60422024D01*
X59717058Y-60468320D01*
X59804834Y-60591621D01*
X59855613Y-60775447D01*
X59867445Y-60961779D01*
X59867445Y-62301695D01*
X59789043Y-62385715D01*
X59548220Y-62408185D01*
X59548220Y-62660000D01*
X60925994Y-62660000D01*
X60925994Y-62408185D01*
X60629239Y-62385715D01*
X60556210Y-62301695D01*
X60556210Y-60799113D01*
X60548389Y-60620899D01*
X60524899Y-60461720D01*
X60490296Y-60334593D01*
X60442924Y-60222855D01*
X60387962Y-60133515D01*
X60322120Y-60057191D01*
X60164864Y-59946923D01*
X59964013Y-59884002D01*
X59778053Y-59869036D01*
X59558055Y-59905118D01*
X59220580Y-60029922D01*
X58786671Y-60253963D01*
G37*
G36*
X61445743Y-60346531D02*
G01*
X61445743Y-61974898D01*
X61449685Y-62169846D01*
X61473067Y-62330241D01*
X61533224Y-62461281D01*
X61647487Y-62568164D01*
X61822610Y-62653129D01*
X62039551Y-62689395D01*
X62112281Y-62691263D01*
X62442651Y-62659096D01*
X62857266Y-62551285D01*
X62969085Y-62512233D01*
X62969085Y-62243321D01*
X62695849Y-62280765D01*
X62604919Y-62282644D01*
X62470906Y-62274575D01*
X62363775Y-62249351D01*
X62297399Y-62216905D01*
X62244515Y-62172448D01*
X62177331Y-62053698D01*
X62143720Y-61860492D01*
X62140125Y-61739937D01*
X62140125Y-60346531D01*
X62969085Y-60346531D01*
X62969085Y-60010697D01*
X62140125Y-60010697D01*
X62140125Y-59314849D01*
X61787438Y-59314849D01*
X61496301Y-59898346D01*
X61081821Y-60133796D01*
X61081821Y-60346531D01*
X61445743Y-60346531D01*
G37*
G36*
X63887438Y-58605568D02*
G01*
X63732781Y-58635181D01*
X63605148Y-58719780D01*
X63555489Y-58780407D01*
X63517865Y-58851105D01*
X63493712Y-58930247D01*
X63484275Y-59016652D01*
X63484193Y-59025666D01*
X63491765Y-59109953D01*
X63513505Y-59186697D01*
X63596105Y-59316572D01*
X63723282Y-59405058D01*
X63799651Y-59429837D01*
X63881767Y-59439759D01*
X63893056Y-59439902D01*
X63976786Y-59432261D01*
X64054094Y-59410035D01*
X64124005Y-59374025D01*
X64184665Y-59325385D01*
X64234594Y-59265324D01*
X64272566Y-59194809D01*
X64297048Y-59115671D01*
X64307109Y-59028338D01*
X64307292Y-59014431D01*
X64299638Y-58931200D01*
X64277322Y-58854154D01*
X64241221Y-58784648D01*
X64192346Y-58724364D01*
X64132295Y-58675220D01*
X64061615Y-58638066D01*
X63982513Y-58614614D01*
X63894922Y-58605621D01*
X63887438Y-58605568D01*
G37*
G36*
X63948988Y-59877585D02*
G01*
X63159351Y-60143321D01*
X63159351Y-60367536D01*
X63528890Y-60367536D01*
X63528890Y-62301695D01*
X63450488Y-62385715D01*
X63148115Y-62408185D01*
X63148115Y-62660000D01*
X64615282Y-62660000D01*
X64615282Y-62408185D01*
X64301674Y-62385715D01*
X64217899Y-62301695D01*
X64217899Y-59877585D01*
X63948988Y-59877585D01*
G37*
G36*
X66362666Y-59863585D02*
G01*
X66682305Y-59898441D01*
X66907831Y-59971680D01*
X67072003Y-60082043D01*
X67138458Y-60155547D01*
X67193052Y-60240729D01*
X67240969Y-60350825D01*
X67275502Y-60476690D01*
X67300723Y-60652378D01*
X67308792Y-60853335D01*
X67308792Y-62303649D01*
X67381577Y-62382051D01*
X67678332Y-62409895D01*
X67678332Y-62656580D01*
X66681577Y-62656580D01*
X66608792Y-62337110D01*
X66516985Y-62397128D01*
X66185289Y-62578975D01*
X65904901Y-62676008D01*
X65645498Y-62706894D01*
X65554083Y-62702220D01*
X65443332Y-62682985D01*
X65340707Y-62649663D01*
X65247062Y-62603126D01*
X65163201Y-62544224D01*
X65089951Y-62473809D01*
X65028148Y-62392742D01*
X64978609Y-62301845D01*
X64942189Y-62202004D01*
X64919714Y-62094023D01*
X64912037Y-61978806D01*
X64921862Y-61855708D01*
X65651116Y-61855708D01*
X65651297Y-61870756D01*
X65683067Y-62038986D01*
X65763451Y-62163916D01*
X65821401Y-62210714D01*
X65890114Y-62245394D01*
X65972660Y-62267882D01*
X66065596Y-62275561D01*
X66272740Y-62244452D01*
X66431631Y-62189637D01*
X66608792Y-62107522D01*
X66608792Y-61195031D01*
X66162673Y-61313617D01*
X65917183Y-61420084D01*
X65768917Y-61534008D01*
X65718916Y-61598453D01*
X65682823Y-61670081D01*
X65658987Y-61757548D01*
X65651116Y-61855708D01*
X64921862Y-61855708D01*
X64924986Y-61816569D01*
X64987474Y-61623306D01*
X65041188Y-61536124D01*
X65109577Y-61457227D01*
X65207033Y-61375128D01*
X65324580Y-61301194D01*
X65561675Y-61193528D01*
X65854847Y-61096863D01*
X66614410Y-60909267D01*
X66614410Y-60741472D01*
X66602966Y-60572683D01*
X66550718Y-60393999D01*
X66458967Y-60271315D01*
X66392874Y-60224786D01*
X66314378Y-60190854D01*
X66207220Y-60166848D01*
X66082449Y-60158953D01*
X65813538Y-60192414D01*
X65813538Y-60719002D01*
X65298429Y-60719002D01*
X65147861Y-60695371D01*
X65071571Y-60634798D01*
X65048513Y-60580958D01*
X65040753Y-60511639D01*
X65058856Y-60403556D01*
X65094744Y-60324920D01*
X65148890Y-60248614D01*
X65225921Y-60171105D01*
X65321905Y-60099046D01*
X65439274Y-60032199D01*
X65574624Y-59974199D01*
X65726104Y-59926827D01*
X65893351Y-59891303D01*
X66070855Y-59869530D01*
X66261479Y-59861953D01*
X66362666Y-59863585D01*
G37*
G36*
X67989741Y-62660000D02*
G01*
X70336182Y-62660000D01*
X70336182Y-61742135D01*
X69955408Y-61742135D01*
X69888241Y-62256999D01*
X69804221Y-62346636D01*
X68768143Y-62346636D01*
X70252163Y-60231493D01*
X70252163Y-59940111D01*
X68034682Y-59940111D01*
X68034682Y-60785436D01*
X68398604Y-60785436D01*
X68454535Y-60320886D01*
X68527320Y-60242728D01*
X69434682Y-60242728D01*
X67989741Y-62312930D01*
X67989741Y-62660000D01*
G37*
G36*
X75548325Y-62330027D02*
G01*
X75878785Y-62385715D01*
X75878785Y-62660000D01*
X74366922Y-62660000D01*
X74366922Y-62385715D01*
X74719609Y-62352254D01*
X74758932Y-62279713D01*
X74422854Y-61331318D01*
X73202128Y-61331318D01*
X72866050Y-62274096D01*
X72921981Y-62346636D01*
X73274912Y-62385715D01*
X73274912Y-62660000D01*
X72070795Y-62660000D01*
X72070795Y-62385715D01*
X72406873Y-62335401D01*
X72886871Y-61017955D01*
X73308374Y-61017955D01*
X74294138Y-61017955D01*
X73795638Y-59630655D01*
X73308374Y-61017955D01*
X72886871Y-61017955D01*
X73672540Y-58861535D01*
X74260432Y-58861535D01*
X75548325Y-62330027D01*
G37*
G36*
X76693091Y-58517641D02*
G01*
X75864131Y-58783377D01*
X75864131Y-59001974D01*
X76272993Y-59001974D01*
X76272993Y-62301939D01*
X76194591Y-62385715D01*
X75909071Y-62408185D01*
X75909071Y-62660000D01*
X77292219Y-62660000D01*
X77292219Y-62408185D01*
X77045778Y-62385715D01*
X76961758Y-62301939D01*
X76961758Y-60459860D01*
X77191930Y-60401702D01*
X77392438Y-60370199D01*
X77499337Y-60364849D01*
X77613625Y-60372719D01*
X77712548Y-60396546D01*
X77786898Y-60430824D01*
X77849903Y-60477840D01*
X77939663Y-60604163D01*
X77991856Y-60790518D01*
X78003454Y-60967885D01*
X78003454Y-62301939D01*
X77925052Y-62385715D01*
X77684228Y-62408185D01*
X77684228Y-62660000D01*
X79056140Y-62660000D01*
X79056140Y-62408185D01*
X78759385Y-62385715D01*
X78686601Y-62301939D01*
X78686601Y-60805952D01*
X78678774Y-60626481D01*
X78655246Y-60466329D01*
X78620674Y-60338941D01*
X78573332Y-60227102D01*
X78518537Y-60138039D01*
X78452880Y-60062073D01*
X78379631Y-60001481D01*
X78296311Y-59952925D01*
X78096383Y-59891379D01*
X77919434Y-59877585D01*
X77685643Y-59908152D01*
X77381294Y-60012748D01*
X76961758Y-60219281D01*
X76961758Y-58517641D01*
X76693091Y-58517641D01*
G37*
G36*
X80790580Y-59863585D02*
G01*
X81110218Y-59898441D01*
X81335744Y-59971680D01*
X81499917Y-60082043D01*
X81566371Y-60155547D01*
X81620965Y-60240729D01*
X81668883Y-60350825D01*
X81703416Y-60476690D01*
X81728637Y-60652378D01*
X81736706Y-60853335D01*
X81736706Y-62303649D01*
X81809490Y-62382051D01*
X82106245Y-62409895D01*
X82106245Y-62656580D01*
X81109490Y-62656580D01*
X81036706Y-62337110D01*
X80944899Y-62397128D01*
X80613202Y-62578975D01*
X80332815Y-62676008D01*
X80073412Y-62706894D01*
X79981997Y-62702220D01*
X79871246Y-62682985D01*
X79768621Y-62649663D01*
X79674976Y-62603126D01*
X79591114Y-62544224D01*
X79517864Y-62473809D01*
X79456061Y-62392742D01*
X79406522Y-62301845D01*
X79370103Y-62202004D01*
X79347628Y-62094023D01*
X79339951Y-61978806D01*
X79349776Y-61855708D01*
X80079030Y-61855708D01*
X80079210Y-61870756D01*
X80110980Y-62038986D01*
X80191365Y-62163916D01*
X80249314Y-62210714D01*
X80318027Y-62245394D01*
X80400574Y-62267882D01*
X80493510Y-62275561D01*
X80700653Y-62244452D01*
X80859544Y-62189637D01*
X81036706Y-62107522D01*
X81036706Y-61195031D01*
X80590587Y-61313617D01*
X80345097Y-61420084D01*
X80196830Y-61534008D01*
X80146829Y-61598453D01*
X80110736Y-61670081D01*
X80086901Y-61757548D01*
X80079030Y-61855708D01*
X79349776Y-61855708D01*
X79352900Y-61816569D01*
X79415388Y-61623306D01*
X79469101Y-61536124D01*
X79537491Y-61457227D01*
X79634947Y-61375128D01*
X79752494Y-61301194D01*
X79989589Y-61193528D01*
X80282761Y-61096863D01*
X81042323Y-60909267D01*
X81042323Y-60741472D01*
X81030879Y-60572683D01*
X80978632Y-60393999D01*
X80886880Y-60271315D01*
X80820787Y-60224786D01*
X80742292Y-60190854D01*
X80635134Y-60166848D01*
X80510362Y-60158953D01*
X80241451Y-60192414D01*
X80241451Y-60719002D01*
X79726343Y-60719002D01*
X79575774Y-60695371D01*
X79499484Y-60634798D01*
X79476427Y-60580958D01*
X79468667Y-60511639D01*
X79486770Y-60403556D01*
X79522657Y-60324920D01*
X79576804Y-60248614D01*
X79653835Y-60171105D01*
X79749818Y-60099046D01*
X79867188Y-60032199D01*
X80002538Y-59974199D01*
X80154018Y-59926827D01*
X80321264Y-59891303D01*
X80498769Y-59869530D01*
X80689392Y-59861953D01*
X80790580Y-59863585D01*
G37*
G36*
X84965596Y-60253963D02*
G01*
X84895610Y-60150176D01*
X84816824Y-60061967D01*
X84733942Y-59992674D01*
X84643628Y-59937868D01*
X84446376Y-59873221D01*
X84310537Y-59861953D01*
X84088503Y-59892437D01*
X83804230Y-59996036D01*
X83392184Y-60214884D01*
X83392184Y-59884424D01*
X83123272Y-59884424D01*
X82333635Y-60143321D01*
X82333635Y-60367536D01*
X82697801Y-60367536D01*
X82697801Y-62301695D01*
X82619399Y-62385715D01*
X82333635Y-62408185D01*
X82333635Y-62660000D01*
X83705792Y-62660000D01*
X83705792Y-62408185D01*
X83470586Y-62385715D01*
X83392184Y-62301695D01*
X83392184Y-60451556D01*
X83563545Y-60395623D01*
X83720135Y-60361981D01*
X83862595Y-60350683D01*
X83981312Y-60358537D01*
X84082717Y-60382250D01*
X84157472Y-60416012D01*
X84220046Y-60462132D01*
X84307303Y-60585062D01*
X84356582Y-60766606D01*
X84366468Y-60928073D01*
X84366468Y-62290460D01*
X84288066Y-62385715D01*
X84058478Y-62408185D01*
X84058478Y-62660000D01*
X85380076Y-62660000D01*
X85380076Y-62413803D01*
X85128018Y-62385715D01*
X85049616Y-62301695D01*
X85049616Y-60462791D01*
X85256949Y-60396757D01*
X85441999Y-60361263D01*
X85531263Y-60356301D01*
X85653524Y-60364202D01*
X85757636Y-60388244D01*
X85832922Y-60422024D01*
X85895984Y-60468320D01*
X85983760Y-60591621D01*
X86034538Y-60775447D01*
X86046371Y-60961779D01*
X86046371Y-62301695D01*
X85967969Y-62385715D01*
X85727145Y-62408185D01*
X85727145Y-62660000D01*
X87104919Y-62660000D01*
X87104919Y-62408185D01*
X86808164Y-62385715D01*
X86735136Y-62301695D01*
X86735136Y-60799113D01*
X86727314Y-60620899D01*
X86703825Y-60461720D01*
X86669222Y-60334593D01*
X86621850Y-60222855D01*
X86566887Y-60133515D01*
X86501045Y-60057191D01*
X86343789Y-59946923D01*
X86142938Y-59884002D01*
X85956978Y-59869036D01*
X85736981Y-59905118D01*
X85399505Y-60029922D01*
X84965596Y-60253963D01*
G37*
G36*
X89025837Y-59886974D02*
G01*
X89279965Y-59964530D01*
X89491248Y-60090534D01*
X89582259Y-60171994D01*
X89662684Y-60265250D01*
X89733978Y-60373044D01*
X89793558Y-60492795D01*
X89842823Y-60629866D01*
X89878780Y-60779354D01*
X89901804Y-60948709D01*
X89909560Y-61131039D01*
X89909560Y-61237529D01*
X88078471Y-61237529D01*
X88078471Y-61254138D01*
X88079525Y-61314400D01*
X88118133Y-61601498D01*
X88205791Y-61834721D01*
X88336349Y-62017896D01*
X88417159Y-62091744D01*
X88507780Y-62153316D01*
X88609943Y-62203138D01*
X88721463Y-62239460D01*
X88846185Y-62262439D01*
X88979972Y-62270188D01*
X89240891Y-62244670D01*
X89396320Y-62205733D01*
X89554093Y-62148866D01*
X89727055Y-62067457D01*
X89903942Y-61964884D01*
X89903942Y-62376678D01*
X89822070Y-62422497D01*
X89462651Y-62581726D01*
X89103233Y-62675784D01*
X88744766Y-62706894D01*
X88600784Y-62701169D01*
X88295539Y-62646469D01*
X88028764Y-62538301D01*
X87910309Y-62465566D01*
X87802125Y-62380964D01*
X87704381Y-62284660D01*
X87617904Y-62177400D01*
X87542552Y-62058589D01*
X87479620Y-61929636D01*
X87429047Y-61789265D01*
X87392193Y-61639545D01*
X87369348Y-61478819D01*
X87361618Y-61309581D01*
X87369468Y-61138760D01*
X87392208Y-60977923D01*
X87401285Y-60940530D01*
X88106315Y-60940530D01*
X89175854Y-60940530D01*
X89175854Y-60878736D01*
X89155930Y-60632185D01*
X89092595Y-60426584D01*
X88995105Y-60286917D01*
X88933449Y-60237329D01*
X88863529Y-60201300D01*
X88780518Y-60177985D01*
X88688834Y-60170188D01*
X88512736Y-60199001D01*
X88432811Y-60235327D01*
X88360274Y-60285770D01*
X88293234Y-60352832D01*
X88235400Y-60434345D01*
X88185143Y-60535296D01*
X88146489Y-60651297D01*
X88119248Y-60788230D01*
X88106315Y-60940530D01*
X87401285Y-60940530D01*
X87429213Y-60825488D01*
X87479691Y-60682440D01*
X87543110Y-60548894D01*
X87618615Y-60425759D01*
X87705756Y-60313208D01*
X87911989Y-60122493D01*
X88029910Y-60045274D01*
X88156954Y-59980824D01*
X88292546Y-59929694D01*
X88436047Y-59892463D01*
X88587053Y-59869675D01*
X88744766Y-59861953D01*
X89025837Y-59886974D01*
G37*
G36*
X92946964Y-62298032D02*
G01*
X93025366Y-62387669D01*
X93310886Y-62409895D01*
X93310886Y-62656580D01*
X92263572Y-62656580D01*
X92263572Y-62342728D01*
X92181538Y-62401488D01*
X91881493Y-62580045D01*
X91622361Y-62676137D01*
X91378925Y-62706894D01*
X91157328Y-62683137D01*
X91037930Y-62648689D01*
X90925152Y-62599792D01*
X90817775Y-62535785D01*
X90718520Y-62458032D01*
X90626286Y-62365178D01*
X90543844Y-62259314D01*
X90470712Y-62138926D01*
X90409131Y-62006440D01*
X90359326Y-61860852D01*
X90322800Y-61704311D01*
X90300224Y-61536783D01*
X90292533Y-61359651D01*
X90299267Y-61242414D01*
X91042847Y-61242414D01*
X91065186Y-61527174D01*
X91136180Y-61781794D01*
X91246706Y-61975091D01*
X91392060Y-62113601D01*
X91478303Y-62163648D01*
X91572845Y-62200090D01*
X91678949Y-62223110D01*
X91793161Y-62230865D01*
X91897948Y-62223750D01*
X92071365Y-62187801D01*
X92263572Y-62124619D01*
X92263572Y-60259337D01*
X92085309Y-60206714D01*
X91849337Y-60175561D01*
X91847989Y-60175562D01*
X91633261Y-60205741D01*
X91535216Y-60242713D01*
X91444389Y-60293710D01*
X91359660Y-60359827D01*
X91283639Y-60439678D01*
X91214960Y-60535986D01*
X91156842Y-60645941D01*
X91108623Y-60773219D01*
X91073074Y-60913962D01*
X91050533Y-61071690D01*
X91042847Y-61242414D01*
X90299267Y-61242414D01*
X90305438Y-61134973D01*
X90332147Y-60973148D01*
X90372827Y-60820218D01*
X90426566Y-60677476D01*
X90493001Y-60544520D01*
X90571299Y-60422228D01*
X90661106Y-60310638D01*
X90761873Y-60210239D01*
X90873046Y-60121523D01*
X90994491Y-60044747D01*
X91125300Y-59980717D01*
X91265750Y-59929675D01*
X91414544Y-59892532D01*
X91572233Y-59869684D01*
X91737229Y-59861953D01*
X91835767Y-59864247D01*
X92037646Y-59881722D01*
X92263572Y-59918129D01*
X92263572Y-59007592D01*
X91854954Y-59007592D01*
X91854954Y-58783377D01*
X92689288Y-58517641D01*
X92946964Y-58517641D01*
X92946964Y-62298032D01*
G37*
M02*
