G04 #@! TF.GenerationSoftware,KiCad,Pcbnew,10.0.4-10.0.4~ubuntu24.04.1*
G04 #@! TF.CreationDate,2026-09-11T02:22:27+06:00*
G04 #@! TF.ProjectId,designedbykoda businesscard,64657369-676e-4656-9462-796b6f646120,rev?*
G04 #@! TF.SameCoordinates,Original*
G04 #@! TF.FileFunction,Soldermask,Top*
G04 #@! TF.FilePolarity,Negative*
%FSLAX46Y46*%
G04 Gerber Fmt 4.6, Leading zero omitted, Abs format (unit mm)*
G04 Created by KiCad (PCBNEW 10.0.4-10.0.4~ubuntu24.04.1) date 2026-09-11 02:22:27*
%MOMM*%
%LPD*%
G01*
G04 APERTURE LIST*
%ADD10C,0.000000*%
G04 APERTURE END LIST*
D10*
G36*
X136889981Y-97716572D02*
G01*
X136897726Y-97717204D01*
X136905204Y-97718137D01*
X136912749Y-97719507D01*
X136920060Y-97721202D01*
X136927314Y-97723232D01*
X136934350Y-97725638D01*
X136941269Y-97728319D01*
X136948031Y-97731391D01*
X136954588Y-97734734D01*
X136960923Y-97738376D01*
X136967096Y-97742247D01*
X136973031Y-97746508D01*
X136978808Y-97751045D01*
X136984247Y-97755855D01*
X136989519Y-97760790D01*
X136994612Y-97766037D01*
X136999372Y-97771580D01*
X137003879Y-97777303D01*
X137008110Y-97783239D01*
X137012140Y-97789362D01*
X137015786Y-97795694D01*
X137019155Y-97802232D01*
X137022169Y-97808941D01*
X137024879Y-97815856D01*
X137027334Y-97822899D01*
X137029358Y-97830043D01*
X137031059Y-97837363D01*
X137032407Y-97844884D01*
X137033365Y-97852456D01*
X137034024Y-97860158D01*
X137034207Y-97867906D01*
X137034024Y-97875761D01*
X137033365Y-97883541D01*
X137032407Y-97891188D01*
X137031089Y-97898730D01*
X137029358Y-97906051D01*
X137027334Y-97913325D01*
X137024879Y-97920369D01*
X137022242Y-97927304D01*
X137019155Y-97934043D01*
X137015763Y-97940651D01*
X137012061Y-97946934D01*
X137008090Y-97953087D01*
X137003806Y-97959145D01*
X136999292Y-97964840D01*
X136994531Y-97970319D01*
X136989393Y-97975608D01*
X136984075Y-97980601D01*
X136978553Y-97985413D01*
X136972777Y-97989870D01*
X136966700Y-97994072D01*
X136960495Y-97998022D01*
X136954040Y-98001666D01*
X136947424Y-98004942D01*
X136940611Y-98007956D01*
X136933569Y-98010710D01*
X136926451Y-98013044D01*
X136919128Y-98015122D01*
X136911655Y-98016739D01*
X136904060Y-98018036D01*
X136896360Y-98019000D01*
X136888510Y-98019607D01*
X136880555Y-98019863D01*
X136872728Y-98019607D01*
X136864981Y-98018948D01*
X136857402Y-98017935D01*
X136849880Y-98016666D01*
X136842532Y-98014919D01*
X136835365Y-98012840D01*
X136828321Y-98010513D01*
X136821359Y-98007826D01*
X136814573Y-98004681D01*
X136808039Y-98001369D01*
X136801707Y-97997796D01*
X136795473Y-97993869D01*
X136789524Y-97989616D01*
X136783770Y-97985107D01*
X136778255Y-97980318D01*
X136772988Y-97975282D01*
X136767996Y-97970086D01*
X136763184Y-97964565D01*
X136758649Y-97958841D01*
X136754467Y-97952911D01*
X136750437Y-97946753D01*
X136746843Y-97940418D01*
X136743473Y-97933941D01*
X136740386Y-97927151D01*
X136737699Y-97920369D01*
X136735315Y-97913325D01*
X136733314Y-97906080D01*
X136731546Y-97898862D01*
X136730250Y-97891435D01*
X136729343Y-97883841D01*
X136728735Y-97876195D01*
X136728555Y-97868435D01*
X136728808Y-97860565D01*
X136729343Y-97852760D01*
X136730402Y-97845086D01*
X136731699Y-97837594D01*
X136733446Y-97830143D01*
X136735495Y-97823021D01*
X136737874Y-97815856D01*
X136740641Y-97808941D01*
X136743678Y-97802211D01*
X136747025Y-97795654D01*
X136750741Y-97789241D01*
X136754748Y-97783079D01*
X136758952Y-97777152D01*
X136763532Y-97771354D01*
X136768322Y-97765913D01*
X136773387Y-97760616D01*
X136778734Y-97755660D01*
X136784337Y-97750891D01*
X136790032Y-97746355D01*
X136796082Y-97742203D01*
X136802315Y-97738203D01*
X136808771Y-97734573D01*
X136815358Y-97731284D01*
X136822220Y-97728246D01*
X136829161Y-97725559D01*
X136836352Y-97723232D01*
X136843596Y-97721180D01*
X136851075Y-97719434D01*
X136858647Y-97718137D01*
X136866322Y-97717124D01*
X136874270Y-97716572D01*
X136882148Y-97716420D01*
X136889981Y-97716572D01*
G37*
G36*
X136418828Y-96679120D02*
G01*
X136437199Y-96681149D01*
X136455662Y-96684264D01*
X136474411Y-96688395D01*
X136493025Y-96693279D01*
X136511205Y-96698924D01*
X136528988Y-96705184D01*
X136546517Y-96712098D01*
X136563795Y-96719594D01*
X136580633Y-96727647D01*
X136597228Y-96736344D01*
X136613663Y-96745431D01*
X136629698Y-96755004D01*
X136645554Y-96764989D01*
X136661235Y-96775475D01*
X136676683Y-96786286D01*
X136706952Y-96808778D01*
X136736583Y-96832518D01*
X136738510Y-96834212D01*
X136740386Y-96836031D01*
X136742184Y-96837959D01*
X136743810Y-96839932D01*
X136745321Y-96841960D01*
X136746690Y-96844063D01*
X136747960Y-96846214D01*
X136749097Y-96848492D01*
X136750139Y-96850728D01*
X136751046Y-96853053D01*
X136751838Y-96855409D01*
X136752445Y-96857762D01*
X136753075Y-96860146D01*
X136753401Y-96862624D01*
X136753707Y-96865009D01*
X136753887Y-96867516D01*
X136753960Y-96869974D01*
X136753960Y-96872482D01*
X136753787Y-96874908D01*
X136753451Y-96877415D01*
X136753075Y-96879872D01*
X136752619Y-96882286D01*
X136751959Y-96884691D01*
X136751227Y-96887147D01*
X136750315Y-96889525D01*
X136749371Y-96891836D01*
X136748263Y-96894139D01*
X136747068Y-96896372D01*
X136745780Y-96898494D01*
X136744408Y-96900749D01*
X136742764Y-96902800D01*
X136741140Y-96904822D01*
X136739395Y-96906807D01*
X136737626Y-96908625D01*
X136735720Y-96910350D01*
X136733872Y-96911894D01*
X136731822Y-96913562D01*
X136729822Y-96914931D01*
X136727741Y-96916197D01*
X136725721Y-96917417D01*
X136723569Y-96918479D01*
X136721358Y-96919495D01*
X136719062Y-96920401D01*
X136716873Y-96921139D01*
X136714525Y-96921741D01*
X136712299Y-96922308D01*
X136709989Y-96922663D01*
X136707532Y-96922965D01*
X136705229Y-96923140D01*
X136702821Y-96923211D01*
X136700466Y-96923190D01*
X136697990Y-96923041D01*
X136695505Y-96922714D01*
X136693198Y-96922329D01*
X136690713Y-96921821D01*
X136688280Y-96921314D01*
X136685778Y-96920532D01*
X136683343Y-96919648D01*
X136680917Y-96918706D01*
X136678553Y-96917618D01*
X136676096Y-96916351D01*
X136673742Y-96915082D01*
X136671415Y-96913712D01*
X136668981Y-96912066D01*
X136610200Y-96871292D01*
X136595402Y-96861104D01*
X136580510Y-96851358D01*
X136565467Y-96841633D01*
X136550214Y-96832380D01*
X136541374Y-96827271D01*
X136532459Y-96822354D01*
X136523439Y-96817670D01*
X136514279Y-96813285D01*
X136505177Y-96809082D01*
X136495786Y-96805136D01*
X136486387Y-96801511D01*
X136476918Y-96798160D01*
X136467287Y-96795206D01*
X136457640Y-96792518D01*
X136447729Y-96790264D01*
X136437809Y-96788264D01*
X136427721Y-96786743D01*
X136417489Y-96785606D01*
X136407157Y-96784872D01*
X136396742Y-96784663D01*
X136388084Y-96784792D01*
X136379802Y-96785402D01*
X136371671Y-96786590D01*
X136363764Y-96788011D01*
X136356141Y-96789981D01*
X136348794Y-96792416D01*
X136341657Y-96795279D01*
X136334735Y-96798618D01*
X136328005Y-96802321D01*
X136321620Y-96806494D01*
X136315338Y-96811135D01*
X136309389Y-96816206D01*
X136303663Y-96821698D01*
X136298113Y-96827627D01*
X136292875Y-96834032D01*
X136287779Y-96840922D01*
X136281750Y-96849889D01*
X136276179Y-96859032D01*
X136271083Y-96868504D01*
X136266454Y-96877930D01*
X136262201Y-96887575D01*
X136258345Y-96897308D01*
X136254852Y-96907204D01*
X136251707Y-96917184D01*
X136248830Y-96927189D01*
X136246244Y-96937423D01*
X136244090Y-96947661D01*
X136242032Y-96957967D01*
X136240315Y-96968430D01*
X136238641Y-96978807D01*
X136236006Y-96999908D01*
X136233779Y-97022327D01*
X136232308Y-97044589D01*
X136231374Y-97066878D01*
X136231092Y-97089090D01*
X136231244Y-97111234D01*
X136232134Y-97133392D01*
X136235172Y-97177596D01*
X136239888Y-97221668D01*
X136245968Y-97265610D01*
X136253388Y-97309506D01*
X136261692Y-97353217D01*
X136262201Y-97355507D01*
X136262751Y-97357582D01*
X136263388Y-97359431D01*
X136263722Y-97360261D01*
X136264099Y-97361053D01*
X136264505Y-97361885D01*
X136264909Y-97362623D01*
X136265387Y-97363306D01*
X136265795Y-97363964D01*
X136266282Y-97364624D01*
X136266781Y-97365124D01*
X136267440Y-97365638D01*
X136267924Y-97366169D01*
X136268505Y-97366594D01*
X136269191Y-97366970D01*
X136269795Y-97367357D01*
X136270512Y-97367690D01*
X136271244Y-97367965D01*
X136272026Y-97368218D01*
X136272860Y-97368422D01*
X136273751Y-97368652D01*
X136274562Y-97368778D01*
X136275571Y-97368929D01*
X136276513Y-97368958D01*
X136277550Y-97369031D01*
X136278614Y-97369031D01*
X136279709Y-97368929D01*
X136282055Y-97368778D01*
X136423317Y-97354797D01*
X136494011Y-97348334D01*
X136564756Y-97342132D01*
X136568526Y-97341696D01*
X136572149Y-97341217D01*
X136575540Y-97340539D01*
X136578888Y-97339696D01*
X136582028Y-97338738D01*
X136585142Y-97337675D01*
X136588185Y-97336356D01*
X136590915Y-97334936D01*
X136593735Y-97333269D01*
X136596388Y-97331567D01*
X136599054Y-97329547D01*
X136601605Y-97327414D01*
X136604090Y-97325089D01*
X136606517Y-97322572D01*
X136608975Y-97319791D01*
X136611430Y-97316906D01*
X136657916Y-97259378D01*
X136705713Y-97203073D01*
X136754923Y-97148162D01*
X136805604Y-97094742D01*
X136831567Y-97068684D01*
X136857988Y-97042968D01*
X136884886Y-97017740D01*
X136912141Y-96993044D01*
X136940032Y-96968706D01*
X136968263Y-96944973D01*
X136997118Y-96921741D01*
X137026494Y-96899025D01*
X137059756Y-96874461D01*
X137093617Y-96850923D01*
X137110791Y-96839627D01*
X137128147Y-96828642D01*
X137145668Y-96817997D01*
X137163479Y-96807693D01*
X137181387Y-96797857D01*
X137199648Y-96788465D01*
X137218088Y-96779475D01*
X137236834Y-96771061D01*
X137255835Y-96763082D01*
X137275131Y-96755684D01*
X137294705Y-96748821D01*
X137314640Y-96742568D01*
X137327306Y-96738974D01*
X137339820Y-96735735D01*
X137352458Y-96732766D01*
X137365148Y-96730286D01*
X137377792Y-96728184D01*
X137390400Y-96726386D01*
X137403067Y-96725241D01*
X137415704Y-96724480D01*
X137428450Y-96724236D01*
X137441081Y-96724541D01*
X137453703Y-96725374D01*
X137466443Y-96726793D01*
X137479182Y-96728914D01*
X137491872Y-96731654D01*
X137504456Y-96734945D01*
X137517146Y-96739097D01*
X137524979Y-96742010D01*
X137532550Y-96745097D01*
X137539921Y-96748292D01*
X137547089Y-96751762D01*
X137560865Y-96759315D01*
X137573732Y-96767619D01*
X137585814Y-96776511D01*
X137597161Y-96786186D01*
X137607826Y-96796525D01*
X137617602Y-96807461D01*
X137626869Y-96818989D01*
X137635253Y-96831198D01*
X137643109Y-96844033D01*
X137650225Y-96857235D01*
X137656833Y-96871162D01*
X137662891Y-96885504D01*
X137668130Y-96900313D01*
X137673021Y-96915641D01*
X137677478Y-96932060D01*
X137681304Y-96948595D01*
X137684552Y-96965211D01*
X137687180Y-96981750D01*
X137689158Y-96998345D01*
X137690622Y-97015061D01*
X137691669Y-97031748D01*
X137692218Y-97048393D01*
X137692349Y-97065141D01*
X137692094Y-97081849D01*
X137690601Y-97115407D01*
X137687885Y-97149001D01*
X137684318Y-97182532D01*
X137681964Y-97199732D01*
X137679355Y-97216829D01*
X137676515Y-97233951D01*
X137673297Y-97250971D01*
X137672667Y-97253755D01*
X137671965Y-97256545D01*
X137671204Y-97259226D01*
X137670211Y-97261843D01*
X137669277Y-97264372D01*
X137668210Y-97266726D01*
X137667043Y-97269052D01*
X137665782Y-97271313D01*
X137664434Y-97273437D01*
X137663016Y-97275495D01*
X137661553Y-97277365D01*
X137659948Y-97279313D01*
X137658281Y-97281038D01*
X137656608Y-97282683D01*
X137654709Y-97284255D01*
X137652811Y-97285720D01*
X137650904Y-97287110D01*
X137648834Y-97288277D01*
X137646753Y-97289495D01*
X137644573Y-97290540D01*
X137642269Y-97291442D01*
X137639970Y-97292284D01*
X137637607Y-97293096D01*
X137635180Y-97293602D01*
X137632668Y-97294132D01*
X137630217Y-97294510D01*
X137627500Y-97294871D01*
X137624820Y-97295016D01*
X137622139Y-97295095D01*
X137619378Y-97295016D01*
X137616587Y-97294892D01*
X137613732Y-97294538D01*
X137611167Y-97294285D01*
X137608564Y-97293805D01*
X137606102Y-97293217D01*
X137603644Y-97292487D01*
X137601321Y-97291776D01*
X137599088Y-97290813D01*
X137596858Y-97289827D01*
X137594682Y-97288762D01*
X137592674Y-97287524D01*
X137590652Y-97286255D01*
X137588674Y-97284806D01*
X137586855Y-97283415D01*
X137585099Y-97281798D01*
X137583435Y-97280175D01*
X137581864Y-97278378D01*
X137580340Y-97276634D01*
X137579031Y-97274653D01*
X137577660Y-97272673D01*
X137576419Y-97270602D01*
X137575304Y-97268472D01*
X137574312Y-97266249D01*
X137573377Y-97263938D01*
X137572572Y-97261589D01*
X137571906Y-97259153D01*
X137571255Y-97256646D01*
X137570767Y-97254117D01*
X137570413Y-97251532D01*
X137570160Y-97248790D01*
X137569984Y-97246088D01*
X137569936Y-97243226D01*
X137570014Y-97240386D01*
X137570263Y-97237573D01*
X137572109Y-97221363D01*
X137574138Y-97205124D01*
X137578826Y-97172959D01*
X137580950Y-97156798D01*
X137582704Y-97140690D01*
X137584066Y-97124553D01*
X137584494Y-97116422D01*
X137584572Y-97108290D01*
X137584755Y-97089269D01*
X137584572Y-97070025D01*
X137584145Y-97050748D01*
X137583211Y-97031495D01*
X137581813Y-97012269D01*
X137579782Y-96993249D01*
X137577029Y-96974329D01*
X137575355Y-96964981D01*
X137573449Y-96955736D01*
X137571255Y-96946142D01*
X137568790Y-96937073D01*
X137565927Y-96928359D01*
X137562940Y-96920024D01*
X137559572Y-96911996D01*
X137555928Y-96904422D01*
X137552153Y-96897206D01*
X137547970Y-96890264D01*
X137543538Y-96883749D01*
X137538825Y-96877524D01*
X137533944Y-96871750D01*
X137528695Y-96866277D01*
X137523247Y-96861213D01*
X137517522Y-96856648D01*
X137511500Y-96852315D01*
X137505319Y-96848323D01*
X137498935Y-96844771D01*
X137492226Y-96841554D01*
X137485334Y-96838792D01*
X137478168Y-96836265D01*
X137470717Y-96834184D01*
X137463125Y-96832438D01*
X137455219Y-96831066D01*
X137447139Y-96830104D01*
X137438883Y-96829495D01*
X137430450Y-96829221D01*
X137421660Y-96829402D01*
X137412769Y-96829880D01*
X137403524Y-96830791D01*
X137394226Y-96831983D01*
X137384625Y-96833603D01*
X137374900Y-96835657D01*
X137360160Y-96839125D01*
X137345618Y-96843048D01*
X137331334Y-96847351D01*
X137317153Y-96852271D01*
X137303220Y-96857308D01*
X137289414Y-96862830D01*
X137275785Y-96868735D01*
X137262364Y-96874908D01*
X137249017Y-96881445D01*
X137235840Y-96888234D01*
X137209829Y-96902675D01*
X137184270Y-96917973D01*
X137159124Y-96934184D01*
X137133669Y-96951329D01*
X137108640Y-96968958D01*
X137084046Y-96987217D01*
X137059908Y-97005937D01*
X137036147Y-97024966D01*
X137012748Y-97044537D01*
X136989748Y-97064523D01*
X136967133Y-97084838D01*
X136922879Y-97126684D01*
X136879691Y-97169893D01*
X136837597Y-97214096D01*
X136796438Y-97259408D01*
X136781467Y-97276634D01*
X136766646Y-97293958D01*
X136737240Y-97328712D01*
X136737148Y-97328835D01*
X136737010Y-97329016D01*
X136736937Y-97329161D01*
X136736836Y-97329343D01*
X136736764Y-97329414D01*
X136736713Y-97329595D01*
X136736583Y-97329922D01*
X136736459Y-97330377D01*
X136736307Y-97330864D01*
X136736206Y-97331392D01*
X136736026Y-97331898D01*
X136735546Y-97334660D01*
X136735315Y-97335494D01*
X136735140Y-97336408D01*
X136734917Y-97337422D01*
X136734661Y-97338438D01*
X136763084Y-97338438D01*
X136867785Y-97340964D01*
X136972067Y-97346508D01*
X137075841Y-97355203D01*
X137179234Y-97367262D01*
X137282022Y-97382785D01*
X137384428Y-97402009D01*
X137486269Y-97424979D01*
X137587567Y-97452037D01*
X137635436Y-97466389D01*
X137682796Y-97481972D01*
X137729683Y-97498842D01*
X137775831Y-97517232D01*
X137821449Y-97537167D01*
X137866282Y-97558901D01*
X137888290Y-97570320D01*
X137910255Y-97582348D01*
X137932007Y-97594885D01*
X137953462Y-97607936D01*
X137975935Y-97622318D01*
X137997890Y-97637393D01*
X138008578Y-97645197D01*
X138019220Y-97653145D01*
X138029608Y-97661427D01*
X138039833Y-97669840D01*
X138049809Y-97678471D01*
X138059666Y-97687291D01*
X138069217Y-97696457D01*
X138078615Y-97705854D01*
X138087731Y-97715486D01*
X138096572Y-97725406D01*
X138105229Y-97735616D01*
X138113645Y-97746175D01*
X138121753Y-97757124D01*
X138129346Y-97768088D01*
X138136312Y-97779108D01*
X138142752Y-97790356D01*
X138148572Y-97801399D01*
X138153889Y-97812718D01*
X138158628Y-97824015D01*
X138162709Y-97835259D01*
X138166252Y-97846578D01*
X138169319Y-97857979D01*
X138171745Y-97869333D01*
X138173621Y-97880646D01*
X138174918Y-97892000D01*
X138175701Y-97903371D01*
X138175845Y-97914615D01*
X138175469Y-97925964D01*
X138174535Y-97937232D01*
X138173065Y-97948405D01*
X138170941Y-97959548D01*
X138168254Y-97970673D01*
X138165108Y-97981717D01*
X138161390Y-97992701D01*
X138157059Y-98003499D01*
X138152021Y-98014288D01*
X138146624Y-98025000D01*
X138140645Y-98035614D01*
X138133961Y-98046049D01*
X138126846Y-98056463D01*
X138119136Y-98066665D01*
X138110832Y-98076795D01*
X138101971Y-98086803D01*
X138092652Y-98096629D01*
X138079376Y-98109471D01*
X138065775Y-98121832D01*
X138051796Y-98133506D01*
X138037504Y-98144731D01*
X138022890Y-98155421D01*
X138007941Y-98165579D01*
X137992803Y-98175353D01*
X137977297Y-98184571D01*
X137961594Y-98193433D01*
X137945585Y-98201899D01*
X137929377Y-98210050D01*
X137913014Y-98217782D01*
X137896420Y-98225123D01*
X137879629Y-98232247D01*
X137845587Y-98245694D01*
X137843159Y-98246528D01*
X137840775Y-98247187D01*
X137838270Y-98247818D01*
X137835810Y-98248172D01*
X137833303Y-98248527D01*
X137830921Y-98248680D01*
X137828491Y-98248782D01*
X137826057Y-98248680D01*
X137823732Y-98248499D01*
X137821246Y-98248172D01*
X137818892Y-98247715D01*
X137816506Y-98247187D01*
X137814252Y-98246528D01*
X137812000Y-98245789D01*
X137809753Y-98244884D01*
X137807573Y-98243941D01*
X137805421Y-98242804D01*
X137803320Y-98241715D01*
X137801238Y-98240398D01*
X137799310Y-98239107D01*
X137797391Y-98237607D01*
X137795515Y-98236020D01*
X137793689Y-98234398D01*
X137791942Y-98232745D01*
X137790320Y-98230948D01*
X137788803Y-98229099D01*
X137787283Y-98227123D01*
X137785964Y-98225094D01*
X137784653Y-98222998D01*
X137783485Y-98220839D01*
X137782370Y-98218687D01*
X137781378Y-98216331D01*
X137780443Y-98213781D01*
X137779580Y-98211167D01*
X137778900Y-98208637D01*
X137778371Y-98206101D01*
X137777933Y-98203615D01*
X137777631Y-98201006D01*
X137777499Y-98198555D01*
X137777304Y-98195970D01*
X137777499Y-98193461D01*
X137777631Y-98191108D01*
X137777933Y-98188527D01*
X137778371Y-98186144D01*
X137778848Y-98183737D01*
X137779529Y-98181383D01*
X137780342Y-98178999D01*
X137781151Y-98176726D01*
X137782217Y-98174514D01*
X137783333Y-98172289D01*
X137784573Y-98170085D01*
X137785883Y-98168005D01*
X137787283Y-98166006D01*
X137788928Y-98163956D01*
X137790601Y-98161998D01*
X137792348Y-98160078D01*
X137794248Y-98158281D01*
X137796125Y-98156534D01*
X137798275Y-98154839D01*
X137800347Y-98153217D01*
X137802708Y-98151673D01*
X137804984Y-98150252D01*
X137807463Y-98148811D01*
X137810072Y-98147493D01*
X137825905Y-98139992D01*
X137841870Y-98132523D01*
X137873856Y-98117710D01*
X137889687Y-98110058D01*
X137905421Y-98102182D01*
X137920868Y-98093869D01*
X137936093Y-98084955D01*
X137948428Y-98077201D01*
X137960608Y-98069020D01*
X137972383Y-98060463D01*
X137983854Y-98051492D01*
X137995102Y-98042093D01*
X138006093Y-98032418D01*
X138016635Y-98022318D01*
X138026919Y-98011904D01*
X138031935Y-98006304D01*
X138036695Y-98000709D01*
X138041180Y-97995036D01*
X138045360Y-97989309D01*
X138049108Y-97983565D01*
X138052653Y-97977913D01*
X138055878Y-97972087D01*
X138058760Y-97966340D01*
X138061389Y-97960512D01*
X138063646Y-97954630D01*
X138065624Y-97948782D01*
X138067245Y-97942882D01*
X138068607Y-97936933D01*
X138069722Y-97931000D01*
X138070436Y-97924970D01*
X138070940Y-97919021D01*
X138070992Y-97913021D01*
X138070940Y-97906913D01*
X138070436Y-97900992D01*
X138069701Y-97894883D01*
X138068576Y-97888782D01*
X138067166Y-97882622D01*
X138065624Y-97876522D01*
X138063646Y-97870422D01*
X138061469Y-97864179D01*
X138058853Y-97858057D01*
X138055993Y-97851847D01*
X138052886Y-97845595D01*
X138045708Y-97833281D01*
X138037403Y-97820826D01*
X138030615Y-97811581D01*
X138023530Y-97802711D01*
X138016201Y-97794028D01*
X138008578Y-97785769D01*
X138000803Y-97777689D01*
X137992803Y-97769913D01*
X137984524Y-97762311D01*
X137976130Y-97754942D01*
X137967370Y-97747774D01*
X137958638Y-97740834D01*
X137949689Y-97734094D01*
X137940594Y-97727508D01*
X137931353Y-97721131D01*
X137921928Y-97714818D01*
X137902934Y-97702609D01*
X137879045Y-97688225D01*
X137854912Y-97674473D01*
X137830521Y-97661400D01*
X137805920Y-97648893D01*
X137780926Y-97637038D01*
X137755826Y-97625712D01*
X137730465Y-97614928D01*
X137704862Y-97604568D01*
X137653269Y-97585465D01*
X137600855Y-97567994D01*
X137547970Y-97551987D01*
X137494581Y-97537167D01*
X137438449Y-97522956D01*
X137382248Y-97509733D01*
X137325763Y-97497856D01*
X137269154Y-97487290D01*
X137212262Y-97478001D01*
X137155096Y-97470146D01*
X137097777Y-97463864D01*
X137040204Y-97458899D01*
X136948212Y-97453429D01*
X136856090Y-97449297D01*
X136671844Y-97441878D01*
X136668555Y-97441828D01*
X136665431Y-97441878D01*
X136662423Y-97442102D01*
X136659540Y-97442429D01*
X136656721Y-97443015D01*
X136654091Y-97443704D01*
X136651454Y-97444610D01*
X136648915Y-97445704D01*
X136646620Y-97446944D01*
X136644336Y-97448385D01*
X136642107Y-97450001D01*
X136639982Y-97451909D01*
X136638004Y-97453936D01*
X136635879Y-97456262D01*
X136633924Y-97458821D01*
X136632075Y-97461405D01*
X136415694Y-97794225D01*
X136414729Y-97795798D01*
X136413887Y-97797601D01*
X136413083Y-97799472D01*
X136412404Y-97801348D01*
X136411773Y-97803392D01*
X136411208Y-97805477D01*
X136410757Y-97807573D01*
X136410476Y-97809652D01*
X136410222Y-97811804D01*
X136410148Y-97813985D01*
X136410091Y-97816117D01*
X136410222Y-97818189D01*
X136410425Y-97820138D01*
X136410722Y-97822036D01*
X136411208Y-97823863D01*
X136411815Y-97825579D01*
X136458903Y-97932804D01*
X136509082Y-98038196D01*
X136562728Y-98141382D01*
X136620075Y-98242476D01*
X136650161Y-98292115D01*
X136681294Y-98341208D01*
X136713358Y-98389737D01*
X136746539Y-98437556D01*
X136780656Y-98484747D01*
X136816038Y-98531352D01*
X136852438Y-98577173D01*
X136890097Y-98622330D01*
X136922603Y-98659693D01*
X136955908Y-98696172D01*
X136973031Y-98714049D01*
X136990277Y-98731475D01*
X137007836Y-98748855D01*
X137025791Y-98765694D01*
X137043930Y-98782253D01*
X137062523Y-98798417D01*
X137081488Y-98814179D01*
X137100764Y-98829526D01*
X137120452Y-98844467D01*
X137140582Y-98858933D01*
X137161046Y-98872937D01*
X137182022Y-98886360D01*
X137202161Y-98898417D01*
X137212213Y-98904263D01*
X137222400Y-98909766D01*
X137232626Y-98915184D01*
X137243060Y-98920251D01*
X137253574Y-98925091D01*
X137264263Y-98929578D01*
X137274950Y-98933751D01*
X137285894Y-98937526D01*
X137296936Y-98940967D01*
X137308109Y-98943938D01*
X137319479Y-98946519D01*
X137331080Y-98948569D01*
X137342835Y-98950136D01*
X137354792Y-98951200D01*
X137365551Y-98951665D01*
X137375842Y-98951301D01*
X137385944Y-98950466D01*
X137395516Y-98948874D01*
X137404835Y-98946699D01*
X137413725Y-98943859D01*
X137422391Y-98940338D01*
X137430604Y-98936214D01*
X137438449Y-98931576D01*
X137445973Y-98926228D01*
X137453249Y-98920251D01*
X137460152Y-98913664D01*
X137466667Y-98906549D01*
X137472869Y-98898669D01*
X137478805Y-98890314D01*
X137484420Y-98881374D01*
X137489365Y-98872605D01*
X137493920Y-98863714D01*
X137498071Y-98854649D01*
X137501878Y-98845577D01*
X137505423Y-98836389D01*
X137508631Y-98827092D01*
X137511551Y-98817693D01*
X137514315Y-98808272D01*
X137516689Y-98798802D01*
X137518822Y-98789121D01*
X137520769Y-98779528D01*
X137522523Y-98769773D01*
X137525327Y-98750193D01*
X137527457Y-98730389D01*
X137529884Y-98698396D01*
X137531102Y-98666628D01*
X137531336Y-98634948D01*
X137530622Y-98603461D01*
X137528950Y-98571955D01*
X137526341Y-98540592D01*
X137522948Y-98509366D01*
X137518798Y-98478258D01*
X137508355Y-98416281D01*
X137495647Y-98354526D01*
X137480980Y-98293057D01*
X137464689Y-98231912D01*
X137446580Y-98169651D01*
X137426907Y-98107998D01*
X137405573Y-98046854D01*
X137382748Y-97986296D01*
X137358689Y-97926290D01*
X137333436Y-97866644D01*
X137306864Y-97807479D01*
X137279510Y-97748761D01*
X137277409Y-97743920D01*
X137276318Y-97741412D01*
X137275334Y-97738906D01*
X137274372Y-97736370D01*
X137273457Y-97733841D01*
X137272675Y-97731202D01*
X137271938Y-97728601D01*
X137271355Y-97725993D01*
X137270645Y-97723363D01*
X137270190Y-97720694D01*
X137269784Y-97718088D01*
X137269508Y-97715448D01*
X137269328Y-97712797D01*
X137269277Y-97710211D01*
X137269277Y-97707725D01*
X137269508Y-97705449D01*
X137269741Y-97703166D01*
X137270117Y-97700963D01*
X137270575Y-97698841D01*
X137271204Y-97696732D01*
X137271886Y-97694661D01*
X137272523Y-97692659D01*
X137273405Y-97690680D01*
X137274269Y-97688761D01*
X137275334Y-97686913D01*
X137276451Y-97685059D01*
X137277589Y-97683362D01*
X137278878Y-97681641D01*
X137280147Y-97680045D01*
X137281617Y-97678398D01*
X137283008Y-97676856D01*
X137284581Y-97675435D01*
X137286124Y-97674066D01*
X137287843Y-97672775D01*
X137289617Y-97671456D01*
X137291385Y-97670218D01*
X137293189Y-97669153D01*
X137295110Y-97668088D01*
X137297090Y-97667052D01*
X137301115Y-97665354D01*
X137305348Y-97663833D01*
X137309625Y-97662616D01*
X137314138Y-97661732D01*
X137318168Y-97661327D01*
X137322241Y-97661202D01*
X137326270Y-97661427D01*
X137330197Y-97661963D01*
X137334176Y-97662921D01*
X137337944Y-97664138D01*
X137341799Y-97665732D01*
X137345464Y-97667558D01*
X137348966Y-97669762D01*
X137352335Y-97672218D01*
X137355625Y-97675008D01*
X137358640Y-97677993D01*
X137361502Y-97681364D01*
X137364133Y-97684935D01*
X137365400Y-97686913D01*
X137366537Y-97688885D01*
X137367632Y-97690937D01*
X137368692Y-97693036D01*
X137408518Y-97778580D01*
X137428016Y-97821558D01*
X137437364Y-97843088D01*
X137446681Y-97864848D01*
X137474116Y-97932196D01*
X137500000Y-98000000D01*
X137524341Y-98068390D01*
X137546761Y-98137280D01*
X137567124Y-98206781D01*
X137585333Y-98277027D01*
X137601110Y-98347869D01*
X137614384Y-98419571D01*
X137622182Y-98469882D01*
X137628492Y-98520206D01*
X137633030Y-98570533D01*
X137634522Y-98595713D01*
X137635436Y-98620969D01*
X137635659Y-98646163D01*
X137635282Y-98671375D01*
X137634195Y-98696570D01*
X137632370Y-98721703D01*
X137629732Y-98746926D01*
X137626213Y-98772078D01*
X137621762Y-98797353D01*
X137616442Y-98822455D01*
X137613673Y-98833752D01*
X137610536Y-98845049D01*
X137607268Y-98856091D01*
X137603545Y-98867216D01*
X137599697Y-98878257D01*
X137595566Y-98889025D01*
X137591110Y-98899764D01*
X137586421Y-98910395D01*
X137581253Y-98921091D01*
X137575836Y-98931295D01*
X137570110Y-98941199D01*
X137564080Y-98950670D01*
X137557754Y-98959787D01*
X137551212Y-98968527D01*
X137544400Y-98976858D01*
X137537233Y-98984816D01*
X137529884Y-98992360D01*
X137522087Y-98999534D01*
X137514315Y-99006344D01*
X137506079Y-99012730D01*
X137497748Y-99018604D01*
X137489159Y-99024228D01*
X137480240Y-99029292D01*
X137471226Y-99034004D01*
X137461929Y-99038259D01*
X137452507Y-99042206D01*
X137442833Y-99045705D01*
X137432950Y-99048670D01*
X137422973Y-99051360D01*
X137412813Y-99053511D01*
X137402406Y-99055229D01*
X137391819Y-99056568D01*
X137381183Y-99057404D01*
X137370292Y-99057837D01*
X137359400Y-99057815D01*
X137348225Y-99057235D01*
X137336978Y-99056343D01*
X137325639Y-99054945D01*
X137314138Y-99053136D01*
X137302559Y-99050750D01*
X137283871Y-99046234D01*
X137265479Y-99041148D01*
X137247545Y-99035315D01*
X137229812Y-99028808D01*
X137212444Y-99021771D01*
X137195342Y-99014148D01*
X137178531Y-99005968D01*
X137162008Y-98997250D01*
X137145668Y-98988055D01*
X137129590Y-98978540D01*
X137113755Y-98968453D01*
X137098103Y-98958039D01*
X137067386Y-98936214D01*
X137037314Y-98913083D01*
X137010321Y-98891179D01*
X136983872Y-98868556D01*
X136958090Y-98845404D01*
X136932785Y-98821823D01*
X136908010Y-98797687D01*
X136883871Y-98773061D01*
X136860191Y-98747989D01*
X136836959Y-98722381D01*
X136814242Y-98696570D01*
X136791908Y-98670100D01*
X136748461Y-98616382D01*
X136706466Y-98561338D01*
X136665741Y-98505106D01*
X136620908Y-98440091D01*
X136577622Y-98374033D01*
X136536229Y-98306883D01*
X136496542Y-98238846D01*
X136458527Y-98169832D01*
X136422099Y-98099899D01*
X136387273Y-98029050D01*
X136354069Y-97957347D01*
X136352824Y-97954630D01*
X136351564Y-97951919D01*
X136348596Y-97945950D01*
X136345077Y-97939008D01*
X136340763Y-97930195D01*
X136316961Y-97979354D01*
X136306020Y-98002202D01*
X136295351Y-98024724D01*
X136269751Y-98081128D01*
X136245505Y-98137948D01*
X136222817Y-98195390D01*
X136201713Y-98253268D01*
X136182541Y-98311746D01*
X136165468Y-98371021D01*
X136157715Y-98400911D01*
X136150446Y-98431028D01*
X136143990Y-98461315D01*
X136138112Y-98491862D01*
X136132286Y-98525882D01*
X136127477Y-98559997D01*
X136123954Y-98594143D01*
X136122715Y-98611214D01*
X136121954Y-98628341D01*
X136121673Y-98645454D01*
X136121904Y-98662526D01*
X136122715Y-98679599D01*
X136124128Y-98696672D01*
X136126055Y-98713897D01*
X136128765Y-98730919D01*
X136132085Y-98748069D01*
X136136134Y-98765135D01*
X136140164Y-98779352D01*
X136144794Y-98792698D01*
X136150018Y-98805208D01*
X136155663Y-98816736D01*
X136161969Y-98827418D01*
X136165316Y-98832387D01*
X136168816Y-98837171D01*
X136172433Y-98841757D01*
X136176178Y-98846092D01*
X136180057Y-98850171D01*
X136184208Y-98854113D01*
X136188418Y-98857815D01*
X136192925Y-98861286D01*
X136197359Y-98864555D01*
X136202017Y-98867540D01*
X136207034Y-98870409D01*
X136211918Y-98872966D01*
X136217145Y-98875344D01*
X136222563Y-98877497D01*
X136228032Y-98879424D01*
X136233708Y-98881089D01*
X136239579Y-98882633D01*
X136245564Y-98883903D01*
X136251786Y-98884969D01*
X136258120Y-98885860D01*
X136271344Y-98886845D01*
X136277344Y-98887069D01*
X136283324Y-98887069D01*
X136289382Y-98886917D01*
X136295380Y-98886540D01*
X136301380Y-98886113D01*
X136307489Y-98885396D01*
X136319569Y-98883729D01*
X136331577Y-98881525D01*
X136343584Y-98879011D01*
X136355412Y-98876149D01*
X136367184Y-98872966D01*
X136382361Y-98868352D01*
X136397302Y-98863288D01*
X136412070Y-98857786D01*
X136426628Y-98851867D01*
X136440975Y-98845453D01*
X136455108Y-98838764D01*
X136469131Y-98831650D01*
X136482859Y-98824250D01*
X136510019Y-98808626D01*
X136536663Y-98792037D01*
X136562953Y-98774562D01*
X136588916Y-98756679D01*
X136592054Y-98754497D01*
X136595199Y-98752498D01*
X136598366Y-98750619D01*
X136601556Y-98748855D01*
X136604778Y-98747180D01*
X136608041Y-98745811D01*
X136611338Y-98744620D01*
X136614678Y-98743685D01*
X136618047Y-98742875D01*
X136621518Y-98742337D01*
X136623265Y-98742212D01*
X136624960Y-98742164D01*
X136626784Y-98742082D01*
X136628555Y-98742164D01*
X136630382Y-98742212D01*
X136632207Y-98742439D01*
X136634031Y-98742671D01*
X136635879Y-98743028D01*
X136637750Y-98743505D01*
X136639604Y-98743932D01*
X136641577Y-98744620D01*
X136643505Y-98745280D01*
X136646924Y-98746642D01*
X136650161Y-98748245D01*
X136653229Y-98750040D01*
X136656221Y-98752019D01*
X136659026Y-98754120D01*
X136661691Y-98756323D01*
X136664169Y-98758730D01*
X136666474Y-98761237D01*
X136668628Y-98763822D01*
X136670627Y-98766577D01*
X136672475Y-98769489D01*
X136673996Y-98772331D01*
X136675517Y-98775323D01*
X136676705Y-98778409D01*
X136677770Y-98781504D01*
X136678706Y-98784614D01*
X136679292Y-98787859D01*
X136679772Y-98791048D01*
X136680024Y-98794263D01*
X136680024Y-98797411D01*
X136679873Y-98800648D01*
X136679488Y-98803765D01*
X136678858Y-98806874D01*
X136678075Y-98809916D01*
X136676989Y-98812861D01*
X136675693Y-98815793D01*
X136674068Y-98818655D01*
X136672322Y-98821316D01*
X136670351Y-98824076D01*
X136668046Y-98826533D01*
X136665539Y-98828868D01*
X136662647Y-98831141D01*
X136620198Y-98861917D01*
X136598642Y-98876736D01*
X136576839Y-98890945D01*
X136554801Y-98904557D01*
X136532410Y-98917567D01*
X136509715Y-98929751D01*
X136486642Y-98941099D01*
X136463257Y-98951481D01*
X136439374Y-98960982D01*
X136415033Y-98969213D01*
X136390214Y-98976430D01*
X136364990Y-98982308D01*
X136339150Y-98986894D01*
X136312729Y-98989984D01*
X136285759Y-98991528D01*
X136263722Y-98991453D01*
X136242590Y-98989828D01*
X136222229Y-98986641D01*
X136212354Y-98984431D01*
X136202702Y-98981932D01*
X136193280Y-98979021D01*
X136184105Y-98975771D01*
X136175070Y-98972148D01*
X136166252Y-98968047D01*
X136157744Y-98963764D01*
X136149381Y-98959054D01*
X136141330Y-98953968D01*
X136133503Y-98948569D01*
X136125875Y-98942843D01*
X136118404Y-98936714D01*
X136111315Y-98930308D01*
X136104477Y-98923549D01*
X136091433Y-98909084D01*
X136079427Y-98893200D01*
X136068432Y-98876199D01*
X136058607Y-98857844D01*
X136049794Y-98838360D01*
X136042142Y-98817614D01*
X136037151Y-98801684D01*
X136032723Y-98785729D01*
X136028796Y-98769620D01*
X136025556Y-98753613D01*
X136022866Y-98737445D01*
X136020686Y-98721273D01*
X136019011Y-98705035D01*
X136017773Y-98688825D01*
X136017011Y-98672482D01*
X136016635Y-98656195D01*
X136016686Y-98639909D01*
X136017111Y-98623549D01*
X136017976Y-98607135D01*
X136019112Y-98590773D01*
X136022433Y-98557947D01*
X136029019Y-98509366D01*
X136037178Y-98461315D01*
X136046905Y-98413751D01*
X136057977Y-98366687D01*
X136070352Y-98320107D01*
X136083939Y-98273934D01*
X136098876Y-98228237D01*
X136114912Y-98182927D01*
X136132005Y-98137870D01*
X136150018Y-98093309D01*
X136188671Y-98004788D01*
X136230439Y-97917528D01*
X136274808Y-97831130D01*
X136276585Y-97827463D01*
X136278127Y-97823863D01*
X136279578Y-97820369D01*
X136280715Y-97816870D01*
X136281670Y-97813508D01*
X136282461Y-97810108D01*
X136282917Y-97806740D01*
X136283193Y-97803392D01*
X136283324Y-97799979D01*
X136283193Y-97796477D01*
X136282917Y-97793116D01*
X136282389Y-97789566D01*
X136281670Y-97786022D01*
X136280837Y-97782275D01*
X136279709Y-97778470D01*
X136278431Y-97774653D01*
X136256150Y-97709573D01*
X136234569Y-97644203D01*
X136213411Y-97578724D01*
X136192642Y-97513153D01*
X136191629Y-97510262D01*
X136190672Y-97507530D01*
X136189584Y-97505051D01*
X136189026Y-97504008D01*
X136188517Y-97502974D01*
X136187984Y-97501957D01*
X136187352Y-97500995D01*
X136186723Y-97500161D01*
X136186083Y-97499398D01*
X136185375Y-97498617D01*
X136184721Y-97498009D01*
X136183933Y-97497369D01*
X136183122Y-97496790D01*
X136182287Y-97496334D01*
X136181528Y-97495906D01*
X136180621Y-97495602D01*
X136179626Y-97495219D01*
X136178664Y-97494993D01*
X136177649Y-97494742D01*
X136176541Y-97494611D01*
X136175419Y-97494560D01*
X136174230Y-97494537D01*
X136172938Y-97494560D01*
X136171694Y-97494611D01*
X136170301Y-97494742D01*
X136167395Y-97495116D01*
X136164028Y-97495826D01*
X136119794Y-97505958D01*
X136075804Y-97516777D01*
X136032187Y-97528776D01*
X135989128Y-97542276D01*
X135967854Y-97549572D01*
X135946629Y-97557427D01*
X135925783Y-97565711D01*
X135905006Y-97574478D01*
X135884449Y-97583820D01*
X135864057Y-97593876D01*
X135844042Y-97604516D01*
X135824258Y-97615782D01*
X135809084Y-97625131D01*
X135794225Y-97634935D01*
X135779484Y-97645116D01*
X135765297Y-97656036D01*
X135751287Y-97667254D01*
X135744550Y-97673123D01*
X135737862Y-97678957D01*
X135731228Y-97684935D01*
X135724877Y-97691117D01*
X135718490Y-97697370D01*
X135712363Y-97703654D01*
X135707442Y-97708971D01*
X135702909Y-97714341D01*
X135698579Y-97719833D01*
X135694628Y-97725232D01*
X135690985Y-97730653D01*
X135687564Y-97736101D01*
X135684498Y-97741666D01*
X135681715Y-97747247D01*
X135679281Y-97752791D01*
X135677123Y-97758341D01*
X135675203Y-97764036D01*
X135673580Y-97769651D01*
X135672339Y-97775332D01*
X135671324Y-97781079D01*
X135670592Y-97786782D01*
X135670135Y-97792557D01*
X135670086Y-97798304D01*
X135670209Y-97804179D01*
X135670616Y-97810030D01*
X135671398Y-97815856D01*
X135672339Y-97821731D01*
X135673629Y-97827661D01*
X135675203Y-97833610D01*
X135676970Y-97839442D01*
X135679182Y-97845442D01*
X135681579Y-97851448D01*
X135684166Y-97857376D01*
X135687078Y-97863348D01*
X135693788Y-97875507D01*
X135701494Y-97887545D01*
X135708962Y-97897899D01*
X135716586Y-97907876D01*
X135724666Y-97917455D01*
X135733050Y-97926746D01*
X135741716Y-97935615D01*
X135750759Y-97944173D01*
X135759954Y-97952506D01*
X135769427Y-97960559D01*
X135779027Y-97968340D01*
X135788928Y-97975811D01*
X135798904Y-97983232D01*
X135809165Y-97990353D01*
X135819521Y-97997262D01*
X135829955Y-98004050D01*
X135851234Y-98017376D01*
X135858050Y-98021376D01*
X135864736Y-98025304D01*
X135878542Y-98032906D01*
X135892348Y-98040501D01*
X135899238Y-98044407D01*
X135906078Y-98048354D01*
X135908353Y-98049797D01*
X135910709Y-98051420D01*
X135912840Y-98053116D01*
X135914889Y-98054810D01*
X135916910Y-98056688D01*
X135918868Y-98058585D01*
X135920637Y-98060534D01*
X135922256Y-98062565D01*
X135923881Y-98064616D01*
X135925304Y-98066737D01*
X135926665Y-98068897D01*
X135927882Y-98071152D01*
X135928969Y-98073354D01*
X135929931Y-98075687D01*
X135930866Y-98078013D01*
X135931636Y-98080347D01*
X135932267Y-98082746D01*
X135932793Y-98085109D01*
X135933280Y-98087593D01*
X135933555Y-98090071D01*
X135933709Y-98092579D01*
X135933760Y-98095035D01*
X135933709Y-98097542D01*
X135933584Y-98100029D01*
X135933280Y-98102483D01*
X135932846Y-98104912D01*
X135932338Y-98107448D01*
X135931636Y-98109876D01*
X135930866Y-98112333D01*
X135929859Y-98114716D01*
X135928818Y-98117122D01*
X135927607Y-98119579D01*
X135926338Y-98121905D01*
X135924968Y-98124114D01*
X135923448Y-98126288D01*
X135921853Y-98128290D01*
X135920188Y-98130216D01*
X135918383Y-98132066D01*
X135916608Y-98133840D01*
X135914636Y-98135506D01*
X135912760Y-98137028D01*
X135910759Y-98138426D01*
X135908634Y-98139840D01*
X135906557Y-98141128D01*
X135904302Y-98142196D01*
X135901999Y-98143208D01*
X135899716Y-98144174D01*
X135897362Y-98144883D01*
X135894906Y-98145563D01*
X135892523Y-98146123D01*
X135890063Y-98146550D01*
X135887556Y-98146905D01*
X135885028Y-98147056D01*
X135882543Y-98147158D01*
X135879932Y-98147056D01*
X135877303Y-98146933D01*
X135874737Y-98146578D01*
X135872155Y-98146201D01*
X135869549Y-98145563D01*
X135866891Y-98144883D01*
X135864310Y-98144093D01*
X135861623Y-98143055D01*
X135859135Y-98141948D01*
X135856555Y-98140724D01*
X135826745Y-98124766D01*
X135797491Y-98108078D01*
X135783181Y-98099392D01*
X135768992Y-98090376D01*
X135755112Y-98081128D01*
X135741382Y-98071479D01*
X135727860Y-98061599D01*
X135714637Y-98051340D01*
X135701694Y-98040782D01*
X135689006Y-98029760D01*
X135676622Y-98018362D01*
X135664613Y-98006586D01*
X135652780Y-97994376D01*
X135641389Y-97981738D01*
X135634599Y-97973761D01*
X135628116Y-97965752D01*
X135621804Y-97957492D01*
X135615833Y-97949087D01*
X135610006Y-97940680D01*
X135604536Y-97931993D01*
X135599390Y-97923181D01*
X135594549Y-97914231D01*
X135590122Y-97905094D01*
X135585911Y-97895747D01*
X135582115Y-97886420D01*
X135578696Y-97876674D01*
X135575608Y-97866848D01*
X135572906Y-97856891D01*
X135570522Y-97846578D01*
X135568739Y-97836173D01*
X135567021Y-97823173D01*
X135565979Y-97810363D01*
X135565711Y-97797673D01*
X135566087Y-97785263D01*
X135567172Y-97773000D01*
X135568898Y-97760870D01*
X135571225Y-97749016D01*
X135574340Y-97737211D01*
X135577912Y-97725687D01*
X135582166Y-97714270D01*
X135586954Y-97703015D01*
X135592399Y-97692050D01*
X135598325Y-97681036D01*
X135604984Y-97670247D01*
X135612008Y-97659681D01*
X135619730Y-97649169D01*
X135627963Y-97638710D01*
X135636551Y-97628450D01*
X135645434Y-97618826D01*
X135654557Y-97609347D01*
X135664007Y-97600232D01*
X135673629Y-97591370D01*
X135683585Y-97582855D01*
X135693746Y-97574601D01*
X135704204Y-97566697D01*
X135714706Y-97559073D01*
X135725527Y-97551601D01*
X135736499Y-97544356D01*
X135747663Y-97537365D01*
X135759014Y-97530550D01*
X135770441Y-97523942D01*
X135782014Y-97517582D01*
X135802781Y-97506617D01*
X135823701Y-97496182D01*
X135844832Y-97486254D01*
X135866107Y-97476854D01*
X135878288Y-97471864D01*
X136287991Y-97471864D01*
X136354672Y-97684073D01*
X136509482Y-97447906D01*
X136287991Y-97471864D01*
X135878288Y-97471864D01*
X135887636Y-97467964D01*
X135909369Y-97459552D01*
X135953013Y-97443899D01*
X135997230Y-97429769D01*
X136042142Y-97417233D01*
X136087251Y-97405712D01*
X136132948Y-97395295D01*
X136135991Y-97394611D01*
X136139178Y-97393908D01*
X136145737Y-97392284D01*
X136160861Y-97388429D01*
X136152121Y-97340154D01*
X136147889Y-97316392D01*
X136143990Y-97292567D01*
X136137070Y-97244008D01*
X136131455Y-97195502D01*
X136127649Y-97146974D01*
X136126411Y-97122757D01*
X136125823Y-97098467D01*
X136125823Y-97074227D01*
X136126565Y-97049956D01*
X136127780Y-97025821D01*
X136129933Y-97001581D01*
X136132867Y-96977240D01*
X136136469Y-96953174D01*
X136141048Y-96928894D01*
X136146549Y-96904822D01*
X136151636Y-96885857D01*
X136154426Y-96876459D01*
X136157463Y-96867111D01*
X136160678Y-96857893D01*
X136164028Y-96848823D01*
X136167750Y-96839932D01*
X136171694Y-96831018D01*
X136175874Y-96822257D01*
X136180338Y-96813588D01*
X136185071Y-96805136D01*
X136190062Y-96796800D01*
X136195359Y-96788618D01*
X136200903Y-96780510D01*
X136206961Y-96772632D01*
X136213185Y-96764937D01*
X136219801Y-96757387D01*
X136226614Y-96750192D01*
X136233376Y-96743303D01*
X136240511Y-96736792D01*
X136247484Y-96730763D01*
X136254677Y-96725068D01*
X136261968Y-96719594D01*
X136269389Y-96714554D01*
X136276867Y-96709865D01*
X136284439Y-96705490D01*
X136292237Y-96701481D01*
X136300040Y-96697813D01*
X136307918Y-96694444D01*
X136315872Y-96691382D01*
X136324027Y-96688741D01*
X136332156Y-96686337D01*
X136340491Y-96684264D01*
X136348873Y-96682490D01*
X136365845Y-96679880D01*
X136383171Y-96678489D01*
X136400846Y-96678235D01*
X136418828Y-96679120D01*
G37*
G36*
X124334725Y-74376465D02*
G01*
X124464176Y-74382390D01*
X124593289Y-74392728D01*
X124721917Y-74408081D01*
X124786019Y-74417819D01*
X124849939Y-74429012D01*
X124831064Y-74613920D01*
X124828082Y-74642656D01*
X124825256Y-74671902D01*
X124816493Y-74752731D01*
X124807152Y-74833466D01*
X124797006Y-74914123D01*
X124785892Y-74994678D01*
X124771505Y-75102720D01*
X124759214Y-75210512D01*
X124748924Y-75318178D01*
X124740519Y-75425842D01*
X124733897Y-75533621D01*
X124729024Y-75641628D01*
X124725721Y-75750034D01*
X124723948Y-75858905D01*
X124723802Y-75885360D01*
X124723479Y-75911993D01*
X124721609Y-76346087D01*
X124721063Y-76509675D01*
X124719999Y-76673287D01*
X124719810Y-76748620D01*
X124719999Y-76823969D01*
X124719285Y-76899556D01*
X124716879Y-76974368D01*
X124714563Y-77011339D01*
X124711280Y-77047988D01*
X124706837Y-77084277D01*
X124701019Y-77120130D01*
X124693659Y-77155518D01*
X124684603Y-77190410D01*
X124673583Y-77224730D01*
X124660522Y-77258479D01*
X124645156Y-77291569D01*
X124627330Y-77323980D01*
X124606848Y-77355678D01*
X124583532Y-77386610D01*
X124554615Y-77407660D01*
X124525512Y-77425869D01*
X124496184Y-77441433D01*
X124466615Y-77454480D01*
X124436784Y-77465210D01*
X124406609Y-77473797D01*
X124376103Y-77480394D01*
X124345230Y-77485238D01*
X124313963Y-77488430D01*
X124282238Y-77490158D01*
X124250101Y-77490611D01*
X124217442Y-77489965D01*
X124184291Y-77488378D01*
X124150591Y-77486037D01*
X124081421Y-77479760D01*
X124065243Y-77474597D01*
X124049442Y-77469174D01*
X124033977Y-77463484D01*
X124018787Y-77457543D01*
X124003864Y-77451288D01*
X123989198Y-77444777D01*
X123974736Y-77437981D01*
X123960448Y-77430890D01*
X123932256Y-77415828D01*
X123904383Y-77399550D01*
X123876572Y-77382077D01*
X123848556Y-77363321D01*
X123806386Y-77335135D01*
X123762060Y-77299661D01*
X123718726Y-77261810D01*
X123635116Y-77179521D01*
X123555647Y-77089150D01*
X123480376Y-76991650D01*
X123409340Y-76887977D01*
X123342611Y-76779072D01*
X123280258Y-76665830D01*
X123222332Y-76549234D01*
X123168893Y-76430166D01*
X123120011Y-76309632D01*
X123075697Y-76188513D01*
X123036081Y-76067759D01*
X123001173Y-75948318D01*
X122971067Y-75831116D01*
X122945794Y-75717074D01*
X122925411Y-75607158D01*
X122915086Y-75488809D01*
X122911464Y-75429831D01*
X122909217Y-75371112D01*
X122908572Y-75312678D01*
X122909810Y-75254613D01*
X122913175Y-75196969D01*
X122918891Y-75139831D01*
X122927227Y-75083246D01*
X122938435Y-75027300D01*
X122952750Y-74972030D01*
X122970469Y-74917525D01*
X122991791Y-74863863D01*
X123017011Y-74811092D01*
X123046343Y-74759267D01*
X123080035Y-74708464D01*
X123115926Y-74669651D01*
X123153737Y-74633729D01*
X123193349Y-74600617D01*
X123234623Y-74570227D01*
X123277466Y-74542486D01*
X123321719Y-74517260D01*
X123367300Y-74494503D01*
X123414048Y-74474118D01*
X123461875Y-74455994D01*
X123510640Y-74440052D01*
X123560232Y-74426191D01*
X123610521Y-74414355D01*
X123661372Y-74404416D01*
X123712692Y-74396323D01*
X123764312Y-74389953D01*
X123816174Y-74385222D01*
X123945662Y-74379348D01*
X124075335Y-74375534D01*
X124205061Y-74374374D01*
X124334725Y-74376465D01*
G37*
G36*
X118804487Y-69362041D02*
G01*
X118812915Y-69371611D01*
X118820371Y-69380973D01*
X118827008Y-69390199D01*
X118832837Y-69399369D01*
X118837985Y-69408551D01*
X118842491Y-69417806D01*
X118846490Y-69427217D01*
X118850043Y-69436845D01*
X118853235Y-69446753D01*
X118856109Y-69457041D01*
X118858794Y-69467761D01*
X118863980Y-69490790D01*
X118869317Y-69516376D01*
X118888228Y-69598042D01*
X118910300Y-69677953D01*
X118935547Y-69756044D01*
X118963988Y-69832268D01*
X118995610Y-69906623D01*
X119030484Y-69979005D01*
X119068567Y-70049409D01*
X119109873Y-70117758D01*
X119154440Y-70184034D01*
X119202277Y-70248179D01*
X119253416Y-70310133D01*
X119307817Y-70369839D01*
X119365532Y-70427305D01*
X119426578Y-70482430D01*
X119490931Y-70535182D01*
X119558657Y-70585539D01*
X119604956Y-70614358D01*
X119651578Y-70642155D01*
X119698562Y-70668875D01*
X119745941Y-70694456D01*
X119793730Y-70718832D01*
X119841948Y-70741934D01*
X119890658Y-70763714D01*
X119939860Y-70784104D01*
X119989608Y-70803017D01*
X120039939Y-70820401D01*
X120090833Y-70836217D01*
X120142346Y-70850386D01*
X120194547Y-70862823D01*
X120247428Y-70873486D01*
X120301013Y-70882296D01*
X120355332Y-70889217D01*
X120355332Y-70935805D01*
X120325567Y-70940952D01*
X120310594Y-70943546D01*
X120295494Y-70946274D01*
X120235441Y-70958473D01*
X120176655Y-70972016D01*
X120119056Y-70986901D01*
X120062574Y-71003222D01*
X120007149Y-71021040D01*
X119952703Y-71040402D01*
X119899171Y-71061341D01*
X119846503Y-71083969D01*
X119794581Y-71108298D01*
X119743366Y-71134426D01*
X119692805Y-71162387D01*
X119642796Y-71192219D01*
X119593296Y-71224016D01*
X119544219Y-71257816D01*
X119495521Y-71293680D01*
X119447096Y-71331686D01*
X119422352Y-71350347D01*
X119397253Y-71369161D01*
X119337018Y-71420450D01*
X119280807Y-71475057D01*
X119228483Y-71532698D01*
X119179789Y-71593200D01*
X119134615Y-71656283D01*
X119092771Y-71721694D01*
X119054092Y-71789186D01*
X119018367Y-71858536D01*
X118985428Y-71929427D01*
X118955112Y-72001704D01*
X118927231Y-72075074D01*
X118901620Y-72149269D01*
X118878113Y-72224052D01*
X118856502Y-72299209D01*
X118836632Y-72374434D01*
X118818302Y-72449529D01*
X118795022Y-72449529D01*
X118788158Y-72415537D01*
X118781295Y-72381057D01*
X118761197Y-72295898D01*
X118738071Y-72211662D01*
X118711868Y-72128516D01*
X118682493Y-72046667D01*
X118649866Y-71966310D01*
X118613949Y-71887639D01*
X118574637Y-71810832D01*
X118531864Y-71736101D01*
X118485584Y-71663608D01*
X118435683Y-71593573D01*
X118382122Y-71526204D01*
X118324826Y-71461668D01*
X118263717Y-71400151D01*
X118198721Y-71341862D01*
X118129769Y-71287010D01*
X118056790Y-71235742D01*
X118004184Y-71204012D01*
X117951998Y-71174138D01*
X117900094Y-71146074D01*
X117848359Y-71119822D01*
X117796640Y-71095320D01*
X117744776Y-71072581D01*
X117692642Y-71051554D01*
X117640123Y-71032247D01*
X117587017Y-71014598D01*
X117533254Y-70998596D01*
X117478619Y-70984211D01*
X117423040Y-70971429D01*
X117366331Y-70960229D01*
X117308375Y-70950563D01*
X117249029Y-70942428D01*
X117188155Y-70935805D01*
X117188155Y-70889217D01*
X117217336Y-70885463D01*
X117247062Y-70881536D01*
X117338596Y-70866748D01*
X117428411Y-70848340D01*
X117516468Y-70826308D01*
X117602688Y-70800611D01*
X117686982Y-70771194D01*
X117769331Y-70738037D01*
X117849630Y-70701062D01*
X117927795Y-70660229D01*
X118003812Y-70615531D01*
X118077569Y-70566914D01*
X118148992Y-70514350D01*
X118218037Y-70457758D01*
X118284636Y-70397140D01*
X118348702Y-70332407D01*
X118410177Y-70263576D01*
X118468994Y-70190572D01*
X118500976Y-70141847D01*
X118531340Y-70092821D01*
X118560133Y-70043464D01*
X118587340Y-69993715D01*
X118612967Y-69943560D01*
X118637036Y-69892955D01*
X118659570Y-69841829D01*
X118680568Y-69790164D01*
X118700056Y-69737921D01*
X118718024Y-69685036D01*
X118734513Y-69631485D01*
X118749516Y-69577224D01*
X118763074Y-69522203D01*
X118775155Y-69466389D01*
X118785797Y-69409726D01*
X118795022Y-69352219D01*
X118804487Y-69362041D01*
G37*
G36*
X54558276Y-95334127D02*
G01*
X54565063Y-95334632D01*
X54571792Y-95335468D01*
X54578452Y-95336630D01*
X54585032Y-95338114D01*
X54591521Y-95339914D01*
X54597907Y-95342027D01*
X54604178Y-95344447D01*
X54610324Y-95347171D01*
X54616333Y-95350192D01*
X54622195Y-95353507D01*
X54627896Y-95357110D01*
X54633428Y-95360998D01*
X54638777Y-95365165D01*
X54643933Y-95369608D01*
X54648885Y-95374320D01*
X54653597Y-95379271D01*
X54658039Y-95384427D01*
X54662206Y-95389777D01*
X54666094Y-95395308D01*
X54669698Y-95401010D01*
X54673012Y-95406871D01*
X54676034Y-95412880D01*
X54678757Y-95419026D01*
X54681177Y-95425298D01*
X54683290Y-95431683D01*
X54685091Y-95438172D01*
X54686574Y-95444752D01*
X54687736Y-95451412D01*
X54688572Y-95458141D01*
X54689077Y-95464928D01*
X54689247Y-95471762D01*
X54689077Y-95478595D01*
X54688572Y-95485382D01*
X54687736Y-95492111D01*
X54686574Y-95498771D01*
X54685091Y-95505351D01*
X54683290Y-95511840D01*
X54681177Y-95518225D01*
X54678757Y-95524497D01*
X54676034Y-95530643D01*
X54673012Y-95536652D01*
X54669698Y-95542513D01*
X54666094Y-95548215D01*
X54662206Y-95553747D01*
X54658039Y-95559096D01*
X54653597Y-95564252D01*
X54648885Y-95569204D01*
X54643933Y-95573916D01*
X54638777Y-95578358D01*
X54633428Y-95582525D01*
X54627896Y-95586413D01*
X54622195Y-95590016D01*
X54616333Y-95593331D01*
X54610324Y-95596353D01*
X54604178Y-95599076D01*
X54597907Y-95601496D01*
X54591521Y-95603609D01*
X54585032Y-95605409D01*
X54578452Y-95606893D01*
X54571792Y-95608055D01*
X54565063Y-95608891D01*
X54558276Y-95609396D01*
X54551443Y-95609565D01*
X54544609Y-95609396D01*
X54537823Y-95608891D01*
X54531093Y-95608055D01*
X54524433Y-95606893D01*
X54517853Y-95605409D01*
X54511365Y-95603609D01*
X54504979Y-95601496D01*
X54498707Y-95599076D01*
X54492561Y-95596353D01*
X54486552Y-95593331D01*
X54480691Y-95590016D01*
X54474989Y-95586413D01*
X54469458Y-95582525D01*
X54464108Y-95578358D01*
X54458952Y-95573916D01*
X54454001Y-95569204D01*
X54449289Y-95564252D01*
X54444846Y-95559096D01*
X54440679Y-95553747D01*
X54436791Y-95548215D01*
X54433188Y-95542513D01*
X54429873Y-95536652D01*
X54426852Y-95530643D01*
X54424129Y-95524497D01*
X54421708Y-95518225D01*
X54419595Y-95511840D01*
X54417795Y-95505351D01*
X54416311Y-95498771D01*
X54415149Y-95492111D01*
X54414313Y-95485382D01*
X54413808Y-95478595D01*
X54413639Y-95471762D01*
X54413808Y-95464928D01*
X54414313Y-95458141D01*
X54415149Y-95451412D01*
X54416311Y-95444752D01*
X54417795Y-95438172D01*
X54419596Y-95431683D01*
X54421708Y-95425298D01*
X54424129Y-95419026D01*
X54426852Y-95412880D01*
X54429873Y-95406871D01*
X54433188Y-95401010D01*
X54436792Y-95395308D01*
X54440679Y-95389777D01*
X54444847Y-95384427D01*
X54449289Y-95379271D01*
X54454001Y-95374320D01*
X54458952Y-95369608D01*
X54464109Y-95365165D01*
X54469458Y-95360998D01*
X54474989Y-95357110D01*
X54480691Y-95353507D01*
X54486552Y-95350192D01*
X54492562Y-95347171D01*
X54498708Y-95344448D01*
X54504979Y-95342027D01*
X54511365Y-95339914D01*
X54517853Y-95338114D01*
X54524433Y-95336630D01*
X54531093Y-95335468D01*
X54537823Y-95334632D01*
X54544609Y-95334127D01*
X54551443Y-95333958D01*
X54558276Y-95334127D01*
G37*
G36*
X54000000Y-95500000D02*
G01*
X54027148Y-95502020D01*
X54054065Y-95505363D01*
X54080706Y-95510012D01*
X54107026Y-95515946D01*
X54132980Y-95523149D01*
X54158522Y-95531600D01*
X54183608Y-95541281D01*
X54208192Y-95552174D01*
X54232229Y-95564259D01*
X54255674Y-95577518D01*
X54278481Y-95591933D01*
X54300606Y-95607484D01*
X54322004Y-95624153D01*
X54342628Y-95641921D01*
X54362435Y-95660770D01*
X54381283Y-95680576D01*
X54399051Y-95701201D01*
X54415720Y-95722598D01*
X54431271Y-95744723D01*
X54445686Y-95767531D01*
X54458945Y-95790976D01*
X54471031Y-95815013D01*
X54481923Y-95839597D01*
X54491604Y-95864682D01*
X54500056Y-95890225D01*
X54507258Y-95916179D01*
X54513193Y-95942499D01*
X54517841Y-95969140D01*
X54521185Y-95996057D01*
X54523205Y-96023205D01*
X54523882Y-96050538D01*
X54523205Y-96077871D01*
X54521185Y-96105019D01*
X54517841Y-96131936D01*
X54513193Y-96158577D01*
X54507258Y-96184897D01*
X54500056Y-96210851D01*
X54491604Y-96236393D01*
X54481923Y-96261479D01*
X54471031Y-96286063D01*
X54458945Y-96310100D01*
X54445686Y-96333545D01*
X54431271Y-96356352D01*
X54415720Y-96378477D01*
X54399051Y-96399875D01*
X54381283Y-96420499D01*
X54362435Y-96440306D01*
X54342628Y-96459154D01*
X54322004Y-96476922D01*
X54300606Y-96493591D01*
X54278481Y-96509142D01*
X54255674Y-96523557D01*
X54232229Y-96536816D01*
X54208192Y-96548902D01*
X54183608Y-96559794D01*
X54158522Y-96569475D01*
X54132980Y-96577927D01*
X54107026Y-96585129D01*
X54080706Y-96591064D01*
X54054065Y-96595712D01*
X54027148Y-96599056D01*
X54000000Y-96601076D01*
X53972667Y-96601753D01*
X53945334Y-96601076D01*
X53918186Y-96599056D01*
X53891269Y-96595712D01*
X53864628Y-96591064D01*
X53838308Y-96585129D01*
X53812354Y-96577927D01*
X53786811Y-96569475D01*
X53761726Y-96559794D01*
X53737142Y-96548902D01*
X53713105Y-96536816D01*
X53689660Y-96523557D01*
X53666852Y-96509142D01*
X53644727Y-96493591D01*
X53623330Y-96476922D01*
X53602705Y-96459154D01*
X53582899Y-96440306D01*
X53564050Y-96420499D01*
X53546282Y-96399875D01*
X53529613Y-96378477D01*
X53514062Y-96356352D01*
X53499647Y-96333545D01*
X53486388Y-96310100D01*
X53474303Y-96286063D01*
X53463410Y-96261479D01*
X53453729Y-96236393D01*
X53445278Y-96210851D01*
X53438075Y-96184897D01*
X53432141Y-96158577D01*
X53427492Y-96131936D01*
X53424149Y-96105019D01*
X53422129Y-96077871D01*
X53421451Y-96050538D01*
X53641937Y-96050538D01*
X53642344Y-96066938D01*
X53643556Y-96083226D01*
X53645562Y-96099376D01*
X53648351Y-96115361D01*
X53651912Y-96131153D01*
X53656233Y-96146725D01*
X53661304Y-96162051D01*
X53667113Y-96177102D01*
X53673648Y-96191853D01*
X53680899Y-96206275D01*
X53688855Y-96220342D01*
X53697504Y-96234026D01*
X53706834Y-96247301D01*
X53716836Y-96260140D01*
X53727497Y-96272515D01*
X53738806Y-96284399D01*
X53750690Y-96295708D01*
X53763064Y-96306368D01*
X53775903Y-96316370D01*
X53789178Y-96325700D01*
X53802862Y-96334349D01*
X53816929Y-96342305D01*
X53831352Y-96349556D01*
X53846102Y-96356092D01*
X53861154Y-96361900D01*
X53876479Y-96366971D01*
X53892051Y-96371292D01*
X53907843Y-96374853D01*
X53923828Y-96377642D01*
X53939978Y-96379648D01*
X53956267Y-96380860D01*
X53972667Y-96381267D01*
X53989067Y-96380860D01*
X54005355Y-96379648D01*
X54021505Y-96377642D01*
X54037490Y-96374853D01*
X54053282Y-96371292D01*
X54068854Y-96366971D01*
X54084180Y-96361900D01*
X54099231Y-96356092D01*
X54113982Y-96349556D01*
X54128404Y-96342305D01*
X54142471Y-96334349D01*
X54156155Y-96325700D01*
X54169430Y-96316370D01*
X54182269Y-96306368D01*
X54194644Y-96295708D01*
X54206528Y-96284399D01*
X54217837Y-96272515D01*
X54228497Y-96260140D01*
X54238499Y-96247301D01*
X54247829Y-96234026D01*
X54256478Y-96220342D01*
X54264434Y-96206275D01*
X54271685Y-96191853D01*
X54278221Y-96177102D01*
X54284029Y-96162051D01*
X54289100Y-96146725D01*
X54293421Y-96131153D01*
X54296982Y-96115361D01*
X54299771Y-96099376D01*
X54301777Y-96083226D01*
X54302989Y-96066938D01*
X54303396Y-96050538D01*
X54302989Y-96034138D01*
X54301777Y-96017849D01*
X54299771Y-96001699D01*
X54296982Y-95985714D01*
X54293421Y-95969922D01*
X54289100Y-95954350D01*
X54284029Y-95939025D01*
X54278221Y-95923973D01*
X54271685Y-95909223D01*
X54264434Y-95894800D01*
X54256478Y-95880733D01*
X54247829Y-95867049D01*
X54238499Y-95853774D01*
X54228497Y-95840935D01*
X54217837Y-95828561D01*
X54206528Y-95816677D01*
X54194644Y-95805368D01*
X54182269Y-95794707D01*
X54169430Y-95784705D01*
X54156155Y-95775375D01*
X54142471Y-95766726D01*
X54128404Y-95758770D01*
X54113982Y-95751519D01*
X54099231Y-95744984D01*
X54084180Y-95739175D01*
X54068854Y-95734104D01*
X54053282Y-95729783D01*
X54037490Y-95726222D01*
X54021505Y-95723433D01*
X54005355Y-95721427D01*
X53989067Y-95720215D01*
X53972667Y-95719808D01*
X53956267Y-95720215D01*
X53939978Y-95721427D01*
X53923828Y-95723433D01*
X53907843Y-95726222D01*
X53892051Y-95729783D01*
X53876479Y-95734104D01*
X53861154Y-95739175D01*
X53846102Y-95744984D01*
X53831352Y-95751519D01*
X53816929Y-95758770D01*
X53802862Y-95766726D01*
X53789178Y-95775375D01*
X53775903Y-95784705D01*
X53763064Y-95794707D01*
X53750690Y-95805368D01*
X53738806Y-95816677D01*
X53727497Y-95828561D01*
X53716836Y-95840935D01*
X53706834Y-95853774D01*
X53697504Y-95867049D01*
X53688855Y-95880733D01*
X53680899Y-95894800D01*
X53673648Y-95909223D01*
X53667113Y-95923973D01*
X53661304Y-95939025D01*
X53656233Y-95954350D01*
X53651912Y-95969922D01*
X53648351Y-95985714D01*
X53645562Y-96001699D01*
X53643556Y-96017849D01*
X53642344Y-96034138D01*
X53641937Y-96050538D01*
X53421451Y-96050538D01*
X53422129Y-96023205D01*
X53424149Y-95996057D01*
X53427492Y-95969140D01*
X53432141Y-95942499D01*
X53438075Y-95916179D01*
X53445278Y-95890225D01*
X53453729Y-95864682D01*
X53463410Y-95839597D01*
X53474303Y-95815013D01*
X53486388Y-95790976D01*
X53499648Y-95767531D01*
X53514062Y-95744723D01*
X53529613Y-95722598D01*
X53546282Y-95701201D01*
X53564050Y-95680576D01*
X53582899Y-95660770D01*
X53602705Y-95641921D01*
X53623330Y-95624153D01*
X53644727Y-95607484D01*
X53666852Y-95591933D01*
X53689660Y-95577518D01*
X53713105Y-95564259D01*
X53737142Y-95552174D01*
X53761726Y-95541281D01*
X53786812Y-95531600D01*
X53812354Y-95523149D01*
X53838308Y-95515946D01*
X53864628Y-95510012D01*
X53891269Y-95505363D01*
X53918186Y-95502020D01*
X53945334Y-95500000D01*
X53972667Y-95499322D01*
X54000000Y-95500000D01*
G37*
G36*
X54468560Y-94948940D02*
G01*
X54501004Y-94951412D01*
X54532981Y-94955483D01*
X54564448Y-94961112D01*
X54595366Y-94968260D01*
X54625695Y-94976884D01*
X54655394Y-94986947D01*
X54684423Y-94998406D01*
X54712742Y-95011221D01*
X54740309Y-95025353D01*
X54767086Y-95040760D01*
X54793030Y-95057403D01*
X54818103Y-95075241D01*
X54842263Y-95094233D01*
X54865470Y-95114340D01*
X54887684Y-95135520D01*
X54908865Y-95157734D01*
X54928971Y-95180942D01*
X54947964Y-95205102D01*
X54965802Y-95230174D01*
X54982444Y-95256119D01*
X54997852Y-95282895D01*
X55011983Y-95310463D01*
X55024799Y-95338781D01*
X55036258Y-95367810D01*
X55046320Y-95397509D01*
X55054945Y-95427838D01*
X55062092Y-95458756D01*
X55067721Y-95490224D01*
X55071792Y-95522200D01*
X55074264Y-95554644D01*
X55075097Y-95587517D01*
X55075097Y-96513559D01*
X55074265Y-96546462D01*
X55071796Y-96578934D01*
X55067730Y-96610934D01*
X55062107Y-96642422D01*
X55054967Y-96673357D01*
X55046351Y-96703699D01*
X55036298Y-96733409D01*
X55024849Y-96762446D01*
X55012045Y-96790769D01*
X54997924Y-96818339D01*
X54982528Y-96845116D01*
X54965896Y-96871059D01*
X54948069Y-96896128D01*
X54929087Y-96920282D01*
X54908990Y-96943483D01*
X54887819Y-96965689D01*
X54865612Y-96986861D01*
X54842412Y-97006958D01*
X54818257Y-97025940D01*
X54793188Y-97043767D01*
X54767245Y-97060399D01*
X54740468Y-97075795D01*
X54712898Y-97089916D01*
X54684575Y-97102720D01*
X54655538Y-97114169D01*
X54625829Y-97124222D01*
X54595486Y-97132838D01*
X54564551Y-97139978D01*
X54533064Y-97145601D01*
X54501064Y-97149667D01*
X54468592Y-97152136D01*
X54435688Y-97152968D01*
X53509646Y-97152968D01*
X53476773Y-97152135D01*
X53444329Y-97149663D01*
X53412353Y-97145592D01*
X53380885Y-97139963D01*
X53349967Y-97132816D01*
X53319638Y-97124191D01*
X53289939Y-97114129D01*
X53260910Y-97102670D01*
X53232592Y-97089854D01*
X53205024Y-97075723D01*
X53178248Y-97060315D01*
X53152303Y-97043673D01*
X53127231Y-97025835D01*
X53103071Y-97006842D01*
X53079863Y-96986736D01*
X53057649Y-96965555D01*
X53036469Y-96943341D01*
X53016362Y-96920134D01*
X52997370Y-96895974D01*
X52979532Y-96870901D01*
X52962889Y-96844957D01*
X52947482Y-96818180D01*
X52933350Y-96790613D01*
X52920535Y-96762294D01*
X52909076Y-96733265D01*
X52899013Y-96703566D01*
X52890389Y-96673237D01*
X52883241Y-96642319D01*
X52877612Y-96610852D01*
X52873541Y-96578875D01*
X52871069Y-96546431D01*
X52870795Y-96535607D01*
X53090722Y-96535607D01*
X53091238Y-96556047D01*
X53092769Y-96576217D01*
X53095290Y-96596092D01*
X53098777Y-96615647D01*
X53103205Y-96634858D01*
X53108548Y-96653698D01*
X53114783Y-96672144D01*
X53121883Y-96690171D01*
X53129825Y-96707754D01*
X53138583Y-96724868D01*
X53148134Y-96741488D01*
X53158451Y-96757590D01*
X53169510Y-96773148D01*
X53181286Y-96788138D01*
X53193755Y-96802534D01*
X53206891Y-96816313D01*
X53220670Y-96829450D01*
X53235067Y-96841918D01*
X53250057Y-96853695D01*
X53265615Y-96864754D01*
X53281716Y-96875071D01*
X53298336Y-96884621D01*
X53315450Y-96893379D01*
X53333033Y-96901321D01*
X53351060Y-96908422D01*
X53369506Y-96914656D01*
X53388347Y-96919999D01*
X53407557Y-96924427D01*
X53427112Y-96927914D01*
X53446987Y-96930435D01*
X53467157Y-96931966D01*
X53487597Y-96932482D01*
X54457736Y-96932482D01*
X54477416Y-96931994D01*
X54496962Y-96930540D01*
X54516343Y-96928133D01*
X54535524Y-96924786D01*
X54554475Y-96920513D01*
X54573161Y-96915327D01*
X54591552Y-96909242D01*
X54609614Y-96902272D01*
X54627314Y-96894429D01*
X54644621Y-96885728D01*
X54661501Y-96876181D01*
X54677923Y-96865803D01*
X54693853Y-96854606D01*
X54709259Y-96842604D01*
X54724108Y-96829811D01*
X54738369Y-96816240D01*
X54751940Y-96801979D01*
X54764733Y-96787130D01*
X54776735Y-96771724D01*
X54787932Y-96755794D01*
X54798310Y-96739372D01*
X54807857Y-96722492D01*
X54816558Y-96705185D01*
X54824401Y-96687485D01*
X54831371Y-96669423D01*
X54837456Y-96651032D01*
X54842642Y-96632346D01*
X54846915Y-96613395D01*
X54850262Y-96594214D01*
X54852669Y-96574834D01*
X54854124Y-96555287D01*
X54854611Y-96535607D01*
X54854611Y-95565468D01*
X54854095Y-95545028D01*
X54852564Y-95524858D01*
X54850043Y-95504983D01*
X54846556Y-95485428D01*
X54842128Y-95466218D01*
X54836785Y-95447377D01*
X54830551Y-95428931D01*
X54823450Y-95410904D01*
X54815508Y-95393321D01*
X54806750Y-95376207D01*
X54797200Y-95359587D01*
X54786883Y-95343486D01*
X54775824Y-95327928D01*
X54764047Y-95312938D01*
X54751579Y-95298541D01*
X54738442Y-95284762D01*
X54724663Y-95271626D01*
X54710267Y-95259157D01*
X54695277Y-95247381D01*
X54679719Y-95236322D01*
X54663617Y-95226005D01*
X54646997Y-95216454D01*
X54629883Y-95207696D01*
X54612300Y-95199754D01*
X54594273Y-95192654D01*
X54575827Y-95186419D01*
X54556987Y-95181076D01*
X54537776Y-95176648D01*
X54518221Y-95173161D01*
X54498346Y-95170640D01*
X54478176Y-95169109D01*
X54457736Y-95168593D01*
X53487597Y-95168593D01*
X53467917Y-95169081D01*
X53448371Y-95170535D01*
X53428991Y-95172943D01*
X53409809Y-95176290D01*
X53390859Y-95180563D01*
X53372172Y-95185748D01*
X53353782Y-95191833D01*
X53335720Y-95198804D01*
X53318019Y-95206646D01*
X53300713Y-95215348D01*
X53283832Y-95224894D01*
X53267411Y-95235273D01*
X53251481Y-95246470D01*
X53236075Y-95258471D01*
X53221225Y-95271264D01*
X53206964Y-95284835D01*
X53193393Y-95299096D01*
X53180600Y-95313946D01*
X53168599Y-95329352D01*
X53157402Y-95345282D01*
X53147023Y-95361703D01*
X53137477Y-95378584D01*
X53128775Y-95395890D01*
X53120933Y-95413591D01*
X53113962Y-95431653D01*
X53107877Y-95450043D01*
X53102692Y-95468730D01*
X53098419Y-95487680D01*
X53095072Y-95506862D01*
X53092664Y-95526242D01*
X53091210Y-95545788D01*
X53090722Y-95565468D01*
X53090722Y-96535607D01*
X52870795Y-96535607D01*
X52870236Y-96513559D01*
X52870236Y-95587517D01*
X52870783Y-95565468D01*
X52871022Y-95555810D01*
X52873365Y-95524319D01*
X52877243Y-95493095D01*
X52882636Y-95462192D01*
X52889520Y-95431660D01*
X52897875Y-95401554D01*
X52907678Y-95371925D01*
X52918908Y-95342825D01*
X52931544Y-95314308D01*
X52945563Y-95286425D01*
X52960944Y-95259229D01*
X52977665Y-95232772D01*
X52995704Y-95207107D01*
X53015040Y-95182286D01*
X53035651Y-95158361D01*
X53057515Y-95135386D01*
X53080491Y-95113522D01*
X53104415Y-95092911D01*
X53129236Y-95073575D01*
X53154901Y-95055535D01*
X53181358Y-95038814D01*
X53208554Y-95023434D01*
X53236437Y-95009415D01*
X53264954Y-94996779D01*
X53294054Y-94985549D01*
X53323683Y-94975746D01*
X53353789Y-94967391D01*
X53384321Y-94960507D01*
X53415224Y-94955114D01*
X53446448Y-94951236D01*
X53477939Y-94948893D01*
X53509646Y-94948107D01*
X54435688Y-94948107D01*
X54468560Y-94948940D01*
G37*
G36*
X100312253Y-69716673D02*
G01*
X100457263Y-69739369D01*
X100599392Y-69773878D01*
X100669003Y-69795582D01*
X100737507Y-69820303D01*
X100804702Y-69848002D01*
X100870477Y-69878705D01*
X100934660Y-69912454D01*
X100997152Y-69949215D01*
X101057783Y-69989049D01*
X101116426Y-70031914D01*
X101168738Y-70079953D01*
X101217921Y-70129479D01*
X101263985Y-70180459D01*
X101306982Y-70232948D01*
X101346898Y-70286900D01*
X101383794Y-70342313D01*
X101417686Y-70399220D01*
X101448567Y-70457603D01*
X101476498Y-70517447D01*
X101501493Y-70578765D01*
X101523558Y-70641539D01*
X101542763Y-70705799D01*
X101559072Y-70771504D01*
X101572519Y-70838677D01*
X101583182Y-70907330D01*
X101591040Y-70977405D01*
X101594447Y-71056713D01*
X101595596Y-71134097D01*
X101594292Y-71209642D01*
X101590350Y-71283498D01*
X101583504Y-71355771D01*
X101573596Y-71426542D01*
X101560382Y-71495945D01*
X101543657Y-71564069D01*
X101523266Y-71631066D01*
X101498924Y-71696993D01*
X101470456Y-71762002D01*
X101437679Y-71826166D01*
X101400333Y-71889645D01*
X101358239Y-71952495D01*
X101311177Y-72014859D01*
X101258946Y-72076836D01*
X101215762Y-72121618D01*
X101171226Y-72163934D01*
X101125406Y-72203773D01*
X101078300Y-72241251D01*
X101029935Y-72276371D01*
X100980331Y-72309183D01*
X100929518Y-72339734D01*
X100877488Y-72368049D01*
X100824280Y-72394162D01*
X100769911Y-72418161D01*
X100714431Y-72440037D01*
X100657811Y-72459860D01*
X100600099Y-72477651D01*
X100541314Y-72493448D01*
X100481473Y-72507348D01*
X100420566Y-72519326D01*
X100395379Y-72523905D01*
X100369803Y-72528635D01*
X100349932Y-72531264D01*
X100330127Y-72533582D01*
X100310350Y-72535614D01*
X100290571Y-72537384D01*
X100250934Y-72540306D01*
X100210983Y-72542614D01*
X100129223Y-72547279D01*
X100051612Y-72548255D01*
X99974963Y-72546548D01*
X99899257Y-72542074D01*
X99824608Y-72534743D01*
X99750985Y-72524414D01*
X99678419Y-72510998D01*
X99606916Y-72494409D01*
X99536492Y-72474530D01*
X99467202Y-72451261D01*
X99399026Y-72424484D01*
X99331978Y-72394120D01*
X99266119Y-72360045D01*
X99201436Y-72322168D01*
X99137935Y-72280379D01*
X99075685Y-72234588D01*
X99014669Y-72184672D01*
X98980585Y-72151141D01*
X98948140Y-72117597D01*
X98917278Y-72083959D01*
X98887922Y-72050085D01*
X98859966Y-72015915D01*
X98833398Y-71981310D01*
X98808139Y-71946128D01*
X98784112Y-71910352D01*
X98761214Y-71873806D01*
X98739395Y-71836384D01*
X98718591Y-71798005D01*
X98698743Y-71758548D01*
X98679758Y-71717916D01*
X98661579Y-71675971D01*
X98644159Y-71632639D01*
X98627395Y-71587800D01*
X98615455Y-71555547D01*
X98603176Y-71522600D01*
X98596656Y-71499105D01*
X98591090Y-71475606D01*
X98586408Y-71452109D01*
X98582543Y-71428599D01*
X98579425Y-71405068D01*
X98576952Y-71381481D01*
X98575072Y-71357886D01*
X98573703Y-71334212D01*
X98572222Y-71286764D01*
X98571867Y-71239026D01*
X98572193Y-71142538D01*
X98570556Y-71060546D01*
X98571928Y-70993352D01*
X98576494Y-70927191D01*
X98584190Y-70862092D01*
X98595053Y-70798051D01*
X98608990Y-70735137D01*
X98625926Y-70673330D01*
X98645913Y-70612649D01*
X98668821Y-70553132D01*
X98694649Y-70494791D01*
X98723324Y-70437630D01*
X98754860Y-70381680D01*
X98789168Y-70326960D01*
X98826219Y-70273472D01*
X98865980Y-70221237D01*
X98908394Y-70170299D01*
X98953417Y-70120663D01*
X99007986Y-70073966D01*
X99064830Y-70029972D01*
X99123798Y-69988736D01*
X99184709Y-69950266D01*
X99247467Y-69914515D01*
X99311934Y-69881529D01*
X99377937Y-69851332D01*
X99445314Y-69823926D01*
X99583776Y-69777539D01*
X99726160Y-69742427D01*
X99871325Y-69718698D01*
X100018151Y-69706438D01*
X100165521Y-69705750D01*
X100312253Y-69716673D01*
G37*
G36*
X134944875Y-69316784D02*
G01*
X134959685Y-69407629D01*
X134977252Y-69496325D01*
X134997727Y-69582968D01*
X135021275Y-69667596D01*
X135047953Y-69750156D01*
X135077937Y-69830716D01*
X135111335Y-69909300D01*
X135148296Y-69985933D01*
X135188924Y-70060615D01*
X135233375Y-70133396D01*
X135281754Y-70204252D01*
X135334178Y-70273270D01*
X135390840Y-70340432D01*
X135451778Y-70405757D01*
X135517170Y-70469290D01*
X135587155Y-70531059D01*
X135632538Y-70563752D01*
X135679373Y-70595572D01*
X135727505Y-70626415D01*
X135776872Y-70656161D01*
X135827361Y-70684747D01*
X135878833Y-70712006D01*
X135931204Y-70737845D01*
X135984342Y-70762168D01*
X136038143Y-70784883D01*
X136092505Y-70805864D01*
X136147302Y-70824992D01*
X136202450Y-70842157D01*
X136257818Y-70857289D01*
X136313285Y-70870221D01*
X136368774Y-70880925D01*
X136424140Y-70889217D01*
X136424140Y-70935805D01*
X136397762Y-70940129D01*
X136371043Y-70944651D01*
X136309665Y-70957694D01*
X136249207Y-70972848D01*
X136189675Y-70990085D01*
X136131008Y-71009314D01*
X136073243Y-71030518D01*
X136016342Y-71053638D01*
X135960309Y-71078618D01*
X135905099Y-71105400D01*
X135850747Y-71133915D01*
X135797184Y-71164147D01*
X135744488Y-71196008D01*
X135692546Y-71229507D01*
X135641417Y-71264511D01*
X135591053Y-71301004D01*
X135541446Y-71338952D01*
X135492616Y-71378261D01*
X135448146Y-71414817D01*
X135391820Y-71469161D01*
X135338530Y-71526931D01*
X135288306Y-71587862D01*
X135241208Y-71651679D01*
X135197253Y-71718099D01*
X135156496Y-71786851D01*
X135118954Y-71857665D01*
X135084724Y-71930285D01*
X135053798Y-72004407D01*
X135026218Y-72079769D01*
X135002056Y-72156107D01*
X134981328Y-72233129D01*
X134964092Y-72310566D01*
X134950382Y-72388154D01*
X134940236Y-72465617D01*
X134933708Y-72542663D01*
X134910399Y-72542663D01*
X134904355Y-72493068D01*
X134889911Y-72404456D01*
X134871950Y-72316990D01*
X134850458Y-72230857D01*
X134825446Y-72146136D01*
X134796817Y-72062967D01*
X134764557Y-71981483D01*
X134728704Y-71901825D01*
X134689163Y-71824120D01*
X134645945Y-71748477D01*
X134598997Y-71675046D01*
X134548334Y-71603933D01*
X134493903Y-71535306D01*
X134435641Y-71469232D01*
X134373565Y-71405911D01*
X134307651Y-71345409D01*
X134237852Y-71287917D01*
X134190207Y-71255059D01*
X134141893Y-71223421D01*
X134092883Y-71193072D01*
X134043173Y-71164046D01*
X133992828Y-71136383D01*
X133941795Y-71110148D01*
X133890124Y-71085328D01*
X133837798Y-71062084D01*
X133784816Y-71040358D01*
X133731216Y-71020230D01*
X133676988Y-71001773D01*
X133622130Y-70984979D01*
X133566671Y-70969949D01*
X133510603Y-70956718D01*
X133453938Y-70945306D01*
X133396687Y-70935805D01*
X133396687Y-70889217D01*
X133445597Y-70878725D01*
X133562387Y-70849815D01*
X133619061Y-70833959D01*
X133674702Y-70816994D01*
X133729329Y-70798895D01*
X133782996Y-70779505D01*
X133835802Y-70758742D01*
X133887787Y-70736505D01*
X133939035Y-70712683D01*
X133989565Y-70687188D01*
X134039465Y-70659926D01*
X134088816Y-70630756D01*
X134137630Y-70599644D01*
X134186003Y-70566404D01*
X134233984Y-70530988D01*
X134281643Y-70493313D01*
X134304164Y-70476502D01*
X134327042Y-70459320D01*
X134359150Y-70433324D01*
X134390238Y-70406226D01*
X134449431Y-70348909D01*
X134504638Y-70287698D01*
X134556055Y-70222996D01*
X134603650Y-70155110D01*
X134647594Y-70084425D01*
X134687937Y-70011256D01*
X134724743Y-69935966D01*
X134758121Y-69858949D01*
X134788164Y-69780476D01*
X134814939Y-69700975D01*
X134838504Y-69620755D01*
X134859012Y-69540171D01*
X134876483Y-69459587D01*
X134891026Y-69379344D01*
X134902728Y-69299799D01*
X134910399Y-69235772D01*
X134933708Y-69235772D01*
X134944875Y-69316784D01*
G37*
G36*
X98953525Y-72426245D02*
G01*
X99017745Y-72474766D01*
X99084810Y-72519202D01*
X99154433Y-72559757D01*
X99226359Y-72596649D01*
X99300322Y-72630081D01*
X99376065Y-72660259D01*
X99453255Y-72687390D01*
X99531714Y-72711716D01*
X99611095Y-72733445D01*
X99691170Y-72752720D01*
X99771640Y-72769863D01*
X99852271Y-72784990D01*
X100012870Y-72810208D01*
X100170812Y-72830056D01*
X100457154Y-72863691D01*
X100552131Y-72876774D01*
X100625948Y-72889542D01*
X100657508Y-72896352D01*
X100686861Y-72903687D01*
X100743159Y-72920824D01*
X100803056Y-72942616D01*
X100874822Y-72970704D01*
X100886701Y-72975283D01*
X100898636Y-72979958D01*
X100922784Y-72989579D01*
X100953793Y-73003795D01*
X100983769Y-73018835D01*
X101012622Y-73034660D01*
X101040406Y-73051396D01*
X101067128Y-73069054D01*
X101092765Y-73087687D01*
X101117362Y-73107345D01*
X101140874Y-73128044D01*
X101163329Y-73149861D01*
X101184735Y-73172819D01*
X101205089Y-73196978D01*
X101224404Y-73222395D01*
X101242655Y-73249071D01*
X101259874Y-73277061D01*
X101276066Y-73306454D01*
X101291197Y-73337276D01*
X101325216Y-73408998D01*
X101333492Y-73429887D01*
X101340890Y-73450508D01*
X101347429Y-73470870D01*
X101353221Y-73491100D01*
X101358261Y-73511190D01*
X101362603Y-73531240D01*
X101366295Y-73551270D01*
X101369390Y-73571373D01*
X101371940Y-73591569D01*
X101373986Y-73611906D01*
X101375577Y-73632468D01*
X101376744Y-73653303D01*
X101378066Y-73695982D01*
X101378303Y-73740383D01*
X101378303Y-73793233D01*
X101378066Y-73969076D01*
X101378066Y-74095047D01*
X101377825Y-74437395D01*
X101377590Y-74794870D01*
X101377147Y-75472095D01*
X101376664Y-76387327D01*
X101375498Y-77829083D01*
X98790532Y-77829083D01*
X98790532Y-72286505D01*
X98953525Y-72426245D01*
G37*
G36*
X130442248Y-74946031D02*
G01*
X130449641Y-74946443D01*
X130464836Y-74948119D01*
X130480632Y-74950795D01*
X130497072Y-74954499D01*
X130514238Y-74959128D01*
X130532229Y-74964640D01*
X130532229Y-75011220D01*
X130299361Y-75011220D01*
X130313135Y-74998103D01*
X130326655Y-74986585D01*
X130333370Y-74981401D01*
X130340022Y-74976622D01*
X130346656Y-74972198D01*
X130353272Y-74968135D01*
X130359884Y-74964449D01*
X130366504Y-74961114D01*
X130373123Y-74958141D01*
X130379799Y-74955489D01*
X130386462Y-74953172D01*
X130393199Y-74951183D01*
X130399973Y-74949528D01*
X130406796Y-74948191D01*
X130413712Y-74947161D01*
X130420688Y-74946441D01*
X130427765Y-74946018D01*
X130434955Y-74945875D01*
X130442248Y-74946031D01*
G37*
G36*
X96459714Y-78739570D02*
G01*
X96469096Y-78739842D01*
X96478292Y-78740352D01*
X96487344Y-78741058D01*
X96496269Y-78742018D01*
X96505149Y-78743199D01*
X96513980Y-78744592D01*
X96522824Y-78746221D01*
X96531696Y-78748061D01*
X96540677Y-78750132D01*
X96558994Y-78754919D01*
X96578145Y-78760609D01*
X96554866Y-78807177D01*
X96275406Y-78783896D01*
X96275406Y-78760609D01*
X96324886Y-78753912D01*
X96374379Y-78747549D01*
X96430028Y-78740114D01*
X96440228Y-78739702D01*
X96450100Y-78739504D01*
X96459714Y-78739570D01*
G37*
G36*
X134956979Y-69515223D02*
G01*
X134887122Y-69491925D01*
X134910399Y-69235772D01*
X134933708Y-69235772D01*
X134956979Y-69515223D01*
G37*
G36*
X124851651Y-71345560D02*
G01*
X124931930Y-71347511D01*
X125011747Y-71350993D01*
X125091245Y-71356265D01*
X125170533Y-71363664D01*
X125249789Y-71373475D01*
X125329166Y-71386026D01*
X125408798Y-71401605D01*
X125436829Y-71407502D01*
X125465388Y-71413725D01*
X125588381Y-71443667D01*
X125710190Y-71477493D01*
X125830493Y-71515349D01*
X125949023Y-71557421D01*
X126065426Y-71603903D01*
X126179416Y-71654962D01*
X126290726Y-71710804D01*
X126399013Y-71771568D01*
X126503984Y-71837474D01*
X126605310Y-71908669D01*
X126702734Y-71985342D01*
X126795910Y-72067679D01*
X126884551Y-72155871D01*
X126968374Y-72250073D01*
X127047047Y-72350489D01*
X127120255Y-72457258D01*
X127191259Y-72587066D01*
X127256790Y-72717059D01*
X127287340Y-72782343D01*
X127316345Y-72848016D01*
X127343679Y-72914084D01*
X127369316Y-72980693D01*
X127393201Y-73047937D01*
X127415227Y-73115877D01*
X127435330Y-73184669D01*
X127453464Y-73254353D01*
X127469522Y-73325029D01*
X127483480Y-73396834D01*
X127495225Y-73469831D01*
X127504739Y-73544129D01*
X127508581Y-73573547D01*
X127512633Y-73603505D01*
X127520534Y-73681738D01*
X127526317Y-73759716D01*
X127530084Y-73837452D01*
X127531933Y-73914980D01*
X127532014Y-73992341D01*
X127530452Y-74069520D01*
X127522742Y-74223604D01*
X127509741Y-74377445D01*
X127492385Y-74531282D01*
X127471527Y-74685347D01*
X127448139Y-74839865D01*
X127434403Y-74930575D01*
X127421776Y-75020987D01*
X127410497Y-75111223D01*
X127400767Y-75201488D01*
X127392798Y-75291886D01*
X127386791Y-75382590D01*
X127382964Y-75473754D01*
X127381527Y-75565520D01*
X127381512Y-75596570D01*
X127381311Y-75627945D01*
X127382500Y-75679238D01*
X127384954Y-75730647D01*
X127388718Y-75782053D01*
X127393925Y-75833366D01*
X127400606Y-75884487D01*
X127408886Y-75935353D01*
X127418838Y-75985849D01*
X127430558Y-76035892D01*
X127444114Y-76085377D01*
X127459605Y-76134222D01*
X127477112Y-76182331D01*
X127496702Y-76229609D01*
X127518512Y-76275949D01*
X127542569Y-76321302D01*
X127569010Y-76365524D01*
X127597880Y-76408572D01*
X127648886Y-76482613D01*
X127670270Y-76503769D01*
X127691581Y-76524128D01*
X127712881Y-76543611D01*
X127734300Y-76562197D01*
X127755888Y-76579849D01*
X127777791Y-76596497D01*
X127800084Y-76612073D01*
X127822871Y-76626562D01*
X127846237Y-76639904D01*
X127870330Y-76652029D01*
X127895173Y-76662886D01*
X127920915Y-76672471D01*
X127947678Y-76680664D01*
X127975491Y-76687473D01*
X128004480Y-76692799D01*
X128034784Y-76696636D01*
X128094627Y-76696155D01*
X128154174Y-76694585D01*
X128213648Y-76691920D01*
X128273229Y-76688025D01*
X128279284Y-76666296D01*
X128285341Y-76644234D01*
X128322593Y-76517764D01*
X128363099Y-76394291D01*
X128407124Y-76274016D01*
X128454947Y-76156969D01*
X128506879Y-76043283D01*
X128563153Y-75933045D01*
X128624079Y-75826391D01*
X128689951Y-75723378D01*
X128761011Y-75624101D01*
X128837558Y-75528720D01*
X128919878Y-75437293D01*
X129008230Y-75349916D01*
X129102879Y-75266733D01*
X129204158Y-75187804D01*
X129312307Y-75113253D01*
X129427618Y-75043181D01*
X129535199Y-74985846D01*
X129643816Y-74932515D01*
X129753478Y-74882954D01*
X129864096Y-74836965D01*
X129975709Y-74794345D01*
X130088209Y-74754915D01*
X130201640Y-74718426D01*
X130315943Y-74684719D01*
X130431024Y-74653563D01*
X130546927Y-74624766D01*
X130780988Y-74573425D01*
X131017802Y-74529077D01*
X131257142Y-74490075D01*
X131374300Y-74470249D01*
X131489667Y-74446975D01*
X131603553Y-74420412D01*
X131716302Y-74390692D01*
X131828236Y-74357940D01*
X131939675Y-74322282D01*
X132050932Y-74283849D01*
X132162344Y-74242764D01*
X132098552Y-74244158D01*
X131851954Y-74245126D01*
X131734850Y-74241936D01*
X131621285Y-74235847D01*
X131510761Y-74226503D01*
X131402871Y-74213574D01*
X131297144Y-74196651D01*
X131193072Y-74175440D01*
X131090246Y-74149577D01*
X130988198Y-74118701D01*
X130886420Y-74082486D01*
X130784552Y-74040569D01*
X130682063Y-73992597D01*
X130578498Y-73938222D01*
X130473438Y-73877121D01*
X130366354Y-73808909D01*
X130238432Y-73724370D01*
X130184936Y-73690034D01*
X130136780Y-73660446D01*
X130092766Y-73635149D01*
X130051634Y-73613750D01*
X130012206Y-73595845D01*
X129973200Y-73580952D01*
X129933451Y-73568681D01*
X129891702Y-73558627D01*
X129846733Y-73550349D01*
X129797318Y-73543405D01*
X129742250Y-73537416D01*
X129680291Y-73531945D01*
X129530789Y-73520857D01*
X129497204Y-73531304D01*
X129464612Y-73542846D01*
X129433003Y-73555503D01*
X129402376Y-73569330D01*
X129372729Y-73584380D01*
X129344097Y-73600637D01*
X129316472Y-73618158D01*
X129289878Y-73636977D01*
X129264293Y-73657120D01*
X129239758Y-73678629D01*
X129216257Y-73701508D01*
X129193806Y-73725837D01*
X129172411Y-73751616D01*
X129152085Y-73778882D01*
X129132818Y-73807676D01*
X129114628Y-73838022D01*
X129104137Y-73861811D01*
X129094701Y-73885362D01*
X129086258Y-73908736D01*
X129078851Y-73931991D01*
X129072448Y-73955140D01*
X129067006Y-73978253D01*
X129062562Y-74001409D01*
X129059095Y-74024638D01*
X129056587Y-74048010D01*
X129055035Y-74071554D01*
X129054389Y-74095312D01*
X129054708Y-74119358D01*
X129055936Y-74143750D01*
X129058078Y-74168525D01*
X129061093Y-74193761D01*
X129065017Y-74219481D01*
X129072835Y-74239017D01*
X129080904Y-74258048D01*
X129089310Y-74276651D01*
X129098072Y-74294968D01*
X129107270Y-74313050D01*
X129116933Y-74331047D01*
X129127135Y-74349048D01*
X129137909Y-74367107D01*
X129144602Y-74380026D01*
X129147313Y-74385512D01*
X129149624Y-74390565D01*
X129151595Y-74395337D01*
X129153254Y-74400036D01*
X129154572Y-74404740D01*
X129155651Y-74409681D01*
X129156482Y-74414976D01*
X129157127Y-74420803D01*
X129157567Y-74427300D01*
X129157879Y-74434647D01*
X129158043Y-74443007D01*
X129158143Y-74452506D01*
X129158202Y-74475665D01*
X129146352Y-74488019D01*
X129136860Y-74497767D01*
X129128842Y-74505749D01*
X129125060Y-74509363D01*
X129121280Y-74512843D01*
X129117377Y-74516345D01*
X129113224Y-74519919D01*
X129103755Y-74527851D01*
X129091888Y-74537481D01*
X129076671Y-74549691D01*
X129030790Y-74587191D01*
X129013140Y-74601202D01*
X128995163Y-74615383D01*
X128971937Y-74607105D01*
X128949263Y-74597667D01*
X128927166Y-74587065D01*
X128905610Y-74575406D01*
X128884622Y-74562666D01*
X128864148Y-74548956D01*
X128844177Y-74534322D01*
X128824729Y-74518792D01*
X128805751Y-74502459D01*
X128787249Y-74485348D01*
X128751593Y-74449019D01*
X128717693Y-74410205D01*
X128685432Y-74369392D01*
X128654699Y-74326956D01*
X128625376Y-74283346D01*
X128597388Y-74238964D01*
X128570607Y-74194236D01*
X128520275Y-74105433D01*
X128473523Y-74020369D01*
X128435976Y-73939715D01*
X128402239Y-73856520D01*
X128372366Y-73771056D01*
X128346394Y-73683704D01*
X128324414Y-73594700D01*
X128306391Y-73504457D01*
X128292474Y-73413221D01*
X128282608Y-73321344D01*
X128276922Y-73229140D01*
X128275453Y-73136900D01*
X128278204Y-73045001D01*
X128285269Y-72953690D01*
X128296683Y-72863367D01*
X128312512Y-72774271D01*
X128332765Y-72686768D01*
X128357527Y-72601198D01*
X128398179Y-72502379D01*
X128441235Y-72407015D01*
X128463891Y-72360527D01*
X128487359Y-72314772D01*
X128511752Y-72269748D01*
X128537144Y-72225405D01*
X128563614Y-72181699D01*
X128591234Y-72138579D01*
X128620092Y-72096049D01*
X128650238Y-72054047D01*
X128681786Y-72012542D01*
X128714823Y-71971499D01*
X128749386Y-71930887D01*
X128785579Y-71890658D01*
X128808207Y-71865193D01*
X128831226Y-71839200D01*
X128886064Y-71783684D01*
X128943586Y-71731328D01*
X129003689Y-71682135D01*
X129066158Y-71636138D01*
X129130823Y-71593407D01*
X129197542Y-71553947D01*
X129266085Y-71517780D01*
X129336320Y-71484960D01*
X129408044Y-71455508D01*
X129481105Y-71429461D01*
X129555330Y-71406837D01*
X129630517Y-71387703D01*
X129706525Y-71372026D01*
X129783157Y-71359922D01*
X129860256Y-71351380D01*
X129937646Y-71346413D01*
X130072793Y-71346960D01*
X130202768Y-71353413D01*
X130328042Y-71365708D01*
X130449081Y-71383744D01*
X130566356Y-71407499D01*
X130680327Y-71436833D01*
X130791473Y-71471688D01*
X130900215Y-71512004D01*
X131007083Y-71557678D01*
X131112518Y-71608654D01*
X131216962Y-71664852D01*
X131320917Y-71726179D01*
X131424839Y-71792568D01*
X131529199Y-71863933D01*
X131634447Y-71940208D01*
X131741074Y-72021305D01*
X131807919Y-72071994D01*
X131874089Y-72120027D01*
X131939848Y-72165214D01*
X132005459Y-72207415D01*
X132071204Y-72246437D01*
X132137374Y-72282133D01*
X132204220Y-72314347D01*
X132272014Y-72342863D01*
X132341029Y-72367560D01*
X132411570Y-72388251D01*
X132483898Y-72404755D01*
X132558260Y-72416914D01*
X132634959Y-72424590D01*
X132714232Y-72427557D01*
X132796413Y-72425702D01*
X132881741Y-72418845D01*
X132924610Y-72410691D01*
X132966081Y-72401465D01*
X133006170Y-72391054D01*
X133044939Y-72379353D01*
X133082427Y-72366228D01*
X133118671Y-72351651D01*
X133153709Y-72335442D01*
X133187595Y-72317533D01*
X133220408Y-72297816D01*
X133252133Y-72276180D01*
X133282867Y-72252540D01*
X133312637Y-72226734D01*
X133341476Y-72198722D01*
X133369439Y-72168375D01*
X133396571Y-72135581D01*
X133422941Y-72100261D01*
X133442281Y-72061568D01*
X133459551Y-72022033D01*
X133474869Y-71981645D01*
X133488378Y-71940573D01*
X133500217Y-71898866D01*
X133510544Y-71856640D01*
X133519459Y-71813983D01*
X133527095Y-71770955D01*
X133533620Y-71727693D01*
X133539191Y-71684232D01*
X133547900Y-71597164D01*
X133554367Y-71510484D01*
X133559631Y-71424901D01*
X133862370Y-71424901D01*
X133864650Y-71718558D01*
X133861380Y-71867635D01*
X133854599Y-72017551D01*
X133843821Y-72167859D01*
X133828530Y-72318059D01*
X133808304Y-72467644D01*
X133782686Y-72616155D01*
X133751175Y-72763097D01*
X133713326Y-72907976D01*
X133668657Y-73050331D01*
X133616691Y-73189676D01*
X133556999Y-73325510D01*
X133489072Y-73457346D01*
X133412502Y-73584727D01*
X133326776Y-73707134D01*
X133281110Y-73768157D01*
X133227376Y-73834817D01*
X133171884Y-73898522D01*
X133114727Y-73959319D01*
X133055960Y-74017350D01*
X132995600Y-74072648D01*
X132933752Y-74125320D01*
X132805735Y-74223092D01*
X132672395Y-74311389D01*
X132534141Y-74390872D01*
X132391464Y-74462213D01*
X132244800Y-74526130D01*
X132094605Y-74583274D01*
X131941347Y-74634317D01*
X131785450Y-74680013D01*
X131627425Y-74720943D01*
X131467694Y-74757864D01*
X131306707Y-74791452D01*
X130982804Y-74851295D01*
X130822465Y-74880962D01*
X130663034Y-74913508D01*
X130504246Y-74949142D01*
X130345888Y-74987990D01*
X130390478Y-74990107D01*
X130435777Y-74992414D01*
X130522848Y-74999279D01*
X130608311Y-75008661D01*
X130692248Y-75020580D01*
X130774771Y-75035050D01*
X130855999Y-75052054D01*
X130936048Y-75071593D01*
X131015051Y-75093686D01*
X131093078Y-75118317D01*
X131170271Y-75145492D01*
X131246732Y-75175223D01*
X131322588Y-75207501D01*
X131397916Y-75242311D01*
X131472892Y-75279695D01*
X131547578Y-75319624D01*
X131622112Y-75362122D01*
X131696599Y-75407167D01*
X131836520Y-75498509D01*
X131895000Y-75535666D01*
X131947628Y-75567771D01*
X131995693Y-75595290D01*
X132040529Y-75618732D01*
X132083501Y-75638552D01*
X132125915Y-75655259D01*
X132169090Y-75669283D01*
X132214381Y-75681140D01*
X132263093Y-75691277D01*
X132316574Y-75700203D01*
X132376186Y-75708379D01*
X132443192Y-75716291D01*
X132604822Y-75733205D01*
X132635165Y-75723785D01*
X132664976Y-75713735D01*
X132694363Y-75703026D01*
X132723368Y-75691694D01*
X132752114Y-75679725D01*
X132780679Y-75667111D01*
X132809197Y-75653896D01*
X132837704Y-75640054D01*
X132888010Y-75619321D01*
X132897722Y-75613233D01*
X132906519Y-75607182D01*
X132914415Y-75601173D01*
X132918086Y-75598143D01*
X132921561Y-75595108D01*
X132924867Y-75592031D01*
X132928014Y-75588948D01*
X132931016Y-75585824D01*
X132933851Y-75582651D01*
X132939197Y-75576161D01*
X132944078Y-75569432D01*
X132948586Y-75562381D01*
X132952866Y-75555022D01*
X132956940Y-75547200D01*
X132960920Y-75538958D01*
X132964869Y-75530210D01*
X132968881Y-75520877D01*
X132977431Y-75500338D01*
X133007484Y-75443267D01*
X133033293Y-75389824D01*
X133045159Y-75363584D01*
X133056195Y-75337555D01*
X133066311Y-75311631D01*
X133075459Y-75285768D01*
X133083506Y-75259844D01*
X133090424Y-75233818D01*
X133096090Y-75207578D01*
X133100403Y-75181058D01*
X133103344Y-75154153D01*
X133104776Y-75126828D01*
X133104642Y-75098948D01*
X133102815Y-75070428D01*
X133099271Y-75041255D01*
X133093871Y-75011267D01*
X133081323Y-74983273D01*
X133068208Y-74956247D01*
X133054590Y-74929958D01*
X133040365Y-74904209D01*
X133025576Y-74878718D01*
X133010176Y-74853295D01*
X132994127Y-74827688D01*
X132977431Y-74801673D01*
X133163745Y-74615383D01*
X133193712Y-74631243D01*
X133222976Y-74648542D01*
X133251556Y-74667191D01*
X133279417Y-74687122D01*
X133306588Y-74708264D01*
X133333076Y-74730603D01*
X133358913Y-74754055D01*
X133384052Y-74778515D01*
X133432360Y-74830391D01*
X133478072Y-74885694D01*
X133521205Y-74943957D01*
X133561829Y-75004705D01*
X133599970Y-75067405D01*
X133635691Y-75131619D01*
X133669049Y-75196833D01*
X133700077Y-75262556D01*
X133728813Y-75328318D01*
X133755322Y-75393599D01*
X133779646Y-75457921D01*
X133801826Y-75520817D01*
X133826986Y-75613065D01*
X133846764Y-75706137D01*
X133861360Y-75799858D01*
X133870883Y-75894019D01*
X133875483Y-75988446D01*
X133875289Y-76082989D01*
X133870427Y-76177430D01*
X133861043Y-76271585D01*
X133847275Y-76365321D01*
X133829282Y-76458414D01*
X133807153Y-76550704D01*
X133781093Y-76641989D01*
X133751148Y-76732094D01*
X133717536Y-76820834D01*
X133680354Y-76908066D01*
X133639751Y-76993558D01*
X133622300Y-77024535D01*
X133604411Y-77054867D01*
X133586069Y-77084574D01*
X133567299Y-77113710D01*
X133548061Y-77142321D01*
X133528347Y-77170428D01*
X133508179Y-77198101D01*
X133487491Y-77225367D01*
X133444664Y-77278762D01*
X133399756Y-77331038D01*
X133352712Y-77382424D01*
X133303478Y-77433253D01*
X133256661Y-77482380D01*
X133195076Y-77538985D01*
X133130836Y-77590947D01*
X133064109Y-77638394D01*
X132995157Y-77681458D01*
X132924105Y-77720276D01*
X132851140Y-77755007D01*
X132776457Y-77785822D01*
X132700248Y-77812843D01*
X132622675Y-77836176D01*
X132543971Y-77856015D01*
X132464261Y-77872466D01*
X132383767Y-77885721D01*
X132302675Y-77895865D01*
X132221139Y-77903074D01*
X132139385Y-77907483D01*
X132057547Y-77909244D01*
X131938347Y-77905045D01*
X131822985Y-77895321D01*
X131711095Y-77880203D01*
X131602374Y-77859914D01*
X131496478Y-77834648D01*
X131393114Y-77804607D01*
X131291894Y-77769949D01*
X131192507Y-77730849D01*
X131094644Y-77687565D01*
X130998009Y-77640224D01*
X130902215Y-77589042D01*
X130806946Y-77534212D01*
X130711878Y-77475910D01*
X130616679Y-77414316D01*
X130424591Y-77282106D01*
X130281776Y-77182435D01*
X130211078Y-77135232D01*
X130140456Y-77090174D01*
X130069708Y-77047548D01*
X129998517Y-77007675D01*
X129926640Y-76970898D01*
X129853811Y-76937463D01*
X129779743Y-76907706D01*
X129704205Y-76881916D01*
X129626891Y-76860409D01*
X129547585Y-76843497D01*
X129465962Y-76831466D01*
X129381806Y-76824633D01*
X129294829Y-76823277D01*
X129204751Y-76827761D01*
X129162679Y-76836032D01*
X129121415Y-76845405D01*
X129081021Y-76855971D01*
X129041530Y-76867801D01*
X129002943Y-76881041D01*
X128965354Y-76895722D01*
X128928758Y-76911986D01*
X128893197Y-76929928D01*
X128858708Y-76949620D01*
X128825327Y-76971180D01*
X128793077Y-76994691D01*
X128762024Y-77020240D01*
X128732180Y-77047972D01*
X128703596Y-77077914D01*
X128676269Y-77110220D01*
X128650278Y-77144933D01*
X128629318Y-77184569D01*
X128610688Y-77224872D01*
X128594226Y-77265763D01*
X128579716Y-77307216D01*
X128567087Y-77349165D01*
X128556143Y-77391559D01*
X128546747Y-77434373D01*
X128538716Y-77477517D01*
X128531913Y-77520956D01*
X128526223Y-77564653D01*
X128517443Y-77652582D01*
X128511140Y-77740875D01*
X128506113Y-77829141D01*
X128203377Y-77829141D01*
X128203377Y-77293513D01*
X128002611Y-77412745D01*
X127889439Y-77476337D01*
X127772895Y-77537188D01*
X127653270Y-77594784D01*
X127530943Y-77648678D01*
X127406212Y-77698381D01*
X127279389Y-77743391D01*
X127150808Y-77783262D01*
X127020794Y-77817428D01*
X126889658Y-77845491D01*
X126757760Y-77866907D01*
X126625373Y-77881217D01*
X126492831Y-77887930D01*
X126360469Y-77886572D01*
X126228635Y-77876626D01*
X126097606Y-77857649D01*
X125967718Y-77829141D01*
X125896885Y-77805793D01*
X125827407Y-77779962D01*
X125759349Y-77751618D01*
X125692761Y-77720796D01*
X125627765Y-77687457D01*
X125564391Y-77651603D01*
X125502724Y-77613227D01*
X125442826Y-77572337D01*
X125384777Y-77528895D01*
X125328667Y-77482951D01*
X125274516Y-77434451D01*
X125222441Y-77383415D01*
X125172502Y-77329854D01*
X125124785Y-77273713D01*
X125079308Y-77215021D01*
X125036192Y-77153778D01*
X125016384Y-77208276D01*
X124998948Y-77252150D01*
X124980685Y-77294650D01*
X124961552Y-77335775D01*
X124941378Y-77375527D01*
X124920030Y-77413839D01*
X124897366Y-77450706D01*
X124873284Y-77486141D01*
X124847630Y-77520076D01*
X124820299Y-77552516D01*
X124791133Y-77583445D01*
X124759999Y-77612839D01*
X124726791Y-77640657D01*
X124691342Y-77666913D01*
X124653560Y-77691555D01*
X124613303Y-77714593D01*
X124570420Y-77735971D01*
X124505467Y-77759641D01*
X124440375Y-77780657D01*
X124375119Y-77799176D01*
X124309678Y-77815341D01*
X124244070Y-77829344D01*
X124178272Y-77841288D01*
X124112239Y-77851346D01*
X124045996Y-77859675D01*
X123979515Y-77866403D01*
X123912797Y-77871697D01*
X123778524Y-77878532D01*
X123643075Y-77881413D01*
X123506391Y-77881540D01*
X123476990Y-77881327D01*
X123447236Y-77881298D01*
X123237967Y-77879297D01*
X123133645Y-77876740D01*
X123029513Y-77872517D01*
X122925523Y-77866104D01*
X122821671Y-77857078D01*
X122717911Y-77844912D01*
X122614224Y-77829141D01*
X122557856Y-77819594D01*
X122367295Y-77783941D01*
X122179835Y-77742264D01*
X122087418Y-77718630D01*
X121995980Y-77692841D01*
X121905502Y-77664697D01*
X121816132Y-77633983D01*
X121727899Y-77600492D01*
X121640852Y-77563970D01*
X121555063Y-77524277D01*
X121470613Y-77481161D01*
X121387500Y-77434401D01*
X121305836Y-77383795D01*
X121225690Y-77329148D01*
X121147076Y-77270219D01*
X121122432Y-77251220D01*
X121097471Y-77232034D01*
X121041628Y-77183680D01*
X120989260Y-77132596D01*
X120940301Y-77078926D01*
X120894708Y-77022866D01*
X120852412Y-76964573D01*
X120813371Y-76904195D01*
X120777491Y-76841921D01*
X120744722Y-76777886D01*
X120715049Y-76712257D01*
X120688370Y-76645215D01*
X120664639Y-76576921D01*
X120643788Y-76507523D01*
X120625785Y-76437193D01*
X120610548Y-76366102D01*
X120598009Y-76294409D01*
X120588153Y-76222242D01*
X120583793Y-76137564D01*
X120581637Y-76053399D01*
X120581939Y-75969791D01*
X120584937Y-75886866D01*
X120590887Y-75804713D01*
X120600032Y-75723432D01*
X120612646Y-75643107D01*
X120628966Y-75563843D01*
X120649240Y-75485724D01*
X120673713Y-75408857D01*
X120702662Y-75333328D01*
X120736299Y-75259233D01*
X120774917Y-75186681D01*
X120818755Y-75115749D01*
X120868027Y-75046525D01*
X120923045Y-74979136D01*
X120949691Y-74951968D01*
X120976495Y-74924997D01*
X121003473Y-74898166D01*
X121030625Y-74871550D01*
X121080004Y-74822408D01*
X121152193Y-74757851D01*
X121226999Y-74697939D01*
X121304250Y-74642420D01*
X121383775Y-74591098D01*
X121465382Y-74543698D01*
X121548954Y-74500016D01*
X121634280Y-74459805D01*
X121721179Y-74422836D01*
X121809507Y-74388898D01*
X121899066Y-74357748D01*
X121989671Y-74329145D01*
X122081212Y-74302875D01*
X122173459Y-74278713D01*
X122266236Y-74256392D01*
X122452832Y-74216454D01*
X122479800Y-74210954D01*
X122493385Y-74208159D01*
X122507085Y-74205279D01*
X122593252Y-74189966D01*
X122679563Y-74176594D01*
X122852503Y-74155177D01*
X123025833Y-74139999D01*
X123199528Y-74130015D01*
X123373534Y-74124244D01*
X123547747Y-74121596D01*
X123896706Y-74121683D01*
X124096042Y-74121907D01*
X124290494Y-74122137D01*
X124426035Y-74122357D01*
X124544282Y-74124244D01*
X124603075Y-74126180D01*
X124661780Y-74128912D01*
X124720390Y-74132531D01*
X124779017Y-74137132D01*
X124837674Y-74142802D01*
X124896457Y-74149600D01*
X124895760Y-74098382D01*
X124895045Y-74030132D01*
X124894671Y-73996867D01*
X124894124Y-73963075D01*
X124895652Y-73921844D01*
X124896460Y-73907134D01*
X124897536Y-73894287D01*
X124899004Y-73881770D01*
X124901046Y-73868010D01*
X124907411Y-73830555D01*
X124912235Y-73798360D01*
X124916468Y-73766214D01*
X124920167Y-73734098D01*
X124923385Y-73701971D01*
X124926177Y-73669798D01*
X124928598Y-73637609D01*
X124932559Y-73572996D01*
X124934153Y-73547093D01*
X124935580Y-73520857D01*
X124941369Y-73389369D01*
X124945010Y-73257994D01*
X124946915Y-73126578D01*
X124947455Y-72994992D01*
X124947749Y-72916369D01*
X124948380Y-72837570D01*
X124947430Y-72708599D01*
X124942294Y-72577919D01*
X124937540Y-72512439D01*
X124930988Y-72447077D01*
X124922379Y-72382077D01*
X124911462Y-72317586D01*
X124897946Y-72253839D01*
X124881629Y-72191012D01*
X124862235Y-72129296D01*
X124839504Y-72068883D01*
X124813186Y-72009938D01*
X124783013Y-71952716D01*
X124748751Y-71897358D01*
X124710148Y-71844081D01*
X124684039Y-71820567D01*
X124657927Y-71799574D01*
X124631707Y-71780998D01*
X124605307Y-71764697D01*
X124578671Y-71750504D01*
X124551713Y-71738295D01*
X124524353Y-71727927D01*
X124496541Y-71719268D01*
X124468184Y-71712149D01*
X124439204Y-71706476D01*
X124409570Y-71702070D01*
X124379119Y-71698815D01*
X124347863Y-71696561D01*
X124315700Y-71695156D01*
X124282548Y-71694470D01*
X124248334Y-71694347D01*
X124221403Y-71695433D01*
X124195113Y-71697137D01*
X124169451Y-71699524D01*
X124144362Y-71702683D01*
X124119775Y-71706633D01*
X124095695Y-71711476D01*
X124072042Y-71717218D01*
X124048797Y-71723942D01*
X124025911Y-71731736D01*
X124003316Y-71740649D01*
X123980989Y-71750729D01*
X123958862Y-71762033D01*
X123936949Y-71774648D01*
X123915160Y-71788589D01*
X123893454Y-71803961D01*
X123871775Y-71820803D01*
X123836554Y-71861063D01*
X123804260Y-71903341D01*
X123774723Y-71947439D01*
X123747719Y-71993147D01*
X123723054Y-72040341D01*
X123700527Y-72088751D01*
X123679948Y-72138277D01*
X123661119Y-72188694D01*
X123643794Y-72239837D01*
X123627828Y-72291478D01*
X123599095Y-72395674D01*
X123548760Y-72602343D01*
X123516084Y-72735836D01*
X123481623Y-72868849D01*
X123443814Y-73000648D01*
X123423160Y-73065844D01*
X123401098Y-73130444D01*
X123377402Y-73194345D01*
X123351911Y-73257446D01*
X123324387Y-73319659D01*
X123294681Y-73380893D01*
X123262549Y-73441025D01*
X123227857Y-73500000D01*
X123190336Y-73557690D01*
X123149866Y-73613995D01*
X123097443Y-73689676D01*
X123051261Y-73733383D01*
X123003931Y-73773374D01*
X122955533Y-73809783D01*
X122905984Y-73842700D01*
X122855354Y-73872283D01*
X122803627Y-73898663D01*
X122750795Y-73921995D01*
X122696905Y-73942372D01*
X122641898Y-73959963D01*
X122585848Y-73974877D01*
X122528705Y-73987247D01*
X122470499Y-73997217D01*
X122411255Y-74004917D01*
X122350914Y-74010467D01*
X122289565Y-74014040D01*
X122227169Y-74015715D01*
X122163557Y-74014442D01*
X122100878Y-74010908D01*
X122039087Y-74005017D01*
X121978262Y-73996679D01*
X121918375Y-73985869D01*
X121859481Y-73972490D01*
X121801581Y-73956470D01*
X121744701Y-73937787D01*
X121688850Y-73916322D01*
X121634059Y-73892015D01*
X121580305Y-73864807D01*
X121527657Y-73834640D01*
X121476108Y-73801438D01*
X121425669Y-73765119D01*
X121376388Y-73725623D01*
X121328237Y-73682917D01*
X121297678Y-73647701D01*
X121268756Y-73611676D01*
X121215724Y-73537351D01*
X121168789Y-73460178D01*
X121127614Y-73380466D01*
X121091836Y-73298431D01*
X121061110Y-73214411D01*
X121035070Y-73128612D01*
X121013401Y-73041339D01*
X120995710Y-72952819D01*
X120981651Y-72863367D01*
X120970913Y-72773202D01*
X120963101Y-72682640D01*
X120957879Y-72591906D01*
X120954885Y-72501277D01*
X120954226Y-72321501D01*
X120954999Y-72231717D01*
X120955420Y-72141955D01*
X120957972Y-71962346D01*
X120963783Y-71783165D01*
X120972562Y-71604106D01*
X120984056Y-71424901D01*
X121310086Y-71424901D01*
X121313203Y-71461325D01*
X121316140Y-71498257D01*
X121323015Y-71564710D01*
X121331123Y-71628645D01*
X121335874Y-71659801D01*
X121341224Y-71690547D01*
X121347263Y-71720924D01*
X121354087Y-71750993D01*
X121361831Y-71780818D01*
X121370559Y-71810454D01*
X121380385Y-71839974D01*
X121391396Y-71869414D01*
X121403697Y-71898906D01*
X121417411Y-71928445D01*
X121432582Y-71958128D01*
X121449351Y-71988007D01*
X121457187Y-72002079D01*
X121460361Y-72007960D01*
X121463076Y-72013251D01*
X121465375Y-72018042D01*
X121467308Y-72022512D01*
X121468870Y-72026754D01*
X121470128Y-72030923D01*
X121471114Y-72035134D01*
X121471849Y-72039534D01*
X121472370Y-72044223D01*
X121472721Y-72049381D01*
X121472952Y-72055088D01*
X121473051Y-72061516D01*
X121473101Y-72076976D01*
X121516768Y-72098989D01*
X121538024Y-72109101D01*
X121559029Y-72118616D01*
X121579819Y-72127495D01*
X121600585Y-72135713D01*
X121621342Y-72143281D01*
X121642212Y-72150110D01*
X121663265Y-72156262D01*
X121684627Y-72161637D01*
X121706360Y-72166279D01*
X121728582Y-72170134D01*
X121751370Y-72173186D01*
X121774816Y-72175428D01*
X121799010Y-72176823D01*
X121824055Y-72177325D01*
X121896013Y-72178516D01*
X121941009Y-72173501D01*
X121985368Y-72167101D01*
X122029156Y-72159321D01*
X122072396Y-72150317D01*
X122115182Y-72140097D01*
X122157542Y-72128755D01*
X122199526Y-72116365D01*
X122241198Y-72102998D01*
X122323786Y-72073576D01*
X122405713Y-72041097D01*
X122487413Y-72006095D01*
X122569267Y-71969138D01*
X122652188Y-71931643D01*
X122758530Y-71883113D01*
X122864476Y-71833869D01*
X122970115Y-71783984D01*
X123075556Y-71733467D01*
X123155970Y-71695186D01*
X123236499Y-71658279D01*
X123317297Y-71622858D01*
X123398548Y-71589027D01*
X123480489Y-71556872D01*
X123563260Y-71526501D01*
X123647031Y-71497983D01*
X123732054Y-71471481D01*
X123759720Y-71462859D01*
X123787702Y-71454241D01*
X123845352Y-71437912D01*
X123902844Y-71423252D01*
X123960219Y-71410119D01*
X124017563Y-71398469D01*
X124074838Y-71388207D01*
X124132151Y-71379262D01*
X124246955Y-71365021D01*
X124362284Y-71355087D01*
X124478456Y-71348811D01*
X124595770Y-71345603D01*
X124714564Y-71344788D01*
X124770708Y-71344788D01*
X124851651Y-71345560D01*
G37*
G36*
X97984967Y-77191692D02*
G01*
X97994409Y-77259098D01*
X98005434Y-77324758D01*
X98018134Y-77388790D01*
X98032577Y-77451344D01*
X98048866Y-77512507D01*
X98067071Y-77572426D01*
X98087274Y-77631267D01*
X98109513Y-77689070D01*
X98133910Y-77746071D01*
X98160541Y-77802336D01*
X98189479Y-77857975D01*
X98220773Y-77913184D01*
X98254543Y-77968019D01*
X98290841Y-78022661D01*
X98329741Y-78077226D01*
X98371320Y-78131829D01*
X98388627Y-78155382D01*
X98406269Y-78179326D01*
X98453432Y-78235287D01*
X98504142Y-78289046D01*
X98558166Y-78340445D01*
X98615218Y-78389418D01*
X98675000Y-78435812D01*
X98737252Y-78479565D01*
X98801713Y-78520530D01*
X98868089Y-78558588D01*
X98936124Y-78593629D01*
X99005553Y-78625539D01*
X99076061Y-78654218D01*
X99147411Y-78679545D01*
X99219314Y-78701370D01*
X99291489Y-78719660D01*
X99363677Y-78734240D01*
X99435600Y-78744993D01*
X99478049Y-78749380D01*
X99520526Y-78753418D01*
X99563036Y-78757147D01*
X99605611Y-78760609D01*
X99605611Y-78783896D01*
X99528763Y-78795065D01*
X99440640Y-78810331D01*
X99353515Y-78828744D01*
X99267519Y-78850391D01*
X99182851Y-78875319D01*
X99099578Y-78903672D01*
X99017949Y-78935481D01*
X98938053Y-78970817D01*
X98860055Y-79009787D01*
X98784156Y-79052433D01*
X98710457Y-79098915D01*
X98639141Y-79149209D01*
X98570350Y-79203458D01*
X98504248Y-79261705D01*
X98441007Y-79324052D01*
X98380711Y-79390573D01*
X98323603Y-79461346D01*
X98286698Y-79517963D01*
X98252131Y-79574397D01*
X98219799Y-79630711D01*
X98189689Y-79687091D01*
X98161678Y-79743669D01*
X98135740Y-79800529D01*
X98111789Y-79857830D01*
X98089794Y-79915694D01*
X98069636Y-79974238D01*
X98051299Y-80033605D01*
X98034705Y-80093929D01*
X98019755Y-80155304D01*
X98006434Y-80217864D01*
X97994654Y-80281770D01*
X97984330Y-80347123D01*
X97975447Y-80414054D01*
X97966362Y-80400036D01*
X97958340Y-80386757D01*
X97951225Y-80374110D01*
X97945000Y-80361970D01*
X97939571Y-80350189D01*
X97934859Y-80338633D01*
X97930790Y-80327200D01*
X97927264Y-80315736D01*
X97924211Y-80304092D01*
X97921598Y-80292175D01*
X97919316Y-80279848D01*
X97917246Y-80266961D01*
X97913591Y-80239001D01*
X97909999Y-80207263D01*
X97895418Y-80123413D01*
X97876361Y-80041427D01*
X97852928Y-79961300D01*
X97825311Y-79883077D01*
X97793644Y-79806825D01*
X97758096Y-79732540D01*
X97718794Y-79660253D01*
X97675924Y-79590015D01*
X97629634Y-79521839D01*
X97580027Y-79455792D01*
X97527336Y-79391871D01*
X97471648Y-79330121D01*
X97413163Y-79270575D01*
X97351995Y-79213266D01*
X97288322Y-79158227D01*
X97222293Y-79105493D01*
X97181511Y-79078717D01*
X97140168Y-79053408D01*
X97098292Y-79029429D01*
X97055878Y-79006603D01*
X97012924Y-78984798D01*
X96969444Y-78963813D01*
X96925426Y-78943452D01*
X96880894Y-78923607D01*
X96849958Y-78909938D01*
X96818485Y-78895913D01*
X96785249Y-78883079D01*
X96752017Y-78871356D01*
X96718741Y-78860674D01*
X96685421Y-78850954D01*
X96652020Y-78842133D01*
X96618576Y-78834127D01*
X96551317Y-78820332D01*
X96483498Y-78808958D01*
X96415019Y-78799493D01*
X96345727Y-78791341D01*
X96275406Y-78783896D01*
X96275406Y-78760609D01*
X96360648Y-78750116D01*
X96448346Y-78737049D01*
X96534605Y-78721062D01*
X96619407Y-78702035D01*
X96702651Y-78679914D01*
X96784281Y-78654542D01*
X96864234Y-78625838D01*
X96942410Y-78593696D01*
X97018787Y-78558003D01*
X97093288Y-78518658D01*
X97165828Y-78475533D01*
X97236334Y-78428531D01*
X97304765Y-78377568D01*
X97371033Y-78322520D01*
X97435073Y-78263300D01*
X97496842Y-78199765D01*
X97556263Y-78131829D01*
X97598477Y-78072945D01*
X97637748Y-78013599D01*
X97674217Y-77953779D01*
X97707985Y-77893421D01*
X97739187Y-77832451D01*
X97767982Y-77770836D01*
X97794488Y-77708494D01*
X97818818Y-77645431D01*
X97841158Y-77581528D01*
X97861604Y-77516771D01*
X97880305Y-77451104D01*
X97897359Y-77384461D01*
X97912959Y-77316814D01*
X97927194Y-77248076D01*
X97952161Y-77107163D01*
X97975447Y-77107163D01*
X97984967Y-77191692D01*
G37*
G36*
X115814130Y-71424852D02*
G01*
X117258009Y-71424852D01*
X117351167Y-71704297D01*
X115814130Y-71704297D01*
X115815785Y-72128382D01*
X115816459Y-72395490D01*
X115817647Y-72818647D01*
X115818558Y-73160286D01*
X115818715Y-73225250D01*
X115819028Y-73290224D01*
X115819849Y-73482807D01*
X115818797Y-73630459D01*
X115817132Y-73690483D01*
X115814381Y-73742906D01*
X115810424Y-73788914D01*
X115805026Y-73829747D01*
X115798031Y-73866608D01*
X115789204Y-73900696D01*
X115778389Y-73933207D01*
X115765364Y-73965362D01*
X115749947Y-73998375D01*
X115731959Y-74033465D01*
X115687450Y-74114617D01*
X115662996Y-74159336D01*
X115635636Y-74204334D01*
X115606655Y-74247749D01*
X115576163Y-74289611D01*
X115544203Y-74329959D01*
X115510828Y-74368874D01*
X115476125Y-74406393D01*
X115440157Y-74442588D01*
X115402978Y-74477515D01*
X115325289Y-74543698D01*
X115243557Y-74605432D01*
X115158378Y-74663122D01*
X115070203Y-74717206D01*
X114979602Y-74768114D01*
X114887090Y-74816283D01*
X114793221Y-74862107D01*
X114698477Y-74906064D01*
X114321610Y-75071766D01*
X114190862Y-75129696D01*
X114136811Y-75154298D01*
X114088956Y-75176902D01*
X114046228Y-75198229D01*
X114007655Y-75218959D01*
X113972194Y-75239801D01*
X113938842Y-75261459D01*
X113906558Y-75284577D01*
X113874326Y-75309901D01*
X113841154Y-75338114D01*
X113805969Y-75369918D01*
X113767789Y-75405999D01*
X113725622Y-75447039D01*
X113625061Y-75546835D01*
X113616039Y-75576159D01*
X113608191Y-75606458D01*
X113601558Y-75637600D01*
X113596155Y-75669420D01*
X113592056Y-75701792D01*
X113589289Y-75734529D01*
X113587827Y-75767522D01*
X113587777Y-75800582D01*
X113589126Y-75833623D01*
X113591940Y-75866400D01*
X113596235Y-75898845D01*
X113602048Y-75930760D01*
X113609399Y-75962010D01*
X113618335Y-75992473D01*
X113628905Y-76021955D01*
X113641129Y-76050318D01*
X113655843Y-76073239D01*
X113671427Y-76095123D01*
X113687923Y-76116026D01*
X113705274Y-76135890D01*
X113723495Y-76154717D01*
X113742536Y-76172521D01*
X113762392Y-76189279D01*
X113783040Y-76204995D01*
X113804474Y-76219650D01*
X113826632Y-76233244D01*
X113849548Y-76245765D01*
X113873156Y-76257196D01*
X113897475Y-76267582D01*
X113922446Y-76276834D01*
X113948101Y-76285009D01*
X113974389Y-76292062D01*
X114026041Y-76297991D01*
X114076171Y-76301172D01*
X114124909Y-76301616D01*
X114172404Y-76299409D01*
X114218733Y-76294583D01*
X114264035Y-76287203D01*
X114308470Y-76277299D01*
X114352082Y-76264927D01*
X114395072Y-76250152D01*
X114437514Y-76233024D01*
X114479523Y-76213560D01*
X114521269Y-76191852D01*
X114562814Y-76167942D01*
X114604333Y-76141855D01*
X114645920Y-76113667D01*
X114687692Y-76083403D01*
X114724182Y-76051267D01*
X114759633Y-76018319D01*
X114794166Y-75984592D01*
X114827888Y-75950136D01*
X114860919Y-75915008D01*
X114893344Y-75879241D01*
X114925318Y-75842898D01*
X114956920Y-75806042D01*
X114993145Y-75764040D01*
X115029782Y-75722490D01*
X115103859Y-75640002D01*
X115151588Y-75586844D01*
X115199015Y-75533516D01*
X115246148Y-75479917D01*
X115292959Y-75425974D01*
X115371659Y-75337254D01*
X115408941Y-75295343D01*
X115430148Y-75273297D01*
X115451725Y-75252042D01*
X115473658Y-75231551D01*
X115495948Y-75211756D01*
X115518593Y-75192572D01*
X115541590Y-75174019D01*
X115564936Y-75156021D01*
X115588626Y-75138508D01*
X115612663Y-75121475D01*
X115637079Y-75104855D01*
X115686923Y-75072676D01*
X115738194Y-75041584D01*
X115790847Y-75011220D01*
X115850707Y-74975125D01*
X115903868Y-74950178D01*
X115958989Y-74929088D01*
X116015830Y-74911666D01*
X116074161Y-74897720D01*
X116133688Y-74887079D01*
X116194195Y-74879517D01*
X116255438Y-74874870D01*
X116317133Y-74872948D01*
X116379076Y-74873540D01*
X116440990Y-74876465D01*
X116502629Y-74881560D01*
X116563752Y-74888602D01*
X116624091Y-74897389D01*
X116683442Y-74907782D01*
X116741523Y-74919538D01*
X116798061Y-74932507D01*
X116850217Y-74950105D01*
X116900326Y-74968922D01*
X116948526Y-74988975D01*
X116994980Y-75010314D01*
X117039787Y-75033006D01*
X117083145Y-75057069D01*
X117125172Y-75082544D01*
X117166015Y-75109530D01*
X117205826Y-75137999D01*
X117244744Y-75168043D01*
X117282915Y-75199713D01*
X117320484Y-75233046D01*
X117357584Y-75268068D01*
X117394371Y-75304836D01*
X117430997Y-75343410D01*
X117467606Y-75383839D01*
X117490897Y-75430385D01*
X117514180Y-72286505D01*
X117677197Y-72426245D01*
X117746154Y-72470067D01*
X117815851Y-72511664D01*
X117886471Y-72550865D01*
X117958154Y-72587540D01*
X117994476Y-72604877D01*
X118031139Y-72621498D01*
X118068150Y-72637440D01*
X118105554Y-72652621D01*
X118143359Y-72667067D01*
X118181591Y-72680736D01*
X118220262Y-72693617D01*
X118259396Y-72705692D01*
X118332763Y-72728522D01*
X118408484Y-72748561D01*
X118484297Y-72766127D01*
X118560227Y-72781527D01*
X118636444Y-72795092D01*
X118712928Y-72807101D01*
X118789800Y-72817885D01*
X118944988Y-72837047D01*
X119189952Y-72865890D01*
X119376823Y-72890614D01*
X119451990Y-72902632D01*
X119516911Y-72915093D01*
X119572959Y-72928488D01*
X119621590Y-72943289D01*
X119664171Y-72960002D01*
X119702164Y-72979088D01*
X119736963Y-73001097D01*
X119770005Y-73026451D01*
X119802702Y-73055690D01*
X119836469Y-73089263D01*
X119912855Y-73171454D01*
X119936816Y-73205098D01*
X119959152Y-73238655D01*
X119979824Y-73272280D01*
X119998917Y-73305964D01*
X120016352Y-73339854D01*
X120032202Y-73373991D01*
X120046435Y-73408496D01*
X120059095Y-73443421D01*
X120070193Y-73478886D01*
X120079727Y-73514954D01*
X120087721Y-73551688D01*
X120094145Y-73589244D01*
X120099068Y-73627616D01*
X120102475Y-73666955D01*
X120104358Y-73707292D01*
X120104734Y-73748768D01*
X120104792Y-73775137D01*
X120104975Y-73801853D01*
X120104519Y-73976996D01*
X120104519Y-74103202D01*
X120103819Y-74444386D01*
X120103591Y-74801382D01*
X120102407Y-75477203D01*
X120101492Y-76390566D01*
X120099156Y-77829083D01*
X117514180Y-77829083D01*
X117490897Y-77363321D01*
X117471688Y-77297714D01*
X117463326Y-77270696D01*
X117455400Y-77246878D01*
X117447567Y-77225784D01*
X117439560Y-77206941D01*
X117431052Y-77189874D01*
X117421728Y-77174105D01*
X117411297Y-77159128D01*
X117399437Y-77144529D01*
X117385853Y-77129783D01*
X117370247Y-77114423D01*
X117352294Y-77097980D01*
X117331681Y-77079935D01*
X117281288Y-77037286D01*
X117253510Y-77026782D01*
X117225278Y-77017297D01*
X117196647Y-77008849D01*
X117167688Y-77001462D01*
X117138455Y-76995159D01*
X117108989Y-76989971D01*
X117079318Y-76985924D01*
X117049527Y-76983024D01*
X117019622Y-76981302D01*
X116989735Y-76980783D01*
X116959849Y-76981494D01*
X116930043Y-76983456D01*
X116900332Y-76986670D01*
X116870824Y-76991200D01*
X116841540Y-76997036D01*
X116812512Y-77004214D01*
X116772832Y-77023241D01*
X116734358Y-77044495D01*
X116697032Y-77067796D01*
X116660781Y-77092937D01*
X116625544Y-77119724D01*
X116591232Y-77148008D01*
X116557786Y-77177555D01*
X116525153Y-77208190D01*
X116493255Y-77239749D01*
X116462021Y-77271977D01*
X116401272Y-77337898D01*
X116284796Y-77469953D01*
X116244483Y-77512901D01*
X116203262Y-77554317D01*
X116161103Y-77594117D01*
X116117973Y-77632172D01*
X116073775Y-77668370D01*
X116028484Y-77702543D01*
X115982031Y-77734578D01*
X115934369Y-77764367D01*
X115885443Y-77791763D01*
X115835159Y-77816647D01*
X115783523Y-77838889D01*
X115730430Y-77858332D01*
X115675829Y-77874910D01*
X115619690Y-77888445D01*
X115561956Y-77898833D01*
X115502551Y-77905919D01*
X115436731Y-77907920D01*
X115370944Y-77909034D01*
X115305104Y-77909435D01*
X115239158Y-77909199D01*
X115227581Y-77909050D01*
X115215908Y-77908971D01*
X115192110Y-77908956D01*
X115105835Y-77906730D01*
X115020344Y-77901416D01*
X114935753Y-77892907D01*
X114852127Y-77881154D01*
X114769522Y-77866049D01*
X114688037Y-77847538D01*
X114607765Y-77825506D01*
X114528733Y-77799907D01*
X114451049Y-77770628D01*
X114374770Y-77737637D01*
X114299988Y-77700809D01*
X114226783Y-77660062D01*
X114155203Y-77615340D01*
X114085356Y-77566572D01*
X114017284Y-77513644D01*
X113951105Y-77456472D01*
X113898456Y-77410353D01*
X113869636Y-77383029D01*
X113840490Y-77354267D01*
X113811236Y-77324172D01*
X113782127Y-77292823D01*
X113753376Y-77260326D01*
X113725264Y-77226730D01*
X113698015Y-77192168D01*
X113671864Y-77156700D01*
X113647078Y-77120409D01*
X113623903Y-77083383D01*
X113602555Y-77045745D01*
X113583272Y-77007541D01*
X113566352Y-76968888D01*
X113551982Y-76929828D01*
X113545835Y-76910184D01*
X113540419Y-76890507D01*
X113535755Y-76870767D01*
X113531912Y-76850975D01*
X113486495Y-76888699D01*
X113399928Y-76959669D01*
X113313008Y-77030300D01*
X113260621Y-77073211D01*
X113208429Y-77116468D01*
X113091440Y-77207066D01*
X112970666Y-77293129D01*
X112846376Y-77374416D01*
X112718811Y-77450644D01*
X112588202Y-77521544D01*
X112454781Y-77586859D01*
X112318749Y-77646330D01*
X112180392Y-77699721D01*
X112039906Y-77746732D01*
X111897526Y-77787101D01*
X111753515Y-77820614D01*
X111608060Y-77846977D01*
X111461433Y-77865906D01*
X111313870Y-77877172D01*
X111165561Y-77880513D01*
X111016785Y-77875659D01*
X110925641Y-77861670D01*
X110836650Y-77843433D01*
X110749805Y-77820985D01*
X110665137Y-77794414D01*
X110582649Y-77763799D01*
X110502362Y-77729197D01*
X110424268Y-77690670D01*
X110348397Y-77648292D01*
X110274739Y-77602101D01*
X110203330Y-77552225D01*
X110134163Y-77498673D01*
X110067233Y-77441567D01*
X110002592Y-77380927D01*
X109940228Y-77316860D01*
X109880142Y-77249403D01*
X109822342Y-77178644D01*
X109774365Y-77103088D01*
X109730534Y-77025577D01*
X109690678Y-76946293D01*
X109654684Y-76865389D01*
X109622380Y-76782985D01*
X109593641Y-76699275D01*
X109568328Y-76614393D01*
X109546282Y-76528494D01*
X109527389Y-76441745D01*
X109511481Y-76354291D01*
X109498417Y-76266299D01*
X109488085Y-76177901D01*
X109480293Y-76089259D01*
X109474929Y-76000565D01*
X109471877Y-75911911D01*
X109470919Y-75823512D01*
X109470919Y-75777388D01*
X109473456Y-75631114D01*
X109479924Y-75485312D01*
X109489854Y-75339921D01*
X109502715Y-75194785D01*
X109517974Y-75049852D01*
X109535117Y-74905030D01*
X109572924Y-74615322D01*
X109577963Y-74577628D01*
X109583177Y-74539403D01*
X109625795Y-74225481D01*
X109634166Y-74165392D01*
X109643273Y-74100451D01*
X109652576Y-74035673D01*
X109668434Y-73917145D01*
X109682162Y-73798853D01*
X109693803Y-73680653D01*
X109703370Y-73562450D01*
X109710883Y-73444134D01*
X109716400Y-73325563D01*
X109719935Y-73206613D01*
X109721510Y-73087156D01*
X109721544Y-73074777D01*
X109721644Y-73062435D01*
X109721970Y-73037551D01*
X109721767Y-72905664D01*
X109717307Y-72769716D01*
X109712692Y-72700993D01*
X109706117Y-72632206D01*
X109697248Y-72563699D01*
X109685791Y-72495763D01*
X109671447Y-72428746D01*
X109653911Y-72362939D01*
X109632873Y-72298651D01*
X109608027Y-72236216D01*
X109579105Y-72175963D01*
X109545748Y-72118213D01*
X109507701Y-72063275D01*
X109486824Y-72036965D01*
X109464626Y-72011475D01*
X109443741Y-71994237D01*
X109423326Y-71978875D01*
X109403246Y-71965275D01*
X109383421Y-71953366D01*
X109363688Y-71942990D01*
X109343948Y-71934089D01*
X109324083Y-71926559D01*
X109303952Y-71920267D01*
X109283438Y-71915128D01*
X109262413Y-71911059D01*
X109240760Y-71907945D01*
X109218367Y-71905653D01*
X109195089Y-71904125D01*
X109170833Y-71903233D01*
X109145439Y-71902879D01*
X109118804Y-71902944D01*
X109081791Y-71908951D01*
X109044619Y-71916958D01*
X109007411Y-71926866D01*
X108970339Y-71938624D01*
X108933477Y-71952129D01*
X108896977Y-71967301D01*
X108860977Y-71984068D01*
X108825606Y-72002334D01*
X108790996Y-72022035D01*
X108757244Y-72043057D01*
X108724532Y-72065357D01*
X108692939Y-72088834D01*
X108662634Y-72113408D01*
X108633705Y-72138990D01*
X108606346Y-72165516D01*
X108580622Y-72192901D01*
X108543672Y-72251034D01*
X108511200Y-72311268D01*
X108483114Y-72373395D01*
X108459171Y-72437177D01*
X108439164Y-72502414D01*
X108422915Y-72568892D01*
X108410229Y-72636390D01*
X108400898Y-72704701D01*
X108394739Y-72773601D01*
X108391558Y-72842880D01*
X108391167Y-72912342D01*
X108393361Y-72981734D01*
X108397944Y-73050887D01*
X108404737Y-73119540D01*
X108413529Y-73187523D01*
X108424133Y-73254591D01*
X108452773Y-73398510D01*
X108466404Y-73483082D01*
X108476890Y-73568004D01*
X108484432Y-73653236D01*
X108489217Y-73738733D01*
X108491483Y-73824418D01*
X108491431Y-73910257D01*
X108489246Y-73996171D01*
X108485169Y-74082127D01*
X108472114Y-74253935D01*
X108453925Y-74425191D01*
X108432252Y-74595497D01*
X108408757Y-74764354D01*
X108367210Y-75071188D01*
X108348646Y-75224598D01*
X108332297Y-75378083D01*
X108318813Y-75531813D01*
X108308682Y-75685809D01*
X108302507Y-75840238D01*
X108300922Y-75995148D01*
X108300799Y-76007061D01*
X108300737Y-76019077D01*
X108300708Y-76043350D01*
X108302265Y-76142984D01*
X108307069Y-76245005D01*
X108311126Y-76296422D01*
X108316496Y-76347950D01*
X108323338Y-76399331D01*
X108331810Y-76450450D01*
X108342090Y-76501092D01*
X108354348Y-76551105D01*
X108368731Y-76600275D01*
X108385424Y-76648455D01*
X108404560Y-76695453D01*
X108426312Y-76741124D01*
X108450878Y-76785263D01*
X108478387Y-76827684D01*
X108497624Y-76845148D01*
X108516150Y-76860983D01*
X108534157Y-76875305D01*
X108551741Y-76888170D01*
X108569127Y-76899630D01*
X108586411Y-76909776D01*
X108603801Y-76918624D01*
X108621470Y-76926256D01*
X108639517Y-76932736D01*
X108658147Y-76938134D01*
X108677506Y-76942499D01*
X108697775Y-76945904D01*
X108719078Y-76948401D01*
X108741611Y-76950076D01*
X108765481Y-76950951D01*
X108790907Y-76951115D01*
X108807134Y-76949001D01*
X108823056Y-76946381D01*
X108838696Y-76943313D01*
X108854120Y-76939835D01*
X108869303Y-76935921D01*
X108884330Y-76931634D01*
X108899203Y-76926987D01*
X108913962Y-76922029D01*
X108943228Y-76911235D01*
X108972372Y-76899400D01*
X109001634Y-76886788D01*
X109031238Y-76873561D01*
X109049309Y-76866088D01*
X109067222Y-76859215D01*
X109085086Y-76852885D01*
X109103005Y-76847044D01*
X109121057Y-76841655D01*
X109139352Y-76836666D01*
X109157971Y-76832021D01*
X109177025Y-76827684D01*
X109192145Y-76852688D01*
X109207089Y-76877779D01*
X109236656Y-76928073D01*
X109253343Y-76956100D01*
X109270182Y-76984646D01*
X109277831Y-77002166D01*
X109280822Y-77009517D01*
X109283278Y-77016170D01*
X109285174Y-77022311D01*
X109285928Y-77025247D01*
X109286570Y-77028117D01*
X109287022Y-77030939D01*
X109287381Y-77033744D01*
X109287583Y-77036588D01*
X109287648Y-77039444D01*
X109287583Y-77042334D01*
X109287381Y-77045301D01*
X109287022Y-77048377D01*
X109286570Y-77051566D01*
X109285174Y-77058380D01*
X109283278Y-77065924D01*
X109280822Y-77074404D01*
X109277831Y-77083989D01*
X109270182Y-77107142D01*
X109253766Y-77121549D01*
X109237367Y-77135684D01*
X109220917Y-77149518D01*
X109204353Y-77163157D01*
X109187659Y-77176599D01*
X109170801Y-77189928D01*
X109153675Y-77203173D01*
X109136279Y-77216366D01*
X109115836Y-77231763D01*
X109095047Y-77247336D01*
X108989612Y-77323529D01*
X108881278Y-77397025D01*
X108770230Y-77467382D01*
X108656622Y-77534166D01*
X108540622Y-77596924D01*
X108422362Y-77655184D01*
X108302008Y-77708557D01*
X108179743Y-77756529D01*
X108055692Y-77798707D01*
X107930026Y-77834606D01*
X107802886Y-77863790D01*
X107674446Y-77885815D01*
X107544844Y-77900231D01*
X107414273Y-77906600D01*
X107282836Y-77904460D01*
X107150719Y-77893342D01*
X107067665Y-77879104D01*
X106986752Y-77861418D01*
X106907941Y-77840340D01*
X106831233Y-77815800D01*
X106756606Y-77787838D01*
X106684013Y-77756489D01*
X106613434Y-77721707D01*
X106544848Y-77683526D01*
X106478250Y-77641949D01*
X106413606Y-77596943D01*
X106350875Y-77548553D01*
X106290068Y-77496766D01*
X106231113Y-77441585D01*
X106174012Y-77383023D01*
X106118745Y-77321062D01*
X106065263Y-77255736D01*
X106005810Y-77168848D01*
X105951991Y-77081230D01*
X105903515Y-76992777D01*
X105860202Y-76903486D01*
X105821796Y-76813297D01*
X105788029Y-76722142D01*
X105758643Y-76630035D01*
X105733407Y-76536874D01*
X105712088Y-76442648D01*
X105694440Y-76347319D01*
X105680211Y-76250791D01*
X105669142Y-76153083D01*
X105660993Y-76054104D01*
X105655552Y-75953816D01*
X105652496Y-75852212D01*
X105651674Y-75749215D01*
X105651674Y-75685645D01*
X105653342Y-75549231D01*
X105657775Y-75413887D01*
X105664938Y-75279307D01*
X105674804Y-75145218D01*
X105687272Y-75011341D01*
X105702366Y-74877363D01*
X105720022Y-74743061D01*
X105740157Y-74608106D01*
X105753855Y-74518670D01*
X105767044Y-74429215D01*
X105792339Y-74250156D01*
X105816302Y-74082962D01*
X105831792Y-73964877D01*
X105844474Y-73846773D01*
X105854603Y-73728583D01*
X105862368Y-73610314D01*
X105868032Y-73491915D01*
X105871791Y-73373333D01*
X105873883Y-73254584D01*
X105874546Y-73135590D01*
X105875248Y-72989346D01*
X105874515Y-72855743D01*
X105869510Y-72721830D01*
X105864655Y-72655135D01*
X105857821Y-72588875D01*
X105848688Y-72523138D01*
X105836968Y-72458162D01*
X105822397Y-72394063D01*
X105804617Y-72331019D01*
X105783313Y-72269175D01*
X105758264Y-72208694D01*
X105729086Y-72149770D01*
X105695512Y-72092533D01*
X105657230Y-72037143D01*
X105613943Y-71983759D01*
X105590874Y-71968475D01*
X105567638Y-71955054D01*
X105544250Y-71943479D01*
X105520681Y-71933610D01*
X105496922Y-71925356D01*
X105472954Y-71918633D01*
X105448735Y-71913325D01*
X105424300Y-71909342D01*
X105399588Y-71906606D01*
X105374602Y-71905004D01*
X105349344Y-71904456D01*
X105323762Y-71904835D01*
X105297860Y-71906066D01*
X105271599Y-71908049D01*
X105245022Y-71910688D01*
X105218053Y-71913895D01*
X105190965Y-71922436D01*
X105164257Y-71931691D01*
X105138009Y-71941678D01*
X105112218Y-71952434D01*
X105086953Y-71964004D01*
X105062226Y-71976413D01*
X105038077Y-71989725D01*
X105014537Y-72003931D01*
X104991646Y-72019099D01*
X104969446Y-72035254D01*
X104947947Y-72052435D01*
X104927217Y-72070659D01*
X104907228Y-72089999D01*
X104888093Y-72110459D01*
X104869832Y-72132085D01*
X104852437Y-72154927D01*
X104838997Y-72181010D01*
X104826304Y-72206889D01*
X104814327Y-72232642D01*
X104803058Y-72258292D01*
X104792455Y-72283913D01*
X104782516Y-72309561D01*
X104773179Y-72335285D01*
X104764448Y-72361149D01*
X104756303Y-72387177D01*
X104748748Y-72413453D01*
X104741681Y-72440037D01*
X104735162Y-72466957D01*
X104729140Y-72494289D01*
X104723611Y-72522073D01*
X104713857Y-72579237D01*
X104709308Y-72607961D01*
X104704777Y-72637234D01*
X104694007Y-72723925D01*
X104685917Y-72810566D01*
X104680146Y-72897246D01*
X104676295Y-72983947D01*
X104673942Y-73070736D01*
X104672772Y-73157640D01*
X104672413Y-73331888D01*
X104671714Y-73480251D01*
X104670540Y-73878012D01*
X104669152Y-74295585D01*
X104667053Y-75084103D01*
X104663794Y-76150928D01*
X104659121Y-77829083D01*
X102074148Y-77829083D01*
X102074148Y-71424852D01*
X102376902Y-71424852D01*
X102379489Y-71465480D01*
X102382244Y-71506813D01*
X102389767Y-71597895D01*
X102399509Y-71688478D01*
X102405818Y-71733310D01*
X102413418Y-71777673D01*
X102422576Y-71821456D01*
X102433523Y-71864517D01*
X102446479Y-71906769D01*
X102461726Y-71948089D01*
X102479489Y-71988360D01*
X102500043Y-72027456D01*
X102523619Y-72065266D01*
X102550432Y-72101684D01*
X102580798Y-72136561D01*
X102597361Y-72153419D01*
X102614904Y-72169838D01*
X102667038Y-72203250D01*
X102720668Y-72232112D01*
X102775650Y-72256716D01*
X102831857Y-72277275D01*
X102889142Y-72294068D01*
X102947393Y-72307334D01*
X103006457Y-72317317D01*
X103066235Y-72324307D01*
X103126535Y-72328494D01*
X103187296Y-72330183D01*
X103248318Y-72329600D01*
X103309510Y-72327029D01*
X103370726Y-72322685D01*
X103431829Y-72316834D01*
X103553173Y-72301642D01*
X103618223Y-72286415D01*
X103682518Y-72268124D01*
X103746096Y-72247016D01*
X103808984Y-72223317D01*
X103871148Y-72197296D01*
X103932629Y-72169139D01*
X103993404Y-72139109D01*
X104053556Y-72107411D01*
X104113031Y-72074318D01*
X104171899Y-72040077D01*
X104287711Y-71968988D01*
X104512188Y-71823066D01*
X104668382Y-71723693D01*
X104746044Y-71677138D01*
X104823683Y-71632928D01*
X104901539Y-71591229D01*
X104979827Y-71552201D01*
X105058739Y-71516027D01*
X105138480Y-71482901D01*
X105219313Y-71452953D01*
X105301388Y-71426396D01*
X105384932Y-71403378D01*
X105470182Y-71384096D01*
X105557359Y-71368739D01*
X105646634Y-71357420D01*
X105738225Y-71350375D01*
X105832393Y-71347751D01*
X105856479Y-71347555D01*
X105881068Y-71347521D01*
X105989717Y-71348902D01*
X106097163Y-71353251D01*
X106203700Y-71360717D01*
X106309579Y-71371374D01*
X106415026Y-71385331D01*
X106520398Y-71402702D01*
X106625894Y-71423632D01*
X106731776Y-71448125D01*
X106817236Y-71468618D01*
X106890781Y-71490257D01*
X106962979Y-71514514D01*
X107033850Y-71541338D01*
X107103426Y-71570614D01*
X107171738Y-71602244D01*
X107238837Y-71636125D01*
X107304749Y-71672150D01*
X107369484Y-71710224D01*
X107433109Y-71750272D01*
X107495637Y-71792183D01*
X107557103Y-71835830D01*
X107617543Y-71881130D01*
X107676959Y-71927989D01*
X107735416Y-71976312D01*
X107792973Y-72025976D01*
X107849607Y-72076897D01*
X107879711Y-72065220D01*
X107909155Y-72053000D01*
X107938023Y-72040217D01*
X107966450Y-72026820D01*
X107994557Y-72012738D01*
X108022449Y-71997953D01*
X108050253Y-71982410D01*
X108078050Y-71966051D01*
X108109683Y-71947170D01*
X108141869Y-71928112D01*
X108175251Y-71908048D01*
X108209174Y-71887832D01*
X108347966Y-71805134D01*
X108528916Y-71697313D01*
X108601058Y-71655290D01*
X108672047Y-71615871D01*
X108742174Y-71579045D01*
X108811735Y-71544872D01*
X108880957Y-71513362D01*
X108950132Y-71484521D01*
X109019552Y-71458379D01*
X109089463Y-71434943D01*
X109160154Y-71414256D01*
X109231897Y-71396330D01*
X109304953Y-71381163D01*
X109379612Y-71368815D01*
X109456134Y-71359262D01*
X109534793Y-71352575D01*
X109615854Y-71348725D01*
X109699613Y-71347751D01*
X109749929Y-71347751D01*
X109887011Y-71350892D01*
X110022759Y-71359016D01*
X110156991Y-71372308D01*
X110289600Y-71390925D01*
X110420374Y-71415050D01*
X110549220Y-71444847D01*
X110675963Y-71480472D01*
X110800451Y-71522134D01*
X110922538Y-71569965D01*
X111042064Y-71624162D01*
X111158915Y-71684873D01*
X111272878Y-71752280D01*
X111383851Y-71826558D01*
X111491689Y-71907860D01*
X111596190Y-71996374D01*
X111697269Y-72092295D01*
X111780113Y-72185373D01*
X111855896Y-72282278D01*
X111924866Y-72382753D01*
X111987200Y-72486525D01*
X112043174Y-72593303D01*
X112093001Y-72702829D01*
X112136902Y-72814852D01*
X112175118Y-72929080D01*
X112207865Y-73045271D01*
X112235389Y-73163121D01*
X112257916Y-73282401D01*
X112275656Y-73402818D01*
X112288844Y-73524120D01*
X112297728Y-73646018D01*
X112302517Y-73768275D01*
X112303460Y-73890584D01*
X112303438Y-73914907D01*
X112303225Y-73939720D01*
X112300993Y-74259988D01*
X112297919Y-74365551D01*
X112292409Y-74446795D01*
X112288423Y-74481103D01*
X112283491Y-74512715D01*
X112277500Y-74542731D01*
X112270340Y-74572281D01*
X112252076Y-74634538D01*
X112227776Y-74708464D01*
X112192926Y-74927071D01*
X112164216Y-75151821D01*
X112153684Y-75265522D01*
X112146536Y-75379588D01*
X112143413Y-75493632D01*
X112144884Y-75607237D01*
X112151626Y-75720063D01*
X112164220Y-75831661D01*
X112183293Y-75941681D01*
X112209461Y-76049695D01*
X112243368Y-76155352D01*
X112285588Y-76258257D01*
X112336771Y-76357969D01*
X112365915Y-76406523D01*
X112397546Y-76454148D01*
X112409810Y-76468427D01*
X112422338Y-76482217D01*
X112435121Y-76495621D01*
X112448171Y-76508588D01*
X112461468Y-76521190D01*
X112475000Y-76533434D01*
X112488810Y-76545333D01*
X112502830Y-76556939D01*
X112517108Y-76568240D01*
X112531635Y-76579290D01*
X112546397Y-76590100D01*
X112561399Y-76600698D01*
X112592045Y-76621329D01*
X112623671Y-76641367D01*
X112665597Y-76667702D01*
X112693782Y-76677856D01*
X112722842Y-76686323D01*
X112752609Y-76693186D01*
X112782997Y-76698488D01*
X112813850Y-76702232D01*
X112845067Y-76704516D01*
X112876522Y-76705362D01*
X112908086Y-76704849D01*
X112939615Y-76702977D01*
X112971030Y-76699847D01*
X113002156Y-76695454D01*
X113032899Y-76689909D01*
X113063131Y-76683205D01*
X113092718Y-76675417D01*
X113121567Y-76666578D01*
X113149527Y-76656763D01*
X113185569Y-76637975D01*
X113221426Y-76618702D01*
X113257007Y-76598958D01*
X113292276Y-76578745D01*
X113309969Y-76568683D01*
X113317308Y-76564598D01*
X113323840Y-76561106D01*
X113329686Y-76558155D01*
X113335038Y-76555690D01*
X113340022Y-76553672D01*
X113344749Y-76552046D01*
X113349422Y-76550784D01*
X113354166Y-76549842D01*
X113359116Y-76549174D01*
X113364420Y-76548708D01*
X113370246Y-76548427D01*
X113376688Y-76548288D01*
X113392179Y-76548234D01*
X113385874Y-76530275D01*
X113382642Y-76521218D01*
X113379361Y-76512130D01*
X113363800Y-76462667D01*
X113349523Y-76413129D01*
X113336427Y-76363456D01*
X113324373Y-76313605D01*
X113313282Y-76263533D01*
X113303042Y-76213210D01*
X113293505Y-76162567D01*
X113284591Y-76111581D01*
X113275749Y-76062199D01*
X113259895Y-75952308D01*
X113247830Y-75842179D01*
X113239024Y-75731835D01*
X113232983Y-75621330D01*
X113229260Y-75510684D01*
X113227270Y-75399924D01*
X113226586Y-75178189D01*
X113226586Y-75063838D01*
X113226840Y-74756453D01*
X113227055Y-74434132D01*
X113227543Y-73824930D01*
X113228007Y-73130704D01*
X113229157Y-71704297D01*
X112414077Y-71704297D01*
X112414077Y-71424852D01*
X112524228Y-71424145D01*
X112729983Y-71422389D01*
X112935742Y-71419950D01*
X113024104Y-71419073D01*
X113112500Y-71418561D01*
X113379971Y-71412202D01*
X113514157Y-71404687D01*
X113648127Y-71393651D01*
X113781543Y-71378587D01*
X113914013Y-71358989D01*
X114045171Y-71334383D01*
X114174660Y-71304272D01*
X114302111Y-71268158D01*
X114427141Y-71225548D01*
X114549405Y-71175969D01*
X114668525Y-71118888D01*
X114784121Y-71053871D01*
X114895847Y-70980396D01*
X115003335Y-70897963D01*
X115106183Y-70806087D01*
X115155823Y-70752832D01*
X115201980Y-70698005D01*
X115244765Y-70641636D01*
X115284283Y-70583792D01*
X115320617Y-70524533D01*
X115353795Y-70463925D01*
X115384010Y-70401992D01*
X115411263Y-70338806D01*
X115435701Y-70274414D01*
X115457370Y-70208875D01*
X115476379Y-70142247D01*
X115492831Y-70074594D01*
X115506784Y-70005963D01*
X115518361Y-69936373D01*
X115527644Y-69865941D01*
X115534684Y-69794683D01*
X115814130Y-69794683D01*
X115814130Y-71424852D01*
G37*
G36*
X53964377Y-98434842D02*
G01*
X54018672Y-98438882D01*
X54072506Y-98445569D01*
X54125789Y-98454866D01*
X54178429Y-98466735D01*
X54230336Y-98481140D01*
X54281421Y-98498042D01*
X54331593Y-98517405D01*
X54380761Y-98539190D01*
X54428835Y-98563361D01*
X54475725Y-98589879D01*
X54521340Y-98618708D01*
X54565590Y-98649811D01*
X54608385Y-98683148D01*
X54649634Y-98718685D01*
X54689247Y-98756382D01*
X54726944Y-98795995D01*
X54762480Y-98837244D01*
X54795818Y-98880038D01*
X54826920Y-98924289D01*
X54855749Y-98969904D01*
X54882268Y-99016794D01*
X54906438Y-99064868D01*
X54928224Y-99114036D01*
X54947586Y-99164207D01*
X54964489Y-99215292D01*
X54978893Y-99267200D01*
X54990763Y-99319840D01*
X55000060Y-99373122D01*
X55006747Y-99426956D01*
X55010786Y-99481251D01*
X55012141Y-99535918D01*
X55011223Y-99581374D01*
X55008494Y-99626357D01*
X55003987Y-99670831D01*
X54997739Y-99714761D01*
X54989784Y-99758114D01*
X54980159Y-99800853D01*
X54968899Y-99842945D01*
X54956038Y-99884355D01*
X54941612Y-99925047D01*
X54925657Y-99964988D01*
X54908208Y-100004143D01*
X54889300Y-100042476D01*
X54868968Y-100079953D01*
X54847248Y-100116540D01*
X54824176Y-100152202D01*
X54799786Y-100186903D01*
X54774113Y-100220610D01*
X54747194Y-100253287D01*
X54719063Y-100284900D01*
X54689756Y-100315414D01*
X54659308Y-100344794D01*
X54627754Y-100373006D01*
X54595130Y-100400015D01*
X54561471Y-100425786D01*
X54526813Y-100450284D01*
X54491190Y-100473476D01*
X54454638Y-100495325D01*
X54417193Y-100515798D01*
X54378889Y-100534859D01*
X54339762Y-100552474D01*
X54299848Y-100568608D01*
X54259181Y-100583227D01*
X54254023Y-100584026D01*
X54249086Y-100584570D01*
X54244368Y-100584867D01*
X54239865Y-100584928D01*
X54235572Y-100584760D01*
X54231487Y-100584375D01*
X54227604Y-100583780D01*
X54223921Y-100582986D01*
X54220433Y-100582000D01*
X54217136Y-100580834D01*
X54214028Y-100579496D01*
X54211103Y-100577994D01*
X54208358Y-100576340D01*
X54205790Y-100574541D01*
X54203393Y-100572608D01*
X54201166Y-100570549D01*
X54199103Y-100568373D01*
X54197201Y-100566091D01*
X54195456Y-100563711D01*
X54193864Y-100561243D01*
X54192422Y-100558695D01*
X54191125Y-100556078D01*
X54189970Y-100553400D01*
X54188953Y-100550671D01*
X54188070Y-100547899D01*
X54187317Y-100545095D01*
X54186186Y-100539427D01*
X54185530Y-100533738D01*
X54185318Y-100528105D01*
X54185318Y-100226039D01*
X54185213Y-100216531D01*
X54184900Y-100207228D01*
X54184386Y-100198132D01*
X54183678Y-100189241D01*
X54182780Y-100180556D01*
X54181699Y-100172074D01*
X54179014Y-100155725D01*
X54175669Y-100140189D01*
X54171715Y-100125464D01*
X54167198Y-100111546D01*
X54162167Y-100098433D01*
X54156672Y-100086120D01*
X54150760Y-100074606D01*
X54144479Y-100063886D01*
X54137879Y-100053957D01*
X54131008Y-100044816D01*
X54123914Y-100036460D01*
X54116645Y-100028886D01*
X54109251Y-100022090D01*
X54155422Y-100016095D01*
X54201482Y-100008191D01*
X54247035Y-99997990D01*
X54291686Y-99985106D01*
X54335038Y-99969155D01*
X54376696Y-99949749D01*
X54396766Y-99938630D01*
X54416264Y-99926503D01*
X54435141Y-99913319D01*
X54453347Y-99899031D01*
X54470833Y-99883589D01*
X54487549Y-99866946D01*
X54503446Y-99849054D01*
X54518474Y-99829864D01*
X54532585Y-99809328D01*
X54545727Y-99787397D01*
X54557853Y-99764025D01*
X54568913Y-99739161D01*
X54578856Y-99712758D01*
X54587634Y-99684769D01*
X54595198Y-99655143D01*
X54601497Y-99623834D01*
X54606482Y-99590793D01*
X54610104Y-99555972D01*
X54612314Y-99519322D01*
X54613061Y-99480796D01*
X54612574Y-99458135D01*
X54611121Y-99436036D01*
X54608723Y-99414492D01*
X54605396Y-99393497D01*
X54601158Y-99373045D01*
X54596028Y-99353130D01*
X54590022Y-99333743D01*
X54583158Y-99314880D01*
X54575455Y-99296534D01*
X54566929Y-99278698D01*
X54557600Y-99261366D01*
X54547484Y-99244531D01*
X54536599Y-99228188D01*
X54524964Y-99212328D01*
X54512595Y-99196947D01*
X54499511Y-99182037D01*
X54504689Y-99167723D01*
X54510966Y-99145864D01*
X54514052Y-99132299D01*
X54516855Y-99117080D01*
X54519190Y-99100285D01*
X54520871Y-99081992D01*
X54521712Y-99062277D01*
X54521527Y-99041219D01*
X54520132Y-99018895D01*
X54517339Y-98995382D01*
X54512964Y-98970758D01*
X54506821Y-98945101D01*
X54498724Y-98918488D01*
X54488487Y-98890996D01*
X54484096Y-98889995D01*
X54470727Y-98888567D01*
X54460583Y-98888432D01*
X54448082Y-98889077D01*
X54433188Y-98890798D01*
X54415864Y-98893890D01*
X54396072Y-98898648D01*
X54373776Y-98905368D01*
X54348937Y-98914346D01*
X54321520Y-98925877D01*
X54291487Y-98940257D01*
X54258800Y-98957781D01*
X54223423Y-98978745D01*
X54185318Y-99003444D01*
X54152314Y-98994917D01*
X54118690Y-98987527D01*
X54084549Y-98981275D01*
X54049995Y-98976159D01*
X54015131Y-98972179D01*
X53980060Y-98969337D01*
X53944885Y-98967632D01*
X53909711Y-98967063D01*
X53874536Y-98967632D01*
X53839362Y-98969337D01*
X53804291Y-98972179D01*
X53769426Y-98976159D01*
X53734872Y-98981275D01*
X53700731Y-98987527D01*
X53667107Y-98994917D01*
X53634103Y-99003444D01*
X53614707Y-98990609D01*
X53595998Y-98978745D01*
X53577971Y-98967814D01*
X53560621Y-98957781D01*
X53543944Y-98948608D01*
X53527935Y-98940257D01*
X53512589Y-98932693D01*
X53497901Y-98925877D01*
X53483868Y-98919774D01*
X53470484Y-98914346D01*
X53457745Y-98909557D01*
X53445646Y-98905368D01*
X53434182Y-98901744D01*
X53423349Y-98898648D01*
X53413142Y-98896042D01*
X53403557Y-98893890D01*
X53394589Y-98892154D01*
X53386233Y-98890798D01*
X53378485Y-98889785D01*
X53371339Y-98889077D01*
X53364792Y-98888639D01*
X53358839Y-98888432D01*
X53348694Y-98888567D01*
X53340869Y-98889186D01*
X53335325Y-98889995D01*
X53330935Y-98890996D01*
X53325537Y-98904847D01*
X53320698Y-98918488D01*
X53316393Y-98931909D01*
X53312600Y-98945101D01*
X53309296Y-98958054D01*
X53306457Y-98970758D01*
X53304060Y-98983204D01*
X53302082Y-98995382D01*
X53300500Y-99007282D01*
X53299290Y-99018895D01*
X53298429Y-99030210D01*
X53297894Y-99041219D01*
X53297710Y-99062277D01*
X53298551Y-99081992D01*
X53300232Y-99100285D01*
X53302566Y-99117080D01*
X53305370Y-99132299D01*
X53308455Y-99145864D01*
X53311638Y-99157698D01*
X53314732Y-99167723D01*
X53319910Y-99182037D01*
X53306826Y-99196947D01*
X53294457Y-99212328D01*
X53282822Y-99228188D01*
X53271937Y-99244531D01*
X53261821Y-99261366D01*
X53252492Y-99278698D01*
X53243967Y-99296534D01*
X53236263Y-99314880D01*
X53229400Y-99333743D01*
X53223394Y-99353130D01*
X53218263Y-99373045D01*
X53214025Y-99393497D01*
X53210698Y-99414492D01*
X53208300Y-99436036D01*
X53206848Y-99458135D01*
X53206360Y-99480796D01*
X53207104Y-99519229D01*
X53209304Y-99555803D01*
X53212911Y-99590566D01*
X53217875Y-99623565D01*
X53224147Y-99654848D01*
X53231678Y-99684461D01*
X53240419Y-99712452D01*
X53250319Y-99738868D01*
X53261331Y-99763757D01*
X53273405Y-99787165D01*
X53286491Y-99809140D01*
X53300540Y-99829728D01*
X53315504Y-99848978D01*
X53331332Y-99866937D01*
X53347976Y-99883651D01*
X53365386Y-99899169D01*
X53383513Y-99913536D01*
X53402307Y-99926801D01*
X53421721Y-99939011D01*
X53441703Y-99950212D01*
X53462206Y-99960453D01*
X53483179Y-99969780D01*
X53526340Y-99985882D01*
X53570794Y-99998896D01*
X53616145Y-100009201D01*
X53662001Y-100017173D01*
X53707966Y-100023192D01*
X53702208Y-100028606D01*
X53696526Y-100034513D01*
X53690944Y-100040919D01*
X53685487Y-100047824D01*
X53680178Y-100055234D01*
X53675042Y-100063151D01*
X53670102Y-100071578D01*
X53665385Y-100080518D01*
X53660912Y-100089976D01*
X53656709Y-100099953D01*
X53652800Y-100110454D01*
X53649210Y-100121481D01*
X53645961Y-100133037D01*
X53643080Y-100145127D01*
X53640589Y-100157753D01*
X53638513Y-100170918D01*
X53625608Y-100176091D01*
X53610620Y-100181455D01*
X53593792Y-100186658D01*
X53575364Y-100191347D01*
X53555580Y-100195171D01*
X53534682Y-100197777D01*
X53512912Y-100198813D01*
X53501775Y-100198632D01*
X53490511Y-100197927D01*
X53479151Y-100196654D01*
X53467724Y-100194768D01*
X53456260Y-100192226D01*
X53444791Y-100188983D01*
X53433345Y-100184996D01*
X53421955Y-100180220D01*
X53410649Y-100174612D01*
X53399458Y-100168127D01*
X53388412Y-100160722D01*
X53377542Y-100152352D01*
X53366878Y-100142974D01*
X53356450Y-100132544D01*
X53346288Y-100121017D01*
X53336424Y-100108349D01*
X53326886Y-100094497D01*
X53317705Y-100079416D01*
X53314980Y-100074853D01*
X53306853Y-100062759D01*
X53300790Y-100054634D01*
X53293405Y-100045523D01*
X53284708Y-100035723D01*
X53274711Y-100025535D01*
X53263421Y-100015256D01*
X53250849Y-100005185D01*
X53237005Y-99995621D01*
X53229608Y-99991123D01*
X53221897Y-99986863D01*
X53213873Y-99982880D01*
X53205537Y-99979210D01*
X53196890Y-99975891D01*
X53187933Y-99972960D01*
X53178668Y-99970455D01*
X53169095Y-99968413D01*
X53159217Y-99966870D01*
X53149034Y-99965866D01*
X53144587Y-99965904D01*
X53133720Y-99966589D01*
X53127037Y-99967440D01*
X53120140Y-99968772D01*
X53113491Y-99970692D01*
X53110405Y-99971906D01*
X53107555Y-99973307D01*
X53104998Y-99974908D01*
X53102794Y-99976722D01*
X53100999Y-99978764D01*
X53099672Y-99981046D01*
X53098870Y-99983581D01*
X53098653Y-99986383D01*
X53099076Y-99989465D01*
X53100199Y-99992841D01*
X53102080Y-99996523D01*
X53104776Y-100000526D01*
X53108345Y-100004862D01*
X53112845Y-100009545D01*
X53118334Y-100014588D01*
X53124871Y-100020005D01*
X53132512Y-100025808D01*
X53141317Y-100032011D01*
X53144495Y-100033730D01*
X53153306Y-100039349D01*
X53159484Y-100043840D01*
X53166664Y-100049568D01*
X53174709Y-100056621D01*
X53183485Y-100065084D01*
X53192854Y-100075047D01*
X53202682Y-100086595D01*
X53212834Y-100099816D01*
X53223172Y-100114797D01*
X53233562Y-100131626D01*
X53243868Y-100150389D01*
X53253955Y-100171174D01*
X53263686Y-100194069D01*
X53267078Y-100203129D01*
X53271702Y-100213370D01*
X53278621Y-100226453D01*
X53288091Y-100241654D01*
X53300370Y-100258251D01*
X53315714Y-100275519D01*
X53334380Y-100292736D01*
X53345039Y-100301099D01*
X53356624Y-100309178D01*
X53369168Y-100316882D01*
X53382704Y-100324121D01*
X53397262Y-100330805D01*
X53412875Y-100336842D01*
X53429576Y-100342143D01*
X53447396Y-100346617D01*
X53466367Y-100350175D01*
X53486522Y-100352724D01*
X53507893Y-100354175D01*
X53530511Y-100354438D01*
X53554409Y-100353422D01*
X53579619Y-100351036D01*
X53606173Y-100347190D01*
X53634103Y-100341794D01*
X53634103Y-100528105D01*
X53633891Y-100533726D01*
X53633237Y-100539381D01*
X53632112Y-100545001D01*
X53630486Y-100550516D01*
X53629476Y-100553212D01*
X53628330Y-100555856D01*
X53627044Y-100558439D01*
X53625615Y-100560952D01*
X53624039Y-100563387D01*
X53622313Y-100565735D01*
X53620432Y-100567987D01*
X53618393Y-100570135D01*
X53616193Y-100572170D01*
X53613828Y-100574083D01*
X53611294Y-100575866D01*
X53608588Y-100577510D01*
X53605705Y-100579006D01*
X53602643Y-100580345D01*
X53599398Y-100581520D01*
X53595966Y-100582520D01*
X53592343Y-100583339D01*
X53588526Y-100583965D01*
X53584511Y-100584393D01*
X53580295Y-100584611D01*
X53575874Y-100584613D01*
X53571243Y-100584388D01*
X53566401Y-100583929D01*
X53561343Y-100583227D01*
X53480749Y-100552655D01*
X53403284Y-100516114D01*
X53329232Y-100473885D01*
X53258880Y-100426251D01*
X53192514Y-100373494D01*
X53130419Y-100315898D01*
X53072882Y-100253744D01*
X53020187Y-100187316D01*
X52972621Y-100116896D01*
X52930470Y-100042767D01*
X52894020Y-99965210D01*
X52863556Y-99884510D01*
X52839364Y-99800948D01*
X52821730Y-99714806D01*
X52810940Y-99626369D01*
X52808201Y-99581377D01*
X52807280Y-99535918D01*
X52808635Y-99481251D01*
X52812675Y-99426956D01*
X52819362Y-99373122D01*
X52828659Y-99319840D01*
X52840528Y-99267200D01*
X52854933Y-99215292D01*
X52871835Y-99164207D01*
X52891198Y-99114036D01*
X52912983Y-99064868D01*
X52937154Y-99016794D01*
X52963672Y-98969904D01*
X52992501Y-98924289D01*
X53023604Y-98880038D01*
X53056941Y-98837244D01*
X53092478Y-98795995D01*
X53130175Y-98756382D01*
X53169788Y-98718685D01*
X53211037Y-98683148D01*
X53253831Y-98649811D01*
X53298082Y-98618708D01*
X53343697Y-98589879D01*
X53390587Y-98563361D01*
X53438661Y-98539190D01*
X53487829Y-98517405D01*
X53538000Y-98498042D01*
X53589085Y-98481140D01*
X53640993Y-98466735D01*
X53693633Y-98454866D01*
X53746915Y-98445569D01*
X53800749Y-98438882D01*
X53855044Y-98434842D01*
X53909711Y-98433487D01*
X53964377Y-98434842D01*
G37*
M02*
